<svg id="safir_Logo_RGB" xmlns="http://www.w3.org/2000/svg" viewBox="0 0 308.5 164.53"><defs><style>.cls-1{fill:#4cbadf;}.cls-2{fill:#19a7d6;}.cls-3{fill:#009dd1;}</style></defs><title>safir_logo_rgb_ohne Rand</title><path class="cls-1" d="M280.58,140.46h-7.82v1.35h3v10.27h1.6V141.81h3ZM268,143.71a2.13,2.13,0,0,1-.58,1.57,2.7,2.7,0,0,1-2,.56h-1.14v-4h1.22a3.92,3.92,0,0,1,1.42.22,1.77,1.77,0,0,1,1.08,1.7m2.28,8.37-1.69-2.69c-.39-.61-.74-1.11-1-1.44a5.41,5.41,0,0,0-1-1.08,3,3,0,0,0,3.11-3.18,3.2,3.2,0,0,0-1-2.39,3.78,3.78,0,0,0-2.75-.84h-3.26v11.62h1.62v-5.15a1.32,1.32,0,0,1,1.05.52,15.83,15.83,0,0,1,2,2.9c.47.79.63,1.06,1,1.72h2Zm-13.59-5.59c0,3.24-1,4.54-2.84,4.54-2.28,0-3-2-3-5s.83-4.53,2.89-4.53,2.92,1.82,2.92,5m1.86-.15c0-3.25-1.35-6.1-4.78-6.1-2.86,0-4.71,2.14-4.71,6,0,3.5,1.58,6,4.8,6,3,0,4.69-2.36,4.69-5.93M244,144a2.33,2.33,0,0,1-.49,1.53,1.91,1.91,0,0,1-1.67.66H240v-4.41h1.52a2.58,2.58,0,0,1,1.89.57A2.16,2.16,0,0,1,244,144m1.8-.19a3.18,3.18,0,0,0-1.54-2.83,4.72,4.72,0,0,0-2.77-.54h-3.11v11.62H240v-4.56h1.93a3.57,3.57,0,0,0,2.45-.71,3.37,3.37,0,0,0,1.42-3M233,144a2.31,2.31,0,0,1-.49,1.53,1.91,1.91,0,0,1-1.68.66H229v-4.41h1.52a2.58,2.58,0,0,1,1.89.57A2.16,2.16,0,0,1,233,144m1.8-.19a3.18,3.18,0,0,0-1.53-2.83,4.74,4.74,0,0,0-2.77-.54h-3.11v11.62H229v-4.56h1.92a3.58,3.58,0,0,0,2.45-.71,3.37,3.37,0,0,0,1.41-3m-12,4.61v-8h-1.62v7.74a3.2,3.2,0,0,1-.42,1.92,2.25,2.25,0,0,1-1.89.76,2.35,2.35,0,0,1-1.84-.66,4.25,4.25,0,0,1-.42-2.26v-7.51H215v8.11a3.45,3.45,0,0,0,.37,2.07c.59,1.06,1.76,1.62,3.51,1.62a4,4,0,0,0,3.35-1.37c.52-.64.61-1,.61-2.46m-11.7.25c0-1.81-1.28-2.82-2.84-3.28l-1.37-.4c-1.25-.37-1.72-.85-1.72-1.67,0-1.08.81-1.76,2.11-1.76a4.89,4.89,0,0,1,2.77.91l.73-1.15a6.18,6.18,0,0,0-3.57-1.1c-2.3,0-3.85,1.37-3.85,3.38,0,1.65,1,2.5,2.75,3l1.22.35c1.3.37,1.93,1,1.93,2,0,1.25-1,2-2.52,2a5.72,5.72,0,0,1-3.14-1l-.64,1.25a7.12,7.12,0,0,0,3.75,1c3.06,0,4.4-2,4.4-3.61m-17,2.63v-5.44h-4l.27,1.33h2.15v3.31a3.47,3.47,0,0,1-1.72.44,3.21,3.21,0,0,1-2.5-1,5.93,5.93,0,0,1-.83-3.51,6.67,6.67,0,0,1,.64-3.33,2.56,2.56,0,0,1,2.5-1.49,4,4,0,0,1,2.48.88l.77-1a4.86,4.86,0,0,0-3.29-1.16,4.38,4.38,0,0,0-2.93,1,6.06,6.06,0,0,0-2,5,6.3,6.3,0,0,0,1.35,4.36,4.59,4.59,0,0,0,3.68,1.57,6.68,6.68,0,0,0,3.45-.93m-12.59.76V140.46h-1.57l0,5.7c0,1.28.13,3.12.17,3.46l-.1,0a22.2,22.2,0,0,0-1.15-2.78l-3.25-6.41h-1.89v11.62h1.64l-.07-6.1c0-1.08-.05-2.24-.14-3.24l.1,0a31.13,31.13,0,0,0,1.42,3.19l3.06,6.17h1.74Zm-12.34-11.62H167.5v11.62h1.65Zm-7.57,6a6.28,6.28,0,0,1-.63,3,2.74,2.74,0,0,1-2.72,1.3h-1.28v-9h1.32a2.7,2.7,0,0,1,2.45,1,5.78,5.78,0,0,1,.86,3.7m1.8-.2a6.62,6.62,0,0,0-1-3.9c-1.07-1.47-2.35-1.92-4.36-1.92h-2.7v11.62h2.9c2,0,3.11-.56,3.92-1.57a6.56,6.56,0,0,0,1.26-4.23m-12.7,5.8V140.46h-1.57l0,5.7c0,1.28.14,3.12.17,3.46l-.1,0a22.29,22.29,0,0,0-1.15-2.78l-3.25-6.41h-1.89v11.62h1.64l-.07-6.1c0-1.08-.05-2.24-.13-3.24l.1,0a31.45,31.45,0,0,0,1.42,3.19l3.06,6.17h1.74Zm-12.3-3.64v-8h-1.62v7.74a3.21,3.21,0,0,1-.42,1.92,2.26,2.26,0,0,1-1.9.76,2.34,2.34,0,0,1-1.84-.66,4.25,4.25,0,0,1-.42-2.26v-7.51h-1.64v8.11a3.46,3.46,0,0,0,.37,2.07c.59,1.06,1.76,1.62,3.51,1.62a4,4,0,0,0,3.35-1.37c.53-.64.61-1,.61-2.46m-11.1-8h-6.06v11.62h1.64v-5.46h3.45v-1.31h-3.45v-3.52h4.21Zm-15.64,11.62V140.46H110v4.76h-4.45v-4.76H104v11.62h1.6v-5.52H110v5.52Zm-11.43-.79-.79-1.06a3.2,3.2,0,0,1-2.15.73,3,3,0,0,1-2.85-1.89,6.67,6.67,0,0,1-.42-2.74,6.93,6.93,0,0,1,.56-3.13,2.78,2.78,0,0,1,2.59-1.67,3.29,3.29,0,0,1,2.06.68l.79-1.07a4.57,4.57,0,0,0-2.85-.91A4.69,4.69,0,0,0,93,142.89a7.49,7.49,0,0,0-.76,3.46,6.62,6.62,0,0,0,1.27,4.15,4.42,4.42,0,0,0,3.62,1.74,5.31,5.31,0,0,0,3.14-1M87,143.71a2.13,2.13,0,0,1-.57,1.57,2.71,2.71,0,0,1-2,.56H83.26v-4h1.22a3.93,3.93,0,0,1,1.42.22,1.77,1.77,0,0,1,1.08,1.7m2.28,8.37c-.24-.37-1.18-1.89-1.69-2.69-.39-.61-.74-1.11-1-1.44a5.4,5.4,0,0,0-1-1.08,3,3,0,0,0,3.11-3.18,3.2,3.2,0,0,0-1-2.39,3.77,3.77,0,0,0-2.75-.84H81.64v11.62h1.62v-5.15a1.31,1.31,0,0,1,1,.52,15.82,15.82,0,0,1,2,2.9c.47.79.63,1.06,1,1.72h2ZM75,147.44H71.75c.2-.56,1.44-4.73,1.6-5.39h.1c.15.68,1.37,4.85,1.57,5.39m3.21,4.64-3.75-11.65h-2l-3.82,11.65h1.69l1-3.29h4l1,3.29Zm-12.5,0v-1.4H60.88v-4h3.73v-1.37H60.86V141.8h4.48l.22-1.33H59.22v11.62h6.52Zm-10.46-3.39c0-1.81-1.28-2.82-2.84-3.28l-1.37-.4c-1.25-.37-1.72-.85-1.72-1.67,0-1.08.81-1.76,2.11-1.76a4.89,4.89,0,0,1,2.77.91l.73-1.15a6.18,6.18,0,0,0-3.56-1.1c-2.3,0-3.85,1.37-3.85,3.38,0,1.65,1,2.5,2.75,3l1.22.35c1.3.37,1.93,1,1.93,2,0,1.25-1,2-2.52,2a5.73,5.73,0,0,1-3.14-1l-.64,1.25a7.12,7.12,0,0,0,3.75,1c3.06,0,4.39-2,4.39-3.61m-11.49,3.39v-1.4H38.93v-4h3.73v-1.37H38.91V141.8h4.48l.22-1.33H37.27v11.62h6.52Zm-12.37-8.37a2.13,2.13,0,0,1-.57,1.57,2.71,2.71,0,0,1-2,.56H27.7v-4h1.22a3.93,3.93,0,0,1,1.42.22,1.77,1.77,0,0,1,1.08,1.7m2.28,8.37c-.24-.37-1.18-1.89-1.69-2.69-.39-.61-.74-1.11-1-1.44a5.44,5.44,0,0,0-1-1.08,3,3,0,0,0,3.11-3.18,3.21,3.21,0,0,0-1-2.39,3.78,3.78,0,0,0-2.76-.84H26.09v11.62h1.62v-5.15a1.31,1.31,0,0,1,1,.52,15.67,15.67,0,0,1,2,2.9c.47.79.63,1.06,1,1.72h2Z"/><path class="cls-2" d="M278.89,131.05v-5.44h-4l.27,1.33h2.15v3.31a3.47,3.47,0,0,1-1.73.44,3.21,3.21,0,0,1-2.5-1,5.94,5.94,0,0,1-.83-3.51,6.67,6.67,0,0,1,.64-3.33,2.56,2.56,0,0,1,2.5-1.49,4,4,0,0,1,2.48.88l.78-1a4.87,4.87,0,0,0-3.3-1.16,4.37,4.37,0,0,0-2.92,1,6.05,6.05,0,0,0-2,5,6.3,6.3,0,0,0,1.35,4.36,4.6,4.6,0,0,0,3.68,1.57,6.67,6.67,0,0,0,3.45-.93m-11.79.76V120.19h-1.57l0,5.7c0,1.28.14,3.12.17,3.46l-.1,0a22.54,22.54,0,0,0-1.15-2.78l-3.25-6.41h-1.89v11.62H261l-.07-6.11c0-1.08-.05-2.24-.14-3.24l.1,0a31.13,31.13,0,0,0,1.42,3.19l3.06,6.17Zm-11.5-3.64v-8H254v7.74a3.22,3.22,0,0,1-.42,1.93,2.27,2.27,0,0,1-1.9.76,2.35,2.35,0,0,1-1.84-.66,4.26,4.26,0,0,1-.42-2.26v-7.51h-1.64v8.11a3.47,3.47,0,0,0,.37,2.07c.59,1.06,1.75,1.62,3.51,1.62a4,4,0,0,0,3.35-1.37c.52-.64.61-1,.61-2.46m-10.2-8h-7.82v1.35h3v10.27h1.6V121.54h3Zm-11.6,7h-3.28c.2-.56,1.44-4.73,1.6-5.39h.1c.15.68,1.37,4.85,1.57,5.39m3.21,4.64-3.75-11.65h-2l-3.82,11.65h1.69l1-3.29h4l1,3.29Zm-13.88-8.37a2.13,2.13,0,0,1-.58,1.57,2.71,2.71,0,0,1-2,.56H219.4v-4h1.22a4,4,0,0,1,1.42.22,1.77,1.77,0,0,1,1.08,1.7m2.28,8.37c-.23-.37-1.18-1.89-1.69-2.69-.39-.61-.74-1.12-1-1.44a5.38,5.38,0,0,0-1-1.08,3,3,0,0,0,3.11-3.18,3.2,3.2,0,0,0-1-2.39,3.77,3.77,0,0,0-2.76-.84h-3.26v11.62h1.62v-5.15a1.31,1.31,0,0,1,1,.52,15.89,15.89,0,0,1,2,2.9c.47.79.63,1.07,1,1.72h2Zm-10.47,0v-1.4h-4.86v-4h3.73v-1.37h-3.75v-3.53h4.48l.22-1.33h-6.33v11.62h6.52Zm-12-8.49a2,2,0,0,1-.34,1.13c-.34.46-.69.64-1.73.64H199v-3.53h1.59a4,4,0,0,1,1.18.12,1.64,1.64,0,0,1,1.13,1.65m.46,5.11a1.94,1.94,0,0,1-2,2.06H199v-4.06h1.88a5.35,5.35,0,0,1,1.21.1,1.84,1.84,0,0,1,1.25,1.89m1.79.18a2.93,2.93,0,0,0-2.6-3,2.59,2.59,0,0,0,2.11-2.56,2.64,2.64,0,0,0-1.57-2.43c-.73-.39-1.25-.44-3.21-.44H197.4v11.62h3.55a8.13,8.13,0,0,0,1.85-.19,3,3,0,0,0,2.35-3m-12.78-5.18a2.14,2.14,0,0,1-.57,1.57,2.71,2.71,0,0,1-2,.56h-1.13v-4h1.22a4,4,0,0,1,1.42.22,1.77,1.77,0,0,1,1.08,1.7m2.28,8.37c-.24-.37-1.18-1.89-1.69-2.69-.39-.61-.74-1.12-1-1.44a5.48,5.48,0,0,0-1-1.08,3,3,0,0,0,3.1-3.18,3.2,3.2,0,0,0-1-2.39,3.78,3.78,0,0,0-2.75-.84H187v11.62h1.62v-5.15a1.31,1.31,0,0,1,1,.52,15.89,15.89,0,0,1,2,2.9c.47.79.62,1.07,1,1.72h2Zm-10.47,0v-1.4H179.3v-4H183v-1.37h-3.75v-3.53h4.48l.22-1.33h-6.33v11.62h6.52Zm-11.61-5.6a6.31,6.31,0,0,1-.63,3,2.73,2.73,0,0,1-2.72,1.3h-1.29v-9h1.32a2.69,2.69,0,0,1,2.45,1,5.77,5.77,0,0,1,.86,3.69m1.8-.2a6.61,6.61,0,0,0-1-3.9c-1.06-1.47-2.35-1.92-4.36-1.92h-2.7v11.62h2.9c2,0,3.11-.56,3.92-1.57a6.55,6.55,0,0,0,1.27-4.23m-13.13-2.57a2.13,2.13,0,0,1-.57,1.57,2.7,2.7,0,0,1-2,.56H157.5v-4h1.22a4,4,0,0,1,1.42.22,1.77,1.77,0,0,1,1.08,1.7m2.28,8.37c-.24-.37-1.18-1.89-1.69-2.69-.39-.61-.74-1.12-1-1.44a5.35,5.35,0,0,0-1-1.08,3,3,0,0,0,3.11-3.18,3.2,3.2,0,0,0-1-2.39,3.77,3.77,0,0,0-2.75-.84h-3.26v11.62h1.62v-5.15a1.3,1.3,0,0,1,1,.52,15.74,15.74,0,0,1,2,2.9c.47.79.63,1.07,1,1.72h2Zm-12.93-13.3a1,1,0,0,0-1-1,1,1,0,0,0-1,1,1,1,0,1,0,2,0m-3.51,0a1,1,0,0,0-1-1,1,1,0,0,0-1,1,1,1,0,1,0,2,0m3.7,7.7c0,3.24-1,4.55-2.84,4.55-2.28,0-3-2-3-5s.83-4.53,2.89-4.53,2.92,1.82,2.92,5m1.86-.15c0-3.24-1.35-6.1-4.78-6.1-2.86,0-4.71,2.14-4.71,6,0,3.5,1.59,6,4.8,6,3,0,4.69-2.36,4.69-5.93m-11.3-5.88h-6.06v11.62h1.64v-5.46h3.45V125h-3.45v-3.52h4.21Zm-9.2,8.23c0-1.81-1.28-2.82-2.84-3.28l-1.37-.4c-1.25-.37-1.72-.85-1.72-1.67,0-1.08.81-1.76,2.11-1.76a4.9,4.9,0,0,1,2.77.91l.73-1.15a6.17,6.17,0,0,0-3.56-1.1c-2.3,0-3.85,1.37-3.85,3.38,0,1.65,1,2.5,2.75,3l1.22.36c1.3.37,1.93,1,1.93,2,0,1.25-1,2-2.52,2a5.71,5.71,0,0,1-3.14-1L124,131a7.13,7.13,0,0,0,3.75,1c3.06,0,4.39-2,4.39-3.61M121,131.05v-5.44h-4l.27,1.33h2.15v3.31a3.48,3.48,0,0,1-1.73.44,3.21,3.21,0,0,1-2.5-1,5.93,5.93,0,0,1-.83-3.51,6.67,6.67,0,0,1,.64-3.33,2.56,2.56,0,0,1,2.5-1.49,4,4,0,0,1,2.48.88l.78-1a4.86,4.86,0,0,0-3.29-1.16,4.38,4.38,0,0,0-2.93,1,6.06,6.06,0,0,0-2,5,6.3,6.3,0,0,0,1.35,4.36,4.59,4.59,0,0,0,3.68,1.57,6.66,6.66,0,0,0,3.44-.93m-11.78.76V120.19h-1.57l0,5.7c0,1.28.14,3.12.17,3.46l-.1,0a22.66,22.66,0,0,0-1.15-2.78l-3.25-6.41h-1.89v11.62h1.64L103,125.7c0-1.08-.05-2.24-.13-3.24l.1,0a31.71,31.71,0,0,0,1.42,3.19l3.06,6.17Zm-11.5-3.64v-8H96.08v7.74a3.21,3.21,0,0,1-.42,1.93,2.26,2.26,0,0,1-1.89.76,2.34,2.34,0,0,1-1.84-.66,4.25,4.25,0,0,1-.42-2.26v-7.51H89.87v8.11a3.46,3.46,0,0,0,.37,2.07c.59,1.06,1.75,1.62,3.51,1.62a4,4,0,0,0,3.35-1.37c.52-.64.61-1,.61-2.46m-11.59,3.64V120.19H84.48V125H80v-4.76h-1.6v11.62H80v-5.52h4.44v5.52ZM75.49,131,74.7,130a3.2,3.2,0,0,1-2.15.73,3,3,0,0,1-2.85-1.89,6.65,6.65,0,0,1-.42-2.74,7,7,0,0,1,.56-3.13,2.79,2.79,0,0,1,2.58-1.67,3.28,3.28,0,0,1,2.06.68l.79-1.06a4.56,4.56,0,0,0-2.85-.91,4.69,4.69,0,0,0-4.19,2.67,7.48,7.48,0,0,0-.76,3.46,6.62,6.62,0,0,0,1.27,4.16A4.42,4.42,0,0,0,72.35,132a5.3,5.3,0,0,0,3.14-1m-10.71-2.6c0-1.81-1.28-2.82-2.84-3.28l-1.37-.4c-1.25-.37-1.72-.85-1.72-1.67,0-1.08.81-1.76,2.11-1.76a4.9,4.9,0,0,1,2.77.91l.73-1.15a6.16,6.16,0,0,0-3.56-1.1c-2.3,0-3.85,1.37-3.85,3.38,0,1.65,1,2.5,2.75,3l1.22.36c1.3.37,1.93,1,1.93,2,0,1.25-1,2-2.52,2a5.71,5.71,0,0,1-3.14-1L56.63,131a7.13,7.13,0,0,0,3.75,1c3.06,0,4.39-2,4.39-3.61m-12.72-5a2.13,2.13,0,0,1-.57,1.57,2.71,2.71,0,0,1-2,.56H48.33v-4h1.22a4,4,0,0,1,1.42.22,1.77,1.77,0,0,1,1.08,1.7m2.28,8.37c-.24-.37-1.18-1.89-1.69-2.69-.39-.61-.74-1.12-1-1.44a5.41,5.41,0,0,0-1-1.08,3,3,0,0,0,3.11-3.18,3.2,3.2,0,0,0-1-2.39,3.78,3.78,0,0,0-2.75-.84H46.72v11.62h1.62v-5.15a1.31,1.31,0,0,1,1,.52,15.84,15.84,0,0,1,2,2.9c.47.79.63,1.07,1,1.72h2Zm-12.79-5.59c0,3.24-1,4.55-2.84,4.55-2.28,0-3-2-3-5s.83-4.53,2.89-4.53,2.92,1.82,2.92,5m1.86-.15c0-3.24-1.35-6.1-4.78-6.1-2.86,0-4.71,2.14-4.71,6,0,3.5,1.59,6,4.8,6,3,0,4.7-2.36,4.7-5.93m-11.25-5.88H26.08v11.62h1.64v-5.46h3.45V125H27.72v-3.52h4.21Z"/><path class="cls-3" d="M42.83,63.28c0-5.71,4.39-9.52,11.27-9.52,5.86,0,11.27,1.76,18.16,5.42l5.27-11.13a50.89,50.89,0,0,0-24.45-6.44c-16.4,0-27.53,9.66-27.53,23.57,0,10.4,6.59,18,17.72,20.35l8.93,1.9c8.35,1.76,12,4.69,12,10.4a9.89,9.89,0,0,1-6.76,9.46H77.65A23.72,23.72,0,0,0,80.9,95.05c0-8.64-4-16.84-18.89-20.65l-9.22-2.34c-7.47-1.9-10-4.25-10-8.78m106,44c-2.12-2.91-3.87-4.63-3.77-11.48l.29-17.39c0-19.16-2.08-30.33-16.24-35.33a22.58,22.58,0,0,0-8.45-1.65h-2.81a33.38,33.38,0,0,0-9.13.94,54.06,54.06,0,0,0-15,5.49L99,59c6.88-3.66,12.3-5.42,18.15-5.42,6.88,0,11.27,3.81,11.27,9.52,0,4.54-2.49,6.88-10,8.78l-9.22,2.34C94.27,78,90.31,86.23,90.31,94.87a23.73,23.73,0,0,0,3.25,12.24h17.56l.59.18c-.08-.05-.14-.13-.22-.18h2.28A9.89,9.89,0,0,1,107,97.65,22,22,0,0,1,108.36,90c2.45-4.56,8.19-6.84,19.42-6.84,1.17,0,2.93.15,2.93.15l-.29,17.57a18.68,18.68,0,0,1-7.4,6.38h25.8Zm48.21-83,5.27-10.25c-3.66-2-9.66-3.51-15.81-3.51-13.18,0-22.55,7.47-22.55,22.55,0,2,.29,8.64.29,11h-7V55.23h6.88v52.06h16V55.23h27.67v52.06h16.4V44.1H179.9V32.82c0-6.59,3.51-10.39,9.08-10.39a22.31,22.31,0,0,1,8.05,1.9m29.58-1.9a10.56,10.56,0,0,0-10.54-10.83,10.78,10.78,0,0,0-10.69,10.83,10.61,10.61,0,1,0,21.23,0m53,20.79A12.09,12.09,0,0,0,273.89,42c-7.17,0-13,3.81-18.89,11.86a26,26,0,0,0-2.78-11.71L237.44,46c1.61,4.54,2.64,10.54,2.64,19.91v41.38h16.11V68.11a14.61,14.61,0,0,1,13.91-11,12.07,12.07,0,0,1,4.54,1Z"/></svg>