<?xml version="1.0" encoding="UTF-8"?><svg id="a" xmlns="http://www.w3.org/2000/svg" viewBox="0 0 246.92959 101.45854"><defs><style>.b{fill:#fff;}</style></defs><g><path class="b" d="M58.5975,88.45208c-.16005,.03398-.24926,.03086-.3127,.06976-.79321,.48605-1.53341,1.36047-2.56916,.6105-.9734-.70484-.44508-1.75667-.45781-2.67529-.01336-.96397,.455-1.83412,.52122-2.83066-.85967,1.48424-2.34355,2.36168-3.34562,3.67191-.90185,1.1792-2.12974,1.80453-3.46008,2.24899-1.03755,.34661-2.16836-.47483-2.311-1.67742-.25947-2.18788,.41021-4.13152,1.91638-5.71614,1.02445-1.07779,2.84665-.83414,3.60686,.42584-.4533,.85696-1.09871,1.56656-1.91307,2.17548-.71701,.53612-1.98236,.46978-2.0343,1.81396,.35347,.83937,.98527,.858,1.75625,.54904,2.44042-.97797,3.84563-3.07233,5.33613-5.03328,2.08434-2.7422,3.61295-5.84508,5.4639-8.74052,.43474-.68008,.8001-1.48668,1.68494-1.73461,.935,.52721,.58371,1.1973,.24557,1.76987-1.13561,1.9229-2.42136,3.7638-3.45794,5.73678-1.23639,2.35327-2.35295,4.788-2.31549,7.7308,2.45196-.23099,2.37835-3.2238,4.34838-3.87316,.9209,1.63157-1.1563,2.61715-.55768,4.15166,1.21257,.51637,2.38516,.22286,3.45067-.46289,1.98144-1.27523,3.91623-2.62308,5.86705-3.94569,.42334-.28702,.80149-.71462,1.33452-.39331,.49459,.37961,.241,.95486,.58173,1.51541,1.79357-1.1139,2.4387,.22733,3.0301,1.5642,.34843,.78765,.9658,1.2273,1.67871,1.54044-.07393,1.57113-1.49955,1.89617-2.80105,.67304-.51738-.48623-.96322-1.04856-1.39359-1.52326-1.4013-.20228-2.10571,1.82783-3.49219,1.09915-.44174-.62196,.13522-1.05602-.09527-1.65226-1.15298,.40374-2.03051,1.23973-2.96668,1.91276-1.1464,.82419-2.41859,1.39625-3.6277,2.08491-1.21132,.68991-2.59959,.21438-3.71108-1.08602Z"/><path class="b" d="M184.00873,15.95899c.88803-2.50908,1.30564-5.08745,2.23064-7.51632,.66106-1.73582,1.37881-3.43042,1.54097-5.37408,.10846-1.29995,1.27748-2.35017,2.4949-3.06858,.63217,.62909,.33021,1.23029,.13181,1.67603-2.74231,6.16112-4.28143,12.74667-6.41,19.12403-.684-.14785-.82067-.40626-.81984-.69463,.00802-2.79607-1.992-2.91588-4.05405-2.31936-1.9135,.55355-3.91303,1.07662-4.54517,3.21727-.63617,.23939-.93214-.03626-1.17842-.36535-.96519-1.28969-2.15807-1.10194-3.44134-.59166-.85545,.34017-1.59549,1.09603-2.61508,.85719-.67088-.87098,.4649-1.40614,.30555-2.13775-1.96749-.60552-4.60206,.5009-5.48505,2.17723-.38249,.72617-.57101,1.69343-1.57209,1.97077-.91178-.60104-.03005-1.66679-.67392-2.32055-1.25787-.07734-1.57295,1.85379-2.98477,1.51611-.59328-1.16348,.88896-2.06997,.15882-3.1345,.75625-.91755,1.33071-1.92768,2.54653-2.32059,.57074,1.09362-.88902,1.56823-.51599,2.57242,.79744-.13673,1.41883-1.31249,2.40973-.44502,.01355-1.97405,.69273-3.15691,2.01119-3.62249q.46033,.56017,.5597,1.91925c1.74633,.2897,3.45073-.88941,5.09614-.39169,.56444,.62873,.10474,1.20567,.28076,1.92245,1.7607-.77544,3.53938-2.04713,5.28421-.20629,2.8589-1.79021,5.5175-3.81292,9.24475-2.44388Z"/><path class="b" d="M207.78901,16.01955c.7017,1.28718-.6781,1.95344-.65819,3.04645,1.57849-.12164,2.31861-1.8853,3.81113-2.01974,.60446,1.00251-.52891,1.33211-.54975,2.14817,1.71039-.3113,3.06977-1.44683,4.64208-1.85963,.69272,.69749-.00804,1.25945-.0186,1.98077,1.70873-.09817,3.40856-.31354,5.17881,.31074,.57814-1.30376,1.12723-2.5731,1.70215-3.83063,.70531-1.54274,1.80663-2.74224,3.33033-3.48147,2.14872-1.04246,4.89413,.70077,4.93085,3.08461,.01106,.7177-.24709,1.11124-1.02403,1.5558-.42301-.22708-.29836-.70812-.47873-1.04893-.50679-.95757-1.16327-1.80162-2.31045-1.88081-1.29372-.08931-2.1898,.69833-2.80087,1.74476-1.21562,2.08173-2.07169,4.30966-2.52551,6.68701-.14803,.77544-.2972,1.56674-.93698,2.10773-.98023-.07345-.86621-.68774-.80175-1.30704,.15805-1.51852-.30244-2.02252-1.84046-2.1189-1.00194-.0628-1.9904-.01725-2.98166,.14768-.43223,.07191-.88262,.01904-1.29873-.37707-.27417-.21356,.05021-.64414-.18677-.97342-1.49228,.29413-2.74065,1.44081-4.08386,1.38979-.70619-.24472-.52449-.73995-.82598-1.04383-.85225,.20925-1.49183,1.05356-2.50055,.98383-.40611,.02596-.40119-.55764-.89733-.62127-.30549,.27182-.66266,.58068-1.00947,.90076-.34347,.31699-.71648,.58188-1.16514,.24799-.44483-.33103-.31293-.78201-.11488-1.19526,.48374-1.00938,.9985-2.00416,1.46887-3.01959,.26659-.57551,.5161-1.17529,.17159-1.98626-1.07776,.36732-2.02796,.84332-2.66096,1.80853-.59408,.90586-1.19811,1.79878-2.11055,2.42101-.68999,.47053-1.38797,.51444-2.07307,.03468-.09794-.61793,.22477-.90433,.70353-.96656,1.05582-.13724,1.64609-.85059,2.27748-1.60168,1.13123-1.3457,2.32518-2.64496,3.85609-3.56443,.52068-.31273,1.07483-.61378,1.67119-.18872,.59198,.42193,.50865,1.05235,.39031,1.64383-.28326,1.41574-1.16389,2.59456-1.5796,4.00461,1.14682-.97187,1.66742-2.62683,3.29946-3.16351Z"/><path class="b" d="M107.38246,70.33609c.73733-.22238,1.15354-.9317,1.97982-.75445,.21741,1.05277-.57132,1.51896-1.21105,1.81857-2.71525,1.27168-4.80815,3.58263-7.6938,4.55129-.11093,.03724-.19961,.14038-.31049,.1782-2.17107,.74076-2.75375,1.15387-2.70728-1.58016,.016-.9409,.08064-1.88096,.12668-2.90186-2.22571,.24971-3.41949,1.75014-4.29147,3.55225-1.06244-.49579-.96078-1.20223-.67364-1.81497,1.07603-2.2963,2.99934-3.56436,5.39058-4.16219,.74606-.18652,1.20277,.30113,1.4244,.97985,.28723,.87949,.87223,1.49732,1.70495,2.04311,1.97719-.93286,3.7954-2.55379,6.26129-1.90963Z"/><path class="b" d="M190.64668,47.65821c1.03482,2.00707-.66785,3.19607-.84538,4.70254,.90581,.17249,1.3744-.73705,2.19426-.69661,1.07421,.53569,.22427,1.37023,.19808,2.10561,.75453-.37589,1.248-1.22499,1.31059-2.32433,.0476-.836,.01644-1.67774-.00738-2.51616-.02412-.84907,.28531-1.4589,1.25863-1.81566,.68709,1.91984,2.37122,1.73465,3.94773,1.86606,1.61518,.13462,2.09692,.85916,1.70638,2.42004-.08673,.34663-.19307,.68834-.30913,1.09856l.68665,.50855c.19273,.81045-1.52544,1.93773-2.57302,1.70782-.49512-1.29207,1.07028-2.19921,.68298-3.59719-1.02197-.63331-2.22771-.6732-3.56032-.7048-.53191,1.39878-.73185,2.92056-1.87848,3.95796-.08584,.07767-.11678,.21473-.20045,.29626-.53432,.52074-.9982,1.26305-1.8783,1.06663-.96615-.21565-.6213-1.15541-.82496-1.86045-.81467-.00923-1.62366,.85361-2.53003,.01827-.05763-1.26549,1.28287-2.12785,1.22361-3.55428-1.29434,.61548-1.9604,1.90632-3.47256,2.71616,1.21673-2.4416,2.81388-3.98448,4.8711-5.39499Z"/><path class="b" d="M95.05572,23.04307c.0258-2.09974,4.95949-6.3401,7.90592-7.07252,.67922,.42328-.00356,1.02909,.21794,1.59667,2.94732-.49902,1.09897,2.7226,2.67904,3.26325-.24382,.81291-.66653,1.23695-1.26393,1.41672-1.03436-.02375-1.10568-1.00521-1.60039-1.45231-.76855-.38554-1.73483,.61516-2.36918-.497l.26175-1.1356c-2.33871,.63116-3.52688,3.02153-5.83116,3.8808Z"/><path class="b" d="M108.29274,53.3308l1.04956,.56187c2.2334-1.52177,.44323-3.83386,1.17483-5.52169-.45048-.42062-.57558,.34286-.90167,.03795,.25292-1.74202,2.08862-4.80872,3.1957-5.29733,.25557,.70437-.29985,1.20117-.461,1.7821-.52043,1.87616-.47739,3.77829-.28822,5.67419,.19194,1.92397-1.26032,4.29809-3.09826,4.89409-.52799,.17121-.98597,.08288-1.2451-.39519-.36857-.67995-.02372-1.20444,.57416-1.736Z"/><path class="b" d="M112.71096,17.02292c1.09963,1.47579,2.37294,2.57283,4.0142,3.12032,.0446,1.06203-.60309,1.24291-1.31008,1.25551-1.04555,.01864-2.05009-.2459-3.0311-.59726-1.04451-.3741-1.92158-.92763-1.78192-2.20446,.13427-1.22755,1.32412-1.03111,2.10891-1.57411Z"/><path class="b" d="M245.79772,54.27009c-.4416,1.41253-4.53652,1.99913-6.09078,.94772,.46987-2.01724,3.57784-2.20304,6.09078-.94772Z"/><path class="b" d="M131.37423,44.15583c-.87697,.92316-3.91522,.64651-5.01762-.36199,.47443-1.50977,1.24264-1.87869,2.55377-1.13965,.81149,.45743,1.83188,.59007,2.46385,1.50164Z"/><path class="b" d="M168.43262,7.61731c.38235-.71547,.72479-1.54665,1.50207-1.45652,1.3146,.15242,2.20221,1.09888,2.99411,2.13379-.72395,1.5986-1.63208,.50749-2.54666,.24946l-.9159,.30034c-.4708-.28346-.76582-.68361-1.03362-1.22706Z"/><path class="b" d="M96.74623,84.42197c-.21839,.71895-.53241,1.10451-1.18598,1.39764-.70951-.78149-2.02433,.10194-2.88712-.94922,.3627-1.04832,.88847-1.88925,2.09152-2.00254,1.15759-.10903,1.50481,.81519,1.98158,1.55413Z"/><path class="b" d="M60.25947,36.95144l1.18442-1.48815c.08294-.10421,.2359-.13174,.35326-.06876,2.39174,1.28346,2.84726,2.07218,1.96002,3.3634-1.23215-.18269-2.2939-.76146-3.43413-1.45552-.12153-.07398-.15218-.23964-.06358-.35096Z"/><path class="b" d="M214.34171,10.53802c-.27107-.8894-.34856-1.72983-.80331-2.43654,.23038-.98479,1.05752-1.33756,1.69427-1.86932,1.3234,1.20299,.89532,3.39263-.89097,4.30586Z"/><path class="b" d="M245.70915,57.81777c-.94758,1.40689-3.13864,1.15837-4.00216-.37102,.50775-1.73402,1.81395-1.1476,4.00216,.37102Z"/><path class="b" d="M204.48534,45.81271c-.51578-1.82925-1.17268-1.05882-1.92145-1.13102-.09896-1.07405,.65197-1.51526,1.39181-1.66513,.85115-.17244,1.42166,.46408,1.64046,1.26185,.21703,.79131-.15777,1.30027-1.11082,1.53431Z"/><path class="b" d="M163.02217,39.40184c.00347-.81063,.45752-1.25227,1.07097-1.61685,.9477,.1909,1.09602,1.03409,1.46328,1.58531-.08289,.58654-.3218,.91813-.80186,1.15835l-1.73239-1.12682Z"/><path class="b" d="M4.63325,49.80466c1.77196-4.58886,3.17487-9.36504,6.60114-13.10685-1.51717,4.71402-3.76904,9.05771-6.60114,13.10685Z"/><path class="b" d="M82.698,20.59394c-2.52722,.54523-3.80554-.00104-5-2.30078-.22174-.427-.38776-.89221-.94641-.98999-.76343-.04572-1.14014,.77191-1.91272,.96008,.18127-.72101,.92578-1.32428-.07996-1.96393-2.10553,.56085-3.64026,2.64355-6.04114,2.70825-.30548-1.01379,1.11987-1.78662,.32214-2.80597-.87079-.08392-1.13159,.84161-1.81287,1.05725-.15485-.57819,.56281-.98651-.02448-1.75739-2.7785,1.09113-5.14526,3.3551-8.30457,3.8006,.98566-.65674,2.77484-.57947,2.17993-2.71851-1.15125-.10724-2.01099-.86499-2.92224-1.88043-2.31683,3.04871-5.10345,4.06213-8.52155,2.47949-.16724-.73846-.1109-1.28467,.05524-1.82886,.9823-3.21759,1.68524-6.48267,1.59277-9.87152-.01819-.6662,.02045-1.41125-.77429-1.7392-.8114-.33484-1.52631-.06787-2.07056,.52917-1.99445,2.18793-3.25677,4.69598-3.37189,7.72638-.09406,2.47498,.69946,4.62219,2.28357,6.52722-1.03979,2.22968-1.80725,4.51721-3.27936,6.46759-.74518-.49768-.82281-1.05292-.86261-1.61536-.11951-1.6875,.2121-3.32471,.59344-4.95172,.13708-.5849,.41418-1.17035-.3808-1.49445-.58899,.13434-.84247,.62665-1.1731,1.00928-1.14966,1.33044-2.21533,2.73993-3.43524,4.00104-.78436,.81085-1.64069,1.76404-3.31586,1.30145,1.46472-6.49695,4.70422-12.40869,5.60992-19.11548-1.5155,.56598-4.10602,5.57086-4.05542,7.47766,.7663-.33112,.67236-1.42358,1.59619-1.77179-.07263,.37421-.09259,.60858-.16412,.82599-.98627,2.99634-1.98834,5.98749-2.96747,8.98615-.45911,1.40601-.89819,2.81934-1.30511,4.24115-.19867,.69446-.10986,1.37494,.53931,1.82733,.57373,.39984,1.12299,.16919,1.68658-.11536,1.34143-.67731,2.4939-1.53687,3.36871-2.79974,.52594-.75922,1.12122-1.51569,2.04553-2.12524,.04211,2.34924-.95947,4.71283,.97705,6.78455,3.52948-1.59332,3.6087-5.5498,5.75745-8.02509,1.29492,.39563,2.55676,.71313,3.88971,.82867-.03894,1.29181-.92352,2.53412,.28619,3.64105,1.84833-.42291,1.94037-2.66846,3.45166-3.39648,1.28033,1.40631,2.36798,1.58087,4.45087,.5578,1.44818-.71124,2.81952-1.5788,4.27405-2.4043,.17273,.77423-.73663,1.39636-.11047,2.10138,.88721,.2829,1.20081-.81409,1.96112-.84766,.12567,1.65253,.64374,1.98035,2.16742,1.38757,1.36444-.53076,2.46155-1.58704,3.90649-2.01202,.18164,.55212-.46948,1.19946,.26855,1.71051,1.21118,.11896,1.69427-1.30145,2.89313-1.54138,.93756,1.82385,2.2995,3.14526,4.47766,3.01239,1.90869-.11639,3.7002-.67578,5.37244-2.23621-1.33563-.56305-2.24518,.15826-3.17493,.35883Zm-34.5954-5.0697c-1.94617-2.02173-2.15405-6.37323-.40424-8.46124,.40405-.48224,.59735-.52344,1.67139-.32843,.3786,1.86859-.35229,6.84155-1.26715,8.78967Z"/><path class="b" d="M45.43518,79.52668c-2.31281,.19946-4.34039,1.0423-6.37158,1.83301-1.74084,.67767-3.2464,1.74664-4.3075,3.31927-1.18567,1.75726-4.64374,2.7868-6.86688,1.83868,1.133-.5647,.73633-1.69464,1.15027-2.53571,.28894-.5871,.53882-1.22498-.07007-1.75787-.59259-.51862-1.21454-.18469-1.79474,.07861-.32434,.14709-.62335,.35754-.91711,.56329-1.86572,1.30676-3.77875,2.53644-5.82214,3.5498-.44092,.21869-.88428,.60022-1.45819,.19147-.05756-.91376,.89673-1.82343,.06055-2.89594-2.08081,1.1911-4.14557,2.26746-6.76654,2.32404,.28979-.8089,.48932-1.44525,.7428-2.05933,1.05164-2.54742,2.14929-5.07794,2.60461-7.82373,.28662-1.72858-.61981-2.76398-2.20978-2.18451-3.59961,1.31201-6.37872,3.63159-7.84729,7.31366,2.39636-2.39771,4.60193-5.08636,8.32672-5.40594,.52887,1.58496-.98456,6.91553-2.20508,8.27753-.76025-.0553-1.03485-1.02148-1.83521-.99841-1.33551,.92981-1.7915,2.73376-.77771,3.6828,1.01038,.9458,.89124,1.88843,.37665,2.91516-.96704,1.92938-1.96985,3.84131-2.98291,5.74713-.67682,1.27344-1.29987,2.56842-1.73901,3.94312-.20715,.64856-.1626,1.29095,.39386,1.76215,.56866,.48145,1.14288,.18341,1.66382-.1217,.87415-.51196,1.54614-1.19696,2.04401-2.1189,1.62561-3.01044,2.39209-6.24133,2.61444-9.62067,.04626-.70331,.3476-1.12189,.99384-1.32202,1.66248-.51495,3.32642-1.02509,5.0127-1.54425,.02551,.11847,.07318,.23212,.07074,.34473-.04602,2.12976,.31213,2.24207,2.33051,1.51886,1.65027-.59131,2.95789-1.85455,4.88336-2.31903-.1637,1.25989-.65222,2.46075,.28851,3.24347,.15057,.62915-.56506,1.013,.07849,1.61859,.69989-.50513,1.18921-1.35181,2.28992-1.39557,2.62073-.10419,4.90948-1.27319,7.10101-2.63098,.47986-.2973,.94592-.59808,1.21619-1.12018,1.61005-3.10974,4.80878-3.23895,7.86005-4.43048-.67816,1.88391-1.20227,3.38953-1.12524,4.88257-.62909,.81635-1.48334,.60638-2.19226,.83282-.396,.49518-.90094,.93567-.66638,1.72516,.66174,.4516,1.43268,.58093,2.22253,.6842,.66083-.77045,1.27148-1.40198,1.78607-2.10394,.56683-.77319,1.11206-1.60278,.93982-2.63708-.17896-1.07434,.039-2.00763,.55963-2.98029,.33179-.61993,1.09308-1.37939,.34454-2.18359ZM6.63116,99.20496c-2.12946-1.11938,2.69958-7.82318,2.9129-7.90723,.56024-.22076-.11127,9.37988-2.9129,7.90723Z"/></g><path class="b" d="M140.74255,16.31775c-1.30194,.71912-2.73486,.88226-4.13556,1.14124-1.39557,.258-2.83691,.47009-4.18231-.12225-.25842-.54712-.0188-1.00995,.0155-1.47925,.04376-.59894-.07666-1.15454-.67444-1.4054-.54126-.22717-1.01599,.01807-1.38843,.43744-.58551,.6593-1.06201,1.36768-1.3938,2.21082-.54132,1.37555-1.58502,2.37439-2.79608,3.49689-.26501-1.85022,.78015-3.55414-.57385-5.26703-1.41669,1.45416-3.42804,1.53766-5.0824,2.73834,1.28668,.90369,2.52582-.15204,3.69965,.37811,.42621,.70514,.28131,1.43036,.2641,2.14319-.01733,.71875-.44464,1.50555,.34387,2.14099,1.24054,.08948,1.72211-1.12994,2.6543-1.61621,.21375,.36206,.4101,.69482,.66577,1.12799,1.75378-.09741,2.38837-1.64014,3.55823-2.74207,2.0835,.52313,4.22522-.31897,6.53754-.45801-.28223,1.06024-.56079,1.88776-.70917,2.73798-.10583,.60626,.07043,1.21143,.64465,1.57458,.58508,.37,1.10437,.04895,1.54004-.29248,1.85388-1.45288,2.61945-3.48035,2.77136-5.73645,.06781-1.00659-.83765-1.51733-1.75897-1.00842Zm-10.55585,3.60583c-.19904,.41785-.67212,.83081-.97473,.71399-.33154-.12793-.43353-.88208-.15277-1.39117,.22308-.40448,.73859-.74646,1.03436-.59576,.31232,.15918,.30432,.82953,.09314,1.27295Zm10.47607,1.00299c-.36298,.69092-.63263,.88312-.88446,.97003-.39844,.13751-.953,.08087-1.22681-.25677-.25763-.31757-.14728-.73639,.05707-1.51215,.16589-.62994,.35339-1.34167,.88446-1.54065,.21667-.08118,.25934,.00958,.62769-.05707,.72162-.13062,.92108-.54498,1.11267-.45654,.34467,.15906,.0545,1.66339-.57062,2.85315Z"/><path class="b" d="M93.36401,51.35779l-1.05579,.43188c-.0531-.81567,.47107-1.53821,.02441-2.32947-.79999,.02148-1.44989,.42706-2.07996,.81732-1.27454,.78937-2.65289,1.31854-4.09772,1.64935-.84509,.19342-1.72711,.21106-2.2984-.89825,1.38971-.58826,2.04102-1.81622,2.84137-2.90149,.56604-.7674,.45801-1.40265-.44952-1.78796-1.78204,.19965-2.27045,1.79352-3.20221,2.8689-.84454,.1192-1.62506-.02887-2.38232-.29877-2.23804-.79755-2.685-1.62042-2.03589-3.8606,.83582-2.8847,1.33417-5.83557,1.75189-8.80029,.09332-.66229,.38873-1.42883-.32306-2.0213-.82867,.03821-1.2785,.62592-1.69232,1.19604-2.79919,3.85669-3.78308,8.03522-2.16913,12.65265,.3327,.95184-.05029,1.66589-.73126,2.38745-.69342-.76178-1.41992-.82483-2.31152-.45422-1.95111,.81085-3.93243,1.55176-5.91827,2.27484-.77301,.28149-1.55225,.73651-2.56317,.39423,.96082-1.18884,1.99561-2.20331,2.21185-3.73712-.84119-.48956-1.53473-.16907-2.15845,.2608-.84052,.57928-1.39099,1.43158-1.85767,2.32007-.4364,.83105-1.00806,1.06781-1.81006,.6236-.52893-.75446,.23804-1.6416-.35022-2.35168-.55676-.21771-1.0144,.05304-1.46442,.30499-1.77777,.99518-3.54309,2.01288-5.32806,2.99487-.71832,.3952-1.44281,.90808-2.36304,.42743-.55078-1.25128,.42273-2.5907-.14215-3.84363-1.38544-.19824-1.70361,1.32153-3.02368,1.73865,1.36633-2.31415,1.83124-4.64618,2.24866-6.94324,.4118-2.26624,1.64423-4.4187,1.3302-7.08643-1.41742,.63922-2.03064,1.73273-2.56262,2.63971-1.51208,2.57812-2.97443,5.19452-4.17999,7.94965-.99207,2.26727-2.1756,4.4613-4.13721,6.09436-.41876,.34863-.8255,.784-1.54993,.48132-.12488-.67157,.07739-1.31348,.31177-1.94098,.32959-.88226,.66547-1.78931-.07947-2.59113-.75244-.80981-1.72516-.70374-2.68579-.41882-.42053,.12476-.84552,.24469-1.24982,.41193-1.19592,.49475-2.38251,1.0119-3.58356,1.5249-.39203-1.44958-.91534-1.74036-2.1792-1.22394-.84814,.34662-1.68732,.71014-2.46106,1.23041-1.95508,1.31458-3.93073,2.59985-5.92639,3.85168-.56232,.35272-1.16028,.77789-2.11169,.59631,1.00299-.84009,1.55774-1.74561,2.01105-2.79694,.45941-1.06537,.25317-1.74829-.55304-2.40332-.8468-.68811-1.70209-.55896-2.53131,.02533-.87561,.617-1.50568,1.44312-1.83154,2.46027-.28986,.90472-.49915,1.83527-.75861,2.80927-2.09015,.46234-4.10559,.36932-6.19818-.34644,.14484-.75421,.31042-1.40778,.38818-2.07159,.10828-.92462-.24457-1.67267-1.11157-2.0592-.81897-.36517-1.5575-.12921-2.19281,.48834-1.28552,1.24951-1.34967,2.88019-.14569,4.28851,.30652,.35852,.64758,.68756,.94757,1.00348-.57123,1.26703-.84027,1.47791-2.13477,1.72919-2.08527-1.23529-2.72034-5.00092-1.12811-7.27521,1.65161-2.35901,3.2038-4.77179,4.60992-7.28497,1.91431-3.42114,3.77148-6.86395,4.89447-10.64697,.1673-.56348,.47986-1.13214-.12402-1.71606-.67853-.06671-1.20239,.33069-1.61475,.80261-.65472,.74927-1.28125,1.53632-1.82013,2.37158-3.23444,5.01312-5.34558,10.54114-7.24664,16.15057-.47742,1.40887-1.4613,2.34119-2.41083,3.34741-.30743,.32581-.81238,.52222-.61835,1.16962,1.02704,.01135,1.32422-1.10022,2.13318-1.35065,.05029,.82465,.05829,1.58258,.15271,2.32959,.09479,.75031,.20642,1.51141,.43182,2.2298,.70331,2.24133,2.41687,2.67877,4.07281,1.03522,.64679-.64197,1.18542-1.39288,1.95563-2.31158,2.59265,.98615,5.20721,.53949,7.87122-.23737,1.56543,1.24091,3.02661,.62665,4.49762-.30774,2.09052-1.32788,4.18964-2.64557,6.33191-3.88678,.76764-.44476,1.60583-1.05737,2.6778-.50525-.43237,1.30243-2.07562,2.0614-1.52783,3.78851,1.22528-.12543,1.68054-.98792,2.14954-1.79193,1.43921-2.4671,3.75342-3.37799,6.42151-3.45416,1.29242-.03693,1.64789,.68158,1.28693,1.935-.16571,.5755-.32916,1.15259-.46393,1.73584-.12421,.5376-.05841,1.04395,.42712,1.39929,.50269,.36786,1.02728,.21185,1.45709-.08795,.58502-.40814,1.15082-.86725,1.64069-1.38434,2.36835-2.49963,3.92151-5.52203,5.43512-8.56964,.95801-1.92896,1.95349-3.83929,2.93213-5.75793-.2923,2.63824-.91461,5.15216-1.39325,7.69318-.48553,2.57727-2.05255,4.71075-2.85797,7.19092,1.9632-.50861,2.39307-2.76398,4.11554-3.52759,.3429,.69617-.00256,1.22223-.06091,1.76202-.07477,.6922-.18097,1.39679,.42908,1.8894,.64246,.51874,1.3512,.34155,2.03674,.02625,1.45251-.66797,2.86377-1.3996,4.22546-2.25146,.7702-.48175,1.37939-1.37756,2.51544-1.30011,.06213,.21899,.14404,.3999,.16168,.58685,.15521,1.64008,.5296,1.9574,2.2099,1.8302,.58423-.04425,1.13934-.28723,1.7547,.01355,.87415,.42731,1.81415,.30377,2.69202-.01349,1.46454-.52936,2.89618-1.14899,4.35638-1.69092,1.10468-.40997,2.19458-1.03247,3.29816-.57104,.53186,.37048,.48047,1.01581,1.22156,1.22125,1.08588-1.00684,1.69751-2.47931,2.5741-3.82922,1.47723,1.15265,3.05768,1.65375,4.69763,1.80695,.95947,1.92072,1.64441,2.36554,3.31909,2.1825,1.00928-.11029,1.90961-.5246,2.82141-.95477,.90527-.42719,1.65839-1.26996,2.78583-1.18207,.44678,.87695-.73193,1.68207-.06226,2.50018,.7605,.19879,1.14667-.58801,1.76971-.59454,.85797,.49628-.0434,1.58478,.71667,2.11005,1.30884-1.23566,1.39197-3.53949,.15424-4.3855Zm-8.57886-3.56232c.13367-.33636,.70929-.46802,.96527-.20685,.13611,.13885-.01941,.44049-.10339,.6153-.15948,.33173-.83124,.95837-1.06873,.6947-.11359-.12616,.14447-.94604,.20685-1.10315ZM8.86041,38.76416c.87067-1.57867,1.85583-3.11481,2.44452-3.42188,.09686-.05054,.31433-.16016,.5293-.08826,.00012,.00006,.32916,.11011,.48523,.74988,.33594,1.37708-8.47998,15.19342-8.47998,15.19342,0,0,3.8595-10.32733,5.02094-12.43317Zm-.35687,16.4646c-1.05939-.00299-1.60077-.84668-1.25806-1.85236,.11548-.33905,.33167-.57391,.66925-.62433,.37823-.05646,.60291,.15924,.70221,.49194,.18451,.61798,.12244,1.26929-.1134,1.98474Zm9.39667,.17773c-.76373-1.38232-.21893-2.80389,1.14587-3.21173,.46008-.13751,.87738-.05536,1.17773,.34149,.33661,.44464,.2597,.92041-.03778,1.33234-.55255,.76514-1.32068,1.23743-2.28583,1.5379Zm59.22192-9.41266c-.52899-.04279-.80237-2.93079-.58185-5.07068,0-.00012,.12402-1.20386,.74811-2.68774,.45471-1.08112,.82819-1.47418,1.2746-1.63477,.27667-.09955,.73071-.16357,.91437,.05542,.19629,.23407-.04895,.94324-.4433,2.60455-.50409,2.12354-1.91193,6.73322-1.91193,6.73322Z"/><path class="b" d="M131.91418,53.43683c-.22107-1.05951-.89221-1.66705-2.02997-1.72546-.6651-1.45996-1.55206-1.12726-2.6051-.41162-.70386,.47839-1.27618,1.27832-2.27563,1.30811-.16345-.73834,.62354-1.38409-.09753-2.07678-2.82343,.40143-5.34125,2.51666-8.62317,1.98676,.5639-.89355,1.3009-1.25806,1.849-1.81305,.55469-.56158,1.08008-1.16919,1.13733-2.01941-.63245-.72327-1.24457-.38135-1.84235-.03497-2.31085,1.33893-3.2876,4.04822-5.55884,5.43292-.02307,.0141,.02539,.14545,.04321,.23621,.51782,.37061,.98218,.05231,1.45428-.13025,.44073-.17047,.84167-.42322,1.36926-.23956,1.72937,.60205,3.38513,.17603,5.03009-.40656,1.19135-.42194,2.39673-.80408,3.57477-1.19696,.53601,.67023-.03052,1.50586,.64844,2.03992,1.52515,.09729,2.23956-1.73047,3.88385-1.74603,.50244,1.45428,2.4729,.86749,2.99609,2.31012,.82117-.30273,1.20099-.77161,1.04626-1.51337Zm-14.64203-3.69025c.29175-.23022,.76129-.60077,.84796-.51917,.09338,.08801-.25134,.70837-.77875,1.14215-.47083,.38727-1.08575,.62463-1.15948,.51923-.09222-.13184,.65985-.80255,1.09027-1.14221Z"/><path class="b" d="M240.13293,45.68335c-.22241-.08307-.45636-.15155-.69135-.18219-2.37787-.31049-4.16351,.69861-5.64288,2.47711-1.2525,1.50574-1.64301,3.42932-2.48956,5.09161-2.72345-.17316-3.24841,.05212-5.7995,1.58148-.97949,.58722-1.9989,1.41968-3.30774,1.19873-.1333-.70947,.26361-.96783,.58716-1.24664,1.51385-1.30444,2.30029-3.03662,2.88959-4.88379,.16443-.51538,.25037-1.0332-.51593-1.37982-1.85382,.67017-2.70081,2.50433-4.01685,3.9209-1.67529-.19922-3.14478-.7663-4.224-2.05713,.10114-1.28912,2.96198-15.35278,1.4234-15.95392-.61603-.00153-.90686,.42065-1.20789,.77728-1.13812,1.34833-1.65527,2.99738-2.11499,4.65051-.91589,3.29315-1.82977,6.65948-.47534,9.99463,.86359,2.12659,.22717,3.88831-.58252,5.72791-.21008,.47723-.46716,.99414-1.18286,.50934-.13275-1.03778,1.08264-1.80426,.64801-2.91614-.74603-.50043-1.39728-.12354-2.02893,.19836-1.10547,.56329-2.19922,1.15845-3.40527,1.47369-.72906,.19055-1.46826,.16223-1.9035-.59515-.37451-.65179-.55457-1.33423,.02698-1.99951,.44598-.51025,.90216-1.01672,1.29572-1.56641,.54797-.76538,1.35101-1.42395,1.31714-2.86084-.00262-.11176-.13245-.1861-.23199-.13525-2.19635,1.1236-3.8501,2.48438-5.31134,4.11322-.01019,.01257-.00104,.05548,.00439,.09259,.47717-.37732,.91693-.71997,1.28821-1.00494,1.04376-.80103,1.51746-1.13519,1.79926-.97064,.14807,.08643,.18341,.27551,.18939,.30774,.1795,.96198-1.9375,2.00745-2.32013,2.08337-.17352,.03442-.19476-.24194-.37878-.26044-.1814-.01819-.3421,.1178-.47498,.24945,.03937,.1402,.07202,.27612,.05194,.34821-.31622,.90149-1.37634,1.33411-1.03748,2.37561,.75909,.29047,1.1817-.58209,1.84955-.40479,1.1825,1.93518,1.79187,2.2887,3.43237,1.94537,1.03528-.21667,1.91925-.78314,2.82806-1.28589,.4046-.22388,.78009-.60889,1.31116-.17566-.02271,.15179-.01678,.31818-.07373,.45917-.35193,.87122-.80072,1.79553,.32245,2.41138,1.10364,.6051,1.65179-.40002,2.31885-.97205,.17609-.151,.25995-.40454,.42035-.57965,.91205-.99554,.95258-2.44,1.8634-3.63263,1.29932,1.00415,2.94409,1.03619,4.4754,1.62292-.15704,.47552-.29266,.84497-.4007,1.22229-.18787,.65594-.435,1.35046,.12415,1.92731,.5722,.59033,1.25079,.36591,1.89722,.09241,1.72534-.72986,3.448-1.466,5.1734-2.19562,1.25836-.53217,2.2124,.00458,2.46729,1.34729,.09241,.48682-.13342,1.06104,.40784,1.50092,.90729-.03766,1.12451-.78296,1.25775-1.4585,.50488-2.56073,1.43542-4.95935,2.4527-7.35474,.67737-1.59503,1.93555-1.99567,3.36328-2.27637,.46277-.09094,.95886,.00323,1.43604-.03418,.64783-.05078,1.15753-.28912,1.16724-1.06885-.09973-.09515-.1709-.21155-.27142-.24908Zm-16.30176,4.53156c.35559-.24902,.94922-.49323,1.12103-.30737,.09094,.09833,.03711,.28833-.01807,.45203-.18433,.54681-.84235,2.16022-1.42847,2.04327-.16272-.03247-.38013-.21033-.54242-.94025,.11365-.35962,.35284-.88696,.86792-1.24768Z"/><path class="b" d="M172.28333,49.22046c-.47717-.09692-.83423,.16028-1.19299,.42181-.3194,.23279-.51923,.66479-1.22998,.73212,1.54028-2.88654,1.72668-5.88672,1.99329-8.88751,.01508-.16937-.20001-.24402-.30072-.10706-1.28577,1.74835-1.25458,4.19305-3.0257,5.60345-1.81055,1.44171-2.44873,3.84412-4.33813,5.32135-.07959,.06219-.21045,.04095-.25891-.04767-.54773-1.00238,.1825-2.28406-.71503-3.0611-.02417-.02094-.05786-.03827-.08887-.04608-1.17181-.29535-1.85242,.75006-2.84485,1.02087l-.06024-1.07831c-.00269-.04718-.02643-.09125-.06378-.12024-.40216-.3114-.78131-.62817-1.18726-.90564-.88263-.60327-1.96436-.6449-2.93799-1.00067-3.0946-1.13092-3.53241-1.67279-3.31403-4.89648,.2121-3.13104-.14227-6.21722-.51379-9.30865-.04303-.35822-.08673-.72833-.51532-.86017-1.07812,.4118-1.73212,1.25781-1.81067,2.92474-.1178,2.50122-.39697,4.99988,.03778,7.51996,.64856,3.75946-1.07617,6.7135-3.60254,9.24255-.9433,.9444-1.78796,1.92578-2.49219,3.04138-.20874,.33075-.4267,.70557,.091,1.18958,1.81647-.51379,2.38879-2.41516,3.62378-3.65167,.06512-.06519,.18036-.06506,.24597-.00043,1.03455,1.0188,.95734,2.48462,1.63531,3.71973,.05267,.09589,.19513,.11383,.27393,.0379,2.45349-2.36499,2.34894-5.50214,2.93396-8.43011,.02051-.10266,.13507-.15961,.23163-.11926,1.25763,.52466,2.41016,1.0144,3.57068,1.48456,2.25671,.91425,2.3266,.93695,2.29596,3.01764-.00146,.10077,.09003,.19592,.18945,.17963,1.12531-.18463,1.78186-1.47748,2.99213-1.41638,.05121,.00256,.10626,.02991,.13916,.06921,.79633,.95374,.15015,2.3634,1.10327,3.43066,.05841,.06543,.16736,.07428,.23688,.02081,2.49396-1.91602,3.5752-5.13464,6.21808-6.90936,.11322-.07599,.28015,.01807,.27014,.15399-.15057,2.03448-1.55615,3.78534-1.26221,5.89044,.01324,.09485,.11237,.16895,.20569,.14758,.75519-.17291,1.21088-.85187,1.86615-.66541,1.13788,.44373,.34326,1.93634,1.33374,2.39923,.06543,.03052,.15234,.01727,.20184-.03528,1.09229-1.15991,1.14594-5.02258,.06537-6.02173Zm-21.22168-12.92505c.14838,0,1.17371,3.55188,.00427,4.48706-.38989-.93951-.25171-4.48706-.00427-4.48706Zm-1.02454,18.16705c-.81366-1.14471-2.4057-3.56183-2.20227-3.73322,.6825-.57495,1.78632-1.98334,2.59222-4.76727,.23755,.19965,1.42596,1.04559,1.49115,1.32019,.46881,1.97589-.72607,5.61273-1.8811,7.1803Zm1.02417-10.3421c-.07648-.05359-.12811-.13251-.13391-.22571-.06567-1.0567,.64185-2.81677,.86584-3.59332,.31299,1.38293,.32147,4.48798,.32147,4.48798-.10248-.0094-.77545-.47424-1.05341-.66895Z"/></svg>