<?xml version="1.0" encoding="utf-8"?>
<!-- Generator: Adobe Illustrator 26.5.0, SVG Export Plug-In . SVG Version: 6.00 Build 0)  -->
<svg version="1.1" xmlns="http://www.w3.org/2000/svg" xmlns:xlink="http://www.w3.org/1999/xlink" x="0px" y="0px"
	 viewBox="0 0 1004.6 1345.5" style="enable-background:new 0 0 1004.6 1345.5;" xml:space="preserve">
<style type="text/css">
	.st0{display:none;}
	.st1{display:inline;}
	.st2{stroke:#000000;stroke-width:0.8898;stroke-miterlimit:10;}
	.st3{fill:#EDEDED;}
	.st4{fill:#89AECF;}
	.st5{fill:#9AB87A;}
	.st6{fill:#4D4D4D;}
	.st7{fill:none;stroke:#000000;stroke-width:7;stroke-miterlimit:10;}
	.st8{fill:none;stroke:#000000;stroke-width:3.1661;stroke-miterlimit:10;}
</style>
<g id="Livello_1" class="st0">
	<g id="Livello_2_00000101073911736054876400000007648433737962889123_" class="st1">
		<path class="st2" d="M467.7,874.4c-23.5-3.5-97.5-45.5-151.2-54.2C207.6,906.3,143,820.3,140.1,796c-0.5-21.3,67.4-107,64-124.1
			l-45.8-63.3c-5.6-30,36.8-42.9,45.6-40.5c-4.6-31.3,26.6-28.8,52.2-39.9c10.8-7.3,23.7-18.4,33.1-9.6c5.1,4.7,17.2,4.7,20.1,4.2
			c2.7-0.5,3.2-1.6,8-13.4c2.7-6.7,6.4-7.9,9.7-10.1c6.5-4.6,10.6,1,12.1,1.4c8.5,2.3,14.9,7.6,21.7,5.9c7.5,1,10-9,18.4-17.8
			c17.4-18.4,20.4-22.2,19.7-29.7c-0.6-5.5,1.3-5.1-1.6-14.9c-1-3.3,2.6-6.5,4.5-9.6c3.1-5,7.2-3.2,16.1-4.1
			c20.3-2,21.8-21,49.6-35.6c5.8-3,18.1-5,35.6-8.2c3.8,0.1,30.7-2.5,34.7,8.8c2.6,7.4-6.4,14.2-3.1,19.4c3.3,5.2,13.4,0.2,23.5,3.8
			c12.1,4.4,16.9,18.6,22.5,34.7c13.6,39.3,75.9-0.5,77.3,2.2c52.7-1.4,80.4-43.5,116.9-0.7c15.4,18.1,60.9,149.2,66.6,168.1
			c21.7,132.9-61,174.7-64.9,184.8c-22.1,26.4-27.6,36.5-67,81.2c-22,33.9-87.1,15.8-117.3,10.1c-11-2.1-24.4-11.4-48.2-10
			c-17.8,4.6-32.2,7.7-41.9,10.6L467.7,874.4z"/>
	</g>
	<g id="Livello_1_00000049217459411168692530000013546976312261620393_" class="st1">
		<g id="a">
			<path class="st3" d="M212.3,761.4l44.2-28.1l25,41.7l8.5-5.4l-49.8-61.3c0,0-12,7.3-13.7,8s-7.1,2.8-7.8,2.8
				C218,719.1,209.3,757.6,212.3,761.4z"/>
			<polyline class="st3" points="149.3,862.6 179.5,850.5 176.3,844.8 176.6,844.6 203.8,890.9 310.8,824.1 284.1,779.2 293,773 
				343.2,834.5 312.3,857.4 188.2,934.6 			"/>
			<path class="st3" d="M577.3,478l-6.3-26.3c0,0,7.8-1.9,11.3-2.1c3.5-0.2,12.5-1,12.5-1l-0.6,25.9L577.3,478L577.3,478z"/>
			<path class="st3" d="M569.9,446c0,0,0.2-4.2-7.6-11.3c-7.8-7.1-11.1-7.9-13.3-8.2c-2.2-0.3-3.3-0.4-3.3-0.4v-13.9l41.7,0.4
				l-1.2,29.7c0,0-4.5,0-7.6,1C575.5,444.3,569.9,446,569.9,446L569.9,446z"/>
			<path class="st3" d="M589.6,637.3l-17.2-12.5L560,639.2l-2.8-2.3c0.1-0.1,0.1-0.2,0.1-0.2l12.5-13.8c0,0-13.4-6.6-18.7-7.7
				c-5.3-1.2-15.2-4.9-16.9-4.5c-1.7,0.4-28.2,16.8-28.2,16.8s-0.3,5-1.6,6.2c-1.3,1.2-9.4,14.1-13,16.8
				c-3.6,2.7-11.1,10.1-11.1,10.1S478,678,478,678.5s-4.1,10.1-4.1,10.1l-5,13.1c0,0-5.3,10.1-5.5,11.9s-0.3,7.9-1.2,9.5
				c-0.9,1.7-5.4,9-5.4,9l6.1,10.4l40.8-10.4l28-6.6l-13-23.1c0,0-5.4-10.3-4.8-12.1c0.7-1.8,1.6-6.3,4.7-9.6l4.9-5.2l2.5,1.9
				l-4.2,4.4l-2.1,2.7c0,0-2.4,2.9-2.3,4.9c0.5,6.4,5.8,15.2,5.8,15.2l5,9l6.1,11.1l13.2-2.8c0,0-0.8-2.6-1.2-7.3
				c-0.4-4.6-0.2-6.8-0.2-6.8l3.3-0.3v8.1l2.5,6.3c1.2-0.7,19.7-1.9,19.7-1.9l7-24.5c0.5-1.3,1.8-4.6,3.3-6.9s2.6-11.4,4.2-14.9
				c1.7-3.5,3.2-20.1,4.1-23.8C591.1,646,589.6,637.3,589.6,637.3z M525.2,673.4l0.3-0.4c0,0,22-26,23.8-27.3
				c1.2-0.9,3.9-4.2,5.9-6.4l2.8,2.3l-30.3,33.8L525.2,673.4z"/>
			<path class="st3" d="M602.3,603.3l-0.6-0.1c0,0-0.2,2.1-3.5,3.7c-3.3,1.6-12.7,1.1-14.4,2.9c-2.3,2.4-6.6,3.8-7.9,5.9
				c-0.4,0.7-1.2,4.7-0.4,5.6c3.1,3.4,15.3,13.1,15.3,13.1h21.6l0.5-20.3l26.2-0.7v-3.3L602.3,603.3L602.3,603.3z"/>
			<path class="st3" d="M592.6,604.8c2-0.4,5.4-2.7,5.4-2.7l-18.5-4.5l-2.8,14.3c0,0,3.1-3.1,6.6-4.9
				C586.8,605.1,590.6,605.1,592.6,604.8L592.6,604.8z"/>
			<path class="st3" d="M611.6,569.5c4.7-2.3,10.6-5,14.9-5.3c4.2-0.3,9.2-1.6,9.2-1.6s-8-5.8-12.1-7c-4.1-1.2-18.8-2.6-18.8-2.6
				l-12.1,41.3l8.6,1.6l0.8-3.3l2.5-10C604.5,582.5,606.9,571.8,611.6,569.5z"/>
			<path class="st3" d="M634.5,597.5h4.5l-1.7-31.6c0,0-8.7-0.4-14.8,2.2c-6.1,2.6-11.1,4.2-13.7,10.7c-2.5,6.2-4.1,17.3-4.2,18.2
				v0.1l25.2,6.2l1.9-2.8l-8.1-23.4l2.7-1.3L634.5,597.5z"/>
			<path class="st3" d="M726.2,486c-0.3-0.7-1.1-3.3-1.9-5.6c0,0-8.3,2.3-10.9,4.9c-2.7,2.6-4.3,8.3-4.3,8.3s-1.9,4-3.4,7.3l-3.3-1
				c1.8-4.8,3.8-9.6,4.9-12.4c1.7-4.4,5.1-7,5.1-7l-47.3,13.7l-5.4,17.4l-2.6,1.9l5.9-19.3l-60.2,17.1l-32.8,9.1
				c0,0,6.4,5.8,10.6,9.8c3.9,3.7,14.1,9.3,15.7,10.1l0,0c0,0,2.2-2.7,3.7-3.2s2.8-1,5-1.3c2.2-0.3,6.1,0.2,7.9,0.3
				c1.1,0,5.5,0.2,10.7,3s6.8,3.5,9.2,5.1c2.1,1.4,4.9,3.6,7.6,5.4c0,0,2.4,2.4,3.4,3c2.7,1.7,9.6,4.8,12,4.6
				c4.1-0.4,10.5-0.9,13.8-1.8c5.3-1.5,11.9-4.2,13.9-6.4c1.4-1.6,2.9-2.8,4.8-8.4c1.2-3.5,2.6-7.5,3.9-11.3l3.9,1.1
				c-0.3,0.8-0.5,1.6-0.7,2.2c-1.4,4.1-4.5,10.2-4.5,10.2c-2,3.8-9,11.5-9,11.5l0,0l13.6,9.9c0,0,0.7-0.4,4.8-5
				c3.9-4.4,13.3-15.3,15.5-31.5c1-7.3,1.9-12.2,2.6-15.4c0.7-3.2,4.2-11,6.8-14.5C726.7,495.5,727.4,489.4,726.2,486L726.2,486z
				 M703.9,504.9c-0.9,1.6-4,12.5-4,12.5s-1.7,5.7-3.2,10.4l-3.9-1.1c2.3-6.9,4.3-12.5,4.3-12.5s2-5.6,4.4-11.8l3.2,0.9
				C704.3,504.1,704,504.6,703.9,504.9z"/>
			<path class="st3" d="M645,558.7c-1.4-1.7-3.8-4-6.5-6c-2-1.4-12.6-10.3-15.6-11.5c-2.9-1.2-12.6-2.9-17-3.1
				c-4.4-0.2-6.5,3.6-6.5,3.6l0,0c0.7,0.3,10.6,5.4,15.1,6.4c4.7,1.1,9.9,1,14.9,4.3c4.9,3.3,11.1,8.8,11.2,8.9l0,0l2.6-0.8l3-0.2
				C646.3,560.5,645.9,559.8,645,558.7z"/>
			<path class="st3" d="M581.6,734.1c-3.3-3.5-11.6-4.6-18.4-6.1s-24.6,2.6-27.5,3.5c0,0,0,0.1,0,0.2c0,2.2-0.5,23.1-2.1,27.7
				c-1.7,4.8-8,10.1-10.5,12.5c-2.5,2.4-2.7,4.5-9.2,9.7c-6.5,5.2-18.4,11.9-18.4,11.9l-1.6,0.6l-1.8-2.5
				c4.4-2.3,10.6-5.8,16.2-10.4c10.8-8.9,13.6-12.6,17.2-15.5c3.6-2.9,5.2-6.6,6-8.6s1.1-15.2,1.1-15.2l0.9-9.9v-0.2l-21.2,5.2
				l-44.5,10.6l5.7,10.7l23.6-12.9l0.9,1.4l-23.7,12.9l8.4,13.8l-5.1,3.5l-1.8-1.7c0,0-9.2,5.3-12,9.4c-2.8,4.1-1.1,8.6,0,12.3
				c0.8,2.7,5.7,6.7,8.4,8.7c0,0,3.4-3.8,5.9-6.3s7.8-5,7.8-5s1.4-0.5,3.5-1.6l1.5,2.3l-0.9,0.4c0,0-7.1,4.1-8.6,5.2
				c-1.5,1.1-7.6,6.1-7.6,6.1l37.1,24.2c0,0,33.8-44.6,35.4-47c1.6-2.4,16.7-17.6,17.8-18.2c1.1-0.6,16.5-20.7,16.5-20.7
				S584.9,737.5,581.6,734.1z"/>
			<path class="st3" d="M359.8,732.5c0,0,24.7,0.6,31.8-3c2.6-1.3,6.8-6,7.8-8.8c2.3-6.7,1.6-28.3,1.6-28.3h-39.5L359.8,732.5
				L359.8,732.5z"/>
			<polygon class="st3" points="439.1,624.7 437.8,566.7 444.5,566.7 457.8,625.8 			"/>
			<path class="st3" d="M439.4,638.3l35.3,14.8c0,0,1.9,1,3.6,0.6c1.7-0.4,13-11.1,13-11.1l7.1-11.7c0,0-6.4,3.1-14.6,3.8
				c-8.2,0.7-44.4-1.2-44.4-1.2V638.3L439.4,638.3z"/>
			<path class="st3" d="M462.1,626.5c0,0,19.7,1.1,23.1,0.8c3.4-0.3,10.3-2.6,10.3-2.6s-15-26.8-14.6-27.2
				c0.4-0.4-23.1,5.1-23.1,5.1L462.1,626.5L462.1,626.5z"/>
			<polygon class="st3" points="455.1,598.3 478.9,591.7 468.9,562.6 447.4,566.7 			"/>
			<path class="st3" d="M437.8,561.3l16.4-2.2l13.2-1.6c0,0-7.6-21-13.3-29.2c-5.7-8.2-11.8-15.8-13.1-17.6
				c-1.3-1.8-9.5,5.4-9.5,5.4s5,27,5.5,36.8C437.5,562.7,437.8,561.3,437.8,561.3L437.8,561.3z"/>
			<path class="st3" d="M475.7,657.9c-0.4,0.1-33.8-13.6-33.8-13.6l-2.6-0.4l-1.6,27.4l31.6,10.1L475.7,657.9z"/>
			<path class="st3" d="M461.9,699.6c0,0,6.3-12.2,5.8-12.3s-29.9-10.1-29.9-10.1l-0.8,12.4l7.9,3.9L461.9,699.6L461.9,699.6z"/>
			<path class="st3" d="M460,705.7c0,0-1.2,7.4-2.2,10.1s-3.7,8.1-4.6,8.5c-0.9,0.4-14.6-27.4-14.6-27.4L460,705.7L460,705.7z"/>
			<path class="st3" d="M501.1,620.7c-0.8-1.7-8.2-11-9.8-15.2c-1.6-4.2-6.4-14.2-6.4-14.2l19.1-4.7c0,0,3.9,4.6,6.2,5.3
				s10,4.2,12.2,7s2.1,7.8,0.8,9.2c-1.3,1.4-6.5,6.2-9.4,7.4C510.9,616.7,501.1,620.7,501.1,620.7L501.1,620.7z"/>
			<path class="st3" d="M483.9,586l18.5-4l-2.3-7.1c0,0-2.4,1-5.5-2.2s-8.2-10.5-9.5-17.6c-1.3-7.1-3.3-9.3-3.3-9.3l-11.6,1.2
				L483.9,586L483.9,586z"/>
			<path class="st3" d="M500.5,538l-33.8,2.2c0,0-5.1-15.2-16.5-26.5c-4.9-4.8-5.8-5.7-5.8-5.7s28-2.7,32.1-2.5
				c4.1,0.2,16.2,0,16.2,0L500.5,538L500.5,538z"/>
			<path class="st3" d="M487.5,544.8c0.6,0.1,14.5-0.9,14.5-0.9s2.7,9.9,4.3,11.7c1.6,1.8,2.8,2.8,2.8,2.8l-8.6,11.1
				c0,0-5.8-1.7-7.1-5.3C492.1,560.5,487.5,544.8,487.5,544.8z"/>
			<path class="st3" d="M514.6,560.8c-0.6,0.1-6.4,9.8-6.4,10.9s-1.2,8.7,0.8,11.9c2,3.2,6.9,3.1,9.3,4.3c2.4,1.2,5.2,2.2,5.7,3.3
				c0.5,1.1,2.8-9.8,4.2-11.5s2.9-9.7,2.4-13s-8.4-5.8-10.3-6C518.4,560.5,516.6,560.3,514.6,560.8z"/>
			<path class="st3" d="M531.4,560.5c0,0-3.5-2-5.7-2.7c-2.2-0.7-6.3,0.5-5.2,0s10.4-9.3,11.6-9.9S531.4,560.5,531.4,560.5z"/>
			<path class="st3" d="M529.1,545.8l-17,10.9c0,0-7.6-35.2-9.8-37.8c-2.2-2.6-3-12.3-3-12.3l20,3.9L529.1,545.8L529.1,545.8z"/>
			<polygon class="st3" points="557.3,521.1 534.8,535 526.4,512.3 			"/>
			<path class="st3" d="M541,558.7c0,0,3.5-1.8,3.4-7c-0.1-5.2-1.2-12.4-2.5-13c-1.3-0.6-6.1,4.5-6.1,4.5s0.1,11.1,1.4,12
				C538.5,556.1,539.7,558.5,541,558.7z"/>
			<path class="st3" d="M547.9,564.1h-9.2c0,0-4.4,14-4.3,27.1h6.7l-0.6,14.8l26.1,9c0,0,5.8-20.3,5.8-22.9
				C572.4,589.8,547.9,564.1,547.9,564.1L547.9,564.1z"/>
			<path class="st3" d="M565.3,514.4l1-12.4c-11.1-3.1-20.8-5.6-31.9-8.6c-1.2-0.3-3.2-1.2-4.5-1.4c-14.7-2.3-29.3-4.7-49.1-5.2
				c0,0-7.8,0.1-12.6,0.8c-4.7,0.7-18.7,2.2-21.2,2.4c-2.5,0.2-6.9,0.7-6.9,0.7l1.4,11.5c0,0,28-3.4,37.4-3
				c11,0.5,26.2-1.1,37.8,2.5c3.2,1,6,1.8,9.3,2.8c1.3,0.4,2.9,1.2,4.2,1.6c10.4,3.4,20.2,6.9,26.8,9.1c2.8,0.9,3.3,1.4,4.7,1.8
				L565.3,514.4L565.3,514.4z"/>
			<path class="st3" d="M585.7,753.2l8.6-11.6l32.9,0.8l0.6,8.3c0,0-13.5,2.5-21.3,3C602,753.9,585.7,753.2,585.7,753.2z"/>
			<path class="st3" d="M572.4,768.8l6.8-10.3c0,0,19.8,1,25,0.8c2.6-0.1,22.9-3.4,22.9-3.4s1.3,13.2,0,19.5s-2.1,16.3-2.7,18.5
				c0,0-12.6-2.2-14.4-3.3s-16.2-9.6-20-11.1S572.4,768.8,572.4,768.8z"/>
			<path class="st3" d="M604.2,797c-5.2,8-5.2,14.7-5,17c0,0.3-0.3,0.6-0.6,0.4L556.9,787l9.9-13.6L604.2,797L604.2,797z"/>
			<path class="st3" d="M540.5,807.8l10.3-14.5l48.7,31.3c0,0,2.6,6.5,2.9,10.2c0.4,3.7,0.2,14-0.1,15.7
				C601.9,852.2,540.5,807.8,540.5,807.8L540.5,807.8z"/>
			<path class="st3" d="M521.4,835.7l16.5-21.8l62.1,42.4c0,0-0.5,6.8-1.4,8.3c-0.9,1.5-2.9,7.3-2.9,7.3l-25.2-8.7l-9.4-4.4
				L521.4,835.7z"/>
			<path class="st3" d="M637.4,884.9l-34.8-9.4c0,0,4.9-5.8,5.8-24.6c0.9-18.7-0.9-15.4-2-24.4c-1.1-9-1.8-12.7,0-17.3
				s2.9-11.2,2.9-11.2l15.4,1.8c0,0,0.6,19.1,2.4,26.1c1.8,7,7.2,13.8,8.3,25s2.4,10.5,2,23.1C637,886.8,637.4,884.9,637.4,884.9
				L637.4,884.9z"/>
			<path class="st3" d="M631.7,804.9l22,1.8v29h-14.5c0,0-6.8-17.3-6.8-20.2S631.7,804.9,631.7,804.9z"/>
			<path class="st3" d="M647,886.4c0,0,21.5-2.1,30.7-7.7c12.1-7.4,21.8-17.1,21.8-17.1s-8.4-3.7-16.5-2.2s-18.4,6.1-22.6,9.5
				c-4.2,3.5-10.3,11.7-11,12.8S647,886.4,647,886.4z"/>
			<path class="st3" d="M666.4,856.8c0,0-5.1-13.9-5-20.4s-1.5-19.6-1.1-20.9s0-3.9,0-3.9s11.9,3.1,20.7,3.9
				c8.8,0.7,12.5,2.4,17.4,0c4.9-2.4,5.1-3.9,5.1-3.9s-0.4,4,0,5.5s5.7,9.7,5.9,10.3s4,6.4,4.2,10.1s-2,9.9-3.1,11
				c-1.1,1.1-3.5,5-7.7,6.1c-4.3,1.1-14.9-0.9-22.7-1.2C675.6,853.3,666.4,856.8,666.4,856.8z"/>
			<path class="st3" d="M655.4,801.7c-0.4,0-23.7-1.2-23.7-1.2s2.9-32.7,2.9-31.6c0,1.1,0-23.7,0-23.7v-3.6c0,0,9.7-2.4,14.3-5.5
				c4.6-3.1,10.5-6.6,11.3-7.3c0.8-0.7,4.5,0,4.5,0l-0.6,18.9c0,0-1.8,15.5-2.9,19.5s-5.1,21.8-5.3,25S655.4,801.7,655.4,801.7
				L655.4,801.7z"/>
			<path class="st3" d="M662.1,804.9c0,0,13.2,4.3,21.7,4.8s12.5,2,17.9-4.8s3.8-10.2,3.8-10.2s-4.7-4.1-6-8.8
				c-1.3-4.7-2.5-17.6-1.5-20.8c1-3.2,5-12.4,4.2-15c-0.8-2.6,0.5-11.1,0.2-12.3c-0.3-1.2-0.2-2.6-0.2-2.6s-13.8-0.2-15.1,0
				s-13.8-4.7-13.8-5s-2.2-1.8-2.2-1.8s0.2,14.1-0.5,17.1s-2.4,23.8-3.5,27.8s-5.2,19.3-5,21.1C662.3,796.2,662.1,804.9,662.1,804.9
				L662.1,804.9z"/>
			<path class="st3" d="M707.8,734.9c0,0,1.7,9.1,0,12.7c-1.7,3.6-4,20.4-4,21.7c0,1.3-0.7,10.9,0,12.6s2.6,9.4,4.7,9.9
				s5.9,0,7.3-2.1c1.4-2.1,11.1-13.4,11.6-14.4s9-15.8,9.7-17.6c0.7-1.8,5.9-9.8,6.6-12.9c0.7-3.1,2.8-7.6,2.4-8.3
				c-0.4-0.7-4-2.4-6.1-2.8c-2.1-0.4-11.6-0.4-14.2-0.2C723.2,733.7,707.8,734.9,707.8,734.9L707.8,734.9z"/>
			<path class="st3" d="M717,699.6l7.8-17.1l-18.2-7.3l-17.5-7.4c0,0-0.2,5.6-0.9,7.4s-3.5,11.9-4.4,13.1s-4.1,6.2-4.6,8.5
				s-2.1,7.8-3.5,10s-3.5,9.3-4.2,10.3c-0.7,0.9-1.7,4.7-1.7,4.7s8.3,4,9.7,4.5s12,3.8,16.3,4s8.5,0,8.5,0s-1.9-9.7-2.6-10.1
				c-0.7-0.4-4.5-0.9-4.4-1.9s2.5-5.2,2.2-6.1c-0.3-0.9-1.4-6.4-0.9-7.3c0.3-0.5,11.1,0.8,11.1,0.8s0.6-4,0.8-4.2
				c0.2-0.1-8.8-1.8-6.3-2.4c3-0.7,7.9-2.3,7.9-2.3L717,699.6L717,699.6z"/>
			<path class="st3" d="M722.2,675.3l-14.9-7.4l8.5-16.4c0,0,15.1,3.5,16.3,4s1.7,1.4,1.7,1.4s-4.7,7.4-5.7,9
				C727.1,667.5,722.2,675.3,722.2,675.3L722.2,675.3z"/>
			<path class="st3" d="M726.2,677l10.9-20.3c0,0,11.1,9.1,11.6,11.1s6.6,15.4,8.7,18.2c2.1,2.8,9.2,13.1,9.2,13.1l-5.7,10.5
				c0,0-17.9-20.3-18.9-21.3S726.2,677,726.2,677L726.2,677z"/>
			<path class="st3" d="M811.4,688.4v-3.5c0,0-4-0.8-6.1-1.1c-2.1-0.3-8.3-1.5-13-5.8s-9.4-5.7-12.7-11.3s-8-9.3-11.6-9.9
				c-3.6-0.6-6.6-1.6-6.6-1.6l-10.9,7.4c0,0,8.7,11.5,9.2,12.7c0.5,1.1,7.3,13.4,8.3,14.8c1,1.4,4.7,6.6,7.3,9.5
				c2.6,2.9,6.8,5.1,6.8,5.1s13.9-9,16-9.9C800.2,693.9,811.4,688.4,811.4,688.4L811.4,688.4z"/>
			<path class="st3" d="M805.8,723.8c0,0,3.4-8.8,4.5-14.2c1.2-5.7,1.2-16.1,1.2-17.3c0-1.2-14.6,11.1-14.6,11.1s0,8.4,2.1,11.8
				C801.5,719.5,805.8,723.8,805.8,723.8z"/>
			<path class="st3" d="M804.1,725.1c0,0-2.6,6.2-3.3,8.6c-0.7,2.4-5.4,10.4-5.4,10.4s-7.1-6.4-8-8.5c-0.9-2.1-1.2-5.4-2.8-8
				c-1.6-2.6-5.4-6.1-6.4-9c-0.9-2.8,1.7-5.4,1.7-5.4l10.1-6.3l3.3-2.2c0,0,1,4,1.7,6.4C796.1,715.2,798.9,721.9,804.1,725.1
				L804.1,725.1z"/>
			<path class="st3" d="M792.5,749.3c0,0-7.3-8-8.5-9.7s-7.1-12.7-7.8-13.4c-0.7-0.7-4-4.2-4-4.2s-4.5,4.2-5.7,4.7s-5.7,2.8-8.3,3.8
				s-3.8,4.2-2.6,5.2s13.2,8.5,13.2,8.5l1.7-2.5c0,0,6.6,8.4,9.2,9.4S789.5,758,792.5,749.3L792.5,749.3z"/>
			<path class="st3" d="M779.6,766.8l-6.8-6.9c0,0-3.5-3.5-4.6-6.4c-1.1-2.9,0-7.1,0-7.1l-15.1-10.1l-2.6,3.5c0,0-1.2,4.6-2.8,7.7
				c-1.7,3.1-9.7,20.2-10.6,21.7s-10.2,14.8-12.3,16.4c-2.1,1.7-9.4,9.4-11,11.1c-1.6,1.5-9,5.7-4.8,17.2c0.3,0.9,0.7,1.9,1.2,2.9
				c6.6,13.7,8.4,21.7,8.4,21.7L779.6,766.8L779.6,766.8z"/>
			<path class="st3" d="M811.4,679v-20.5c0,0-1.9-3.1-4.7-3.3c-2.8-0.2-11.1-4.7-12-5.7s-3.7-5.2-3.6-8.5l0.1-3.3l-23.4,0.6
				l-1.2,13.1c0,0,8.3,2.3,11.4,5.4c3.1,3.1,12.2,13.3,14.6,15.1c2.4,1.8,11.3,7.3,13.9,7.1C809.1,678.8,811.4,679,811.4,679
				L811.4,679z"/>
			<path class="st3" d="M810.5,655.2l-1.4-9.2c0,0-5,0-8.7-1.2s-6.8-6.5-6.8-6.5s-0.2,4.5,2.4,7.7S810.5,655.2,810.5,655.2
				L810.5,655.2z"/>
			<path class="st3" d="M808.8,642.3l-1.2-19.5l-3.4-20.3l-5,0.2c0,0-0.4,5.9-2.5,7.8c-2.1,1.9-4,5.5-12.3,6.9
				c-8.3,1.4-19.3,4.6-23.6,4.7c-4.3,0.1,6.6,11.9,6.6,11.9s12.7-1.4,16.8-0.9s8.6-0.5,11.5,2.4c2.9,2.9,3.3,6.4,6.1,7
				C804.6,643.1,808.8,642.3,808.8,642.3z"/>
			<path class="st3" d="M794.7,603.7l-32.6,3.2l-6.8,11.5c0,0,28.1-3.1,31.6-4.7C790.4,612.1,793.3,607.1,794.7,603.7z"/>
			<path class="st3" d="M802.9,597.5l-41.1,4.4v-3.6l-3.5-0.8v5.3l-6.4,13l-22.7-12.1l19.8-24.5l25.8-6.4c0,0,3.8,4.6,9.4,7.6
				s8.2,5.1,12.4,5.6s3.1,0,3.1,0L802.9,597.5L802.9,597.5z"/>
			<path class="st3" d="M795.5,562.2l-16.7,7.3c0,0,3,6.7,5.5,8.3c2.5,1.6,9.1,3.8,11.5,3.8h3.4L795.5,562.2L795.5,562.2z"/>
			<path class="st3" d="M793.5,554.2c0,0-17-44-18.5-46s-7-13.3-8.9-14.5c-1.9-1.2-4.8-0.9-6.2,0s-4.2,3.8-4.7,5.7
				s-2.1,11.7-2.1,14.2c0,2.5,2.1,25,2.1,25s1,12.4,0,20.1s-3.8,13.3-3.8,13.3s11.4-0.5,24.5-5.3
				C784.9,563.5,793.5,554.2,793.5,554.2L793.5,554.2z"/>
			<path class="st3" d="M746.4,479.6l-12.6,4.5c0,0,0.5,7.5,4.5,10.6s8.5,5.4,11.1,3.8c2.6-1.7,1.2-1.7,1.2-6.8
				C750.5,487.2,746.4,479.6,746.4,479.6z"/>
			<path class="st3" d="M750.5,543.9l-22.8-0.1l-9.5-3.6c0,0,2.1-10.9,2.4-12.5c0.2-1.6,1.9-9.8,2.6-12.6c0.7-2.8,9.4-17.2,9.4-17.2
				s1.7,3.3,5.4,4.5c3.7,1.2,6.4,1.9,8.4,1.7c2-0.2,2.6-0.2,2.6-0.2s-0.9,11.2-0.4,19c0.5,7.2,2.4,15.6,1.9,17.4
				C750.1,541.9,750.5,543.9,750.5,543.9L750.5,543.9z"/>
			<polygon class="st3" points="709.6,559.6 741.8,578 725.6,601.8 692.1,583.4 			"/>
			<polygon class="st3" points="720.6,606.9 689.4,588.2 669.9,612.4 692.7,636.5 701.5,629.2 			"/>
			<polygon class="st3" points="695.2,642.3 711.4,627.3 726.2,610.1 748.9,622.2 724.8,645.5 719.6,643.9 717.5,646.7 			"/>
			<path class="st3" d="M731.9,648.6l22.2-23.8c0,0,8.3,7.3,7.3,14.6c-0.9,7.3-0.7,12-4,14.4c-3.3,2.4-6.8,4.6-6.8,4.6s-7.8-6-9.9-7
				C738.5,650.4,731.9,648.6,731.9,648.6L731.9,648.6z"/>
			<path class="st3" d="M672.2,693.3c0-0.9,7.6-26.6,8-30c0.4-3.4,0.5-20.9-1.7-25.9s-6.1-13.2-10.9-16.7
				c-4.7-3.6-14.2-8.3-18.4-8.4c-4.2-0.1-6.6,0.1-6.6,0.1v1.2c0,0,2.3,0.7,2.8,2.1c0.5,1.4,1.4,16.9,1.4,16.9s0,2.6,1.3,2.6
				s8.4,0.4,10,6.2c1.6,5.8-2.1,24.9-2.1,24.9l-1.4,16.7c0,0,0.9,4.2,3.5,5.2C660.9,689.4,672.2,693.3,672.2,693.3L672.2,693.3z"/>
			<path class="st3" d="M609.8,707.7l0.1-1.1h-3.2l2.6-8.8v-9.3h-20.8c0,0-9.4,13.7-10.9,26.9c-1.5,13.2,0.7,9.9,5.3,13.9
				s10.8,6.1,22.6,7.1c11.8,0.9,21.1,1.7,38.9-4.7c9.9-3.6,16.8-14.4,20.4-19.4c3.6-5,5.1-14.2,5.1-14.2l-11.3-4.3l-0.7,1.9
				l-8.8-2.5l1.5-2.4l-7.8-2.5h-10.7l-19.1,0.1l0.2,18.9L609.8,707.7L609.8,707.7z"/>
			<polygon class="st3" points="587.8,592.9 582.1,591.2 596.5,548.7 600.7,551.3 			"/>
			<path class="st3" d="M578.2,590.4l16-44.6c0,0-14.1-8-18.1-10.8c-4-2.8-12.2-12.2-12.2-12.2L543.2,537l4.2,10.1v11.6l6,1.8
				L578.2,590.4L578.2,590.4z"/>
			<path class="st3" d="M697.2,465.4c-55.3,18.2-88.4,23.7-114.5,32.4c-1.4,0.5-4,2.3-8.7,3.3l-1.6,12.5l127.4-36.7L697.2,465.4
				L697.2,465.4z"/>
			<path class="st3" d="M817.8,595c-3.4-17.9-5.8-30.1-9-40.5l-8.3,4.2l9.6,37.2L817.8,595L817.8,595z"/>
			<path class="st3" d="M819.5,599.3c0.4,2,0.7,4.1,1.1,6.3c2.5,14.2,5.7,43.6,6.4,74.4l-9.3-0.4c0,0,0.4-29.7-1.8-43.8
				c-2.2-14-4.5-36-4.5-36L819.5,599.3z"/>
			<path class="st3" d="M826.2,692.3c-0.8,9.1-2.3,18-4.7,26.5c-3.2,11.5-7.7,21.1-7.7,21.1c-2.2,4.7-3.8,8.8-6.5,13l-6-5.1
				c0,0,6.7-9.1,11.1-22.1c4.4-13,6.3-33.3,6.3-33.3L826.2,692.3z"/>
			<path class="st3" d="M717.7,862.3c0.6-0.6,1.2-1.2,1.8-1.9c15.4-18.8,21.1-25.1,43.1-51.9c7.1-8.6,13.3-16,25.3-30.8
				c6.9-8.5,12.8-13.9,17-19.9l-5.8-4.1l-28.2,32.6L755.2,806L712,857.5L717.7,862.3L717.7,862.3z"/>
			<path class="st3" d="M641,899.9c4.4,0.3,9.4,0.3,15.2-0.4c18.4-2.3,31.1-10.7,37.4-14.9c4.1-2.7,10.1-5.3,20.2-15.9l-5.6-5.5
				c0,0-16.2,14.2-25.8,19.6s-19.2,9.1-27,9.9s-12.6,0.7-12.6,0.7L641,899.9z"/>
			<path class="st3" d="M596.4,889.3c20.1,7.4,29.1,8.9,36.5,9.8c0.3,0,0.6,0.1,0.9,0.1l0,0l0.9-6.9l-35.6-9.9L596.4,889.3
				L596.4,889.3z"/>
			<path class="st3" d="M509.7,850.1c14.6,7.2,45,24.9,79.4,37.8l3.3-8.2c0,0-26.6-10.4-35.5-14.8c-3-1.5-41.3-22-41.3-22
				L509.7,850.1C509.9,850.1,509.4,850,509.7,850.1"/>
			<path class="st3" d="M768.4,463.6l-39.2,14.3l1.7,3.1l18.7-7.8l6.9,14.8c0,0,8.9-2.9,13.4,0.9c4.4,3.9,11.4,20.6,11.4,20.6
				l16.3,40.2l9.2-2.8l0,0c-2.4-7.1-4.8-13.9-8.1-21.6C783.6,489.8,768.4,463.6,768.4,463.6L768.4,463.6z"/>
			<path class="st3" d="M753.3,729.4l9-14.7l8.1,4.6c0,0-4.6,4.1-6.8,5.2C761.3,725.5,753.3,729.4,753.3,729.4L753.3,729.4z"/>
			<path class="st3" d="M765.1,710.7c0.7,0.7,6.6,4.6,6.6,4.6l5-6.4l-8-6.7L765.1,710.7L765.1,710.7z"/>
			<polygon class="st3" points="340.3,739.6 348.6,739.6 349.3,717.9 341.6,717.4 			"/>
			<path class="st3" d="M298.7,731.9v-17.7l40.8,2.8v5.9l-6.5-0.2v1.4l-1.7-0.2l-0.4,7.9l-3.8,0.2l-0.5,6.5c0,0-10.1-2.5-13.6-3
				C306.3,734.5,298.7,731.9,298.7,731.9L298.7,731.9z"/>
			<path class="st3" d="M662.8,612.3c0,0-5.5-3.7-10.5-5.4s-7.8-1-7.8-1l-2.2-41.7l8.7-1.1l1.4,21.5l16.2,19.7L662.8,612.3
				L662.8,612.3z"/>
			<path class="st3" d="M727.1,683.2c0,0,12.1,9.7,14.8,12.9c2.6,3.2,7.9,9.6,9.4,11.1s6.2,4.5,6.2,4.5l-7.9,19.8c0,0-4-2.1-6.2-2.1
				s-31.2-1-31.2-1l-1.9-6.5l-3.6-0.7l-2.1-2.1l-1.1-3.8l4.9-6.6l5.8,0.9l2.4-5l2.1-3.1L727.1,683.2L727.1,683.2z"/>
			<path class="st3" d="M503.7,862.3l4-7.6l36.5,19.1c0,0-12.3-1.1-16.5-1.9S503.7,862.3,503.7,862.3L503.7,862.3z"/>
			
				<rect x="661.1" y="558.6" transform="matrix(0.9624 -0.2715 0.2715 0.9624 -127.0779 203.0722)" class="st3" width="18.5" height="4.4"/>
			<path class="st3" d="M465.6,807.2c-5.7-6.9-8.1-10.1-11.6-18.1c-3.6-8-2.8-14.6-2.8-14.6s11.1-5.5,13.2-7.5s2.4-2.2,0.9-5.3
				c0.1-0.6-12.9-24.9-12.9-24.9l-24.5-43.5h-20.5c0,0-0.3,26.1-3.2,31c-2.9,4.8-7,9-12.2,10.4c-1.9,0.5-6.6,1-11.6,1.4
				c-0.2,0-0.5,0-0.7,0.1c7.8,0.3,14.8,7.2,18.7,10.7c2.3,2.1,6.2,7,7.8,11.5c1.6,4.5,1.5,17.7,1.5,17.7s3.5,17.1,8.3,24.7
				c3.8,6,15,12.1,31,13c14.5,0.8,19.6-3.2,20.5-4c0.1-0.1,0.1-0.1,0.1-0.1L465.6,807.2z"/>
			<path class="st3" d="M471,812.3c0,0-0.1,0.1-0.3,0.2c-1.1,0.6-5.2,2.7-9.1,3.3c-1.1,0.2-2.7,0.4-4.5,0.5c-0.1,0-0.3,0-0.4,0
				l0.2,1.2l4.3,28.9c1.4,0.2,2.7,0.4,4,0.6c12.9,1.9,15.3,5.1,24.8,5l16.7-15.6L471,812.3z"/>
			<path class="st3" d="M406,778.7c-0.8-3.5-1.3-6.5-1.4-9c-0.2-3.8,0.7-5.8-1.5-11.5c-3-7.9-14.8-15.8-14.8-15.8
				c-1.1-1-4.2-3-7.3-3.9c-4.1-1.2-16.7,0.7-18.1,1.2l0,0c7.2-0.6,11.3,3.9,12.4,5c1.1,1.1,7.5,13.1,7.5,13.1s7.3,13.5,8,15.3
				s1.7,4.1,0.7,5.8c-1,1.7-3,1.9-3,1.9l3.2,5.9l12.8-7L406,778.7L406,778.7L406,778.7z"/>
			<polygon class="st4" points="404.4,779.5 404.4,779.6 405.9,778.7 			"/>
			<path class="st3" d="M438.6,484.4l0.6-24.9c0,0-10.3-13.6-12.2-13.5c-1.9,0.1-8.2-2.3-12.1,0c-3.9,2.3-14,12.5-17.7,19.4
				s-5.6,8.4-5.6,8.4v12.5c0,0,17.2,0.9,23,0.7C420.6,486.7,438.6,484.4,438.6,484.4L438.6,484.4z"/>
			<path class="st3" d="M541.9,354.6c0,0,1.7,35.3,0,49.5c-1.7,14.2-1.8,21.1-1.8,21.1l-18.2-1.4l-1.6-64L541.9,354.6L541.9,354.6z"
				/>
			<path class="st3" d="M518.1,425.2c0,0-4.9-0.3-8.5,0.5c-3.7,0.8-5.4,1.9-8.6,3.4s-9.3,4.1-9.3,4.1s-0.1-26.9-1.6-34.3
				s-2-11.4-2-11.4s10.8-1.6,15.1-2c4.3-0.4,13.5-0.4,13.5-0.4L518.1,425.2L518.1,425.2z"/>
			<path class="st3" d="M460.1,398.3c0,0,6.2-4.9,8.9-5.5s14.3-3.5,14.3-3.5s3.8,15.9,3.5,24.3c-0.3,8.4,1.1,20.6,1.1,20.6l-9,4.3
				C479,438.6,460.1,398.3,460.1,398.3z"/>
			<path class="st3" d="M475.6,439.2l-33.2,16.1c0,0-7.9-10.4-10.1-11.4s-3.8-2.7-3.8-2.7l20.1-11.4l-1.4-1.4l-18.7,11.2
				c0,0-10.7-2-16.3,0.3c-5.6,2.3-14.5,13.3-14.5,13.3l-9.3-10.1c0,0,21.5-17.8,25.7-20.3s43.6-20.4,43.6-20.4L475.6,439.2z"/>
			<path class="st3" d="M725.5,440.4c-2.7-3.4-12.3-11.2-17.3-10.6s-12.3,13.7-12.3,13.7l0.9,11.2c0,0,4.5-1.1,6.8-2
				s20.7-3.8,20.7-3.8l2.7-6.7C726.6,441.8,725.9,440.9,725.5,440.4z"/>
			<polygon class="st3" points="712.9,421.8 712.9,421.8 728.7,437.3 732.4,425.7 			"/>
			<path class="st3" d="M212.9,719.6c0,0,0.6,0.5-4.5,0c-5.1-0.5-12-6-17.9-6.3c-5.9-0.3-13.4-1.8-21.8,0.9
				c-8.4,2.7-68.8,42.8-68.8,42.8l21.8,24l-9.6,7.8l36.2,71.5l24.5-9.8c0,0,2-1,0.9-2.9c-1.1-1.9-27.8-49.1-27.8-49.1l59.2-36.8
				c0,0,1.7-1.7,3.1-10.4C209.6,742.6,212.9,719.6,212.9,719.6L212.9,719.6z"/>
			<path class="st3" d="M720.3,877.1l4.3,3.9l-9.7,10.6c0,0,2.8,4.5,7.8,6.7c4.9,2.2,12.6,4,18.7,2.5c6.1-1.4,7.6-1.5,8.2-6.8
				c0.6-5.3-1.2-16.3-2.6-20c-1.4-3.7-6.3-9.8-6.3-9.8l-11.6,12.2l-4.4-4.1"/>
			<path class="st3" d="M360.9,791.5c-0.9-1.3-8.8-14.7-10.3-17c-1.4-2.2-7.9-18.2-7.9-18.2l2.2-0.8l-1.6-3l-0.9,0.4
				c0,0-0.2-1.7-1.1-3.3c-0.8-1.7-4.1-4.2-5.9-5.7s-18.9-5.5-21-6.3c-2.1-0.7-13.9-3.2-17-3.7s-12.9-5.2-14.9-7.2s-2.9-10-2.8-11.8
				s1.4-8.4,6.8-10.6s10.4-1.1,10.4-1.1s39.1,3.9,44.7,3.8c5.6-0.1,5.4-4.5,5.4-4.5l0.2-11.4c0,0-58.5-1.8-64.9-1.4
				c-6.4,0.4-18.8,0.1-25.1,5.6c-6.3,5.4-13,9.9-13,9.9l68.7,83.4l44.6,5.4l3.2,4.2l-44.3-5.1l32.4,40.6l14-23.2l5-0.5
				c-0.9-3.7-1.6-6.5-1.8-6.9C365.5,801.6,361.8,792.8,360.9,791.5z"/>
		</g>
		<g id="b">
			<path class="st4" d="M344.5,745.3c-1.4,1.7-1.4,3.2-2.1,2.6c-0.7-0.6-2.5-3.2-3.4-3.5c-0.9-0.4-6.7-5-10.2-5.5
				c-3.5-0.6-13.8-3.2-18.6-4c-4.8-0.8-5.4-0.8-13.2-3.6c-7.7-2.8-11.1-8.1-11.6-10.7c-0.5-2.6-0.1-6.6,0.4-7.4s2.1-4.5,7.7-4.8
				c5.5-0.4,24.8,1.2,24.8,1.2l17.3,1.8c0,0,8.8,0.6,9.9,0.5c1.1-0.1,4.6-0.5,4.4-9.9c-0.1-9.4,0-10.4,0-10.4l-2.6-0.1l-0.2,11.4
				c0,0,0.2,4.4-5.4,4.5c-5.6,0.1-44.7-3.8-44.7-3.8s-5-1.2-10.4,1.1c-5.4,2.2-6.7,8.8-6.8,10.6s0.8,9.8,2.8,11.8s11.8,6.7,14.9,7.2
				s14.9,2.9,17,3.7c2.1,0.7,19.2,4.8,21,6.3c1.8,1.5,5.1,4,5.9,5.7s1.1,3.3,1.1,3.3l0.9-0.4l4.9-2l0.5-8.1
				C348.6,742.5,345.9,743.6,344.5,745.3z"/>
			<path class="st4" d="M552.1,882.7c-4.9-2.1-16.3,3.3-16.3,3.3s-26.5,13-35.4,14.9s-8.4-2.1-11.7-5c-3.3-3-14.1-23.1-14.1-23.1
				l-9.3,9.5c0,0,1.9,3.8,4.9,7.3c3,3.4,8.7,17.6,8.7,17.6s3.6,8,10.1,9s10.2-1.2,10.2-1.2s55.1-24,56-25c0.1-0.1,0.2-0.3,0.3-0.5
				C556.2,888,556.4,884.6,552.1,882.7z"/>
			<path class="st4" d="M764.6,457.4c-0.5,0.7-0.4,2.2-3.2,4.4c-3.7,2.9-6.1,4-13.5,6.6s-19.5,6.5-19.5,6.5l0.9,3l39.2-14.3
				L764.6,457.4z"/>
			<path class="st4" d="M708.6,421.6c-2.3,0.9-14.5,14.8-14.5,14.8l1.8,7.1c0,0,7.4-13.1,12.3-13.7c5-0.6,14.6,7.2,17.3,10.6
				c0.4,0.5,1.1,1.4,1.3,1.7l1.8-4.8l-15.7-15.5C711.9,421.4,710.1,420.9,708.6,421.6z"/>
			<path class="st4" d="M523.2,704.7c0,0-5.2-8.8-5.8-15.2c-0.2-2,2.3-4.9,2.3-4.9l2.1-2.7l4.2-4.4l-2.5-1.9l-4.9,5.2
				c-3.2,3.2-4,7.8-4.7,9.6s4.8,12.1,4.8,12.1l13,23.1l2.6-0.8l-6.1-11.1L523.2,704.7z"/>
			<path class="st4" d="M558.1,641.5l-2.8-2.3c-2,2.2-4.7,5.6-5.9,6.4c-1.9,1.4-23.8,27.3-23.8,27.3l-0.3,0.4l2.6,1.9L558.1,641.5z"
				/>
			<path class="st4" d="M557.2,637l2.8,2.3l12.4-14.4l-2.6-1.8L557.2,637C557.4,636.8,557.3,636.9,557.2,637z"/>
			<path class="st4" d="M598,602c0,0-3.4,2.3-5.4,2.7c-2,0.4-5.8,0.3-9.3,2.1c-3.5,1.8-6.6,4.9-6.6,4.9l2.8-14.3l-2.1-0.7
				c0,0-2,8.1-2.5,9.1s-0.7,6-0.8,7.2s-1.7,3-2.2,4.1c-0.5,1.1,3.6,4.1,3.6,4.1c-0.8-0.9,0-4.9,0.4-5.6c1.2-2.1,5.6-3.6,7.9-5.9
				c1.8-1.8,11.1-1.3,14.4-2.9s3.5-3.7,3.5-3.7L598,602L598,602z"/>
			<path class="st4" d="M622.4,568.1c6.1-2.6,14.8-2.2,14.8-2.2l-1.6-3.3c0,0-5,1.3-9.2,1.6s-10.1,3-14.9,5.3
				c-4.8,2.3-7.1,13-7.1,13l-2.5,10c-0.4,2-0.7,3.3-0.7,3.3l3.2,1.1c0.1-0.9,1.7-11.9,4.2-18.2C611.3,572.3,616.3,570.7,622.4,568.1
				z"/>
			<path class="st4" d="M707.3,487.6c-1.1,2.7-3.1,7.6-4.9,12.4l3.3,1c1.5-3.3,3.4-7.3,3.4-7.3s1.6-5.7,4.3-8.3s10.9-4.9,10.9-4.9
				l-1.1-3.4l-10.8,3.5C712.3,480.5,709,483.2,707.3,487.6z"/>
			<path class="st4" d="M692.8,526.7l3.9,1.1c1.5-4.7,3.2-10.4,3.2-10.4s3.1-10.9,4-12.5c0.2-0.3,0.4-0.9,0.8-1.6l-3.2-0.9
				c-2.4,6.2-4.4,11.8-4.4,11.8S695.1,519.8,692.8,526.7z"/>
			<path class="st4" d="M690.6,542.8c0,0,3.1-6.2,4.5-10.2c0.2-0.6,0.5-1.3,0.7-2.2l-3.9-1.1c-1.3,3.8-2.7,7.8-3.9,11.3
				c-2,5.6-3.4,6.8-4.8,8.4c-2,2.2-8.6,4.9-13.9,6.4c-3.3,0.9-9.7,1.4-13.8,1.8c-2.4,0.2-9.3-2.9-12-4.6c-1-0.6-3.4-3-3.4-3
				c-2.7-1.7-5.5-4-7.6-5.4c-2.4-1.6-3.9-2.3-9.2-5.1c-5.2-2.8-9.6-3-10.7-3c-1.8-0.1-5.7-0.6-7.9-0.3s-3.5,0.8-5,1.3
				s-3.7,3.2-3.7,3.2l0,0l0,0l3.2,1.5l0,0l0,0c0,0,2.1-3.8,6.5-3.6c4.4,0.2,14.1,1.9,17,3.1c2.9,1.2,13.6,10,15.6,11.5
				c2.7,1.9,5.1,4.3,6.5,6c0.9,1.1,1.3,1.8,1.2,1.7l-3,0.2l-2.6,0.8l0,0l0,0l1.7,2.7c0,0,8.8-0.9,12.3-1.5
				c4.2-0.7,21.1-5.1,27.1-8.3h-0.1c0.1,0,0.1-0.1,0.2-0.1l0,0C681.6,554.2,688.7,546.6,690.6,542.8z"/>
			<path class="st4" d="M531.6,757.2c-0.8,2-2.4,5.7-6,8.6c-3.6,2.9-6.4,6.7-17.2,15.5c-5.6,4.6-11.7,8.1-16.2,10.4l1.8,2.5l1.6-0.6
				c0,0,11.9-6.7,18.4-11.9c6.5-5.2,6.7-7.3,9.2-9.7s8.8-7.7,10.5-12.5c1.6-4.6,2.1-25.7,2.1-27.9l-2.1,0.4l-0.9,10.1
				C532.7,742,532.4,755.2,531.6,757.2z"/>
			<path class="st4" d="M490,795.7l0.9-0.4l-1.5-2.3c-2.2,1-3.5,1.6-3.5,1.6s-5.3,2.5-7.8,5s-5.9,6.3-5.9,6.3l1.7,1.2
				c0,0,6.2-4.9,7.6-6.1S490,795.7,490,795.7z"/>
			<path class="st4" d="M381,738.4c3.1,0.9,6.3,2.9,7.3,3.9c0,0,11.7,7.9,14.8,15.8c2.2,5.7,1.3,7.7,1.5,11.5c0.1,2.5,0.6,5.5,1.4,9
				l0,0l-0.1,0.1l0.2-0.1c0.4,2,1,4.1,1.5,6.4c1.2,4.9,3.5,14.9,9.2,21c4.8,5.1,13.7,8.8,24.1,10.4c3.7,0.6,9.6,0.4,16.2-0.2v0.1
				c1.8-0.2,3.3-0.4,4.5-0.5c3.9-0.6,8-2.7,9.1-3.3l-3.1-2.6c-0.9,0.8-6.1,4.8-20.5,4c-16-0.9-27.3-7-31-13
				c-4.8-7.7-8.3-24.7-8.3-24.7s0.1-13.2-1.5-17.7s-5.5-9.4-7.8-11.5c-3.9-3.5-11-10.4-18.7-10.7c0.2,0,0.5,0,0.7-0.1
				c-0.7-0.1-1.4-0.1-2.1-0.1c-2.7,0-16.6,1.4-16.6,1.4l0.5,2.2l0.6-0.1C364.3,739.2,376.8,737.2,381,738.4z"/>
			<path class="st4" d="M296.7,519.6c-8.2-5.4-8.4-6-12.1-7.6c-1.1-0.5-2.3-0.6-3.9-0.7c-4.8-0.1-7.9,2.5-12.4,5
				c-3.3,1.9-7.6,4.4-12.1,5.3c-6.5,1.2-8.2-1.9-18.5-3.9c-7-1.3-14.8-2.8-22,0.9c-7.1,3.7-10.2,10.6-11,12.4
				c-4.2,9.3-0.2,14.4-3.2,24.9c-0.7,2.4-2.9,9.4-8.7,15.3c-6.9,7.2-11.5,5-23.3,12.1c-6.4,3.8-16.3,9.7-19.9,20.8
				c-0.6,1.9-2.5,8-0.5,14.9c1.5,5.1,4.5,8.1,10.5,14c16.5,15.9,17.3,15.2,21.7,20.6c4.2,5.1,9.6,11.7,12.1,21.7
				c1.6,6.6,0.4,8.3,2.7,17.2c2.1,8.1,3.6,13.5,8.5,16.9c5.3,3.7,11.7,2.9,14.9,2.5c6.5-0.8,10-3.5,23.1-12.1
				c11.2-7.4,16.9-11.1,19.4-12.1c10.6-4.1,20.5-3.8,26.5-3.7c7.5,0.2,10.5,1.4,24,1.8c7.9,0.3,10,0,11.9-0.5
				c4.4-1,7.2-2.7,13.7-3.7c3.2-0.5,5.6-0.5,7.1,0.9c1.4,1.3,0.9,2.6,2.3,3.9c1.9,1.7,5.6,1.9,7.8,0.2c2.3-1.8,2.2-5.1,2.1-7.5
				c-0.2-4.7-1.9-7.8-5.7-15.1c-3.9-7.5-3.4-9.1-5.9-11.4c-3.4-3.1-7.3-4-8.9-4.3c-2.2-0.5-3.9-0.8-4.6,0c0,0,1.6,5,5,11.7
				c3.9,7.6,6.1,11.8,4.6,14c-1.7,2.4-6.8,0.4-16.2-0.7c-9.9-1.1-10.8,0.4-23.3,0.2c-18.4-0.3-17.3-3.6-28.1-2.7
				c-5.8,0.5-19.5,1.6-30.4,11c-5.5,4.8-7.8,9.5-16,13.3c-3.5,1.6-8.5,3.9-12.4,1.8c-3.9-2.1-3.7-7.1-5.7-17.6
				c-2.6-13.3-4-20.5-8.7-26.5c-1.9-2.5-2.1-1.8-19-12.6c-14-9-18-12-20.4-17.6c-0.7-1.7-2.8-6.5-1.6-12.1
				c1.8-8.7,10.1-13.5,19.4-18.8c14.5-8.2,18.2-5.4,24.2-11.9c3.1-3.4,5.3-9.4,9.6-21.5c4.5-12.4,4.7-16.6,9.2-19.2
				c6.2-3.7,14.1-0.8,15.6-0.2c8.3,3.1,8.5,8.7,18.5,17.4c3.3,2.9,10.1,8.6,19.9,11.7c9,2.8,17.9,2.5,24.9,2.3
				c10.2-0.3,14.3-2,19.2,1.1c2.6,1.7,5.2,4.6,8.5,3.9c1.8-0.4,3.2-1.6,4.3-2.7c1.5-1.4,3.1-2.9,3-4.6c-0.2-2-2.5-2.5-2.3-3.9
				c0.2-1.4,2.7-1.1,3.9-3.2c0.7-1.2,0.7-2.9,0-3.9c-0.5-0.7-5.2-0.7-6.2-0.5c-1.1,0.3-13.6-0.6-38.7-2.3c-24.6-1.7-28-3.3-30.4-6.4
				c-3.2-4.2-3.8-10.3-2.1-15.1c2.8-7.6,11.1-10.1,14.2-11c7.7-2.3,15-0.5,17.2,0c5.6,1.4,7.2,3.3,11.9,3c1.1-0.1,6.1-0.5,9.6-4.1
				c2.2-2.3,1.7-3.7,4.1-8.7c2.2-4.5,3.9-8,7.3-10.3c5.6-3.6,12.5-1.9,13.7-1.6c5.1,1.3,4.8,3.4,11.9,5.9c4,1.4,7.3,2.6,11.2,1.6
				s6.4-3.6,7.5-4.8c3.8-3.9,3.6-4.9,6.6-8.5c1.5-1.7,4.2-4,4.2-4.4c0-0.3-1.1-1-1.1-1c-0.3,0-2.2,1.2-5.1,5c-4.8,6.4-5.5,7.8-8,9.6
				c-1.2,0.9-2.8,2-5,2.5c-3.1,0.6-5.7-0.3-11.8-3.2c-10.2-4.7-10.3-5.3-12.9-5.7c-1.3-0.2-7-1.1-12.1,2.1c-3.3,2.1-4.9,5-7.2,9
				c-3.3,5.9-2.4,7.6-5.5,10.8c-0.8,0.8-4.3,4.4-8.3,3.9C302.2,522.6,298.7,520.8,296.7,519.6L296.7,519.6z"/>
			<path class="st4" d="M444.6,864.8c-1.2-4.6-8.4-7.1-12.2-7.2c-3.8-0.1-21.2-1.4-26.9-2.6c-5.7-1.2-17.2-7.7-21.8-20.3
				c-4.6-12.6-2.8-16.2-5.4-23.8c-3.7-11-9.8-17.8-13.4-22.8c-3.7-5-8.5-14.2-11.3-23.2c-2.8-9-3.7-11.3-3.7-11.3l-5,1.9l-2.2,0.8
				c0,0,6.5,15.9,7.9,18.2c1.4,2.2,9.3,15.7,10.3,17s4.6,10,5.2,11.4c0.2,0.5,0.9,3.2,1.8,6.9c1.6,6.9,3.9,17.4,4.7,24
				c1.3,10,5.3,22.2,11.6,26.4c6.3,4.2,19.2,10.5,27.6,10.4s16.8,0.7,16.9,2.2s-0.1,3.4-1.5,4.1c-1.4,0.7-7.3,5.9-11,10.1
				c-3.7,4.2-8.5,10.9-10.5,12.8c-2,1.9-8,8.5-11.1,10.6s-11,1.5-13.3,1.2s-10.1,0.8-14.9,2.4s-10.6-0.1-17-3.6s-6.6-4.4-12.4-4.1
				c-5.8,0.4-10.1,5.9-10.9,8.2c-0.7,2.4-1.3,9.9-2.9,11.3c-1.7,1.4-3.2,3.5-7.8,4.1s-6.4,2.4-7.4,3.7s-2.1,3.2-2.5,9.7
				s0.6,9.1-1.2,11c-1.8,1.9-2.6,5.7-11.7,7.6c-9.1,1.9-22.9,10.3-29.6,15.5s-7.7,7.7-12,9.9c-4.4,2.2-22.3,10.4-30.6,16.6
				c-8.3,6.3-16,14.2-16,14.2l2.2,3.9c0,0,9.1-9.3,19.5-15.7c10.4-6.4,17.9-9.9,27.1-15.2s14.6-13.9,28.8-19.6
				c14.2-5.7,20.8-8.8,24.1-12.3c3.3-3.4,3.2-6.4,4.2-13.1c1.1-6.7,0.8-8.7,4-11.1c3.2-2.4,6.6-1.9,8.6-3.3c2-1.4,6-3.9,6.4-9.2
				s0.8-8.8,3.7-10.7s5.4-1.9,13.1,1.5s11.4,5.9,17.1,5.4c5.7-0.5,10.1-3.3,12.3-3.3s11.6,1.8,15.7,0.7s12.4-7.1,20.8-15.3
				c8.4-8.3,9.9-12.9,15.1-17.7s10.4-6.1,12.2-8.5C440.9,872.5,445.8,869.4,444.6,864.8L444.6,864.8z"/>
			<polygon class="st4" points="594.2,545.8 596.5,548.7 582.1,591.2 578.2,590.4 			"/>
			<path class="st4" d="M335.3,605.8c-0.1-0.9-0.4-6-0.4-7.4c-0.1-4.7,3.8-8.3,4.2-8.7c2.7-2.4,4.1-1.4,5.9-3.6
				c2-2.5,2.7-6.8,0.9-9.5c-1.8-2.8-5.3-2.6-5.5-4.6c-0.1-1.1,0.9-2.1,1.7-2.6c1.5-0.8,3.2,0,5.1,0.5c0.3,0.1,7.6,1.9,10.5-1.2
				c2-2.1,1.9-6.3,0-7.9c-0.7-0.6-1.5-0.7-4.1-0.5c-7.3,0.4-11.2,0.7-11.3,0.2c-0.2-0.7-0.6-2.3-0.3-3.1c0.3-0.9,3.9-0.4,9.6-0.2
				c6.9,0.3,9.2-1.2,12.7,0.9c0.8,0.5,2.6,1.5,3.1,3.4c0.3,1.3-0.2,1.9-0.7,4.1c-0.9,4.2,0.3,5.2-0.7,6.3c-1.7,1.9-5.2-0.9-8.2,1.2
				c-2,1.3-6.5,0.5-6.7,1.3c-1,4.2,0.7,10.9-0.7,12.3c-1.2,1.2,1.2-1.2,0,0c-1.4,1.4,0.9,4.3-0.5,6.2c-1,1.2-3.3,1.8-5.8,3
				c-3.2,1.6-3.3,3.3-3.5,3.7c-0.1,0.3-0.2,5.2-0.4,6.2"/>
			<path class="st4" d="M453.3,853.6c-6.8-1.4-16.2-2.5-27.2-3c-14.6-0.6-18.4,0.8-24.7-3c-5.4-3.3-8.1-8-10.4-12.2
				c-6.1-10.7-3.6-13.8-7.9-26.4c-2.7-7.8-5.4-11.4-13.8-23.3c-3.5-5-6.4-12.7-7.9-17.3c-4.2-12.9-7.9-18-10.2-25.6
				c0,0,1.3,8.6,2.8,12.6s3.2,11.5,4.3,13.4c1.1,1.9,4.4,11.8,7.4,16.1c3,4.3,11.1,15.7,13.4,19.9c2.3,4.2,4.5,14.3,5.4,19.1
				c0.9,4.8,5.4,15.5,7.2,17.6c4.4,4.8,10.4,9,13.6,9.6c5.2,1,16.1,0.8,19.7,1.3S452.2,853.7,453.3,853.6"/>
			<path class="st4" d="M469.4,478.1c-6.6,0.2-26.5,4.4-26.5,4.4V462c0,0,5.6,7.4,10.5,8.2c3.1,0.5,46.8,1.2,54.8,1.3l-1.4,6.7
				C506.9,478.2,478.8,477.8,469.4,478.1L469.4,478.1z"/>
			<path class="st4" d="M456.9,845.7c-1.9-0.2-11.6-2.4-28.1-1.6c-7.3,0.3-12.1,0.9-17.5-1.2c-6.7-2.7-10.7-7-12.7-9.7
				c-3.2-4.4-3.6-7-10.3-28.3c-1.7-5.3-2.5-7.9-2.9-9c-2.7-6.6-4.9-9.1-12.7-21.5c-5.6-9-6.6-11.2-7.2-12.5
				c-2.6-6.2-3.7-11.7-4.2-15.6c0,0,2.7,3.6,3.7,6.6s4.1,11.2,6.7,14.5s9.1,12.8,10.5,15.5s3.5,4.9,6.1,11.1
				c2.7,6.4,5.2,14.9,6.5,21.3c1.1,5.6,4.6,17,14.5,23c6.1,3.7,16.1,3.2,18.2,3.2s16.2-0.6,22.3,1.1
				C451.5,843.2,456.9,845.7,456.9,845.7L456.9,845.7z"/>
			<path class="st4" d="M580.8,489.1l-1.9-6.6c0,0,42-11.4,55.9-15.4c14.5-4.2,57.9-17.2,57.9-17.2l1.7,7.4c0,0-68.9,18.5-91.2,26.6
				C597.8,485.8,580.8,489.1,580.8,489.1L580.8,489.1z"/>
			<path class="st4" d="M774.9,428.9c0,0-2.4,8.5-3.7,11.1c-1.3,2.6-5,7.8-4,11c0.5,1.4,5.3,2,6.2,0.1c0.4-0.9,1.6-5.5,3.1-9.9
				c1.8-5.2,3.8-10.4,3.8-10.4L774.9,428.9L774.9,428.9z"/>
			<path class="st4" d="M753.4,873.7c-0.4-2.4-1.4-4.6-2.6-6.7c-4.1-7.3-11.3-12.6-11.3-12.6l-14.9,17.9l0.5,0.5l3.8,3.7l11.6-12.2
				c0,0,4.9,6.1,6.3,9.8c1.4,3.7,3.2,14.6,2.6,20c-0.6,5.3-2.1,5.4-8.2,6.8c-6.1,1.4-13.7-0.3-18.7-2.5c-4.9-2.2-7.8-6.7-7.8-6.7
				l9.7-10.5l-4.3-3.9l-1.8,1.8l-12.5,12.4c0,0,5.6,7,12.3,11.5c1.9,1.3,4.3,2.2,6.9,2.8c6.4,1.6,13.8,1.4,17.1,1.3
				c4.7-0.1,10.7-3,12.4-8.8S755.4,884.4,753.4,873.7z"/>
		</g>
		<g id="c">
			<polygon class="st5" points="365.8,597.5 376.7,608 376.1,622.8 365.1,622.8 			"/>
			<polygon class="st5" points="376.7,604.8 377.5,597 368.9,597 			"/>
			<polygon class="st5" points="393.5,623.5 378.7,610.1 378.7,622.8 378.7,623.3 			"/>
			<polygon class="st5" points="379.2,606.9 397.9,624 405,624.1 406.5,597 382.9,597 379.5,599.5 			"/>
			<path class="st5" d="M408.5,555.9l-21.4-0.3l0,0l-1.2,1.7c0,0-2,2.8-2,2.9l0,0l-0.9,35.7h23.6L408.5,555.9z"/>
			<polygon class="st5" points="388.3,632 365.1,683.8 364.6,683.8 374,683.6 404.2,657.8 404.2,632 			"/>
			<polygon class="st5" points="410.4,652.4 431.8,633.4 410.7,632.7 			"/>
			<polygon class="st5" points="377.5,683.7 402.2,685 402.9,662 			"/>
			<polygon class="st5" points="427.9,685.6 432.5,635.3 410.1,655.9 408.9,685.6 			"/>
			<polygon class="st5" points="362.6,622.9 363,597.2 349.9,596.8 345.4,599.4 344.7,616.7 350.1,622.7 			"/>
			<path class="st5" d="M344.4,638c0.9-0.7,2.1-1.9,3.1-3.6c1.1-1.9,1-1.6,1.9-2.4h8.5c0.2,0,0.3,0.3,0.1,0.4c0,0-3.5,3.6-5.1,5.1
				c-0.1,0.1-0.1,0.1-0.2,0.2c-1.6,1.3-8,5.4-8,5.4c-0.3,0-0.6-0.1-0.6-0.3C344.2,641.4,343.8,640.1,344.4,638L344.4,638z"/>
			<path class="st5" d="M345.5,645.2c0.3-2.7,4.3-2.1,9.8-6.8c3.4-3,3.6-4.5,5.6-6.3c0,0,24.3-0.2,23.9,0.2l-21.3,47.2
				c-0.2,0.5-0.9,0.4-1-0.1c-0.4-3.5-2-11.6-6.9-20.4C351.1,650.9,345.3,646.2,345.5,645.2L345.5,645.2z"/>
			<polygon class="st5" points="432.5,624.7 413.2,578.8 410.7,624.1 			"/>
			<path class="st5" d="M432,615l-18.6-44.5l0.3-13.6l16.4,0.3l2.1,57.7C432.2,615.1,432.1,615.1,432,615z"/>
			<polygon class="st5" points="415.1,534.8 429.8,553 414.6,552.6 415.1,534.9 			"/>
			<polygon class="st5" points="409.5,526.6 387.8,499.3 386.5,545.3 388.5,550.2 408.3,551.3 			"/>
			<polygon class="st5" points="393,500.7 410.3,522.8 410.6,502.6 			"/>
			<polygon class="st5" points="414.9,530.2 417.5,532.5 425,518.2 416.2,504.7 			"/>
			<polygon class="st5" points="429.5,549.1 426.2,521 419,534.3 			"/>
			<path class="st5" d="M533.6,875.4c-4.9-1.1-9.6-2.1-14.3-3.5c-7.9-2.3-15.6-6.9-26.2-9.7l-11.3,6l13.4,16.1c0,0,2.8,2.1,8.5,1.6
				S533.6,875.4,533.6,875.4z"/>
			<path class="st5" d="M428.8,513.7l9.2-5.3c0,0-7.3-5-9.2-5.4s-8.6,0-8.6,0s5.3,6.3,6.1,7.5C427.1,511.7,428.8,513.7,428.8,513.7
				L428.8,513.7z"/>
			<path class="st5" d="M734.8,439.7l-0.9,6.3c0,0,5.7-0.7,8.7-0.9c3-0.2,15,1.7,15,1.7L734.8,439.7z"/>
			<polygon class="st5" points="780.5,463.8 785.6,461.2 775.9,455.7 			"/>
			<path class="st5" d="M781.4,465.5l4.6-2.4c0,0,0.1,1.7-0.4,3.2s-1.9,3.9-1.9,3.9L781.4,465.5z"/>
			<path class="st5" d="M787,463.1c0,0,0.5,2.6,0,4c-0.5,1.4-2.1,3.9-2.1,3.9s10.4,20.7,13.6,27.9c3.2,7.2,3.3,8.5,4.5,9.8
				c1.2,1.3,2.5,1.4,6.6,1.9s8.3,3.9,8.3,3.9s2.5,2.4,4.6,2.6s4.8,0.4,4.8,0.4v-10.3l-5,1.4c0,0-2.1,1.1-4.7-3.2
				c-2.5-4.3-9.7-18.5-11.8-23.2c-2.3-5.2-11.1-22.6-11.1-22.6L787,463.1L787,463.1z"/>
			<path class="st5" d="M814,540l-10.9-28.6c0,0,5.6-0.1,9.3,1.8s5.3,3.9,7.3,4.5c2,0.6,4.3,1,6.2,1s1.2,0.1,1.2,0.1l0.5,4.1
				c0,0-5,3.5-6.2,5.1C820.3,529.6,814,540,814,540L814,540z"/>
			<path class="st5" d="M827.7,525.3l1.2,17.5l-12.9,3.6l-1.2-3.1c0,0,4.6-8.9,5.5-10.4C823.1,528.2,827.7,525.3,827.7,525.3z"/>
			<path class="st5" d="M819.2,555.2l12.5-3.4l6.1,37.9c0,0,0.3,2.5,0,3.1c-0.3,0.6-1.4,2.6-3.9,2.4s-4.4,0-5.9-1.9
				c-1.5-1.9-3.2-16.8-4.2-20.6S819.2,555.2,819.2,555.2L819.2,555.2z"/>
			<path class="st5" d="M828.6,597.7l11-0.7c0,0,8.1,41.8,7.7,43.8s-0.5,3.6-2,4.9s-4.7,2.2-6.6,1.4c-1.9-0.8-3.6-8.4-3.6-8.9
				S828.6,597.7,828.6,597.7L828.6,597.7z"/>
			<path class="st5" d="M849,653.6c0,0-2-2.8-3.1-3.1c-1.1-0.3-4.3-2.4-4.3-2.4s4.1-0.7,4.5-1.5s2.1-2.2,2.1-2.2L849,653.6z"/>
			<path class="st5" d="M849.9,656.8c0,0-3.8-4.6-5.6-5.5c-1.8-0.9-5.4-2.9-6.3-3l-0.9-0.1c0,0,3.3,6.9,4.8,10.2
				c1.5,3.3,3,6.6,3,6.6L849.9,656.8z"/>
			<path class="st5" d="M850.7,658.8l-5.4,10.5c0,0,4.1,6.3,5.4,9.7c1.4,3.4,3.8,10.2,3.8,10.2s-1.8-18.8-2.4-22.9
				C851.5,662.2,850.7,658.8,850.7,658.8z"/>
			<path class="st5" d="M852.9,689.2l-15.8-2.5c0,0,3.5-8.7,4.5-9.7s3.4-3.9,3.4-3.9s2.4,3.7,4.1,6.9
				C850.8,683.2,852.9,689.2,852.9,689.2L852.9,689.2z"/>
			<path class="st5" d="M835,684.5v-14.4c0,0,3.2,0.1,4.7,0.6s3.5,1.9,3.5,1.9s-3,2.7-4.1,4S835,684.5,835,684.5L835,684.5z"/>
			<path class="st5" d="M835.3,667.7c0,0,0.9-15.6,0.6-16.8c-0.3-1.2,4.6,8.5,5.1,9.8c1.5,4.3,2.4,8.7,2.4,8.7l-8.2-1.4"/>
			<path class="st5" d="M847.3,698.1l-12.4-2.3c0,0-0.4,10.6-3.4,21.2c-3,10.6-6.9,23.3-9.9,28.3s-8,11.4-8,11.4l23.3,15.3
				c0,0-2-20.5,0-34.1c2-13.6,6-28.9,7.3-32.1C845.6,702.8,847.3,698.1,847.3,698.1L847.3,698.1z"/>
			<path class="st5" d="M811.4,762.7l-18.9,21.2c0,0,7.8,7.3,8.7,8.1c0.9,0.8,7.2,1.1,8.6,1c1.4-0.1,16.8,0.7,20.7-1.6
				c3.9-2.3,7.6-9,7.6-9L811.4,762.7z"/>
			<polygon class="st5" points="792.5,793 789.5,790.7 742.3,847.6 744.7,849.5 			"/>
			<polygon class="st5" points="739.5,854.4 737.7,852.9 723.3,871.1 724.6,872.3 			"/>
			<path class="st5" d="M720.3,877.1l-1.4-1.3c0,0-6.1,6.3-10.4,9.9s-7.1,7.6-17.9,13s-16,7.6-20.5,9.3c-2.9,1.1-6.8,2.5-6.8,2.5
				l2.5,4c0,0,12-2.7,15.5-4.1s17-9.5,18-10.3s9.5-5.7,9.5-5.7l-2.7-3.1L720.3,877.1L720.3,877.1z"/>
			<path class="st5" d="M658.8,911.7c0,0-4.9,0.5-8.9,0.5s-11.9-0.5-11.9-0.5l-6.9,28.1l2.7,2.3l26.4-9.1c0,0,0.5-8.1,0-11.5
				S658.8,911.7,658.8,911.7L658.8,911.7z"/>
			<path class="st5" d="M630.6,910.5l-15.1-5.3c0,0,0.6,3.4,0,7.4s-6.2,25.4-6.2,25.4l13,3L630.6,910.5L630.6,910.5z"/>
			<path class="st5" d="M610.6,912.3l1.7-7.8l-19.5-6.2l-2.2,4.9c0,0,12.5,4.1,14.7,5.3S610.6,912.3,610.6,912.3L610.6,912.3z"/>
			<path class="st5" d="M586.9,901.7l1.9-5.4l-13.6-4.9c0,0-1.3,3-1.3,3.7s1,2.7,2.7,3.2S586.9,901.7,586.9,901.7L586.9,901.7z"/>
			<path class="st5" d="M569.9,896.6c0,0,2.4,1.1,2.7,0c0.3-1.1,0.8-3.8,0-4.8s-13.6-6.3-13.6-6.3l-0.3,7.2L569.9,896.6L569.9,896.6
				z"/>
			<path class="st5" d="M179.4,839.9l-22.3-38.7l43-27.6c0.4-0.2,0.9-0.2,1.2,0.2l2.5,2.9c0.2,0.2,0.5,0.3,0.7,0.1l7.1-4.5
				c0.2-0.1,0.3-0.4,0.1-0.6l-4.4-6.8l-56,35.2l24.3,41.9L179.4,839.9z"/>
			
				<rect x="250.8" y="743.9" transform="matrix(0.8474 -0.5309 0.5309 0.8474 -361.3093 251.0396)" class="st5" width="10.6" height="20.5"/>
			
				<rect x="240.1" y="750.2" transform="matrix(0.8474 -0.5309 0.5309 0.8474 -366.2881 246.3203)" class="st5" width="10.6" height="20.5"/>
			<polygon class="st5" points="227.4,760 233.8,756.1 244.7,773.4 235.7,779.1 226.8,765 			"/>
			
				<rect x="219.3" y="767.8" transform="matrix(0.8562 -0.5167 0.5167 0.8562 -368.4075 227.6028)" class="st5" width="10.6" height="15.5"/>
			<polygon class="st5" points="273.1,781.8 268.8,784.6 258.2,767.7 267.2,762.1 275.1,774.6 			"/>
			
				<rect x="252.1" y="769.6" transform="matrix(0.8474 -0.5309 0.5309 0.8474 -374.5918 255.6073)" class="st5" width="10.6" height="19.9"/>
			
				<rect x="241.1" y="776" transform="matrix(0.8474 -0.5309 0.5309 0.8474 -379.6692 250.7391)" class="st5" width="10.6" height="19.9"/>
			
				<rect x="264" y="789.2" transform="matrix(0.8562 -0.5167 0.5167 0.8562 -374.743 254.2568)" class="st5" width="10.6" height="22.1"/>
			
				<rect x="277.3" y="810.1" transform="matrix(0.8562 -0.5167 0.5167 0.8562 -384.0243 264.2482)" class="st5" width="10.6" height="23.6"/>
			
				<rect x="266.2" y="816.2" transform="matrix(0.8562 -0.5167 0.5167 0.8562 -388.7683 259.3761)" class="st5" width="10.6" height="23.6"/>
			
				<rect x="253.4" y="795.6" transform="matrix(0.8562 -0.5167 0.5167 0.8562 -379.5749 249.696)" class="st5" width="10.6" height="22.1"/>
			
				<rect x="287.7" y="803.8" transform="matrix(0.8562 -0.5167 0.5167 0.8562 -379.268 268.706)" class="st5" width="10.6" height="23.6"/>
			
				<rect x="255.3" y="823.4" transform="matrix(0.8562 -0.5167 0.5167 0.8562 -394.0586 254.7836)" class="st5" width="10.6" height="23.6"/>
			<path class="st5" d="M240.1,802.3l5.1-3.1l-10.6-17.6l-9.1,5.5l7.6,12.6c0.5-0.1,1.1-0.2,1.6-0.2
				C236.9,799.6,238.9,800.7,240.1,802.3z"/>
			<path class="st5" d="M239.7,810.8l9,14.9l9.1-5.5l-10.7-17.6l-5.7,3.5c0,0.1,0,0.2,0,0.3C241.4,808,240.7,809.6,239.7,810.8z"/>
			<path class="st5" d="M230.3,801.3l-17-28.1l-9.1,5.5l19.7,32.7l4.4-2.7c-0.3-0.7-0.4-1.5-0.4-2.4
				C228,804.3,228.9,802.5,230.3,801.3z"/>
			<path class="st5" d="M234.7,813c-1.8,0-3.4-0.7-4.6-1.8l-4.6,2.8l21.2,35.1l9.1-5.5l-18.7-31C236.3,812.9,235.5,813,234.7,813z"
				/>
			
				<rect x="191.8" y="778.6" transform="matrix(0.8562 -0.5167 0.5167 0.8562 -378.9668 216.2873)" class="st5" width="14.4" height="20.5"/>
			
				<rect x="203.7" y="797.8" transform="matrix(0.8562 -0.5167 0.5167 0.8562 -387.1781 225.2005)" class="st5" width="14.4" height="20.5"/>
			
				<rect x="216.4" y="817.7" transform="matrix(0.8562 -0.5167 0.5167 0.8562 -396.197 234.7845)" class="st5" width="14.4" height="22.7"/>
			
				<rect x="229.3" y="839.1" transform="matrix(0.8562 -0.5167 0.5167 0.8562 -405.511 244.5622)" class="st5" width="14.4" height="23.1"/>
			
				<rect x="177.4" y="787.3" transform="matrix(0.8562 -0.5167 0.5167 0.8562 -385.5336 210.1014)" class="st5" width="14.4" height="20.5"/>
			
				<rect x="189" y="806.6" transform="matrix(0.8562 -0.5167 0.5167 0.8562 -393.8343 218.8674)" class="st5" width="14.4" height="20.5"/>
			
				<rect x="201.7" y="826.6" transform="matrix(0.8562 -0.5167 0.5167 0.8562 -402.9122 228.4619)" class="st5" width="14.4" height="22.7"/>
			
				<rect x="214.7" y="848.1" transform="matrix(0.8562 -0.5167 0.5167 0.8562 -412.1536 238.273)" class="st5" width="14.4" height="22.7"/>
			
				<rect x="200.2" y="857.2" transform="matrix(0.8562 -0.5167 0.5167 0.8562 -418.9389 232.0932)" class="st5" width="14.4" height="22.7"/>
			
				<rect x="162.7" y="796.1" transform="matrix(0.8562 -0.5167 0.5167 0.8562 -392.1896 203.7736)" class="st5" width="14.4" height="20.5"/>
			<path class="st5" d="M185.2,835.5l7.8-4.7l-10.6-17.6l-12.3,7.5l8.4,13.9c0.8-0.4,1.7-0.7,2.7-0.7
				C182.7,833.9,184.1,834.5,185.2,835.5z"/>
			<path class="st5" d="M206.3,852.9l-11.7-19.4l-7.9,4.7c0.1,0.5,0.2,1,0.2,1.5c0,2-1,3.7-2.5,4.8l9.5,15.8L206.3,852.9
				L206.3,852.9z"/>
			<path class="st5" d="M217.8,769l4.2-2.4c2.7-1.5,3.9-5.3,2.6-8.5l31.1-19.8l23.1,38.6l2.8-1.9l-25-41.7l-44.2,28.1l4.7,7.4
				C217.2,769,217.5,769.1,217.8,769L217.8,769z"/>
			<polygon class="st5" points="284.1,779.2 280.4,781.5 305.5,823.5 205.9,885.9 181.1,842.9 177.4,845.1 204.3,891.6 311.4,824.7 
							"/>
			<polygon class="st5" points="280.4,784.5 274.8,784.5 269.8,787.5 281.3,806.4 290.3,800.9 			"/>
			<polygon class="st5" points="787.7,459.5 786.5,460.3 772.9,451.6 774.3,447.8 			"/>
			<path class="st5" d="M509.1,478.5c0,0,1.5-8.1,3.3-8.5c1.8-0.4,3.9-1.8,3.9-1.8s21.9-26.5,25.6-30.1c3.7-3.6,8-3.5,11.5-3.5
				s5,3.9,8.9,8.1c3.9,4.2,15.1,46.5,15.1,46.5s-11.7-0.5-13.1-0.7c-1.4-0.2-11.7-2.5-19-4.2c-7.3-1.7-20.7-3.9-27.7-4.8
				S509.1,478.5,509.1,478.5"/>
			<path class="st5" d="M472.8,471c16.1,0.2,35.5,0.5,35.5,0.5l1.4-5.7h4.5l27.7-31.1c0,0-8.3-11.9-43.6,1.5s-42.4,19.8-47.4,20.1
				s-4.7,2.8-4.7,2.8s7.5,7.1,13.3,7.6s13.3-0.5,13.3-0.5L472.8,471L472.8,471z"/>
			<path class="st5" d="M720.9,458.7c-9,1.8-13.6,3.3-13.6,3.3c-2.2,0.8-4.4,1.5-6.6,2.2l2.3,10.7l16.5-5.4
				C719.6,469.5,720.9,458.7,720.9,458.7z"/>
			<path class="st5" d="M394.4,496c1.2-1.7,7-3.1,16.2-2.4l0.2,4.1C409.6,497.5,394.4,496,394.4,496L394.4,496z"/>
			<path class="st5" d="M436.7,502.9l-0.6-11.9c-3.4,0.1-10.3,3.9-14.5,5.9C421.6,496.8,432.5,499.7,436.7,502.9z"/>
			<polygon class="st5" points="671.2,600 684.8,581.5 683,579.8 670.4,588.9 			"/>
			<polygon class="st5" points="500.5,861.5 493.4,860.3 507.4,850.6 			"/>
			<path class="st5" d="M761.4,461.8c2.8-2.2,2.7-3.7,3.2-4.4c-0.9-3.6-6.6-2.6-14-2.7c-5.6-0.1-16.8,1.7-22.9,2.7
				c0,0-1.1,9.7-1,10.5c0.1,0.8,1.7,7,1.7,7s12.1-3.9,19.5-6.5C755.3,465.8,757.7,464.7,761.4,461.8z"/>
			<path class="st5" d="M488.7,895.9c3.3,3,2.7,7,11.7,5s35.4-14.9,35.4-14.9s11.4-5.4,16.3-3.3c4.3,1.8,4.1,5.3,3.4,6.8
				c0.8-1.4,3.1-5.5,1.3-6.2c-0.8-0.4-6.9-4.2-9.9-4.2s-9.9-0.1-13.4,1.2c-3.5,1.2-27.2,11.9-29.5,11.9s-8.8,2.3-15.9-7.1
				c-7-9.4-10.7-14.7-10.7-14.7l-2.9,2.5C474.7,872.8,485.5,893,488.7,895.9z"/>
			<path class="st5" d="M362.4,742.8c0,0,1.2,0,1.8,0.4c0.6,0.4,10.2,7.5,13.6,12.4c3.4,4.9,1.9,7.1,1.9,7.1s-3,1.3-5.2-0.4
				c-2.2-1.7-4.8-3.2-8.4-9.9C362.5,745.7,361.9,743.3,362.4,742.8L362.4,742.8z"/>
			<path class="st5" d="M381.6,764.3c0.7-0.6,2.6,2.3,2.6,2.3s-0.4,1.7,0.2,2.3s2.2,1,2.2,2s0.1,2.4-0.6,2.4s-2.2,0.2-3.1-0.9
				c-0.9-1.1-2.1-3.6-2.2-4.5C380.6,767,381.1,764.7,381.6,764.3z"/>
			<path class="st5" d="M457,817.5l-0.2-1.2c0.1,0,0.3,0,0.4,0v-0.1c-6.7,0.6-12.5,0.8-16.2,0.2c-10.4-1.7-19.2-5.3-24.1-10.4
				c-5.8-6.1-8-16.1-9.2-21c-0.6-2.2-1.1-4.4-1.5-6.4l-0.2,0.1l-1.5,0.8l0,0l-12.6,6.9c-0.1,0-0.2,0-0.2-0.1l-3.2-5.7
				c0,0-2-3.4-2.1-3.8c-0.1-0.4-5.1-4.7-5.5-5.2s-1.9-4.1-2.1-5.3c-0.1-1.2-2.7-2.3-3.9-2.7c-0.9-0.3-3.2-1.6-4.2-2.2
				c-0.2-0.1-0.3,0.1-0.2,0.2c0.6,1.3,2.2,4.6,3.3,6.4c1.4,2.3,9.2,12.7,10.6,15.4c1.4,2.7,4.6,7.9,4.7,8.1l0,0
				c1.9,4.5,5.3,13,5.7,16.8c0.5,5.3,6.6,20.6,10.8,25.4c4.2,4.8,16.4,5.6,18.6,6c2.2,0.4,16.6-0.7,22.9,0.2c7.1,1,12.7,4.9,14.1,6
				c0.1,0.1,0.3,0,0.3-0.2L457,817.5L457,817.5z"/>
		</g>
		<g id="d">
			<polygon class="st6" points="361.9,594.4 361.9,596.7 369.1,596.9 369.1,594.8 379,594.8 379,589.7 369.1,589.7 369.1,587.1 
				361.9,587.1 361.9,589.1 352.5,589.1 352.5,594.3 			"/>
			<rect x="376.9" y="574.8" class="st6" width="4.7" height="12.9"/>
			<rect x="377.4" y="529.5" class="st6" width="5.8" height="14.3"/>
			<rect x="357.1" y="529.2" class="st6" width="15" height="7.4"/>
			<polygon class="st6" points="384.2,527.3 384.2,504.2 379.4,504.2 379.4,523.1 365.8,523.1 362.5,516.5 358.8,518.4 363.3,527.3 
							"/>
			<polygon class="st6" points="385.8,609.9 385.8,605.7 393.8,605.7 393.8,614 389.8,614 389.8,610 			"/>
			<polygon class="st6" points="388.3,644.1 392.2,644.1 392.2,652.1 383.9,652.1 383.9,648.1 388.2,648.1 			"/>
			<path class="st6" d="M687.8,659.8v-11.9H704v2.5c0,0,3.5,0.3,3.6,2.9c0.1,2.6-2.9,3.3-2.9,3.3v3.1h-16.9L687.8,659.8L687.8,659.8
				z"/>
			<path class="st6" d="M645.7,848.3c0,0,0,1-0.6,1.2s-4.7-1.7-4.7-1.7l-0.8-2.4l1.2-3.3c0,0,3.7-2.1,4.4-1.9s0.6,1.2,0.6,1.2
				s4.8-2.3,6-2.2s5.7,2.3,5.8,4.3s-2.5,5.8-5.7,5.9C648.7,849.6,645.7,848.3,645.7,848.3L645.7,848.3z"/>
			<path id="e" class="st6" d="M652.3,642.9l-1.7-1.2v-3l-1.5-0.9l-1.6,0.4l-0.5,1.1l-2.9-0.6v-4.4h-0.8v-5.7l-1.2-3.1h-5.8v-9.4
				h-7.2v2.6H621l-5.4,2.9l-0.2,4l0.5,11.9l-6.5,0.5l0.2,5.2l-2.6,0.2l0.4,6.8l2.7-0.1l0.2,3.7l4.8-0.2l0.4,6.4l6.9-0.6l-0.4-7.1
				l11.4-0.8l0.3,3l6.8-0.4l-0.1-2.8l3.6-0.3l1.4,1.6l1.6,0.2l2.1-2.9h1.5l1.1-1.4l-0.4-2.2l1.1-1.5L652.3,642.9L652.3,642.9z
				 M635.3,635.7h-4.7l-1.1,1.2l0.2,2.2l-8.4,0.5l-0.2-2.3l-2.2,0.1l-0.5-8.8l16.9,0.3V635.7z"/>
			<rect x="351.7" y="574.2" class="st6" width="4.7" height="12.9"/>
			
				<rect x="362.8" y="505.4" transform="matrix(0.8086 -0.5883 0.5883 0.8086 -228.0406 314.3069)" class="st6" width="12.6" height="4.6"/>
			<polygon class="st6" points="379.7,547.6 379.7,549.6 375.3,549.6 375.3,552.9 379.5,552.9 379.5,555 382.7,555 382.7,547.6 			
				"/>
			<polygon id="f" class="st6" points="342.4,612.3 342.4,605.8 325.6,605.8 325.6,612.4 324.3,612.4 324.3,620.3 322.3,620.3 
				322.3,630.4 324.3,630.4 324.3,638.6 326.1,638.6 326.1,644.9 342.4,644.9 342.4,638.3 331.8,638.3 331.8,630.4 332.7,630.4 
				332.7,620.3 331.8,620.3 331.8,612.3 			"/>
			<polygon class="st6" points="746.6,553.9 743.5,553.2 744.1,550.2 742.2,549.8 742.3,549 738.8,548.3 738.6,549.1 735.5,548.5 
				735.6,547.6 732.1,547 732,547.8 728.8,547.2 729,546.4 725.5,545.7 725.3,546.5 723.4,546.1 722.8,548.8 721.8,548.6 721,552.2 
				722.1,552.4 721.5,555.6 723.4,555.9 723.3,556.9 726.8,557.5 727,556.6 730.1,557.3 729.9,558.1 733.4,558.8 733.6,557.9 
				736.8,558.6 736.6,559.5 740.1,560.2 740.3,559.3 742.2,559.6 742.8,556.9 745.8,557.5 			"/>
			<path class="st6" d="M683.4,569.9c-1-1.4-2.3-0.6-2.3-0.6l-1.8,1.1l-1.6-2.8l-21.1,13.6l5.3,9.2l0.5-0.3l0,0l0,0l20.5-13.3
				l-1.8-3.2l2.2-1.4C683.4,572.2,684.4,571.3,683.4,569.9z"/>
			
				<rect x="660.4" y="578.7" transform="matrix(0.8432 -0.5376 0.5376 0.8432 -210.7683 446.8387)" class="st6" width="0.4" height="12.1"/>
			
				<rect x="662.8" y="577.2" transform="matrix(0.8432 -0.5376 0.5376 0.8432 -209.5827 447.8892)" class="st6" width="0.4" height="12.1"/>
			
				<rect x="665" y="575.9" transform="matrix(0.8432 -0.5376 0.5376 0.8432 -208.547 448.8713)" class="st6" width="0.4" height="12.1"/>
			
				<rect x="667.5" y="574.2" transform="matrix(0.8432 -0.5376 0.5376 0.8432 -207.2355 449.9465)" class="st6" width="0.4" height="12.1"/>
			
				<rect x="670.1" y="572.6" transform="matrix(0.8432 -0.5376 0.5376 0.8432 -205.9721 451.0963)" class="st6" width="0.4" height="12.1"/>
			
				<rect x="672.4" y="571.1" transform="matrix(0.8432 -0.5376 0.5376 0.8432 -204.7995 452.0958)" class="st6" width="0.4" height="12.1"/>
			
				<rect x="678.7" y="567" transform="matrix(0.8432 -0.5376 0.5376 0.8432 -201.6176 454.8499)" class="st6" width="0.4" height="12.1"/>
			
				<rect x="676.7" y="568.3" transform="matrix(0.8432 -0.5376 0.5376 0.8432 -202.6207 453.9713)" class="st6" width="0.4" height="12.1"/>
			
				<rect x="674.6" y="569.7" transform="matrix(0.8432 -0.5376 0.5376 0.8432 -203.706 453.0528)" class="st6" width="0.4" height="12.1"/>
		</g>
	</g>
</g>
<g id="ghirigoro">
	<path class="st7" d="M500.6,43.6v272.8c1.7,56.8,0.7,69.1-16,79.6c-33.2,20.7-46.6,16.1-57.8,32.2c-11.5,16.5,3.8,28.2-10.1,46
		c-22,28.4-19.5,29.6-28.5,30.5c-9.7,1-20.1-12.7-33.1-10.3c-17.2,3.2-15.9,24.6-23.4,27.6c-14.3,5.7-14.2-11.9-29.1-11.2
		c-10.5,0.5-4.8,7.5-23.3,10.1c-17.8,2.4-13.8-13-43.5-4.4c-15.4,4.4-15.7,22.4-15.5,24.4c7.4,53.1-58.8,30.8-55.8,76.3
		c1.6,24.9,52.1,34.3,49.7,85.6c-1.5,31.3-74.8,30.7-95.6,60.9c-25.5,36.9,13.2,174.8,86.6,191.8c18.7,4.3,65.4-17.7,112-69.7
		c33-36.7,47.7-36.4,67.1-39.3c40-6.1,96,4.2,116.5,39.2c11.7,19.9,4.7,35.8,17.6,43.2c16.4,9.4,34.8-12.6,70.2-18.4
		c37-6.1,52,12.1,82.2,15.2c67.7,6.9,128.1-70.7,152.4-101.9c18.2-23.4,73.2-100.7,68.3-206.9c-1-22.4-4.4-79.2-42.3-131.6
		c-19.8-27.4-70.5-75.8-95.9-66.6c-12.1,4.4-11.4,19.4-28.7,32.6c-25.8,19.7-59,14-68,12.7c-42.8-6.4-51.2-28-56.7-35.9
		c-0.7-1.1-1.4-2.1-2.1-3.1c-14.4-22.5-44.2-67.1-84.7-9.8c-40,56.5-110,126.2-115.7,239.4c-2.6,51.2,3.2,122.7,55.1,166.6
		c76.7,64.8,104.9-255.9,173.5-120.5c60,118.5,140.4,86.6,171.8,4.5c6.1-15.9,33.5-87.8-4.3-147.4c-46-72.4-168.6-95.5-228.4-39.1
		c-30.4,28.7-42.2,75.7-32.7,116.6C545,689,597.4,744.2,653,734.7c56-9.5,97.6-81.2,80.5-110.5c-18.9-32.3-105.3-49.2-119.6,0.5
		c-4.6,16.1,10.1,66.9,61.1,40.4c30.6-15.9,34.2-63.9,19.1-95c-61.3-126.1-440.9-59-446.6,98.8c-11.2,311.5,282.9-226.8,230.9-9.8
		c-44.2,184.5-238.2,209.1-189.2,121.9c222.2-396,211.5,90.8,211.5,195.2v325.5"/>
	<path class="st8" d="M535.6,43.6"/>
</g>
</svg>
