<?xml version="1.0" encoding="UTF-8"?><svg xmlns="http://www.w3.org/2000/svg" viewBox="0 0 553.73404 420.945"><defs><style>.f{fill:none;}.g,.h,.i{fill:#fff;}.g,.i,.j{stroke:#fff;stroke-linecap:round;stroke-linejoin:round;}.g,.j{stroke-width:.59549px;}.i{stroke-width:.50911px;}</style></defs><g id="a"><rect y=".32122" width="553.73404" height="420.945"/></g><g id="e"><g><g><path d="M250.18581,231.59738c-.62632,7.67761,6.19981,.85858,7.44656-2.41412,4.76384-14.01172-6.78055-5.1766-7.44656,2.41412Z"/><path d="M243.42291,215.20874c-.1035,.38763,.736,.96094,.86038,1.47905,.60743-1.08165,.2853-1.34522-.86038-1.47905Z"/><path d="M254.22086,222.02061c5.21924-2.58907-5.4311-1.41436-6.57222,3.32257,3.95286,3.82065,3.61617-1.40392,6.57222-3.32257Z"/><path d="M236.85694,213.75836c-2.6706-.12589-5.24997,1.46652-6.38557,3.77191-.51532,.88453-1.72164,2.85269,.08571,2.87966,.85861,.15165,1.4162,.63911,2.21902,.57894,1.6765,.90599,2.01363-4.2043,3.1804-5.34818,.63632-.91926,3.26964-2.21519,.90044-1.88233Z"/><path d="M287.62879,226.69252c-2.96905,.60621,.70093,4.2268,.97314,6.17062,.80811,.2814,.39542,2.06902,1.18537,1.9525,1.19-.12519,2.10375-1.06187,3.22642-1.45898,1.72509,.49587-1.17074-3.61636-1.05386-3.9852-1.98084-3.42894-.47334-4.66327-4.33107-2.67894Z"/><path d="M291.85357,225.06618c-1.19044,.9888,2.88209,6.80176,3.20363,8.50869,1.73369,2.40636,3.34977-3.27843,1.98437-4.49629-.42122-2.09974-2.75558-5.20707-5.188-4.0124Z"/><path d="M282.37956,228.09563c-1.50147,.02525-3.43791-.84509-2.69184,1.49533-.4693,1.81827-.41402,3.84388-.49458,5.73724-.75085,1.2866,1.34658,.78587,2.06104,1.14549,1.28836,.05131,2.28973,.41431,2.48182-1.06342-.30853-1.30795,.28214-4.06103,.26082-5.45073,.3408-1.52771-.05337-1.97536-1.61725-1.86392Z"/><path d="M268.77789,227.06419c-.53546,.12729-2.5876-.53498-1.82485,.42019,1.12561,2.21387,2.10191,4.43428,3.09763,6.6605,.36645,1.91416,1.98856,1.70914,3.56134,1.53826-1.28175-1.85205-2.94707-8.64447-4.83411-8.61896Z"/><path d="M259.81,223.05962c.16165,1.86392,.04389,3.60496-.82076,5.28503-.05028,.91481-1.24528,1.98646-.89713,2.78671,1.21808-.09174,2.40309,2.20023,3.14467,.76066,1.26175-2.73069,1.08121-6.99053-1.42678-8.8324Z"/><path d="M188.28638,209.97678c-.23288-.38954-4.24587-.34999-4.48537-.00066,.17172,.21605-.33639,8.14095,.1854,8.09376,.94918,.09663,1.8533-.03238,2.8668,.00048,.50855,.01544,.90787,.14956,1.41612,.10134,.07204-.24465-.01617-7.96118,.01705-8.19491Z"/><path d="M175.44864,210.26363c-.76253-.3143-3.19216-.93201-1.61813,.26975,.53605,1.20254,1.14751,2.46756,1.34849,3.77705,.45055,.90504-.30456,3.53851,.74173,3.79404,1.94173-.1586,3.30963,.84862,2.94266-1.81276-.51179-2.2733-1.05445-4.77141-3.41475-6.02809Z"/><path d="M214.71051,218.31026c.87368,.24961,.7632-.50403,1.13369-.99634,1.0393-3.0884-.441-8.06108-4.37084-7.29458,1.33622,1.47843,1.64188,3.59783,1.5777,5.57805-.20172,.62933-.21708,1.37683-.30257,2.01572-.1013,.40064-.56457,.8882,.15482,.78043,.62617,.0984,1.18956-.14684,1.80721-.08329Z"/><path d="M170.15427,210.1789c.5223,4.81426-.3444,10.12095,.30323,14.7207,4.00432,.13254,3.86626-5.72062,3.87876-8.63318-.27905-2.29301-.88831-6.94753-4.18199-6.08752Z"/><path d="M204.07738,209.7056c-.89537-.07528-1.58388-.165-1.36018,.97355,.00037,2.18516-.15187,4.72473-.20245,7.04515,.33411,.93146,1.98363-.01338,2.79027,.33345,.25692,.19786,1.76707,.35774,1.69032-.10325,.05425-1.9496,.16922-5.87353,.22406-7.82099-.1085-.7987-2.43338-.19962-3.14203-.42791Z"/><path d="M195.38524,209.85887c.84538,.15254,1.4978,1.35743,2.02281,1.577,.31132-1.77232-.53347-1.91821-2.02281-1.577Z"/><path d="M191.82714,216.772c-.29963-.01386-.70997,.59379-1.06195,.6662,.98197,.97884,1.17986,.55821,1.06195-.6662Z"/><path d="M345.95895,210.05478c.01963,2.62175-.24354,5.90962,.30301,8.10596,4.97026-.36293,3.94205,1.30442,4.31123-2.75469-.91022-4.66066,1.88572-6.57178-4.61424-5.35127Z"/><path d="M380.34414,209.77444c-1.7731-1.03783-.43078,7.85558-.82686,8.26243,1.04526-.02334,4.6074,.87438,4.43539-.80951,.08733-2.51181-.11806-4.99951,.05058-7.38525-1.19162-.22377-2.54217,.07627-3.65911-.06767Z"/><path d="M329.62654,211.38909c-.77819,.40097-5.03193,.01915-3.66087,1.22084,1.74943,2.20946,3.26347,4.45064,5.0176,6.49849,.13313,.84222,1.41274,.13284,1.96775,.19624,.37726,.18396,.87464-.01566,1.28792-.0422,.9752-.20267,1.4914-.20473,.70843-1.15321-1.87447-2.06795-3.31044-4.74979-5.32083-6.72016Z"/><path d="M360.14688,217.12629c-.86273-2.24063-2.88128-4.14141,.37094-7.33475-6.28692-1.02376-6.75232,7.9933-.37094,7.33475Z"/><path d="M387.05471,209.79161c.48231,.42589,1.45847,.99182,1.97305,1.68613,.36271,.08476-.05984-.44978,.14364-.60706,.21304-1.56241-1.16383-.94731-2.11669-1.07907Z"/><path d="M369.72439,209.77459c-2.87165,.06359-.99005,.1514,.06763,1.54275,.45562,.64043,.23597-.46334,.2864-.64929-.06263-.26552,.21112-1.09209-.35403-.89346Z"/><path d="M312.8899,215.935c1.46494,1.16361,2.64972,2.44444,3.27596,4.22742,.63058,.66476,.58794,2.27014,1.40885,2.56639,.7693-.94756,3.25031-.23516,2.71294-1.76207-1.11671-2.79347-4.33688-5.58863-7.39775-5.03175Z"/><path d="M308.2947,219.28275c1.69444-5.58198-4.76104,3.01864-2.10096,7.05783,5.50152-.26343,1.46347-3.55828,2.10096-7.05783Z"/><path d="M374.35833,211.32605c.70622-.06609,1.23918-1.32714,2.0062-1.50099-1.24837-.26541-2.41029-.10365-2.0062,1.50099Z"/><path d="M296.10452,223.13225c-4.08106,.72839-.24222,.80671,.97866,3.37101,1.14251,1.01619,1.01556,4.53536,2.21858,4.10348,2.09067-.60757,2.25974-1.41355,1.68532-3.25862-.79775-2.01116-2.33774-4.32258-4.88256-4.21588Z"/><path d="M312.48132,228.7938c5.14771,5.72996,4.8841-3.915,3.36153-7.0693-6.90772-13.08857-8.41941,1.37084-3.36153,7.0693Z"/><path class="h" d="M163.13981,208.71198c-.29507,.04591-.33176,1.20996-.05021,1.34916,.24273,.03422,.59375-.11137,.54002,.25259,.0041,.52819-.06683,12.49132-.08439,14.5881-.00102,.12125-.33453,.04502-.35455,.05641-.01398,.00795-.14601,1.0932-.04247,1.10774,.76892-.04003,4.24886,.16761,5.23598,.18261,.80107,.01367,1.31749,.05204,2.18358,.07539,6.12394,.41273,8.69023-2.0216,9.31596-7.96688,.35124-11.84075-8.193-9.49286-16.74392-9.64511Zm1.91139,9.35489c0-1.83492,.02432-5.77343-.02256-8.2756,.32582-.04845,2.85848-.10068,4.23611,.03157,.07763,.66969,.04704,8.11336-.15343,8.29046-.08429,.07447-2.84637-.16655-4.06012-.04644Zm5.40631,6.83274c-.64764-4.59976,.21906-9.90644-.30323-14.7207,3.29368-.86001,3.90294,3.79451,4.18199,6.08752-.0125,2.91256,.12556,8.76573-3.87876,8.63318Zm5.46322-6.79514c-1.04629-.25553-.29118-2.889-.74173-3.79404-.20098-1.3095-.81245-2.57452-1.34849-3.77705-1.57403-1.20177,.8556-.58405,1.61813-.26975,2.36031,1.25668,2.90297,3.75478,3.41475,6.02809,.36697,2.66137-1.00093,1.65415-2.94266,1.81276Z"/><path class="h" d="M197.7458,208.67857s-14.9563,0-14.95618-.00026c-.13953-.00012-.35278-.02049-.44104,.03494-.1217,.07651-.14502,1.1324-.09705,1.19452,.06409,.08292,.31934,.05301,.42053,.04008,.10681,4.98599,.08069,11.84769-.32654,15.9841-.02283,.23112,.16589,.41344,.39734,.39435,3.4325-.28296,6.97375,.04976,10.38318-.09419,1.41333-.00716,4.03479-.06033,5.03088-.16231,.18481-.01891,.32703-.16284,.33386-.34845,.01587-.42924,.06639-3.24028,.04715-4.62546-.0019-.13709-.23787-.17533-.44547-.17564-.43441-.00065-.69627,.00317-.80504,.07945-.31787,1.24789-1.23037,2.58371-2.44191,3.22546-7.34619,2.28908-5.15686-.12103-5.46326-5.71643,.91748-1.26279,2.51941,1.91266,3.41626,1.90392,.56091-.06642,.19641-3.53447,.25964-4.70279-.00073-.52751,.23474-1.23419-.60681-1.04567-3.4353,3.08528-3.13831,2.79234-3.06836-1.65187-.28687-3.20113,.11511-3.14037,3.15222-2.96773,1.94861,.20355,3.75159,1.16475,4.53589,3.11913,.2312,.2849,.08337,.88287,.48938,.96117,.53125-.0544,1.14832,.03679,.79297-.64952-.02136-1.18213,.84241-4.84569-.60767-4.7968Zm-9.47647,9.49312c-.50826,.04822-.90757-.0859-1.41612-.10134-1.0135-.03286-1.91762,.09615-2.8668-.00048-.52178,.04719-.01367-7.87771-.1854-8.09376,.2395-.34933,4.25249-.38888,4.48537,.00066-.03323,.23373,.05499,7.95026-.01705,8.19491Zm3.55781-1.39969c.11791,1.22441-.07998,1.64504-1.06195,.6662,.35197-.07241,.76231-.68005,1.06195-.6662Zm5.58092-5.33612c-.52502-.21958-1.17743-1.42447-2.02281-1.577,1.48934-.3412,2.33414-.19532,2.02281,1.577Z"/><path class="h" d="M217.18314,213.86095c-.4665-3.92331-3.92294-5.5027-7.71429-5.09681-2.39324-.07443-5.72051-.15588-8.12448-.23277-.54994-.06583-.28478,.94855-.37197,1.20408,.36984,.29471,.83796,.12361,.67484,.89618-.12938,4.23849-.20025,8.57041-.3952,12.89299-.1307,.50032,.11209,1.23263-.38888,1.1867-.47018,.25663-.64998,1.45788,.3037,1.439,1.47317,.03179,2.59148,.00642,4.03951,.05196,1.0499,.03302,1.76752,.05191,2.78123,.07969,.86816,.00055,.77088-1.35915-.06087-1.41855-.0558-.32588-.07292-2.36122,.11012-2.64524,.61147,.94418,1.47655,1.82555,2.173,2.75271,.06395,.76904-.40724,1.37765,.88793,1.47643,1.44097-.19977,2.87305,.11867,4.39004,.0497,.6916,.03437,1.4814,.10411,1.39745-.48268,.28302-.47161-.20186-.82767-.65418-.72692-1.15067-.40946-1.88967-1.89968-2.6024-2.75735-2.59429-2.29639,4.23502-.27055,3.55445-8.66913Zm-10.1878,4.09356c.06222,.10054-1.35119,.08905-1.69032,.10325-.99522-.03538-2.63751-.07724-2.79027-.33345,.05058-2.32043,.20282-4.85999,.20245-7.04515-.2237-1.13855,.46481-1.04882,1.36018-.97355,.70865,.22829,3.03352-.37079,3.14203,.42791-.05484,1.94747-.16981,5.8714-.22406,7.82099Zm1.47861,1.94849c-1.03239,.03709-.07608-4.21011-.31316-4.95169,.35778-1.83117-1.0496-6.63478,2.48395-4.27263,1.49096,1.52088,1.27689,3.73133,1.3088,5.53688-.45798,1.72686-1.21059,4.1273-3.47959,3.68744Zm4.42936-1.50945c-.71938,.10777-.25611-.3798-.15482-.78043,.23882-.63431,.23882-1.29944,.30257-2.01572,.06418-1.98021-.24149-4.09962-1.5777-5.57805,3.92985-.7665,5.41015,4.20618,4.37084,7.29458-.3705,.49231-.27556,.93972-1.13369,.99634-.62257,.01752-1.18103,.18168-1.80721,.08329Z"/><path class="h" d="M236.9988,212.68012c-7.77905-.50635-11.87695,10.67102-5.79993,15.49463,1.69897,1.41666,3.76282,1.88986,5.94666,2.38751,.74036,.45041,1.9436,.36096,2.83936,.73987,.53247,.10632,1.15845,.6622,1.60437,.26172-.12378-.93616,2.50879-5.74936,.2323-5.1673-.69348,1.5961-2.2356,2.89124-4.04346,2.70972-3.74438,.39923-3.56152-4.12207-3.26672-6.54965,.69189-4.63437,4.64905-12.04056,8.74792-5.35156,.44495,.76401,.28589,1.90271,.44922,2.556,1.55334,1.21872,1.67883-4.19601,2.22046-4.84048-1.50989-.83008-7.14587-2.14514-8.93018-2.24045Zm-1.0423,2.96057c-1.16677,1.14387-1.5039,6.25417-3.1804,5.34818-.80282,.06017-1.3604-.42729-2.21902-.57894-1.80735-.02698-.60103-1.99514-.08571-2.87966,1.1356-2.30539,3.71497-3.8978,6.38557-3.77191,2.3692-.33286-.26413,.96307-.90044,1.88233Zm8.32679,1.0471c-.12438-.51811-.96388-1.09142-.86038-1.47905,1.14568,.13383,1.4678,.3974,.86038,1.47905Z"/><path class="h" d="M246.43482,225.33208c-4.18339,10.82298,12.17261,16.99232,16.20163,6.00155,3.63985-10.8794-11.95458-16.48362-16.20163-6.00155Zm1.21382,.0111c1.14112-4.73693,11.79146-5.91164,6.57222-3.32257-2.95604,1.91865-2.61936,7.14322-6.57222,3.32257Zm2.53717,6.25421c.66601-7.59072,12.2104-16.42584,7.44656-2.41412-1.24675,3.27269-8.07288,10.09172-7.44656,2.41412Zm11.05098,.29463c-.74158,1.43957-1.92659-.8524-3.14467-.76066-.34815-.80025,.84685-1.8719,.89713-2.78671,.86464-1.68007,.98241-3.42111,.82076-5.28503,2.50799,1.84187,2.68853,6.10171,1.42678,8.8324Z"/><path class="h" d="M287.68165,225.46407c-.87773,.48698-2.77954,1.04397-3.33521,1.69087-1.80662-.02253-3.75114-.31059-5.58452-.41615-.27743-.03146-1.03864,.07105-.77863,.46547-.00588,2.37085-2.63333,4.31189-3.67101,6.48617-1.07694,.82976-2.7383-7.00884-4.27763-7.59583-1.1187-.25402-2.31223,.06384-3.3616-.27188-.54141,.30195-1.60586-.47871-1.99635,.0179-.15055,1.505-.1679,.82653,.56913,1.41307-.27861,3.84241-.71284,8.99673-.97094,12.81191-.00926,.05102-.11938,1.90343-.17687,1.88913-.82053-.12346-.66954,.41365-.72357,1.06967,.06293,.2878,.66124,.12703,.8975,.2033,.54325,.21131,1.64298,.49756,2.07979,.00559,.1973-.88258-.00265-1.06007-.56839-1.43017,.41181-1.76791,.36917-12.1102,1.20412-11.76253,1.51206,2.88613,2.68655,6.70127,4.48361,9.23454,1.72164,.51065,2.64487-3.1761,3.83744-4.22456,.80951-1.41348,1.825-2.60095,2.66949-3.99138,.42049-1.22834,.37491-.17687,.41019,.38641-.29757,3.64642-.72563,7.32828-.77966,10.96592,.13181,.70053-.54413,.46283-.87729,.64414-.5567,1.63644,1.98915,1.46027,2.99397,1.32571,1.53698,.27894,3.04014,.33948,4.58888,.36462,.59647,.30989,.2789-.89044,.42063-1.084-.15489-.31371-.81318,.07517-.63617-.53866,.50458-4.72774,.52223-10.13767,1.25352-14.53229,.0333,.00481,.07866,.00794,.12681,.01066,1.39348,2.93414,2.62546,5.95149,4.08261,8.97487,.71527,1.39367,1.16053,2.55,1.79897,3.93286-1.19647,2.68423,1.50698,1.07485,2.76896,.32448,.87898-.1146,1.90858-.70869,2.63281-1.21672,.40446-.15309,1.64445-.3856,1.87072-.81381-.30463-.85656-.48672-1.27178-1.19338-.99487,.05374-.11486-1.76817-3.34569-1.29777-3.3,1.13884-.87651,2.71654-1.20213,3.87302-1.91045,2.53578-1.5208,2.73705-4.79364,1.76207-7.3038-3.3422-7.20375-8.78271-3.16143-14.09523-.8302Zm-17.63098,8.68082c-.99571-2.22622-1.97202-4.44663-3.09763-6.6605-.76275-.95517,1.28939-.29291,1.82485-.42019,1.88704-.02551,3.55237,6.76691,4.83411,8.61896-1.57278,.17088-3.19488,.3759-3.56134-1.53826Zm13.94615-4.18534c.02132,1.3897-.56935,4.14277-.26082,5.45073-.19209,1.47773-1.19346,1.11473-2.48182,1.06342-.71446-.35962-2.81189,.14111-2.06104-1.14549,.08057-1.89336,.02529-3.91897,.49458-5.73724-.74607-2.34042,1.19037-1.47008,2.69184-1.49533,1.56388-.11144,1.95805,.3362,1.61725,1.86392Zm9.01691,3.39711c-1.12267,.39711-2.03641,1.33379-3.22642,1.45898-.78995,.11652-.37726-1.6711-1.18537-1.9525-.27221-1.94383-3.9422-5.56441-.97314-6.17062,3.85773-1.98433,2.35023-.75,4.33107,2.67894-.11688,.36884,2.77895,4.48107,1.05386,3.9852Zm2.04347,.21822c-.32154-1.70694-4.39407-7.51989-3.20363-8.50869,2.43242-1.19467,4.76678,1.91266,5.188,4.0124,1.3654,1.21786-.25067,6.90265-1.98437,4.49629Zm4.24455-2.96813c-1.20301,.43188-1.07606-3.0873-2.21858-4.10348-1.22088-2.5643-5.05972-2.64263-.97866-3.37101,2.54482-.1067,4.08481,2.20472,4.88256,4.21588,.57442,1.84506,.40534,2.65104-1.68532,3.25862Z"/><path class="h" d="M305.35123,227.21507c4.99121,10.47542,20.71082,2.8289,15.49217-7.64916-5.40471-10.11977-20.1894-2.6384-15.49217,7.64916Zm.84251-.87449c-2.66009-4.0392,3.7954-12.63981,2.10096-7.05783-.63749,3.49955,3.40057,6.79441-2.10096,7.05783Zm6.28758,2.45322c-5.05788-5.69846-3.54619-20.15787,3.36153-7.0693,1.52257,3.1543,1.78618,12.79926-3.36153,7.0693Zm5.09339-6.06499c-.8209-.29625-.77827-1.90163-1.40885-2.56639-.62624-1.78298-1.81103-3.06381-3.27596-4.22742,3.06087-.55689,6.28104,2.23828,7.39775,5.03175,.53737,1.52691-1.94364,.81451-2.71294,1.76207Z"/><path class="h" d="M340.83968,216.90274c-.05102-1.69613-1.44288-5.95909-.41159-6.92198,.10711-.35965,.03536-1.00611-.32882-1.14619-.35175,.25475-.58368,.05418-.98491,.13636-.79392,.1729-1.99981,.03139-1.52705,1.26627,1.39576,1.05912,.96837,3.78341,1.32681,5.6556,.21274,.84935,1.66952,8.35285,.29125,6.17254-2.8987-3.92632-5.8102-7.56697-8.67494-11.52487-.67535-.81543-2.23828,.198-3.12578,.16812-.71747,.07814-1.64717-.06168-2.26937,.33117-.56177-.18926-1.17626,.21065-1.7986,.16345-.22178,.10027-.14151,1.4624,.23061,1.29549,1.23073,.52458,.78628,3.41751,1.1209,4.78181,.6294,3.102,.98138,6.38134,1.33938,9.5684-1.52676,2.65681,.67013,1.51088,2.45984,1.29446,.03734-.71218-.00382-1.28711-.80091-1.1832-.09645-1.66029-.30426-3.66352-.74092-5.29363-.33029-2.30234-.35241-4.63747-.94933-6.8649-.08498-.71442,.56405,.54652,.89787,.71008,2.07141,2.95244,4.20456,5.67405,6.38366,8.4372,1.26013,.8624,1.63056,3.67182,3.43188,3.21091,.57648-.57927,6.94771-.34297,5.97251-1.37073-1.34482-2.07762-1.32571-5.68534-1.84249-8.88636Zm-6.60074,2.35972c-.41328,.02654-.91066,.22616-1.28792,.0422-.55501-.0634-1.83463,.64598-1.96775-.19624-1.75413-2.04785-3.26817-4.28903-5.0176-6.49849-1.37106-1.20169,2.88268-.81987,3.66087-1.22084,2.01039,1.97036,3.44636,4.65221,5.32083,6.72016,.78297,.94848,.26677,.95054-.70843,1.15321Z"/><path class="h" d="M351.78642,223.44261c-.28361-1.52643-.01647-3.57846-.20818-5.10596,.37373-1.90233-1.02372-7.7459,.49914-8.4601,.54795-2.1637-2.63377-.84693-3.86861-1.13388-.97351,.31452-4.83007-.80921-4.01939,1.33166,1.29005,.08579,.53127,6.91882,.71857,8.60352,.23862,2.04296,.2148,4.21511,.10483,6.28023-.07902,.09788-.54553-.0569-.51032,.18767-.46092,2.2063,1.97275,.72045,3.19613,1.24925,1.19441-.33348,2.82306,.04565,3.95947-.18415,.96418,.16705,.74305-.39207,.73644-1.08602-.35374-.64506-1.05856,.08156-.60809-1.68224Zm-5.52446-5.28187c-.54656-2.19634-.28339-5.48421-.30301-8.10596,6.49996-1.22051,3.70402,.6906,4.61424,5.35127-.36917,4.05912,.65903,2.39177-4.31123,2.75469Z"/><path class="h" d="M370.84588,208.6953c-1.65732,.02382-3.69204-.00165-5.48866-.01665-2.52071,.19164-5.08758-.23086-7.67195,.26957-3.97888,1.27013-4.3546,7.19651-.45548,8.85254,2.16057,.92918,5.21608-.25931,7.1828,1.06246,2.7558,1.70348,.81509,6.71601-2.24217,6.00228-2.09662,.25814-4.07819-.07895-5.54769-1.7194-1.61887-3.09623-2.40765-3.11784-2.19189,.5731,.18606,.3007-.51686,3.41229,.60713,2.51255,.84141-.08351,1.64452,.14629,2.46175,.13489,.83186,.03065,1.72847-.36792,2.52938,0,3.76981-.39987,9.58133,1.32199,10.91799-3.51591,.85192-2.43452-.99123-5.2374-3.33029-5.85963-2.2518-.57993-5.69023,.75279-7.23375-1.6013-3.09638-6.37749,8.27151-7.18589,9.47599-1.81301,.12188,.70027,1.16552,.82796,1.31615,.09273-.29346-1.54029,.50958-3.99674-.32933-4.97423Zm-10.699,8.43099c-6.38138,.65855-5.91598-8.35851,.37094-7.33475-3.25222,3.19334-1.23367,5.09412-.37094,7.33475Zm9.93154-6.45824c-.05043,.18595,.16922,1.28972-.2864,.64929-1.05768-1.39135-2.93928-1.47916-.06763-1.54275,.56516-.19863,.2914,.62793,.35403,.89346Z"/><path class="h" d="M386.24564,208.6953c-3.92845,.06054-7.25352,.11641-11.12831,.00033-2.59495,.03819-1.72487,.3587-1.85528,2.6635-.17305,5.88908,1.25683,1.04482,3.42269-.50528,1.43524-.78966,2.00973-.67105,1.74575,1.11274-.24884,.88945,.31492,2.80167-.126,3.7432,.18231,2.19123,.25067,4.57818-.01713,6.81227,.14357,.6272,.39696,2.1204-.068,2.47013-.25582-.15357-.48268-.23737-.47209,.16007-.00948,.76805-.12967,1.40142,.82612,1.09609,.93227,.17422,2.06516,.17349,2.89223,.03363,1.18956-.0959,2.48601,.3247,3.68381-.05039,.71336,.18036,.62279-.78154,.42166-1.18023-.1382-.11482-.50002,.07818-.60676-.10972,.29155-4.74656-.12372-9.74306,.1346-14.52671,1.43384-.24979,3.21296,1.42241,3.69314,2.80762,.2098,1.1273,1.42083,1.3138,1.48375,.05076-.48753-5.16973,1.61049-4.51823-4.03019-4.57804Zm-11.88731,2.63075c-.40409-1.60464,.75783-1.76641,2.0062-1.50099-.76702,.17385-1.29998,1.43491-2.0062,1.50099Zm9.59435,5.90131c.17202,1.68389-3.39013,.78617-4.43539,.80951,.39608-.40685-.94624-9.30026,.82686-8.26243,1.11693,.14394,2.46749-.1561,3.65911,.06767-.16864,2.38574,.03676,4.87344-.05058,7.38525Zm5.07508-5.74962c-.51458-.69432-1.49074-1.26024-1.97305-1.68613,.95286,.13177,2.32972-.48334,2.11669,1.07907-.20348,.15728,.21906,.69182-.14364,.60706Z"/><path d="M208.16079,214.9513c.02697,.76194-.71924,4.98878,.31316,4.95169,2.269,.43986,3.02161-1.96059,3.47959-3.68744-.0319-1.80555,.18216-4.016-1.3088-5.53688-3.53355-2.36214-2.38902,2.4225-2.48395,4.27263Z"/></g><g><path class="j" d="M142.36418,156.93802c.54896,.30511,1.13553,.40823,1.76126,.31054,.29929-.04652,.63038-.15352,.9948-.32178,1.34992-.62844,1.77793-2.53353,1.28208-5.71566l-.62922-4.03853c-.26983-1.90742-.49508-3.44653-.67729-4.61618-.26479-1.51857-.51795-2.60719-.75987-3.26626-.33031-.86803-.64201-1.34799-.9351-1.44219l-1.08591,.00194c-.41638,.0093-.64085-.17834-.67302-.5637-.08335-.71102-.11786-1.02621-.10545-.9444-.04652-.29929-.0473-.47996-.00078-.54315,.04575-.06281,.2047-.11553,.47685-.15779l8.32208-1.29681c.18997-.02946,.32876,.14383,.41521,.52028-.09498-.43033-.05117-.06125,.13104,1.10801,.03799,.24463-.1291,.42413-.50128,.53772-.56253,.14344-.98589,.37683-1.27006,.699-.40319,.45359-.42413,1.8357-.06436,4.1467,.14422,.92502,.34349,2.20322,.59781,3.835,.28379,1.82213,.48073,3.08676,.59083,3.7939,.39854,2.55679,.5416,4.45646,.43111,5.69899-.08878,.84981-.39738,1.80313-.92463,2.86035-.67845,1.3317-2.18035,2.17802-4.50414,2.54012-1.27045,.19811-2.37652,.1198-3.31705-.23533-2.53276-.9696-3.94743-2.85299-4.24362-5.64821-.25006-2.49554,.39854-3.87842,1.94425-4.14708,.70714-.1101,1.33403-.02016,1.88106,.27099,.54664,.29076,.87307,.77654,.97891,1.45615,.07637,.48965-.17872,1.26774-.76452,2.33387-.28185,.51756-.38614,1.00721-.31441,1.46933,.09343,.59859,.41444,1.05024,.9634,1.35419Z"/><path class="g" d="M143.3786,153.23987c-.24889,.37295-.47375,.71489-.67613,1.02427-.29852,.40901-.40242,.81492-.3117,1.21889,.05079,.32604,.26479,.62728,.64201,.90253l.48422,.42607c-.02287,.03179-.04846,.04924-.07521,.0535-.12755,.07599-.25936,.12406-.39505,.14499-.43537,.06785-.90021-.01241-1.39567-.24192-.49546-.22912-.77499-.5478-.83857-.95604-.11437-.73428,.11592-1.5775,.69202-2.53121,.22059-.36869,.33419-.80406,.33961-1.3065,.00969-.47492-.0818-.79476-.27487-.95991,1.28014,.88703,1.88338,1.62867,1.80933,2.22532Z"/><path class="j" d="M143.78931,138.99937c.09847,.09615,.17446,.13957,.22951,.13104,.05389-.00814,.07715-.03916,.06862-.09421-.02094-.13569-.1857-.38885-.4943-.7587-.50477-.19927-.9068-.27642-1.20571-.2299,.47298,.17717,.94014,.49469,1.40187,.95177Z"/><path class="g" d="M151.24646,134.78677c.19462,.19307,.37373,.45786,.53578,.79437,.21129,.46833,.33419,.99248,.36908,1.57207,.019,.30356-.15624,.69977-.52532,1.18903-.36947,.48965-.5668,.83391-.59122,1.03241,.5288,3.92882,1.26541,8.9261,2.2102,14.99068,.25045,1.60502-.0946,3.05846-1.03357,4.36031-.93975,1.30263-2.22028,2.10824-3.84391,2.41684-.97464,.17911-1.95743,.22137-2.94719,.12484-.51058-.0597-1.20235-.04444-1.93727-.36675-.9841-.4316-1.68985-.89197-1.282-.95555,.10816-.01667,1.03892,.56205,1.69876,.68184,.65945,.12057,.95963-.02731,1.3132-.08236,.62534-.09731,1.42891-.10799,1.99765-.39178,1.36931-.68659,2.08436-1.42703,2.68993-2.19,.69745-.88819,1.09633-2.09415,1.12502-3.51929,.01628-1.14445,.11193-2.7857-.18504-5.05212-.18493-1.36349-.50477-3.41668-.95991-6.15995-.43615-2.80065-.62495-4.01139-.56563-3.63069-.10041-.81996-.01396-1.5019,.25897-2.04621,.5761-.53501,1.06885-.90409,1.47747-1.10762,.03644-.64589-.2645-1.98808-.52252-2.04825-.02132-.13569,.52252,.19627,.71752,.38817Z"/><path class="j" d="M158.13488,141.34487c-.33729-3.5357-.94789-5.4028-1.83221-5.60323-.5509-.12794-.86919-.21478-.95526-.26053-.2047-.14189-.3462-.42994-.42452-.86415-.08258-.46135-.07909-.78041,.01086-.95759,.08956-.17679,.35318-.29154,.79088-.34349,.13647-.01628,1.20222-.14306,3.19764-.38032,1.45189-.14499,2.5723-.27836,3.36202-.40009,.59743-.09847,1.04365-.13763,1.33713-.11747,.29348,.02094,.4598,.19539,.49895,.52415,.07172,.60208,.09653,.93239,.07637,.99054-.0159,.33535-.19811,.55129-.54664,.64782-1.01962,.28844-1.51702,1.00023-1.49221,2.13577l1.4073,11.82909c.21827,1.83453,.51097,3.1329,.87889,3.8947,.69473,1.41661,1.84888,2.02915,3.46165,1.83725,2.26835-.26983,3.10537-2.90571,2.51027-7.90726-.04846-.41017-.2675-2.13034-.65558-5.16088l-.63581-4.99689c-.16244-1.3666-.7304-2.06094-1.70311-2.0842-.77847-.01783-1.18865-.20509-1.2309-.56059-.06513-.54625-.08723-.84826-.06629-.9068,.03644-.39195,.25975-.61293,.66953-.66178l5.86298-.69745c.54625-.06474,.85718,.2171,.932,.84554,.05544,.46484,.07211,.72614,.05156,.7839-.03877,.14344-.20315,.27371-.49391,.39118-.55749,.20547-.90874,.39932-1.05334,.58269-.36443,.43188-.53656,1.20067-.51562,2.30674,.01667,.60789,.13104,1.80003,.34233,3.57641,.13336,1.12119,.31596,2.54051,.54819,4.25913l.33186,2.78785c.22098,1.85896,.23067,3.45119,.02908,4.77785-.38226,2.59595-1.45305,4.16453-3.21198,4.70613-.74746,.22796-1.51547,.38846-2.30596,.48228-2.58936,.30821-4.6313-.36365-6.12661-2.01519-1.23866-1.34954-2.10242-4.54524-2.59091-9.58749l-.45863-3.8536Z"/><path class="g" d="M155.69904,135.89671c.49353,.19074,.78507,.3086,.87346,.35357,.23804,.13802,.4156,.40785,.53307,.80949,.11669,.40203,.52336,.94382,.47218,.97717-.03412-.05117-.4216-.62961-.57435-.75057-.96108-.85562-1.6906-1.63698-1.70999-1.80136-.00659-.05428,.1765,.35587,.23155,.34928,.05466-.00659,.11243,.01434,.17407,.06242Z"/><path class="g" d="M163.65613,132.44786c.8842,.21504,1.00855,1.92486,.92093,1.18709,.06823,.57378-.0442,.93394-.3369,1.07932-.69125,.35977-1.07467,.57145-1.15143,.63581-.43382,.3842-.60518,.95952-.51407,1.72443l1.62906,13.69348c.06164,.5195,.34,1.13786,.83585,1.85469,.49508,.71722,.97581,1.13127,1.44181,1.24215,.81608,.20819,1.97001,.32396,2.62559-.11452-.12755,.09808-.83138-.20959-1.27722-.46159-.7998-.43111-1.31426-1.49259-1.54299-3.18446l-.60479-5.08373c.04226,.35551-.14577-1.34062-.5637-5.08877-.13647-1.14794-.2423-2.03574-.31713-2.66457-.03877-.32798,.10894-.71296,.44468-1.15492,.33535-.44119,.66023-.68155,.97503-.71877,.31364-.03722,.46329-.12406,.447-.2613-.0031-.02675,.17616-.49356-.02854-.81611-.20431-.32178-.61269-.25739-.65573-.39114-.12406-.34543-.24618-.55284-.3652-.62185-.59083-.53927-1.61702-.848-1.75349-.83172-.05505,.00659-.21497-.07818-.20877-.02351Z"/><path class="g" d="M173.91179,132.06676c.11088,.92967-.02249,1.44452-.39815,1.54454-1.15918,.27681-1.65736,1.09793-1.49492,2.46452l1.13454,11.33797c.67613,5.68542-.74065,9.0714-4.74235,9.63083-1.83686,.27448-3.90573-.31103-4.61946-.53162,.00659,.05544,.82246,.73399,.85967,.81269,.90137,.64085,2.45251,.95526,4.6534,.94324,.24734-.00155,.58773-.02869,1.02194-.08025,3.41978-.40668,5.11514-2.4653,5.08684-6.17662-.00116-1.16384-.07754-2.49903-.22874-4.00558-.10312-1.09638-.26091-2.42227-.47337-3.97689l-.46018-3.52097c-.32837-2.76033-.21013-4.32658,.35551-4.69915,.6959-.44274,.98821-1.12894,.87772-2.05862-.03567-.30046-.22331-.70753-.56098-1.22199-.33884-.51407-.63077-.75676-.87656-.7273-.10972,.01279-.1543,.10119-.13491,.26518Z"/><path class="g" d="M166.83069,134.40606c.25277,.02598,.51407,.07095,.78545,.1353,.27099,.06513,.52493,.2772,.7618,.63697,.23649,.36055,.37334,.69047,.40901,.99093,.00659,.05505-.00426,.08374-.0314,.08684-.03722-.0787-.35977-.34504-.96805-.79941-.18376-.14461-.35357-.29076-.50981-.43847s-.3276-.30744-.51407-.47918c.02365-.03024,.04613-.07444,.06707-.13298Z"/><path class="j" d="M182.30481,135.59199c-.13685-1.23168-.78158-1.96208-1.93456-2.19159-.45127-.09808-.69977-.17989-.74707-.24502-.0473-.06436-.10933-.36985-.18454-.9161-.04148-.466-.01938-.75793,.06746-.87617,.08607-.11786,.36791-.21206,.84554-.28224,.47685-.0694,2.89563-.29736,7.25517-.6831,.71257-.06319,1.10336,.2896,1.1712,1.05683,.04109,.46677,.02675,.7715-.04342,.91572-.07017,.14499-.32372,.25006-.75948,.31596-.92773,.13763-1.3728,.8816-1.33636,2.23191,.03644,1.35109,.40281,5.96107,1.0987,13.82956,.18454,2.08382,1.34566,3.03093,3.48453,2.84174,2.57657-.22757,3.83228-1.02931,3.76599-2.40521-.03877-.43847-.09692-1.09638-.17446-1.9741-.04613-.52066,.0597-.80639,.3179-.85718,.25781-.05001,.83973-.11592,1.7442-.19578,.13685-.01202,.43111,2.53159,.88237,7.63122,.01706,.19229-.07017,.29658-.26169,.31325-1.12623,.04458-6.33829,.47802-15.63695,1.3003-.27371,.02404-.42258-.25277-.44584-.83081-.00698-.38614-.00543-.67651,.00465-.87113,.01008-.19384,.14693-.33031,.41211-.4094,.60789-.19152,.98821-.34969,1.14057-.47375,.42917-.36947,.62728-1.05024,.59394-2.04233-.13453-3.08211-.55439-8.14336-1.25998-15.18258Z"/><path class="j" d="M179.79454,133.45119c.28573,.11359,.55749,.21362,.81414,.30123,.66643,.35551,1.05838,.72148,1.17469,1.09793,.19268,.61914,.26285,.9444,.21051,.97619-.05505,.00504-.20896-.17446-.46212-.53927-.51485-.50709-1.09366-1.11886-1.73722-1.83608Z"/><path class="g" d="M181.92037,155.41581c.63038-.05583,2.67839,.02031,6.29512-.32745l7.03264-.62185c.24696-.02171,.6265-.02055,1.14019,.00271,.51291,.02404,.89323,.02481,1.1398,.00271,.41134-.03605,.60634-.17795,.58424-.42452-.06785-.76723-.1985-1.93068-.39118-3.4884-.19384-1.55811-.32372-2.72078-.39156-3.4884-.05428-.29929-.26647-.35364-.2436-.41141-.01202-.13685-.17837-.53451-.11595-.45697,.31286,.41444,1.09615,1.23164,1.57533,1.96282,.23533,.47647,.47453,2.08614,.71722,4.82747,.13104,1.48019,.08878,2.25789-.12522,2.33193-2.55253,.1985-5.69201,.47647-9.41807,.83314,.3811-.06087-1.12817,.05815-4.5274,.359-.5761,.05079-1.42203-.06087-2.53741-.33535-1.11615-.27409-1.30986-.71465-.73414-.76544Z"/><path class="g" d="M188.24777,130.45749c.00231,.02772,.57282,.30258,.73572,.97889,.0713,.29602,.08025,.6013,.07986,.90486-.00078,.30472-.0818,.47763-.24424,.51911-.57067,.10623-.94634,.23571-1.12584,.38963-.46445,.37257-.66953,1.02698-.6141,1.96092,.52183,8.71364,.86919,13.42171,1.0421,14.12459,.16981,.67613,.54082,1.19563,1.11189,1.55966s1.19911,.51562,1.88454,.45514c.65829-.05815,1.56615,.04278,1.55879-.03941-.00465-.05466-.91302-.23424-1.35459-.5409-.44158-.30627-.65289-.59035-.71492-.66789-.37024-.43692-.52827-.96705-.59651-1.43111-.05932-.35357-.16864-1.4356-.32837-3.24532l-.83818-10.4121c.01473-.13957,.19733-.41793,.5478-.83624,.34969-.41754,.51136-.77692,.485-1.07893-.02442-.27371-.21245-.83081-.56253-1.67054-.35047-.83934-1.06012-1.0166-1.06642-.97036Z"/><path class="j" d="M202.50212,153.7303c-.96146,.06746-1.45111-.03605-1.4705-.3117l-.07793-1.11382c.0283-.38885,.23649-.62456,.62379-.70714,1.10762-.21594,1.67403-.73932,1.70001-1.57013,.01008-.74707-.13918-3.47328-.44778-8.17902-.47143-7.12568-.55633-8.73729-.25549-4.83368-.17291-2.47577-.47104-4.05792-.89401-4.74722-.29891-.44894-.59704-.69047-.89401-.72536l-.83895,.05854c-.27022-.03528-.42917-.20005-.47647-.4943-.06901-.59006-.09421-.95371-.07599-1.09056,.0597-.32876,.37799-.51368,.95448-.554,.02714-.00155,.41172-.02869,1.15298-.08064,.85097-.05932,1.7159-.1198,2.59479-.18144l3.29495-.23029c.4943-.0345,.79631-.05583,.90602-.06358,.22137,.01241,.34233,.15585,.36132,.42994,.0442,.63193,.05389,.97619,.02946,1.0328-.06164,.33535-.39156,.6141-.9886,.83469-.59665,.22176-.96146,.59898-1.09521,1.13204-.18493,.6203-.2458,1.57633-.18415,2.86888,.39854,8.8567,.7777,13.68611,1.13786,14.48901,.19733,.45553,.36985,.76025,.51911,.91533,.23881,.25936,.573,.40862,1.00411,.44739,.42994,.03877,.68853,.08296,.7746,.13181,.22718,.0946,.35163,.29309,.37295,.59471,.06513,.93394-.12212,1.41583-.56098,1.44646l-7.16639,.50128Z"/><path class="g" d="M200.09885,131.79732c.57455-.06746,1.01807,.1636,1.33132,.69318,.40474,.66178,.88381,1.27327,.71943,1.2849-.02791,.00194-.43432-.35413-.49286-.40569-1.11111-.8878-1.95811-1.72693-1.9678-1.86456-.00194-.02714,.32928,.3255,.40991,.29216Z"/><path class="g" d="M209.26376,132.65139c.45127-.252,.60712-.98162,.46794-2.1881-.05466-.38303-.78726-1.10438-1.22806-1.48857-.14732-.12755,.32182,.09445,.36119,1.5254,.0171,.62158-.38497,1.00178-1.28557,1.14639-.30046,.04885-.54276,.52183-.72846,1.41932-.14228,.72924-.10351,2.66147,.11592,5.79747,.47724,6.82212,.85834,10.49933,1.14406,11.0324,.12677,.23998,.39222,.61685,.9974,.78161,.6044,.16515,1.03757,.11278,1.09882,.19109,.12677,.24037,.25122,.63232,.37179,1.17624,.12096,.54509,.09149,.92037-.08684,1.12623-.30627,.35318-1.2972,.58812-2.97201,.7052-.93355,.06513-2.14352,.1229-3.62991,.17097l-2.58466-.29679c-.68111-.68174,.34771,.5639,1.0688,.81667,.72148,.25355,1.19252,.38614,1.41428,.39777,.74513,.00349,2.40831-.08568,4.98953-.26595l1.64728-.11553c.24734-.01706,.47996-.03334,.70016-.04885l.28844-.02016c.32953-.02287,.54974-.21749,.66256-.58502,.11204-.36753,.1291-.71412,.05156-1.04016-.56097-2.88106-.8626-2.06753-1.84384-2.69016-.57843-.37412-.94285-1.05334-1.09444-2.03729l-.18454-2.64053-.79631-11.38597c-.04265-.60518,.30899-1.09909,1.0549-1.48368Z"/><path class="j" d="M215.80249,136.01767c-.09847-3.55043-.58192-5.45475-1.45034-5.71373-.54121-.16515-.85291-.27332-.93549-.32449-.19462-.15546-.31635-.45204-.3652-.8909-.05156-.46561-.02636-.78429,.07521-.95487,.10119-.17019,.37218-.26673,.8122-.28921,.13724-.00698,1.20919-.06164,3.21625-.16399,1.45809-.04652,2.58471-.10429,3.38101-.17252,.60285-.05777,1.05063-.06707,1.34217-.02714,.29154,.04071,.44545,.22602,.46251,.55633,.03101,.60557,.03334,.93704,.0093,.99364-.03877,.33341-.23494,.53656-.5889,.60944-1.03667,.21904-1.58099,.89594-1.63294,2.03031l.60673,11.89694c.09421,1.84539,.29891,3.16042,.61487,3.94549,.59743,1.46003,1.70776,2.14895,3.32984,2.06637,2.28154-.11631,3.29417-2.68977,3.03752-7.72039-.02094-.4125-.12367-2.14352-.30627-5.19345l-.29774-5.0283c-.07017-1.37435-.59006-2.10553-1.55889-2.19431-.77537-.07017-1.17198-.28456-1.1902-.64201-.0283-.54935-.02985-.85252-.00504-.90913,.06281-.38885,.30046-.59432,.71257-.61526l5.89633-.30084c.54974-.02791,.84089,.27448,.87307,.90641,.02404,.46794,.02326,.72963-.00116,.78545-.04846,.14073-.22137,.25936-.51911,.35745-.57029,.16709-.93355,.3369-1.09017,.5102-.39273,.4063-.61642,1.1619-.66992,2.2668-.02442,.6075,.0093,1.80468,.10041,3.59114,.05777,1.12778,.14383,2.55602,.26014,4.28626l.14306,2.80414c.09537,1.86942-.00271,3.45894-.29309,4.76893-.55633,2.56455-1.73025,4.05714-3.52175,4.47894-.76103,.17717-1.53834,.28534-2.33349,.32604-2.60409,.13259-4.59602-.67535-5.97658-2.42382-1.14523-1.42979-1.7915-4.67628-1.93921-9.74024l-.19772-3.8757Z"/><path class="j" d="M213.73922,130.41754c.47996,.2237,.76258,.36094,.84787,.41172,.22796,.15352,.3873,.43498,.47724,.84361,.08917,.40901,.10739,.62883,.05428,.65868-.03063-.05311-.11786-.14499-.26208-.27603-.90176-.91843-1.35613-1.46042-1.36466-1.62518-.00271-.05466,.02287-.08374,.07831-.08684,.05466-.00271,.11088,.0221,.16903,.07405Z"/><path class="g" d="M222.01776,127.52949c.59156,.20885,.76968,1.97195,.73207,1.22991,.02908,.57727-.107,.9289-.40901,1.05412-.71373,.31248-1.11072,.49779-1.19175,.55711-.45863,.35396-.66837,.91649-.62922,1.68566l.70249,13.77179c.02675,.5226,.26285,1.15841,.70908,1.90703,.44584,.74901,.89749,1.19446,1.35496,1.33636,.80019,.26285,2.19313,.2942,2.87662-.0993-.13375,.08956-1.06457-.10307-1.49258-.38453-.76878-.48422-1.21075-1.57788-1.32473-3.28099l-.26091-5.1132c.01822,.35783-.05505-1.34721-.21943-5.11514-.05893-1.15453-.10468-2.04737-.13685-2.68008-.01667-.32992,.15663-.70365,.52144-1.12197,.36443-.41793,.70481-.63542,1.02117-.6517,.31558-.0159,.47065-.09227,.46367-.23029-.00155-.02714,.23998-.37799,.05738-.71373-.18221-.33496-.62456-.40048-.65868-.53733-.1008-.35241-.20858-.56796-.32217-.64472-.55362-.57765-1.62849-.99877-1.76573-.99179-.05544,.00271-.02783,.02279-.02783,.02279Z"/><path class="g" d="M232.16906,127.82392c.04769,.9351-.1198,1.43948-.50167,1.51392-1.17507,.19811-1.72753,.98395-1.65736,2.3583l.36508,11.44212c.29193,5.71799-1.34748,8.94787-5.37787,9.23592-1.8512,.15003-3.7536-.52237-4.45066-.79065,.00271,.05544,.02118-.02296,.05297,.05845,.85601,.70016,3.00977,1.87781,5.20679,2.01389,.24657,.01512,.58812,.01124,1.02504-.01086,3.43917-.17562,5.26982-2.11522,5.49158-5.81995,.07715-1.16151,.09072-2.49864,.04148-4.01217-.02908-1.10025-.09692-2.4339-.20392-3.99976l-.22214-3.54384c-.14189-2.77622,.0818-4.33085,.67147-4.66426,.72381-.39505,1.06226-1.05994,1.01458-1.99504-.01551-.30201-.17523-.72071-.47763-1.25688-.30317-.53578-1.38796-1.25821-1.6353-1.24542-.11049,.00543,.64903,.55146,.65755,.71622Z"/><path class="g" d="M224.94646,129.68055c.25006,.04303,.50787,.10545,.77421,.18803,.26595,.08335,.50516,.31209,.71722,.68698,.21168,.37528,.32566,.71373,.34116,1.01613,.00271,.05544-.01008,.08296-.03683,.08452-.03218-.08103-.33612-.36869-.91223-.86299-.1733-.15663-.33341-.31364-.47879-.47181-.14655-.15779-.30627-.32837-.48112-.51291,.02598-.0283,.05156-.07095,.07637-.12794Z"/><path class="j" d="M237.06322,150.81851l-1.11421,.03567c-.19462-.04885-.29891-.30705-.31403-.77499l-.21904-6.89152c-.01202-.38497,.10545-.58153,.35318-.58928,1.01768-.03257,1.57207,.07366,1.6624,.31868,.36598,1.11809,.72226,1.93262,1.06924,2.44475,1.00992,1.45499,2.47034,2.34512,4.38086,2.66961,.41521,.0694,.81492,.09808,1.20067,.08568,1.95317-.06203,2.89873-1.06924,2.8367-3.02279-.01938-.60518-.13026-1.05567-.33225-1.35264-.43343-.64744-.86105-1.10181-1.28247-1.36388-.67496-.44661-1.73761-.93626-3.18601-1.46856-1.56121-.58347-2.64984-1.04443-3.26587-1.38327-1.12158-.62534-1.95317-1.43832-2.49438-2.44049-.5416-1.00139-.87229-2.53314-.99248-4.59486-.11514-1.86865,.5792-3.4194,2.08265-4.65146,1.3414-1.11654,2.96115-1.70505,4.85965-1.76552,.90757-.02869,1.77793,.05389,2.61029,.24773,.36055,.09886,.9161,.233,1.66473,.40126,.33302,.07211,.70869-.00155,1.12894-.22176,.41986-.21982,.73971-.33302,.95991-.34,.98976-.05854,1.50422,.1039,1.54416,.48771-.04924,1.04869-.08529,2.09583-.10661,3.14298l.1512,3.46476c.00349,.11049-.4629,.18027-1.39761,.20974-.19307,.0062-.56602-.46329-1.11886-1.41002-.66992-1.13553-1.21656-1.88881-1.64147-2.26099-1.21734-1.03551-2.525-1.46197-3.92378-1.28014-.85058,.10972-1.51392,.46135-1.99038,1.0549-.47685,.59355-.70171,1.31697-.67496,2.16949,.03528,1.10064,.44584,1.90005,1.23284,2.39784,.61797,.3935,1.82407,.84438,3.61634,1.35148,1.79228,.50787,3.06738,.98356,3.82492,1.42746,2.1315,1.22703,3.24455,3.31201,3.33837,6.25532,.05932,1.87136-.33031,3.48065-1.16849,4.82902-.94518,1.46235-2.29394,2.35907-4.04551,2.68938-.52028,.09925-1.02776,.15663-1.52283,.17252-.9634,.03063-2.18268-.21982-3.65899-.75134-1.4767-.53113-2.28347-.79476-2.4211-.79049-.22021,.00698-.38226,.10894-.48577,.30472-.47065,.78623-.85756,1.18399-1.15996,1.1933Z"/><path class="g" d="M235.80072,150.76089c.52335,.52758,1.76609,.21621,1.91263,.07316,.14655-.14189,.34427-.38885,.59394-.74164,.24967-.35202,.41638-.52958,.49895-.53229-.79631,.02559-.30666,.29968,1.46778,.82228,1.77483,.5226,2.93673,.78817,3.48647,.79747,.46755,.01202,.89284,.01202,1.27704,0,2.71652-.08645,4.63208-1.1902,5.7459-3.31162,.88044-1.67481,1.29371-3.37559,1.23905-5.10312-.0473-1.48019-.39118-2.67698-1.03125-3.58998-.11088-.13336-.7978-.39667-.85518-.53237l.03993-.04265c.3024-.00969,1.41267,.71419,2.12602,1.9133,.71257,1.19911,1.09017,2.03148,1.13282,2.4967,.15546,1.45072,.03799,2.9503-.35279,4.50027-.46716,1.7725-1.19834,3.03093-2.19314,3.77646-1.291,.97503-3.0918,1.4988-5.4028,1.57246-1.18322,.03761-2.13654-.06591-2.86035-.31092-1.78181-.61177-2.85182-.91223-3.20927-.90098-.13802,.00465-.29425,.05777-.46988,.15973-.17601,.10235-.31907,.15469-.42878,.15818-.4125,.01318-.99519-.12639-1.74808-.41948-.75289-.29232-1.00404-.82026-.96901-.78495Z"/><path class="j" d="M237.72578,143.06233c.00853,.27526,.20198,.73079,.58037,1.36543,.37761,.63542,.69512,1.07273,.95061,1.31232,.14344,.18842,.2423,.28146,.29774,.27991l-.00116-.04148c.00426,.13802-.20198-.28262-.61836-1.26076-.08878-.18958-.31441-.57494-.6769-1.15569-.36326-.58037-.54005-.74707-.53229-.49973Z"/><path class="g" d="M241.06725,133.82724c-.73118-.47259-1.14755-1.02349-1.25029-1.65387-.10351-.65752,.08645-1.37939,.57145-2.16639,.48422-.78584,1.05683-1.1902,1.71706-1.21113,1.21036-.03838,2.36085,.03009,3.31921,.71552,.13995,.07831,.99141,.59249,1.10577,.72624l-.76898-.31834c-.17214-.07484-.20208-.07859-.74844-.17588-.39477-.0703-.70318-.026-.89547-.0198-.55051,.01745-1.0863,.2551-1.6089,.71179-.5226,.45747-.74785,.9603-.67496,1.50849,.11824,1.12584,.90757,2.13344,2.36799,3.02279,.20079,.12211,.85252,.65929,.85407,.71395l-.81752-.21828c-.27526,.00853-.66925-.46117-1.53379-.81978-.75444-.33341-1.29991-.60518-1.6372-.8153Z"/><path class="g" d="M248.81883,133.46315c.65197,.53655,1.30555,.25554,1.10977,.28888,.58773-.07327,.86183-.28883,.82306-.6455-.2078-2.19624-.14055-6.03967-.62856-6.68642,.3997,.45592,1.0806,.98549,1.54815,1.82406,.28301,1.97371,.45204,3.82724,.50709,5.56059,.02016,.63309-.17562,.9696-.58735,1.00992-.30317,.00969-.91417-.16322-1.83415-.51989-.66915-.25393-1.0675-.78876-1.07021-.87133-.00078-.02714,.04767,.04241,.13219,.03969Z"/><path class="j" d="M291.06719,136.1615c.02326,.9351,.03567,1.77289,.03412,2.51492-.01086,3.87454-.40474,6.41505-1.17857,7.62192-1.90742,2.9627-4.10017,4.44017-6.57672,4.43281-1.89966-.00543-3.65976-.60053-5.2799-1.78724-2.08808-1.51741-3.14142-3.73226-3.16042-6.64534-.01434-4.67124-.00659-7.32301,.02287-7.95533,.31752-5.24773,2.95456-8.098,7.91036-8.55082,3.13716,.00892,5.41831,1.29332,6.84189,3.85283,.90409,1.62441,1.3538,3.27401,1.34915,4.94998l.03722,1.56625Z"/><path class="g" d="M279.14188,149.69861c-.00039,.18842,1.20267,1.26011,2.55027,1.7486,1.59494,.57029,3.08056,.85718,4.45607,.86105,.6327,.00194,1.19717-.05156,1.69341-.15973,1.10104-.24385,2.19121-1.18826,3.27053-2.83438,.99403-1.53485,1.49492-2.90687,1.49802-4.11607l.09149-3.00767c.02946-1.20842,.03257-2.4308,.0093-3.66674-.02326-1.31891-.08994-2.22532-.1985-2.7204-.68233-1.95239-1.5065-3.31356-1.88953-4.08389,.27293,1.12972,.69701,2.29976,.6939,3.51089-.01396,4.87167-.09149,7.81693-.23106,8.8346-.36443,2.72389-1.93378,4.85267-4.70807,6.38597-.85136,.466-1.90897,.69667-3.16973,.6928-1.20726-.00349-2.68325-.89026-3.36752-1.19537-.3842-.16632-.61681-.24967-.69861-.24967Z"/><path class="j" d="M285.7931,132.48934c.00775-2.77971-.96612-4.17267-2.92006-4.17849-.82577-.00233-1.5019,.40862-2.02644,1.23284-.47065,.71489-.70636,1.51237-.70908,2.3928l-.03295,11.60152c-.00892,3.13794,1.04559,4.70962,3.16546,4.71582,1.65154,.00465,2.48119-1.58874,2.4905-4.78211l.03257-10.98239Z"/><path class="g" d="M285.17901,130.50593c-.19229-.08335-.42646-.12522-.70094-.126-.46988-.00116-.92424,.12832-1.36466,.38846-.44119,.26053-.66217,.61099-.66372,1.05063l.10778,5.78079c.0442,3.60626,.06591,5.91842,.06281,6.93649-.00465,1.67907,.64905,2.72743,1.83227,2.73092,.1101,.00039,.51342-.14656,.51187-.06398,0,.19268-.57784,.34539-.90815,.49543-.33031,.15081-.60634,.22525-.82655,.22486-.93588,.02481-1.87618-.58195-2.50424-2.20791-.24579-.66139-.1991-5.31398-.17545-13.57171,.00233-.79786,.16942-1.54067,.50167-2.22803,.41521-.82461,.99442-1.23556,1.73761-1.23362,.88082,.11282,1.80666,.45784,2.3897,1.82368Z"/><path class="j" d="M294.34004,146.73333c.51795-.61177,1.10723-.91339,1.76785-.90409,.57765,.00814,1.11033,.29115,1.59804,.84826,.48771,.55788,.74126,1.12507,.76064,1.70349,.01628,.79902-.24114,1.49027-.77227,2.07451-.53113,.58463-1.19563,.81608-1.99193,.69473-.60402-.09111-1.11654-.38032-1.53601-.86803-.42025-.48732-.62573-1.03396-.6172-1.63991,.0093-.66023,.27293-1.29681,.79088-1.90897Z"/><path class="i" d="M297.67702,146.64499c.00066-.04707,.30896,.13902,.46315,.20348,.08625,.03605,.25707,.13571,.49042,.25669,1.05071,.62678,1.56844,1.45773,1.55385,2.49286-.01193,.87073-.44547,1.53529-1.29864,1.99402-.42691,.22937-.89956,.3404-1.4173,.33311-.37653-.0053-.8578-.09413-1.44315-.26748-.65628-.22108-1.06529-.45011-1.22638-.68777,.00066-.0232,.0126-.03513,.0358-.0348,.09413,.00133,.29367,.03381,.59927,.09645,.30427,.06331,.53961,.09579,.70467,.09811,.706,.00994,1.27344-.2171,1.70367-.68213,.43023-.46437,.65031-1.06131,.66092-1.79084,.00862-.61186-.10275-1.08385-.33344-1.41696-.09281-.11866-.49351-.54734-.49285-.59474Z"/><path class="j" d="M321.223,144.17964c-.10157,2.53586,.7273,4.1971,2.48662,4.98487,.35202,.15197,.72032,.23571,1.10568,.25122,.76995,.03063,1.63526-.25122,2.59595-.84671,.33884-.20664,.59161-.69241,.76064-1.45693,.13104-.54548,.22796-1.24409,.28999-2.09583,.0473-.49391-.10855-.89905-.46755-1.21695-.35977-.31713-.78778-.45825-1.28479-.42335-.22176,.019-.30007-.76917-.23649-2.3645,.01086-.27487,.15352-.39311,.42723-.35473-.54819-.07676,1.84616-.00892,7.18228,.20392,.16438,.00659,.24657,.70985,.24579,2.1094-.01551,.38381-.10623,.59936-.27371,.64782-.0566,.02559-.34582,.02753-.86764,.00659-.79863-.03179-1.28402,.4156-1.45848,1.3414-.12794,2.49205-.20237,4.69876-.22331,6.61859-.0597,.10739-.32333,.16593-.79243,.17407-.4125-.01628-.76839-.07172-1.06769-.16632-.10855-.03179-.20702-.15934-.29387-.38381-.08839-.2237-.2551-.35435-.50089-.39195,.02714,.00116-.66139,.15973-2.06482,.4753-1.40343,.31596-2.31139,.46561-2.72389,.44894-.68776-.02714-1.38637-.13802-2.09428-.33186-1.41738-.38846-2.62541-1.16888-3.62565-2.34201s-1.64922-2.51221-1.94619-4.01682c-.23184-1.1146-.20237-4.24982,.08607-9.40722,.12716-2.51027,1.01341-4.68558,2.6572-6.52709,1.41351-1.60115,3.41319-2.35093,5.99906-2.24781,.74203,.02985,1.26231,.10584,1.56083,.22757l3.29379,1.32977c.19307-.02055,.34582-.22757,.45825-.62069s.18221-.58928,.21013-.58812c.21943,.00853,.5637,.00116,1.03357-.02249,.4691-.02404,.82732-.03101,1.07544-.02132,.13569,.03334,.19694,.24308,.18144,.62922l-.1512,4.8046c-.09848,3.14802-.15352,4.88757-.16671,5.21826-.01473,.359-.06513,.58502-.1512,.67845s-.3086,.13298-.66605,.11863c-.79631-.05893-1.79964-.1132-3.01-.16167l-.24424-2.15825c-.50399-4.62045-1.78724-6.97216-3.84973-7.05435-1.51275-.06048-2.44165,.77188-2.78592,2.49709-.17291,.87617-.28069,1.86632-.32488,2.96852l-.37838,9.46653Z"/><path class="g" d="M322.12631,151.56042c-.89556-.32527-1.48572-.54949-1.86923-.81794l-.72433-.53831c-.01008,.25897,1.30722,1.50551,2.77268,2.05486,1.30263,.485,2.21447,.7525,2.73629,.80174,.60246,.07986,1.68101-.02869,3.23563-.32527,.72032-.10855,1.26618,.02365,1.63681,.39622,.26518,.25859,1.23982,.33884,2.92471,.24075,.4691-.03605,.7335-.78313,.79166-2.24122,.02094-.52183,.00233-1.27355-.05428-2.25401-.05815-.97968-.07754-1.68993-.0597-2.13034,.01396-1.04598,.44817-1.57944,1.3034-1.60076,.33108-.01396,.53423-.28146,.61099-.80174l.06203-1.5678c.03567-.88005-.78585-1.60924-1.35342-1.87984-.03412,.16399,.50284,1.10214,.50206,2.50673,.01396,.33147-.13104,.51872-.43576,.56137-.41327,.01124-.82655,.00814-1.23905-.00814-.63736,.0849-.93355,.62379-.8909,1.61704,.04807,.85601,.01783,2.65953-.09227,5.40939-.01783,.44002-.05583,.70016-.11398,.78041-.08994,.18958-.3559,.27487-.79476,.25742-.82577-.03295-1.64069-.31325-2.4463-.84128-.16438-.00659-.48616,.10002-.96301,.31984-.98162,.43847-2.14623,.62999-3.49383,.5761-.46755-.01861-1.1491-.19035-2.04543-.51524Z"/><path class="g" d="M321.74561,144.54135c-.02249,1.23866,.22796,2.2133,.75134,2.92238,.23416,.34,.73893,.78739,1.51663,1.3414,.26673,.20392,.5922,.61786,1.03261,.63569,.35745,.01396,1.13068-.22568,1.41136-.35284l-.72604,.06107c-.67175-.12214-1.35429-1.16931-2.17231-3.46092-.32256-.89439-.43033-3.0193-.32333-6.37628,.07444-2.55873,.21788-4.78444,.43188-6.67674,.08994-.87733,.73971-1.29255,1.95006-1.24409,.27448,.01086,.93191-.11922,1.46297,.36736,.35323,.32365,.60567,.64457,.78413,.88886,.00233-.05466-.3648-.55842-.48963-.86663-.65519-1.54105-1.63186-2.16131-2.5941-2.1997-.65984-.02636-1.3507,.359-2.07102,1.15686-.51872,.58541-.79941,2.07529-.83973,4.47003l-.12484,9.33356Z"/><path class="g" d="M329.24036,138.97339c.72265,.52454,1.33209,.7967,1.82678,.81647,.21866,.03683,.50709,.06164,.86454,.07599,.33031,.01318,.71567,.01512,1.15686,.00504,.60712-.03063,.9793-.37412,1.11576-1.03008,.03101-.10816,.06978-.71296,.11398-1.81321,.02636-.66023,.03101-1.65154,.01551-2.97472-.01628-1.32279-.01086-2.3141,.01551-2.97433,.03722-.93471-.01783-1.62557-.16515-2.07257-.04885-.16709-.22874-.49081-.53966-.97193-.10468-.14151-.74587-.78564-.79937-.81549-.1101-.00426,.41168,.85542,.4427,1.46254-.04032,1.01768-.11398,2.50213-.21943,4.45374-.07676,1.92525-.13336,3.34147-.16981,4.24905-.03412,.85291-.19307,1.38365-.47685,1.59262-.19772,.13026-1.62339-.17053-3.59439-.46982l.41304,.46672Z"/><path class="j" d="M357.91909,145.56601c-.30782,2.73901-.56215,4.40567-.76374,4.99961-.66217,1.80662-1.91052,2.65294-3.74583,2.53935-1.80817-.11204-2.91308-1.14561-3.31472-3.10111-.16981-.80988-.35124-2.31061-.54509-4.50143-.10855-1.35729-.34116-2.26835-.69784-2.73203-.55827-.75134-2.05707-1.20299-4.49484-1.3538-.54819-.03412-.83275,.12794-.85446,.48461l-.16593,2.67853c-.04109,.65945-.08296,1.33287-.12561,2.01907-.03722,.60479-.05738,.93432-.06125,.98899-.03024,.49469,.09692,.99907,.38226,1.51314,.28456,.51407,.65364,.79902,1.10491,.85446,.45204,.05583,.74281,.13569,.87462,.24037,.13104,.10506,.18454,.36287,.15895,.77499-.0566,.90641-.34582,1.34372-.86764,1.31116l-1.81282-.11204c-1.21423,.00737-2.24703-.01512-3.09839-.06823-2.60991-.16167-3.87532-.43266-3.79623-.81414l.06591-1.07157c.07909-.3811,.28611-.60285,.6203-.66488,.75366-.14577,1.15763-.21749,1.21346-.21439,.42723-.22137,.69318-.74281,.80019-1.56354l.99325-15.3679c.08529-1.37357-.16593-2.2164-.75289-2.52888-.08142-.03218-.40707-.10778-.9793-.22602-.35357-.07676-.54276-.24696-.56835-.51097-.02481-.26324-.03024-.50477-.01706-.72497,.04652-.74164,.27526-1.09987,.68776-1.07428l3.95595,.24502c.85058,.05273,1.95006,.12096,3.29611,.20431,1.0987,.06823,1.84074,.11398,2.22532,.13802,4.31263,.26712,6.81631,1.70737,7.50949,4.31999,.22253,.84322,.30705,1.719,.25045,2.62774-.12639,2.03691-.75754,3.54539-1.89346,4.52469-.2047,.18105-.52105,.39622-.94983,.64627-.25742,.14926-.39079,.29309-.39932,.43072-.00698,.11088,.04032,.23804,.14189,.38187,.31092,.32372,.60712,.64589,.89168,.96728,.3024,.46096,.47453,1.23168,.51795,2.31178,.10235,2.79793,.34349,4.24982,.72342,4.35605,.59549,.17523,.96069-.38148,1.09638-1.66977,.02481-.41172,.0504-.82383,.07599-1.23594,.06668-.62999,.19617-.93936,.38846-.92735,1.34605,.08335,1.98883,.38536,1.9299,.90525Z"/><path class="g" d="M336.97704,152.40906c.93743,.89129,1.81903,1.34876,2.64557,1.37202,2.96813,.15701,5.26246,.28495,6.88376,.38536,.76917,.04769,1.17392-.699,1.21423-2.24122-.00543-.35861-.21788-.71683-.63658-1.07389-.57533-.50399-.94208-.81647-1.10025-.93665-.48461-.63619-.73583-1.70039-.75366-3.19066,.01086-.16477-.00465-.48228-.0442-.9541-.03954-.47104-.05195-.83042-.03644-1.07777,.0473-.76878,.4691-1.12933,1.26618-1.07971,1.0987,.06785,1.90664,.38032,2.42459,.93626,.05117,.05854,.1039,.08917,.15973,.09227,.02714,.00194,.04265-.02442,.04575-.07986,.01241-.19152-.11708-.52415-.38691-.99597-.26905-.47181-.49391-.78158-.67457-.93122-.56835-.47608-1.74459-.76995-3.53027-.88044-.37838-.02365-.59394,.37683-.64434,1.20105-.21633,3.48918-.19307,5.48964,.06978,6.00216,.12018,.22874,.46833,.4501,1.04443,.66488,.5761,.21517,.92735,.39544,1.05296,.54082,.20082,.23339,.26983,.62379,.20858,1.1712-.05428,.43809-.1605,.81724-.31868,1.13864-.09382,.18725-.59626,.2803-1.50655,.27875-.54974-.03412-1.11189-.06901-1.68954-.10468-2.88749-.12328-4.8205-.31248-5.79747-.56602,.04807,.1101,.08296,.22021,.1039,.32876Z"/><path class="g" d="M337.72622,129.57965c-.00698,.1101,.46273,.82355,.8667,1.42757,.40319,.60402,.70481,1.07777,.90486,1.42126,.10933,.00659,.35004-.81738,.04299-1.63656-.30782-.81841-1.00601-.84967-1.41463-.93031-.08064-.03218-.39449-.36414-.39992-.28195Z"/><path class="j" d="M350.79729,134.9903c.07986-1.291-.32876-2.30945-1.22587-3.05458-.4753-.3873-.96224-.59743-1.45925-.62805-.16593-.01047-.42801-.04032-.78545-.08994s-.6327-.08064-.82577-.09266c-1.29953-.08064-2.05396,.23145-2.26409,.9351-.107,.37993-.18919,1.03667-.24657,1.97022-.02249,.35745-.04265,1.12856-.06048,2.31294-.01861,1.18477-.01163,1.51624,.02094,.99403-.02249,.35745,.1985,.56447,.66449,.6203,2.05164,.26557,3.41785,.25316,4.09785-.03567,1.3003-.5257,1.99581-1.50306,2.0842-2.93169Z"/><path class="g" d="M345.94966,137.79211c.30162,.01861,1.26802,.33746,1.15606,.31866-.28341-.0476-.46181-.25428-.62464-.29189-.54509-.11669-.76171-1.21271-.58725-3.13253,.0946-1.09677,.48616-1.62479,1.17314-1.58215,1.75777,.10894,2.75568,.25355,2.99294,.43382,.10468,.08917,.51468,.42603,.5426,.42797-.17368-.31403-.7062-.90676-.90857-1.1952-.37295-.65713-1.10568-1.07505-2.19741-1.253-.30084-.04613-.75599-.04691-1.36543-.00194-.69318,.06746-1.11344,.16554-1.25921,.29425-.26363,.25936-.46212,1.46042-.59549,3.60316-.08296,1.34644,.07754,2.0873,.48306,2.22261,.18842,.06707,.58541,.11863,1.1902,.15624Z"/><path class="g" d="M350.58317,151.40316c-.00543,.08258,1.2066,1.83594,2.2867,2.20618,1.24137,.43576,2.46879,.64938,3.6838,.64201,1.59959-.01086,2.52849-1.64922,2.78592-4.91548,.04807-.76878-.01086-1.37939-.17601-1.83104-.43498-.99209-1.08646-1.99684-1.24076-2.17169-.02636-.02869,.31497,.43253,.30799,.54186-.00543,.08258-.01318,.20625-.02326,.37102-.00155,.9099-.14965,1.96247-.44351,3.15771-.34116,1.49569-.75056,2.53237-1.22742,3.10925-.6296,.81608-1.61743,1.18206-2.96348,1.0987-.65907-.04109-1.17624-.15585-1.55075-.34465-.37451-.18842-1.3043-1.82741-1.43921-1.86385Z"/><path class="g" d="M354.25558,130.47013c.27448,.01706,2.09415,2.36852,2.43609,3.52033,.41172,1.37668,.54276,2.81926,.39389,4.32619-.06824,.6579-.4753,1.33558-1.22199,2.03419-.74668,.69822-1.12041,1.06149-1.12274,1.08862-.01318,.22021,.23959,.69745,.75987,1.43289,.51872,.73544,1.29113,1.76466,1.2857,1.84685l-1.18335-.49615c-.22408,.04187-.33729,.53113-.33961,1.46817,.00853,.30433-.04342,.70055-.15663,1.18981-.12096,.62728-.31865,1.20383-.4838,1.19375-.27448-.01706-.38617-1.39884-.44199-3.60904-.06203-1.65852-.37916-2.78088-.94906-3.36822-.23416-.23455-.69677-.354-.68591-.51877,.03179-.52144,.80958-.89968,1.50975-1.51804,.87307-.74552,1.20381-1.58878,1.36043-1.88304,.2171-.40009,.30731-.90836,.3484-1.56781,.03101-.4943,.11601-1.43526-.07008-2.88094-.03489-.33302-1.52193-2.26384-1.43896-2.2588Z"/><path class="j" d="M361.67655,153.87219c-.96069-.0787-1.42901-.25471-1.40653-.52997l.09149-1.11305c.08684-.37993,.32721-.58153,.72265-.60479,1.12817-.04652,1.76708-.47841,1.91827-1.29565,.12251-.73699,.38614-3.45468,.79088-8.15305,.60867-7.1156,.76839-8.7214,.47685-4.81701,.20237-2.47344,.14577-4.08234-.16826-4.82786-.22796-.48849-.48616-.77266-.77382-.85175l-.83895-.06862c-.2613-.0756-.39389-.26246-.39622-.56059,.02094-.59355,.0504-.95681,.08917-1.08979,.10855-.31596,.45127-.45049,1.02737-.40319,.02714,.00194,.41172,.03334,1.1522,.09421,.84982,.0694,1.71436,.13995,2.59286,.21168l3.29146,.26944c.49391,.04032,.79553,.06513,.90564,.07405,.2171,.04536,.31403,.20547,.29232,.47957-.05195,.63115-.09382,.97271-.12716,1.02504-.11165,.32256-.47918,.5478-1.10258,.67613-.62418,.1291-1.04133,.447-1.25378,.9541-.27603,.58502-.48073,1.52128-.61487,2.80801-.94208,8.81561-1.29565,13.64696-1.06071,14.49483,.12639,.48034,.25122,.80755,.37528,.98356,.19617,.29232,.50477,.49042,.92502,.59316,.4187,.10351,.6676,.18609,.74591,.24734,.21013,.12794,.30317,.34271,.27836,.64434-.07599,.93277-.33419,1.38094-.77227,1.34527l-7.16057-.58541Z"/><path class="g" d="M371.54085,134.05443c.48383-.18144,.74824-.87889,.79243-2.09273,.00388-.38652-.18299-.80251-.56059-1.24913-.12639-.1481-.22641,.23649-.30162,1.15492-.0504,.61952-.53191,.93239-1.44374,.93936-.30472,.0031-.61565,.43382-.93432,1.29332-.25045,.699-.50399,2.61495-.75987,5.74823-.55749,6.81592-.73505,10.50902-.53346,11.07892,.08917,.25665,.42025,.51213,.99403,.76607,.573,.25471,.88315,.4249,.93122,.51175,.08917,.25665,.15352,.66294,.19074,1.21889,.03722,.55711-.04807,.92347-.25587,1.10025-.3559,.30278-1.37164,.38575-3.04412,.24889-.93277-.07637-2.1377-.20198-3.61479-.37838l-2.64789-.85786c-.32953-.02714,.39621,.7842,1.07156,1.14281,.67457,.35977,1.12041,.56176,1.33752,.60673,.7366,.11592,2.39357,.27836,4.97247,.48926l1.64612,.13491c.24734,.02016,.47996,.03916,.69939,.05699l.28844,.02365c.32876,.02675,.5761-.1322,.74358-.47841,.16593-.3462,.23494-.68621,.2078-1.02039-.06823-1.19485-.54121-2.17376-1.41738-2.9375-.51485-.45708-.77305-1.18361-.7746-2.17919l.21633-2.63821,.92967-11.37589c.04962-.6044,.47143-1.03978,1.26696-1.30728Z"/><path class="g" d="M362.60932,131.82756c.57843,.02016,.9824,.31519,1.21191,.88625,.30007,.71489,.3683,1.06575,.20392,1.05218-.02791-.00233-.06668-.03257-.11631-.09266-.96456-1.0452-1.44064-1.63604-1.42979-1.77367,.00233-.02714,.04575-.05117,.13026-.07211Z"/><path class="j" d="M372.85742,154.19214l-.61545-.06467c-.21682-.04956-.32004-.25437-.30963-.61324-.00438-.74783,.09738-1.19398,.30606-1.33809,.0911-.0733,.49718-.12753,1.22134-.16282,.56109-.07914,.9399-.52418,1.13569-1.33394,.2486-1.05347,.73371-5.02917,1.45608-11.92791,.30893-2.95641,.40187-4.63441,.27799-5.03551-.3104-1.00079-.77788-1.56148-1.40167-1.68247-.38043-.06701-.60015-.15216-.65841-.25586-.05821-.10254-.06745-.34544-.02694-.72913,.02101-.46791,.09584-.7854,.22374-.95204,.12792-.16626,.41115-.22707,.84975-.1809,.3007,.03124,1.31345,.13745,3.03822,.31785l3.03901,.31821c1.06727,.11151,1.45055,.15164,1.14985,.12039,.34957,.09224,.51103,.39996,.48433,.9224,.1925,2.35158,.27549,4.29739,.53913,6.48348,.30142,2.49941,.42224,3.42141,.59145,4.92631,.21039,.1049,.9173-2.15938,2.12227-6.79367,.84259-3.28785,1.46913-4.91087,1.87969-4.86789,.16438,.01742,1.24672,.1171,3.24777,.29863l3.37163,.31138c.84837,.08879,1.26245,.36752,1.24067,.83545-.07003,.93378-.15957,1.39499-.26865,1.38323-1.23243-.12889-2.03409,.52078-2.40425,1.9486-.19861,.83741-.43053,2.39072-.69576,4.65993-.09729,.93094-.31451,3.13625-.65091,6.61513l-.42506,4.06537c-.13497,1.28697,.29969,2.1069,1.30324,2.46098,.46076,.1594,.73221,.31939,.81434,.4796,.08139,.16102,.09512,.5019,.04039,1.02153-.0227,.21929-.03217,.43963-.02684,.66134-.01987,.19163-.0785,.28232-.17354,.27235-.09661-.01029-1.36355-.12856-3.80244-.35669l-4.07428-.34325c-.65673-.06892-.96095-.33553-.91193-.8014,.09446-.90329,.11555-1.24666,.06634-1.03063,.06701-.38043,.22581-.57114,.47482-.57284,1.10873-.02237,1.71009-.47122,1.80169-1.34762,.0511-.49272,.33155-2.91265,.8429-7.25947l.73477-7.02181c.07176-.684,.05231-1.03243-.05675-1.0438-.05531-.00566-.14191,.16563-.26141,.51235-3.07003,10.02965-4.68523,15.5478-4.84638,16.5545-.16962,1.08965-.55516,1.60246-1.15734,1.53961-.79385-.08349-1.17891-.1092-1.15373-.07951-.37837-.09463-.57664-.3094-.5971-.64344-.67364-7.04469-1.21622-12.96848-1.62696-17.7718,.02669-.52244-.02777-.79156-.16411-.80616-.05813,.022-.09857,.14225-.12128,.36115l-1.42231,13.59177c-.12645,1.20479,.09579,1.98895,.66675,2.35288l.86033,.5054c.15303,.12687,.21779,.29976,.19507,.51828-.13495,1.28736-.15578,1.61715-.06245,.99014-.0369,.356-.51325,.54172-1.42831,.55594-.66523,.01365-1.56992-.06679-2.71412-.24249-1.44283-.23418-2.08087-.34222-1.91728-.32516Z"/><path class="g" d="M378.34371,156.50999c-1.61573-.16941-2.59834-.29927-2.94793-.39189-.80973-.19501-1.65206-.61497-2.52469-1.26034-.49199-.32775-.6827-.48655-.57286-.47521l5.91286,.61903c.43782,.04582,.7089,.0328,.814-.03948,.10356-.07222,.16521-.32829,.18413-.76935l.10297-.98547c-.01479-.38896-.15178-.6658-.41104-.83169-1.04345-.60746-1.51756-1.36304-1.4231-2.26632l1.25894-12.03137,.58848,7.86576c.01798,.08506-.00792,.99582-.07848,2.73194l-.11514,2.686c-.00851,.08218,.08173,.27196,.27224,.5685s.40547,.62357,.64484,.9807c.11646,.20585,.21072,.62399,.28357,1.25438,.07284,.63,.12758,.96778,.16423,1.01333,.03663,.04516,.0507,.10903,.04219,.19122-.04619,.43822-.30669,.74996-.78305,.93528-.47559,.18529-.94708,.25366-1.41216,.205Z"/><path class="g" d="M380.76856,156.34836c.2386,.35717,.5475,.58364,.92509,.6783,1.25892,.13177,2.11289,.04149,2.5611-.27196,.44748-.31226,.62339-.5428,.5285-.69166-.26947-.33233-.35374-.97742-.25362-1.93601,.07176-.684,.29479-1.10372,.67146-1.2581,.49814-1.85751,1.29066-4.66626,2.37673-8.42776,.20811-.66939,.42032-2.16958,.63668-4.4994,.08028-.76618,.0795-1.15412-.00308-1.16262-.08181-.00892-.21146,.29552-.3859,.91165l-2.44126,8.64902c-.77882,2.67903-1.45117,4.87294-2.01708,6.58056-.15814,.45295-.74437,.62616-1.75634,.51992-.10984-.01134-.35602-.03729-.7393-.07742-.16151-.04391-.24796-.01152-.25933,.09754-.00851,.08218,.04386,.37815,.15636,.88793Z"/><path class="g" d="M383.2199,131.91204c-.10581,1.01312,.25825,3.70125,.85606,8.3023,.14319,1.01103,.19651,1.55642,.16151,1.63573,.02935-.02401,.06305-.0765,.09883-.15584,.24466-.74877,.37653-1.21934,.39716-1.41139,.05962-.5749,.00899-1.41681-.15118-2.52729-.16013-1.1097-.46684-2.80936-.91933-5.09823-.18579-.60088-.64578-1.81666-.75484-1.82803l.31179,1.08275Z"/><path class="g" d="M386.93018,157.36723c-.52606,.0006-.95213-.16477-1.27664-.49578-.43438-.6085-.65261-.89932-.65548-.87283,.08468-.01757,.37319-.001,.86631,.05048,.16437,.01703,1.43837,.13736,3.82273,.3598l3.69965,.34702c.35602,.03729,.49314,.05186,.41133,.04294,.08465-.01835,.14013-.1512,.16567-.39776-.03406,.32874,.04516-.03663,.23923-1.09579,.07554-.46222,.04647-.839-.08874-1.12988l-1.42041-.61771c-.64141-.4823-.67009-1.36563-.61527-2.1483,.05402-.78342,.32648-3.51536,.81658-8.19657,.46096-4.40698,.75051-6.771,.86638-7.09082,.38856-1.06616,.91299-1.57882,1.57255-1.53755,.41341,.0161,.66705-.02691,.76098-.12786,.09317-.10053,.16284-.3701,.20903-.80832,.08974-.59894-.41739-1.17241-.38446-1.22448,.0517,.03334,.68276,.35612,.75319,.47371,.49825,.7985,.71229,1.38744,.64525,1.7671-.12462,.92655-.46037,1.36103-1.00802,1.30387-.71204-.07458-1.28037,1.38561-1.70344,4.38089-.18619,1.77659-.35913,3.55462-.5173,5.33325-.48768,4.39791-.69016,6.72564-.6059,6.98276,.04316,.11475,.36617,.52884,.96977,1.24109,.60363,.71302,.89273,1.31696,.86885,1.81136-.07577,.98676-.14112,1.61504-.19678,1.88563-.1947,.53232-.59315,.76667-1.19456,.70379-.60296-.06282-1.90032-.2261-3.89287-.4902l-3.10764-.44983Z"/><path class="j" d="M397.27549,156.76356l-.61254-.088c-.21478-.05777-.31015-.26634-.28611-.62456,.02404-.74746,.14267-1.18942,.35667-1.3255,.09382-.06978,.50167-.10855,1.22664-.11631,.5637-.05777,.95914-.4881,1.18555-1.28983,.28844-1.04326,.92424-4.99767,1.90819-11.86399,.42103-2.94254,.57765-4.6158,.4691-5.02132-.27216-1.01186-.718-1.5899-1.33674-1.73451-.37761-.08141-.59394-.17485-.64821-.28069-.05428-.10468-.05428-.34775,.00078-.72963,.03877-.46677,.12561-.78119,.25975-.94285,.13414-.16128,.41948-.21129,.85601-.14848,.29929,.04265,1.30728,.18725,3.02396,.43305l3.02473,.43343c1.06226,.15197,1.44374,.20664,1.14445,.16399,.34582,.10545,.49546,.41909,.44894,.94014,.18686,2.14263,.04369,4.23279,.18686,6.43006,.1658,2.54441,0,3.4525,.50942,5.01445,.20625,.11282,.99868-2.12297,2.37885-6.70814,.96689-3.25347,1.65465-4.85151,2.06327-4.79297,.1636,.02365,1.24137,.16438,3.23408,.4218l3.35737,.43925c.84438,.12096,1.24758,.41521,1.20803,.88199-.10545,.93045-.21245,1.38792-.321,1.37202-1.22664-.17562-2.05241,.44313-2.47654,1.85586-.23029,.82926-.52105,2.37264-.87229,4.63014-.13259,.92657-.43343,3.12204-.90176,6.58563l-.5792,4.04629c-.18376,1.28092,.21943,2.11677,1.20881,2.50872,.45437,.17679,.71955,.34698,.79553,.5102,.07521,.16399,.07599,.50516,.00155,1.02233-.03101,.21827-.04885,.43809-.05195,.65984-.02714,.19074-.08917,.27913-.18376,.26557-.09615-.01396-1.35768-.18027-3.78615-.50089l-4.0583-.49779c-.65364-.09382-.94751-.37179-.88082-.83546,.12871-.89905,.16283-1.24137,.10545-1.02737,.08141-.37761,.24734-.56215,.49624-.55439,1.10878,.01977,1.72676-.40591,1.85159-1.2782,.06978-.49042,.44196-2.89796,1.11809-7.22221l1.00101-6.98883c.0977-.68078,.09149-1.0297-.01706-1.0452-.05505-.00775-.1481,.16011-.28069,.50205-3.44886,9.90578-5.27254,15.35859-5.47182,16.35844-.21089,1.08242-.61564,1.58021-1.215,1.49453-.79011-.11359-1.17392-.15391-1.14988-.12328-.37451-.10894-.56447-.33108-.57223-.66566-.40552-7.0652-.72265-13.00533-.95061-17.82079,.04652-.52105,.00233-.79204-.13336-.81182-.05893,.01977-.1039,.1384-.13491,.35628l-1.93766,13.52794c-.17213,1.19911,.02016,1.99116,.57688,2.37652l.8405,.53772c.1481,.13259,.20625,.30782,.17523,.52532-.18376,1.2813-.2171,1.61006-.10002,.98705-.0504,.35435-.53346,.52183-1.4484,.50128-.66527-.01163-1.56625-.12639-2.70295-.34543-1.43289-.28883-2.06637-.42103-1.90354-.39777Z"/><path class="g" d="M402.66976,159.28817c-1.60812-.23067-2.58509-.39777-2.93091-.5036-.80174-.22563-1.62751-.67729-2.47499-1.35535-.47918-.3462-.66372-.51213-.55439-.49663l5.88508,.84322c.43576,.06242,.70714,.0597,.81492-.00853,.10623-.06823,.17756-.32178,.21323-.7618l.14033-.98085c0-.38924-.12638-.67109-.37915-.84671-1.01962-.64666-1.46468-1.41971-1.33597-2.31875l1.71512-11.97486,.28922,7.88244c.01473,.08568-.04575,.9948-.18221,2.72699l-.2171,2.67969c-.01163,.0818,.07133,.27487,.25045,.57843s.38148,.63852,.60712,1.0045c.10855,.21013,.18686,.63154,.23571,1.26425,.04885,.63232,.09072,.97193,.12561,1.01884,.03489,.04652,.04652,.11088,.03489,.19268-.06281,.43615-.33496,.73777-.81802,.90486-.48228,.16709-.95604,.21749-1.41893,.1512Z"/><path class="g" d="M405.099,159.21878c.22486,.36598,.52493,.60402,.89866,.71296,1.253,.1795,2.10979,.12173,2.56959-.17446,.45902-.29503,.64356-.51872,.55439-.67109-.25665-.34233-.31635-.99015-.17989-1.94425,.0977-.68078,.33651-1.09173,.71877-1.23168,.56835-1.83725,1.46701-4.61386,2.6952-8.33139,.23339-.66101,.50244-2.15205,.80716-4.47197,.10933-.76258,.12328-1.15027,.04109-1.1619-.08141-.01202-.22253,.28728-.42025,.89633l-2.76809,8.55004c-.88004,2.64751-1.63525,4.81429-2.26563,6.49918-.17523,.44661-.76762,.59743-1.77483,.45282-.10933-.01551-.35435-.05079-.73583-.10545-.15973-.05001-.24734-.02094-.26285,.08762-.01163,.0818,.02946,.37955,.12251,.89323Z"/><path class="g" d="M408.59981,134.77863c-.14422,1.00837-.21721,4.45852,.20537,9.07897,.10468,1.01574,.31047,2.28466,.31103,1.00515,.03024-.02287,.06591-.07405,.10468-.15197,.27293-.73893,.42258-1.20415,.45049-1.39528,.08141-.57223,.06281-1.41544-.05505-2.53121-.11786-1.11499-.35977-2.82507-.72497-5.12948-.16283-.6075-.29929-.91882-.40785-.93432l.11631,.05815Z"/><path class="g" d="M411.21747,160.471c-.5257-.01938-.94518-.20082-1.25688-.54392-.41095-.62456-.61797-.92347-.62185-.89711,.08529-.01434,.37295,.01318,.86377,.08335,.1636,.02326,1.43211,.1919,3.80631,.50477l3.6838,.48732c.35435,.05079,.49081,.07056,.4094,.05854,.08529-.01512,.14577-.14577,.18066-.39118-.04652,.32721,.04652-.03489,.28069-1.08591,.09304-.45902,.07831-.83663-.04575-1.13243l-1.38168-.67697c-.62262-.50632-.63197-1.38436-.54745-2.16438,.08374-.7808,.4598-3.50042,1.12739-8.15964,.62805-4.38629,1.00721-6.73761,1.13515-7.05279,.42878-1.05063,.97232-1.54299,1.62983-1.4767,.4125,.03179,.6676-.00155,.76529-.09886,.09692-.09692,.17679-.36365,.23959-.7998,.11243-.5951-.46954-1.31213-.43465-1.36292,.0504,.03528,.76573,.50652,.83164,.6267,.46755,.81686,.65907,1.41351,.57765,1.79034-.15973,.92114-.51175,1.34256-1.05683,1.26463-.70869-.10157-1.33209,1.33597-1.86865,4.31301-.25355,1.76824-.49391,3.53842-.71955,5.30976-.65441,4.37621-.94518,6.69457-.87074,6.95471,.03877,.11631,.34582,.54237,.92192,1.27704,.5761,.73544,.84206,1.34992,.79941,1.84306-.1132,.98317-.20237,1.60851-.26828,1.87679-.21478,.52454-.62185,.74358-1.22044,.6579-.60014-.08568-1.89036-.29813-3.87144-.63774l-3.08831-.56757Z"/></g><g><path class="h" d="M128.22474,149.32601c.0484,.18064-.57456,.5988-1.867,1.25397-2.12871,1.07336-3.90489,2.05126-5.33003,2.9356-1.89113,1.16388-2.88614,1.77828-2.98501,1.84319-1.40032,.76193-2.89337,1.35509-4.47998,1.78022-.99139,.26564-2.35457,.37006-4.08952,.31326-1.73589-.05655-3.46476-.12459-5.18577-.20484-.81547-.01352-1.8969,.02551-3.24468,.1157-.60623,.04668-.93595-.02926-.98915-.22783-.07241-.27025,.25487-.59958,.98198-.98751,1.2656-.68741,2.53291-1.36466,3.80331-2.03415,1.20141-.70812,2.40282-1.41625,3.60505-2.12509,1.58786-.8506,3.17598-1.48895,4.76258-1.91408,2.27144-.60863,6.04234-.8168,11.31163-.62473,1.07354,.04093,2.06167-.05955,2.96345-.30119,.43203-.11576,.68045-.05645,.74313,.17748Zm3.01002-.34248c.17389,.64898-.10748,1.54582-.84519,2.6903-.49781,.80976-1.54776,2.19258-3.14889,4.14823-1.20709,1.48307-2.53556,2.72822-3.98553,3.73497-1.27134,.88104-2.45724,1.46975-3.55616,1.76421-1.47907,.39632-3.19163,.65704-5.13848,.78288-1.9478,.1261-3.11997,.24152-3.51615,.34767-1.44323,.38671-2.9799,1.17557-4.61296,2.36685-.97087,.70448-1.3448,1.47094-1.12251,2.30056,.02414,.09008,.0689,.22317,.13604,.39828l.10881,.40609c.1835,.68483-.01327,1.10505-.59056,1.25974-.28865,.07734-.56108,.03407-.81705-.12886-.25704-.16315-.42528-.39863-.5073-.70473-.80691-3.01144,3.61719-6.33213,13.27312-9.9628,1.01704-.38878,2.95635-1.08231,5.81971-2.08157,1.75096-.60414,2.90524-1.058,3.46166-1.36228,1.44834-.794,2.49986-1.70309,3.1531-2.72889,.65243-1.02508,.8511-2.01552,.59493-2.97154-.28005-1.04516-1.2652-1.87308-2.95534-2.48329-2.56982-.9351-5.26105-1.02533-8.07299-.27187-.36128,.0968-.94089,.26171-1.73788,.49448-.79781,.23349-1.41244,.40728-1.84541,.52329-4.59758,1.23192-8.61383,1.6413-12.04861,1.22863-3.05288-.36082-4.75176-1.181-5.09487-2.46151-.10616-.39618-.06923-.76397,.11116-1.10196,.17932-.33821,.44962-.55571,.81089-.65252,.43203-.11576,.70952,.05202,.83021,.50244,.03867,.14432,.05845,.32758,.06017,.54903,.00089,.22218,.01202,.36934,.03123,.44103,.17389,.64898,.94922,1.12771,2.32653,1.43452,1.45886,.32439,2.9905,.27138,4.59503-.15855,1.06403-.28511,2.40669-.86224,4.02894-1.73165s2.71306-1.37906,3.27243-1.52895c1.9111-.51208,3.73361-.67184,5.46551-.47925,1.54672,.14667,3.3043,.61243,5.2742,1.39891,1.73219,.69549,3.24006,1.48951,4.52264,2.38231,1.04947,.74346,1.62289,1.29499,1.71957,1.6558Zm-8.75614,1.94028l-.59521,.15949c-2.00166,.53634-4.06792,1.01265-6.19786,1.42868s-3.24066,.6363-3.33027,.66031c-.64898,.17389-1.29256,.4434-1.92911,.80706-.53382,.31693-.79005,.51146-.77084,.58315,.02765,.03151,.0683,.03983,.12207,.02543l.27072-.07254c.72067-.1931,1.60123-.3517,2.64073-.47555s1.69448-.22251,1.96521-.29505c2.21767-.59422,4.17404-1.22408,5.87064-1.8915,1.32605-.52971,1.97808-.83939,1.95394-.92948Z"/><path class="h" d="M458.02616,167.6296c-.19323,.72114-.63232,.9902-1.31715,.8067-.55937-.14988-.75631-.53174-.59215-1.1444,.02426-.09056,.0713-.23213,.14337-.42564l.13042-.48674c.2319-.86547-.20696-1.73677-1.31469-2.6134-1.1088-.87641-2.62759-1.57353-4.55661-2.09041-.52258-.14003-1.74947-.2701-3.67746-.3909-1.92987-.1213-3.53395-.35295-4.81399-.69594-2.39878-.64275-4.7505-2.28744-7.05611-4.93433-1.72766-1.98905-2.93111-3.51967-3.61059-4.59092-.79007-1.23585-1.09768-2.17814-.92379-2.82712,.09668-.36081,.68111-.9195,1.75318-1.6756,1.26467-.8976,2.74132-1.68077,4.42712-2.35028,2.01055-.7948,3.76826-1.26103,5.27407-1.39844,1.82739-.18672,3.8419,.01488,6.04165,.6043,.72067,.1931,1.86619,.71741,3.43373,1.57217,1.56848,.85501,2.8121,1.4056,3.73181,1.65204,1.71301,.459,3.19186,.5656,4.43669,.31934,1.18531-.243,1.88273-.75171,2.09049-1.52709,.03854-.14385,.06793-.36295,.08923-.65751,.0201-.29387,.04563-.4948,.07457-.6028,.10148-.37873,.3683-.51045,.80127-.39444,.36034,.09655,.63286,.34347,.81557,.74072,.18378,.39703,.21959,.80294,.1085,1.21752-.35752,1.33428-2.19034,2.11857-5.49941,2.35261-3.58228,.23869-7.78804-.28973-12.6205-1.58458-.30657-.08214-.78505-.22451-1.43613-.42828-.65121-.20331-1.15692-.35347-1.51726-.45002-2.30822-.61849-4.85174-.5362-7.63123,.24567-1.65146,.46589-2.65102,1.34758-2.99881,2.64554-.2319,.86547-.01767,1.83177,.64402,2.89775,.66062,1.0662,1.66884,1.99351,3.02289,2.78095,.50265,.28987,1.38158,.65075,2.63748,1.08382,1.81772,.64174,3.04241,1.08566,3.67205,1.33171,5.69014,2.27838,9.47222,3.92013,11.34838,4.92481,3.80091,2.04311,5.43051,4.07362,4.88937,6.0932Zm3.57789-11.1871c-.04347,.16225-.23719,.23621-.58089,.22095-.46542-.06658-.93325-.12419-1.40348-.17285-.73756-.06215-1.63801-.05219-2.70417,.02913-.89337,.0892-1.78434,.16944-2.67278,.24025-1.55011,.08763-2.44065,.12855-2.6712,.12491-1.17229-.02446-2.38955-.20554-3.65167-.54373-1.64132-.43979-3.65846-1.3862-6.05155-2.83877-1.78021-1.07603-3.93756-2.29153-6.47275-3.64771-1.49006-.78547-2.21322-1.25979-2.16975-1.42204,.06761-.25233,.3722-.30619,.91271-.16136,.86594,.23203,1.81698,.36149,2.85326,.38793,.77868-.02338,1.56426-.0348,2.357-.03521,4.34698,.00514,7.45763,.25882,9.33289,.76129,1.73093,.4638,3.38833,1.13032,4.97234,1.9991,1.19648,.72652,2.38448,1.45076,3.56304,2.17248,1.12282,.5713,2.24229,1.15132,3.3603,1.74054,.78075,.40281,1.12325,.78474,1.0267,1.14508Zm-9.69566-2.65608c.01453-.05424-.27862-.25815-.87932-.61222-.67334-.37352-1.24335-.62331-1.71216-.74893,.27072,.07254-.64812-.10542-2.75521-.53504-2.10816-.4294-4.34263-.9609-6.70462-1.59379-.07169-.01921-.19569-.06204-.37105-.12824-.07263-.01946-.11568-.00218-.13021,.05206-.02894,.10801,.58377,.41726,1.8392,.92755,1.53739,.60505,3.38002,1.19533,5.52599,1.77034,.6669,.1787,1.55342,.34901,2.66075,.51024,1.10626,.16145,1.86663,.29695,2.28168,.40816,.14432,.03867,.22562,.02204,.24495-.05013Z"/></g><path class="h" d="M79.46163,146.07823c10.05503-15.86982,29.12901-22.76728,46.9446-25.44574,9.10059-1.13937,18.26745-1.13597,27.41636-.9593,4.56238,.15509,9.04512,.63566,13.5791-.04532,2.64991-.51855,12.25341-1.16095,11.10887-5.09813-.0001-.00016,.11464-.04032,.11464-.04032,.21973,.53656,.245,1.18774-.02234,1.73737-.84492,1.60385-2.76547,2.21033-4.35433,2.76013-2.19816,.67573-4.43693,1.22248-6.7133,1.58198-3.91835,.7879-9.71647,.55769-13.7483,.40001-13.57298-.06236-27.54624-1.15248-40.67321,2.96278-8.62885,2.77376-16.82067,7.03642-23.98067,12.57596-3.54826,2.80887-6.78007,6.03061-9.57182,9.64017,0,0-.09961-.06958-.09961-.06958h0Z"/><path class="h" d="M184.05465,110.88182c4.42651-2.08905,9.60486-2.73407,14.45728-1.91125,2.42249,.39563,4.79224,.95856,7.19214,1.39117,11.70234,2.19868,24.52893,3.70017,35.29784-2.58888,0,.00013,.06349,.09504,.06349,.09504-6.84699,5.50553-16.22026,6.32939-24.66092,5.04742-3.61789-.64869-7.11689-1.70176-10.76109-2.18832-4.78424-.56527-9.6205-1.3316-14.42917-1.01713-2.39466,.17261-4.77027,.63178-7.11976,1.279,0,0-.03979-.10706-.03979-.10706h0Z"/><path class="h" d="M305.7004,114.30973c3.56733-8.45039-8.72728-11.42039-14.86895-11.98116-7.69935-.64227-15.28437,1.22293-22.69623,3.09429-3.71546,.89307-7.36429,2.01233-10.63183,4.01396-1.08936,.65837-2.05909,1.48515-3.12916,2.21159,0,0-.07861-.08282-.07861-.08282,1.82362-1.83459,3.86751-3.54185,6.20858-4.66863,7.06317-3.22564,14.87499-4.71097,22.61606-5.09179,5.18282-.00955,10.36257-.04385,15.45516,1.11639,3.62206,1.04375,8.03154,3.50284,8.35094,7.69404,.06286,1.36497-.40955,2.6768-1.12611,3.74943l-.09985-.0553h0Z"/><path class="h" d="M329.78121,100.60435c-1.73462-.57581-3.59863-.75946-5.32983-.36548-3.24473,.63758-6.36567,4.36241-4.90583,7.60258,2.20528,4.04196,9.43971,6.78263,13.92304,6.8105,7.33045-.47773,14.4859-2.46508,21.7206-3.67514,7.18082-1.42771,15.28802-1.84531,21.85646,2.07345,3.2078,1.89539,6.42773,5.69152,3.42945,9.27386,2.05095-4.11647-.29354-6.35179-3.89611-8.51261-3.10003-1.78921-6.7785-2.34573-10.36639-2.58138-3.60962-.23816-7.21851,.20422-10.84131,.80493-7.27934,1.14413-14.54075,2.30906-21.88866,3.01184-4.94209-.02663-12.38842-2.0935-14.84975-6.79065-1.67144-3.85112,1.90161-8.10131,5.70326-8.60496,1.89233-.30904,3.81518,.06956,5.48779,.84715,0,0-.04272,.1059-.04272,.1059h0Z"/><path class="h" d="M394.44112,119.24498c14.82514-13.45942,42.40908-4.64392,57.64396,4.35972,4.63635,3.08366,9.84086,5.30794,13.94111,9.14537,2.69532,2.61894,4.72965,5.81046,6.37815,9.1961,3.18605,6.89341,2.97694,14.97888,.44305,22.04919-2.60717,7.74993-10.85231,10.55544-18.17254,11.70559-10.99733,1.94786-22.30639,.31734-33.25156-1.26626-3.19146-.54654-6.39427-1.11401-9.50122-2.04049-.43749-.15959-.89208-.26152-1.28393-.58518l.08569-.07538c3.35903,1.397,7.20203,1.54523,10.78022,2.15701,14.29561,1.57374,29.87904,3.68232,43.35362-2.49831,6.74978-3.36473,8.66556-11.50062,8.8061-18.47337,.10556-7.31026-3.23071-14.34807-8.15255-19.64729-2.54447-2.62404-5.75663-4.49092-8.92094-6.40089-15.02906-10.58984-46.49992-20.08671-62.14917-7.62579h0Z"/><path class="h" d="M440.31807,245.7089c-5.1896-.46424-10.2766-.75101-15.3777,.11846-8.29492,2.35411-14.94358,8.43621-20.21106,15.10178-.04372,.0653-.15944,.00258-.12291-.07145,2.72731-6.51863,8.54732-11.62623,15.20606-13.91672,4.9866-1.58274,10.12586-3.57693,15.44357-2.71014,1.75099,.22788,3.47218,.66917,5.09669,1.33988,.0731,.02785,.04603,.14926-.03467,.13818h0Z"/><path class="h" d="M373.57686,270.81169c-3.9203,1.06835-7.70163,1.90085-11.2403,3.81032-3.42859,2.21628-6.52423,4.93601-10.42307,6.37364-2.68413,.83091-5.82545,.97231-8.27222-.07815,2.66227-.19649,5.38225-.40033,7.75247-1.34944,3.52131-1.55742,7.41467-3.13424,10.68933-5.3316,2.11775-1.70944,4.62037-3.13432,7.38277-3.47255,1.35907-.21308,2.73969-.2757,4.10175-.09437,.07446,.00752,.08719,.12469,.00928,.14215h0Z"/><path class="h" d="M265.50704,243.54228c3.76896,5.11986,10.57026,5.84355,16.46341,5.35629,6.12254-.32564,12.19509-1.35381,18.34323-1.25374,10.37269,.3185,21.92028-.37088,27.464,10.26176,4.55679,8.18377,2.14982,16.30756-4.86755,22.08651-2.97724,2.87019-6.81168,4.6701-10.55083,6.30023-13.10541,6.14035-28.45053,7.00491-42.2429,2.67507-3.87279-1.22445-7.9055-2.39834-11.46483-4.67496-3.5179-2.28309-6.41492-5.35564-8.74224-8.82258-5.10839-7.48864-3.72701-16.68671,3.31863-22.33186,.06602-.06016,.16133,.05018,.09352,.10733-4.53316,4.03454-6.97202,10.41164-5.08876,16.27523,1.83173,5.66645,6.2069,10.41208,11.14552,13.60452,6.93493,3.82631,15.11796,5.86191,23.00542,6.80036,10.05819,1.13019,20.29879-.5563,29.59845-4.5184,3.76539-1.50338,7.50097-3.10705,10.52684-5.8652,3.0745-2.57521,5.86574-5.75795,6.77468-9.7499,1.75915-7.85447-3.40914-16.58495-10.96743-19.12416-1.87313-.66031-3.86287-.95456-5.85945-1.18179-6.02142-.49179-12.17283-.77686-18.22534-.4831-4.0441,.28825-8.15028,.74377-12.21607,.81414-4.08126,.15064-8.41738-.0568-12.08593-2.06665-1.82764-.98339-3.41162-2.40905-4.53833-4.1264-.05024-.07031,.06371-.15589,.11597-.0827h0Z"/><path class="h" d="M246.42989,286.10209c-5.90775-5.60029-11.23132-4.83788-18.20454-1.75067-2.36783,1.03771-4.61664,2.25899-7.16336,2.90617-2.66955,.4436-5.48086,.3038-7.84709-1.24625-1.46621-1.00353-2.55598-3.06615-2.17916-4.75107,.48258,1.59343,1.31091,3.13386,2.77328,3.79928,2.82594,1.29169,6.33933,1.15447,9.30054,.10255,1.57497-.56722,3.20668-1.10421,4.85109-1.54433,3.39091-.7971,6.41894-2.23367,9.87605-2.88104,3.59652-.25352,6.93039,2.35021,8.70257,5.27387,.04341,.06634-.05157,.14654-.10938,.09148h0Z"/><path class="h" d="M186.39205,266.14036c-3.75899-3.08141-7.50143-5.9581-11.87198-7.99569-2.97776-1.21567-6.2655-1.2706-9.42575-1.27164-4.81501,.11414-9.43835,.80494-14.13293,2.11665-.07387,.02509-.12868-.09271-.05638-.13088,7.12479-4.39923,16.16156-4.12674,23.77303-1.14765,3.13768,.92351,6.25513,2.26897,8.64584,4.58203,1.22211,1.1056,2.30328,2.36439,3.1756,3.75361,.04328,.06462-.04759,.14772-.10742,.09357h0Z"/><path class="h" d="M399.29806,227.68626c-3.90497-6.25552,1.6286-10.82306,7.55336-11.99886,3.7069-.85347,7.66827-.44573,11.20127,.98612,11.27947,4.5623,7.58257,17.62461-1.16252,22.73425-6.64921,3.66742-14.71229,2.99384-21.81917,1.18366-3.56631-1.06956-6.67769-3.1627-10.21902-4.22683-3.46873-1.06262-7.08738-1.84057-10.67893-1.94433-11.47708-.50971-20.86043,9.32757-16.93734,20.78753,1.66712,5.04174,7.1954,8.07334,12.31913,8.50194,5.65489,.63655,10.03471-3.47431,13.20899-7.77949,1.63777-2.21018,3.09541-4.57032,4.44582-6.97441,.47364-.7973,.86134-1.62463,1.44679-2.38513,.05357-.07516,.16421,.01329,.11377,.08246-1.82228,3.19693-3.26927,6.66548-5.43198,9.68787-2.14694,3.06688-4.67934,6.05239-8.18347,7.64962-6.28234,2.53297-14.21108-.13513-18.02058-5.65664-2.53399-4.1581-2.82718-9.43136-1.33767-14.01183,2.56705-7.37222,10.87818-11.73178,18.41287-11.24948,3.79813,.14107,7.46684,.98818,11.01347,2.1971,3.54244,1.13973,6.60345,3.39583,10.08396,4.59076,6.82673,2.05316,14.93432,2.83051,21.30545-.92066,5.71159-3.53043,10.20705-12.34621,5.23371-18.15268-4.85908-5.13371-13.76181-5.67976-19.84087-2.31686-3.51704,1.90908-4.48732,5.65561-2.58211,9.14751,.04008,.07998-.08085,.14291-.12495,.06837h0Z"/><path class="h" d="M274.27071,252.44584c-6.31091,6.9361-15.83279,10.45686-25.13164,10.44381-9.27637,.44852-19.78961-3.62808-23.09473-13.02085-1.85752-5.61704,.95483-15.70593,8.42665-13.42984,.0859,.02637,.05116,.15032-.03073,.1391-1.50854-.22065-3.07263-.01893-4.26916,.7943-3.50896,2.67009-3.83957,8.09119-2.67918,12.0363,1.91446,5.6022,7.2019,9.68301,12.65177,11.73664,8.7567,3.18308,18.31141-.06532,26.33995-3.87102,2.70552-1.37,5.24971-3.06001,7.69088-4.93348,.06246-.05512,.15737,.04638,.09619,.10504h0Z"/><path class="h" d="M189.52572,256.48295c3.15756,6.08369,8.9373,12.66886,16.07162,13.49125,8.2583,.29126,17.26729-.37383,24.26765-5.14558,4.63151-3.72973,7.84607-10.15072,6.05519-16.11102-2.22229-7.3078-9.74928-10.83901-16.11373-13.99086-6.47691-3.04002-14.32982-4.52616-21.00058-1.42199-5.86144,2.67458-13.42393,9.12192-9.09795,15.99416,4.07037,5.84921,11.89986,8.45409,18.85007,8.76659,1.33394-.0047,2.65654,.04928,3.90268-.44992,0-.00005,1.26574-.53197,1.26574-.53197,7.55858-3.04202,4.53157-8.48706-1.15684-11.31448,3.26922,.95746,7.59076,4.61578,5.91369,8.47739-.87971,1.79883-2.68839,2.7967-4.38097,3.64576-.87564,.40438-1.72941,.87945-2.70009,1.03496-8.21223,.99383-18.01219-1.83219-22.94421-8.8414-4.99507-7.75676,3.09328-15.05894,9.81206-17.97466,8.01124-3.56384,17.11291-.85669,24.27752,3.35577,5.6569,2.95484,11.80582,6.63653,13.89103,13.09208,1.94564,6.01523-.8844,12.55762-5.31854,16.72282-7.159,5.65707-16.85661,6.17811-25.61124,5.76108-5.75862-.71172-10.24382-5.08864-13.44982-9.60967-1.05646-1.53416-1.98627-3.16197-2.66425-4.89427-.03467-.08171,.09539-.13656,.13098-.05603h0Z"/><path class="h" d="M135.65499,242.43675c10.47761,2.38739,21.42491,3.55261,31.92469,1.20732,3.91114-1.13722,8.78564-2.10902,10.95241-5.9038,.96463-1.96625-.21054-4.09378-1.63679-5.50639-4.64281-4.67377-12.19054-3.2945-17.70148-1.07089-2.79793,1.35869-5.94315,3.1024-9.21026,3.52929-2.2099,.40751-4.63817,.63647-6.77717-.34471-7.12421-3.50893-4.13756-11.05334,2.71795-11.79015-3.79563,1.05476-8.17095,5.16023-4.6511,8.93827,1.38214,1.5062,3.2953,2.29694,5.3443,2.1725,2.04059-.11441,4.18581-.55454,6.13121-1.21806,1.98083-.63217,3.77477-1.77811,5.85986-2.65134,2.08862-.86487,4.24768-1.37317,6.44006-1.70312,4.34139-.67235,9.46035,.037,12.41696,3.60636,1.50472,1.6213,2.61458,4.11127,1.51925,6.25187-2.32268,3.87723-7.2334,4.95237-11.1818,6.45106-10.48141,3.23756-22.0441,1.7056-32.18911-1.83163-.08156-.02664-.04299-.16008,.04102-.13659h0Z"/><path class="h" d="M150.1968,214.96531c-7.25139,3.8022-15.68602,4.53795-23.73281,3.75922-6.06113-.58285-12.19185-1.86107-17.65867-4.67735-13.61261-7.80838-20.1299-22.96212-8.70983-35.8747,10.98137-12.73447,29.50619-17.4083,44.36576-8.48909,5.07809,2.69156,12.38212,8.94718,7.7244,15.05907-4.09549,4.83023-10.8516,6.53876-16.93184,6.75381-8.31953,.01722-15.88785-4.83339-21.01232-11.06561-.05464-.06527,.04709-.16323,.10866-.0921,2.70201,2.98222,5.94676,5.44896,9.4785,7.28447,7.06752,3.82699,15.73148,3.46639,22.73682-.23588,15.3891-7.95028-4.87679-19.33618-13.85813-20.61722-11.79602-2.17064-24.36312,2.74565-32.25988,11.7096-9.45705,10.64645-6.17971,22.56458,4.09636,31.1263,6.04247,5.2029,14.22809,7.19064,22.0254,8.06137,3.97476,.42432,8.0104,.65748,11.9783,.23102,3.97559-.41888,7.88806-1.47504,11.58911-3.06201,.07749-.04122,.14268,.09449,.06018,.12909h0Z"/><path class="h" d="M142.33321,197.63761c-11.898-1.14036-8.04786-17.0286-1.11115-22.13377,7.45969-5.79267,17.07758-6.71077,26.07274-8.09559,4.5505-.54457,9.3641-.29792,13.73958,1.50084,4.29367,1.85255,8.73945,4.64905,10.23974,9.3744,1.50773,4.67058-.1574,9.74836-3.13159,13.43378-3.0083,3.71599-7.71741,5.66204-12.28137,5.7813-.09075,.00345-.09426-.13365-.00878-.14215,4.48717-.58691,8.80883-2.75476,11.41357-6.32629,6.20269-8.87786,2.86693-16.78862-6.74936-20.88517-6.19833-2.72021-13.33538-2.20986-19.94022-1.22451-6.63834,.93128-13.51245,2.93772-18.58302,7.48356-4.38047,3.67278-8.39232,12.3722-5.14543,17.68481,1.15765,1.85342,3.30609,2.92935,5.50787,3.40817,.08929,.01253,.06044,.15467-.02258,.14062h0Z"/><path class="h" d="M155.0248,188.46714c8.43671-8.43979,21.09508-10.44924,32.55034-9.38682,8.48119,.47288,16.42776,4.96501,21.22864,12.02769,2.11799,2.90754,2.60675,6.37842,2.05804,9.88286-.39441,3.48683-1.75688,6.89712-5.45141,7.88626-.07458,.04533-.14713-.07316-.07396-.11934,.72533-.4887,1.48315-.75567,2.05248-1.32531,1.78745-1.67275,2.14044-4.20292,2.33776-6.54956,.0454-1.54768,.15214-3.23859-.19721-4.72736-.77109-3.04342-2.88273-5.64112-5.05312-7.88753-3.35093-3.52923-7.49675-6.14918-12.18855-7.58755-9.47787-3.05315-19.69066-.50067-28.65062,3.06242-2.9902,1.27906-5.8204,2.93543-8.5212,4.83368-.06437,.05245-.15567-.05393-.09119-.10944h0Z"/><path class="h" d="M339.41622,222.34739c2.68789,3.49015,5.30015,7.13784,6.84708,11.31774,2.38054,6.19599,2.5601,13.70943-.78228,19.62413-1.23424,1.96859-3.02355,3.52584-4.9857,4.65524-7.98373,4.40649-17.51727,4.28139-25.99144,1.55205-4.31911-1.19086-8.89157-3.51592-10.81122-7.87037-1.39323-3.08951-2.3185-6.74784-1.19178-10.08993,1.99574-5.37793,6.49386-9.77353,12.46115-9.8328,.09134-.00487,.09751,.13164,.01132,.14176-5.64972,.48493-9.83791,4.80843-11.4598,10.03124-.86921,3.05609,.20626,6.30488,1.51225,9.11133,1.88872,3.89413,5.8384,6.02174,9.86216,7.30296,9.01245,3.41723,16.62175,4.07271,24.97308-1.39102,7.93652-4.51321,8.57975-15.16742,5.78224-23.00908-.70531-2.06382-1.64403-4.05112-2.73705-5.95121-1.07739-1.92023-2.39429-3.66235-3.61792-5.52979-.02148-.03259-.01245-.07629,.02026-.09766,.03804-.02472,.08919-.00612,.10767,.0354h0Z"/><path class="h" d="M390.18203,209.06919c.96851,3.04376,3.0686,5.40363,5.1543,7.74652,2.05371,2.33813,4.51416,4.2207,7.21216,5.75983,5.44725,3.07279,12.02102,4.1221,18.22778,3.56576,7.27534-.90662,16.15742-2.96936,19.56752-10.13569,2.0467-4.39483-.00693-9.10934-1.26666-13.51802-.03154-.07909,.10505-.13071,.13321-.04863,1.82728,4.24166,4.23436,9.37016,2.25442,14.03733-1.67578,4.81507-6.53801,7.69739-11.12169,9.04153-6.14898,2.03113-12.78029,1.84605-19.04313,.61519-3.12866-.54807-6.2832-1.24851-9.2351-2.60593-4.48216-1.98447-7.916-5.73222-10.39892-9.88721-.83643-1.38482-1.40601-2.95495-1.62256-4.53741-.0175-.08398,.11566-.11392,.13867-.03326h0Z"/><path class="h" d="M407.21792,194.74589c-5.6923,6.22446,3.68576,8.63621,8.36847,10.13428,5.55023,1.61358,11.27411,2.53595,16.97357,3.69738,2.81214,.57734,5.67119,.82436,8.51978,.41213,8.35506-1.44643,15.95078-7.95718,19.72551-15.41498,2.51451-5.05077,2.57189-11.28646,.4425-16.4107-3.15324-8.33692-24.75879-5.36787-31.86577-3.75189-5.6317,1.25613-11.19353,3.12852-16.08399,6.25783-.06988,.05359-.15625-.06602-.08249-.11626,9.55909-6.84956,21.73656-9.24412,33.33877-9.43135,8.18976,.09677,16.06639,1.0532,17.15273,10.83412,1.44439,7.49294-2.06232,14.9579-7.47759,19.99883-4.22114,4.03407-9.2223,7.50387-15.02635,8.74236-2.90713,.57389-5.92625,.45974-8.83646,.00272-5.74048-.91732-11.51196-1.97487-17.10547-3.74947-3.20709-1.14922-10.51919-3.31485-10.32097-7.48496,.1403-1.57546,1.12712-2.83157,2.1757-3.8193,.06251-.06307,.16121,.03653,.10205,.09924h0Z"/><path class="h" d="M361.90743,197.18864c4.93901,1.8813,10.11991,2.8568,15.37061,2.56993,5.14128-.2774,10.6331-.761,14.82813-4.05446,4.74625-3.67752,6.90435-10.9583,2.87821-15.89282-4.89744-6.07967-13.2013-8.47568-20.81496-7.40664-3.47879,.36664-6.88138,1.20618-10.13431,2.60511-.07461,.03935-.14235-.0878-.06444-.12708,6.18579-3.53009,13.80126-5.04904,20.8293-3.31464,5.1336,1.53104,10.37721,4.83268,12.51043,9.96303,2.11082,5.28737-.87258,11.13479-4.91181,14.53047-7.85048,6.5882-22.44891,6.38408-30.49117,1.12711h0Z"/><path class="h" d="M414.43764,210.0001c20.66767-4.8874,8.78017-21.31693-4.58113-26.4825-10.52616-4.19597-22.50588-2.92594-32.97332,.78819-4.78664,1.60947-8.95465,4.36833-13.59104,6.40585-9.39808,3.92587-19.85916,4.95614-29.88209,3.65804,9.52301-.00503,20.26964-.99746,29.27291-5.05695,2.2737-.97255,4.4529-2.18727,6.72903-3.30702,13.52881-6.80334,30.26094-7.71948,44.24857-1.77597,6.33146,3.08767,14.30179,9.83947,12.92428,17.69543-1.45569,5.32577-7.16975,7.66959-12.12545,8.21575-.08801,.01223-.10654-.12604-.02177-.14084h0Z"/><path class="h" d="M321.90102,193.03208c5.85804-8.80848,15.86712-12.44862,26.1522-12.36017,9.33718-.03013,22.11246,1.36956,27.09865,10.4994,2.62725,4.71206,2.24155,16.94153-4.49253,17.5929,6.21705-1.89569,5.90523-12.30673,3.26895-16.93937-3.2929-5.66312-9.98107-8.02513-16.12661-9.43553-9.57577-2.81746-19.86495-.71424-28.22413,4.50629-2.76442,1.71131-5.282,3.82679-7.56544,6.22571-.05326,.06433-.16294-.02217-.11108-.08923h0Z"/><path class="h" d="M330.61513,210.95652c-1.37763-1.81431-3.59937-2.77466-5.54609-3.87275-4.99068-2.72273-10.91119-4.72877-14.10459-9.78087-1.39519-1.94934-.69783-4.67288-1.33621-6.72423-2.20807-5.0711-8.89303-6.95037-13.98226-5.814-7.52481,1.51434-10.78967,10.23526-7.55546,16.88612,.78396,1.60033,2.58352,1.40847,4.18112,1.25215,3.12231-.2803,7.9671-2.01721,9.64558,1.74456,.46623,1.125,.50187,2.34106,.38176,3.49768-.51595,4.71259-3.40891,8.72483-7.08043,11.56437-5.35794,4.5348-12.63097,6.47846-19.57194,5.60565-4.63548-.54191-9.11009-2.03557-13.2722-4.07036-4.27588-1.91992-7.979-5.77277-8.88086-10.64972-.80165-3.77839,1.66183-7.16882,4.28301-9.66322,2.74216-2.59222,6.97248-2.67197,10.37204-1.98267,4.58238,.94854,8.99565,2.49901,13.03247,4.88326,2.89385,1.76028,6.29698,4.67049,5.82759,8.51235-.47779,3.70091-3.85357,6.37722-7.31835,7.06025-5.00995,1.13021-9.64717-2.08806-9.91147-7.27532-.00947-.08953,.13334-.10296,.14171-.01437,.45117,4.95284,4.90618,7.85299,9.62414,6.62329,3.15722-.72466,6.14544-3.17905,6.49963-6.49728,.24962-3.41506-2.75991-5.75804-5.4714-7.39269-3.88645-2.21249-8.28839-3.68301-12.67702-4.49461-4.62902-.96322-8.64709-.03559-11.25844,4.1611-4.66141,5.52472,.70756,13.12494,6.32095,15.54846,7.95215,4.02464,17.57744,6.21464,26.08519,2.64763,6.67118-2.79506,14.62954-9.91705,12.42551-17.87117-2.54288-5.31094-11.3039,1.92347-14.10132-2.76174-1.47195-2.60816-1.75782-5.74222-1.32181-8.66703,.97993-7.68086,9.33768-11.82951,16.41349-9.70227,4.5675,1.12679,9.26973,4.93354,8.48111,10.08813,.04955,4.59219,4.66375,7.53672,8.28136,9.65677,2.96488,1.72109,6.10809,3.18199,8.9745,5.08861,.93919,.65359,1.90331,1.34567,2.54002,2.33932,.05299,.07623-.07728,.15603-.12134,.07458h0Z"/><path class="h" d="M219.43825,187.77915c2.32275-.85284,5.10815-.74854,7.25745,.68811,2.60102,1.69257,4.73696,5.38654,2.94947,8.37302-2.44922,3.75513-6.80587,5.98353-11.16207,6.64403-7.61299,1.0148-15.24218-2.5054-20.66707-7.69214-6.26913-6.85599,2.302-14.89927,8.33263-18.20737,8.62964-5.24943,19.269-5.82446,28.84662-3.16804,7.19338,1.92761,13.99554,5.14107,20.30271,9.07755,4.27572,2.38481,7.72684,6.15015,12.24037,8.08891,8.82612,3.54986,19.41124,4.90652,28.10582,.39906,8.56464-4.52738,15.63226-14.18814,7.47856-22.73353-5.04587-5.1188-12.20682-8.56713-19.49561-8.23023-4.86552,.1932-9.70292,1.64889-13.97392,4.09183-.08128,.05309-.14828-.07824-.07422-.12158,8.35587-5.42207,19.76485-6.59609,28.42869-1.15268,15.03487,8.42968,12.27887,21.72897-1.66688,29.47155-10.196,5.53185-27.03206,2.86698-35.60268-4.69998-11.45793-8.78075-25.57312-16.43448-40.44448-15.12295-4.88617,.46125-9.58088,2.20765-13.73149,4.79052-5.26929,3.21984-13.45949,10.46149-7.82086,16.67948,5.09175,4.77557,12.46869,8.39339,19.59017,7.44977,4.03272-.52837,10.19459-3.22927,11.20265-7.54261,.24937-2.33351-1.26053-4.64526-3.11269-5.99416-1.9451-1.42003-4.60526-1.65587-6.93607-.95415-.08118,.03091-.13422-.10459-.04712-.1344h0Z"/><path class="h" d="M232.07131,228.75431c-11.14014-6.5848-18.06437-19.79938-12.31168-32.29016,.92111-1.93543,1.78943-3.88844,3.26245-5.50558,4.51778-4.82395,11.95925-5.34123,18.0227-3.99951,2.08719,.4413,4.08109,1.40102,5.76676,2.6747,3.202,2.58879,6.10022,5.78859,10.45335,6.04877,5.53956,.53632,13.42569-1.80288,15.29084-7.57749,1.4547-7.1531-8.97939-14.75424-14.1977-18.35684-8.67301-5.5797-19.29584-7.1646-29.44579-6.27851-5.92757,.54007-12.54463,.8029-17.4461,4.49951-4.7475,3.76044-2.67784,12.70872,2.54627,15.051,1.8841,.73831,4.06208,.24838,5.86091-.71115,.08421-.04306,.14378,.07958,.06934,.1244-6.81065,4.35253-12.37227-2.92344-12.04279-9.53026,.66762-10.78881,19.15713-10.84491,27.18573-11.1359,10.51973-.05786,21.10802,3.63928,28.99066,10.69863,4.26258,3.82783,10.51863,9.46099,9.1246,15.81203-2.15031,6.0678-10.14547,8.30894-15.98523,7.87877-6.58644-.2645-10.02285-7.37338-16.37503-8.23695-8.41494-1.48667-16.70659,.32356-19.9981,9.02066-5.79138,12.81931,1.17043,24.35014,11.22882,31.81387h0Z"/><path class="h" d="M310.37862,158.89555c4.06636-1.35695,9.11843-1.19673,12.50293,1.77198,1.13842,.97002,2.01171,2.17278,2.89477,3.30022,3.91637,5.52319,8.95471,5.54461,15.05452,4.02013,8.42291-1.96855,17.12694-3.37574,25.82929-2.99698,2.89427,.12559,5.78197,.35423,8.6433,.76982-8.64274-.63539-17.30685-.23462-25.80713,1.37937-5.74068,.85714-11.29253,3.34441-17.23216,2.42129-2.97907-.59025-5.42932-2.71957-7.09813-5.13144-1.61016-2.37289-3.49448-4.54822-6.3192-5.39093-2.68962-.94864-5.67277-.82199-8.46818-.14347h0Z"/><path class="f" d="M316.95893,268.53074c-1.11182-.63928-2.36328-.81927-3.58984-.9519l-.06885-.00739-.00366,.06488c-.19238,3.20282-3.5354,5.98737-6.71631,5.39276-1.35571-.22107-3.43188-1.20154-2.94922-2.82837,.28711-.62622,1.37012-.69843,1.79688-.15967,.51416,.59448,.18457,1.44977-.56323,1.66998l-.30762,.11047s.26489,.19427,.26489,.19421c3.26685,2.16455,7.77222-.67096,8.11621-4.34259l.02515-.19312-.19604-.02521c-2.74023-.37097-5.41968,.52478-8.00513,1.30334-2.27588,.68372-5.396,1.8894-7.64771,2.75323,2.25366,1.10175,4.54468,1.97955,6.90771,2.7403,2.36841,.70001,4.78638,1.59253,7.302,1.31152,2.41748-.37061,5.08203-1.33453,6.38574-3.55023,.57715-1.1524,.30713-2.70404-.75098-3.48224Z"/><path class="h" d="M314.09761,266.44419c-.3877-.10126-.98071,.02295-1.03882-.51917-1.73511-5.01025-12.52515-1.62823-16.19116-.35577,0,.00018-5.92261,2.16357-5.92261,2.16357-.50293,.16187-1.1311,.55414-1.64111,.19775-5.05225-2.23999-11.0188-4.86554-16.48291-2.60657-1.37524,.6214-2.75757,1.57715-3.13599,3.10266-.04639,.37561-.49463,.38831-.82251,.39752-1.28735,.05554-2.62036,.20465-3.84082,.61707-2.05054,.45557-3.16382,3.08777-1.80566,4.7605,.64868,.82043,1.42944,1.50562,2.33716,2.02411,6.95557,3.73975,15.11963,.57501,22.12305-1.46649,2.61157,.94397,5.15967,2.29187,7.75952,3.33752,.02075,.00946,.11523,.04694,.11523,.04694,1.09033,.47089,2.39404,.61249,3.00049-.46515,.24976-.64203-.4519-1.46997-1.13599-1.40143-.78467,.04449-1.16943,.8764-.80713,1.56665l.13477,.29779h0c-.70421-.21191-1.39434-.46806-2.06627-.76694l-6.11048-2.71798-.36548-.16229,.37793-.13397c1.79419-.64502,5.03442-1.77966,6.80591-2.38824,.32812-.08539,.7124-.34485,1.08325-.22803,2.54883,1.1333,5.06421,2.14728,7.69238,2.96484,2.60474,.75677,5.31226,1.69379,8.02124,1.09302,2.6062-.55634,5.49097-1.79626,6.32666-4.54474,.22852-2.68896-1.83838-4.50146-4.41064-4.81317Zm-34.94629-1.6123c3.48462,.52747,6.75342,1.87262,9.90503,3.33032l.19238,.08893-.17529,.08771c-2.49609,1.13116-4.91504,2.38062-7.5083,3.19861-3.73901-1.24609-7.43359-2.74786-11.44482-2.94293,.85718-3.42719,6.03955-4.23993,9.03101-3.76263Zm-9.14795,4.45178l.11621-.08051c3.79688-.13043,7.47412,1.11896,10.91455,2.59546-2.97388,1.12817-6.5752,2.40723-9.36816,.16052-.91431-.60956-1.45801-1.62689-1.67798-2.66498,0,.00006,.01538-.0105,.01538-.0105Zm3.28296,8.3277c-3.63721,.04303-8.25-.77936-10.1272-4.26208-1.05542-3.61993,3.54541-4.04602,6.0542-4.146,.13623,.01978,.27832,.09027,.29956,.22992,.25757,1.93506,2.16089,3.13495,3.83911,3.77832,2.78369,1.00488,5.8335-.27966,8.61768-.90088,.1333-.04962,.35962-.02155,.46606,.05084,.66528,.30731,1.90845,.89191,2.56665,1.20587l.36597,.17371,.18286,.08685c.05884,.01807,.13135,.05951,.16138,.15015-3.9248,1.85712-8.04834,3.42902-12.42627,3.6333Zm13.48926-4.32941c-.30786,.15491-.53491-.06805-.87524-.18378l-2.16821-1.1416c-.08105,.03314,6.63867-2.38727,6.63867-2.38727,.23242-.07758,.68286-.21527,.8501-.17352,.76929,.33197,1.71558,.87091,2.63452,1.28308-2.25073,.76324-4.89478,1.70721-7.07983,2.60309Zm8.97681-3.04779c-.39453,.12103-1.01221,.45013-1.39673,.13959,0,.00006-2.38232-1.21094-2.38232-1.21094l-.22583-.11469,.23096-.09344c3.06836-1.21216,7.30322-3.03064,10.38232-4.08295,3.12207-1.03973,8.41309-2.59119,10.18384,1.26996-5.78198,.18756-11.32593,2.34912-16.79224,4.09247Zm15.57178,5.32904c-2.51562,.28101-4.93359-.61151-7.302-1.31152-2.36304-.76074-4.65405-1.63855-6.90771-2.7403,2.25171-.86383,5.37183-2.06952,7.64771-2.75323,2.58545-.77856,5.26489-1.67432,8.00513-1.30334l.19604,.02521-.02515,.19312c-.34399,3.67163-4.84937,6.50714-8.11621,4.34259,0,.00006-.26489-.19421-.26489-.19421l.30762-.11047c.7478-.22021,1.07739-1.0755,.56323-1.66998-.42676-.53876-1.50977-.46655-1.79688,.15967-.48267,1.62683,1.59351,2.6073,2.94922,2.82837,3.18091,.5946,6.52393-2.18994,6.71631-5.39276l.00366-.06488,.06885,.00739c1.22656,.13263,2.47803,.31262,3.58984,.9519,1.05811,.7782,1.32812,2.32983,.75098,3.48224-1.30371,2.2157-3.96826,3.17963-6.38574,3.55023Z"/></g></g></svg>