<svg xmlns="http://www.w3.org/2000/svg" width="754.6" height="667.59" viewBox="0 0 754.6 667.59"><defs><style>.cls-1{fill:#ededed;}.cls-2{fill:#89aecf;}.cls-3{fill:#9ab87a;}.cls-4{fill:#4d4d4d;}</style></defs><g id="Edifici"><path class="cls-1" d="M651.94,546.77l44.21-28.12,25,41.74,8.47-5.4-49.84-61.35s-12,7.32-13.68,8a65.49,65.49,0,0,1-7.79,2.83C657.6,504.5,648.87,543,651.94,546.77Z" transform="translate(-539.5 -139.99)"/><polyline class="cls-1" points="49.39 508.02 79.58 495.85 76.37 490.25 76.72 490.03 103.89 536.3 210.93 469.5 184.15 424.57 193.08 418.36 243.34 479.95 212.43 502.83 88.32 579.99"/><path class="cls-1" d="M1016.94,263.37l-6.28-26.31a100.38,100.38,0,0,1,11.26-2.12c3.45-.22,12.48-1,12.48-1l-.55,25.94Z" transform="translate(-539.5 -139.99)"/><path class="cls-1" d="M1009.49,231.37s.17-4.23-7.64-11.31-11.15-7.86-13.26-8.19-3.35-.45-3.35-.45V197.6l41.69.44-1.22,29.66a30.2,30.2,0,0,0-7.58,1C1015,229.7,1009.49,231.37,1009.49,231.37Z" transform="translate(-539.5 -139.99)"/><path class="cls-1" d="M1029.22,422.67l-17.17-12.47-12.44,14.44-2.79-2.29.14-.16,12.52-13.79s-13.4-6.55-18.65-7.74-15.22-4.9-16.94-4.49-28.18,16.77-28.18,16.77-.3,5-1.59,6.2-9.43,14.07-13,16.79S919.85,446,919.85,446s-2.29,17.39-2.29,17.9S913.49,474,913.49,474l-5,13.12S903.26,497.21,903,499s-.33,7.85-1.23,9.53-5.38,9-5.38,9l6.05,10.43,40.82-10.43,28-6.58-13-23.1s-5.44-10.35-4.76-12.13,1.56-6.35,4.71-9.57l4.86-5.16,2.52,1.88-4.25,4.4L959.29,470s-2.44,2.87-2.27,4.92c.55,6.4,5.77,15.15,5.77,15.15l5,9,6.09,11.09L987,507.33a37.87,37.87,0,0,1-1.18-7.31,48.74,48.74,0,0,1-.21-6.84l3.34-.3V501l2.54,6.34c1.18-.71,19.69-1.89,19.69-1.89l7-24.54a43.38,43.38,0,0,1,3.29-6.9c1.46-2.34,2.57-11.43,4.22-14.92s3.19-20.11,4.09-23.77C1030.71,431.36,1029.22,422.67,1029.22,422.67Zm-64.38,36.11.33-.41s22-26,23.82-27.35c1.16-.86,3.91-4.23,5.86-6.43l2.81,2.31L967.4,460.69Z" transform="translate(-539.5 -139.99)"/><path class="cls-1" d="M1041.88,388.73l-.62-.13s-.23,2.12-3.54,3.68-12.67,1.1-14.42,2.89c-2.34,2.38-6.65,3.84-7.89,5.93-.4.67-1.24,4.69-.41,5.6,3.08,3.37,15.26,13.09,15.26,13.09h21.62l.47-20.29,26.19-.71v-3.32Z" transform="translate(-539.5 -139.99)"/><path class="cls-1" d="M1032.19,390.16c2-.38,5.41-2.73,5.41-2.73l-18.52-4.53-2.83,14.26a29.8,29.8,0,0,1,6.61-4.88C1026.4,390.49,1030.17,390.53,1032.19,390.16Z" transform="translate(-539.5 -139.99)"/><path class="cls-1" d="M1051.17,354.85c4.72-2.3,10.62-5,14.87-5.31a61,61,0,0,0,9.2-1.58s-8-5.8-12.13-7-18.78-2.61-18.78-2.61l-12.14,41.31,8.6,1.58.83-3.35,2.47-10S1046.45,357.15,1051.17,354.85Z" transform="translate(-539.5 -139.99)"/><path class="cls-1" d="M1074.06,382.88h4.48l-1.69-31.59s-8.69-.4-14.82,2.2-11.08,4.19-13.68,10.71c-2.5,6.25-4.12,17.26-4.25,18.16v.06l25.25,6.18,1.89-2.78-8.12-23.36,2.69-1.34Z" transform="translate(-539.5 -139.99)"/><path class="cls-1" d="M1165.76,271.4c-.25-.69-1.13-3.34-1.86-5.58,0,0-8.29,2.28-10.94,4.86s-4.27,8.29-4.27,8.29-1.89,4-3.42,7.33l-3.32-.95c1.82-4.8,3.83-9.62,4.92-12.36a18.76,18.76,0,0,1,5.06-7.05l-47.35,13.65L1099.16,297l-2.6,1.94,5.9-19.31-60.17,17.09-32.8,9.13s6.38,5.75,10.62,9.76c3.92,3.71,14.14,9.29,15.68,10.12l0,0s2.17-2.72,3.69-3.25a24,24,0,0,1,5-1.35c2.16-.3,6.07.23,7.86.3a24.5,24.5,0,0,1,10.74,3c5.23,2.82,6.8,3.54,9.18,5.12,2,1.36,4.88,3.64,7.55,5.35a33,33,0,0,0,3.36,3c2.7,1.66,9.6,4.8,12,4.57,4.14-.39,10.51-.88,13.8-1.81,5.25-1.49,11.87-4.19,13.85-6.39,1.44-1.61,2.87-2.84,4.83-8.42,1.23-3.49,2.6-7.46,3.89-11.25l3.91,1.13c-.27.84-.52,1.59-.73,2.19-1.42,4.06-4.5,10.24-4.5,10.24-2,3.84-9,11.48-9,11.48l0,0,13.65,9.88a52.89,52.89,0,0,0,4.76-5c3.92-4.35,13.34-15.25,15.53-31.49,1-7.35,1.89-12.18,2.59-15.39a54,54,0,0,1,6.81-14.48C1166.31,280.9,1167,274.74,1165.76,271.4Zm-22.31,18.93c-.88,1.61-4,12.48-4,12.48s-1.7,5.69-3.19,10.4l-3.86-1.11c2.34-6.87,4.3-12.48,4.3-12.48s2-5.58,4.35-11.8l3.22.92C1143.89,289.47,1143.61,290,1143.45,290.33Z" transform="translate(-539.5 -139.99)"/><path class="cls-1" d="M1084.61,344.09a39.51,39.51,0,0,0-6.5-6c-2-1.44-12.64-10.3-15.57-11.46s-12.64-2.86-17-3.06a7.51,7.51,0,0,0-6.53,3.59l0,0c.66.33,10.55,5.36,15.11,6.44,4.72,1.12,9.91,1,14.87,4.29a114.32,114.32,0,0,1,11.17,8.93h0l2.65-.83,3-.22A6.88,6.88,0,0,0,1084.61,344.09Z" transform="translate(-539.5 -139.99)"/><path class="cls-1" d="M1021.22,519.45c-3.3-3.48-11.56-4.59-18.35-6.05s-24.58,2.57-27.52,3.49v.2c-.05,2.22-.51,23.12-2.14,27.69-1.73,4.83-8,10.09-10.49,12.55s-2.65,4.49-9.18,9.71S935.12,579,935.12,579l-1.56.61-1.81-2.5a93.14,93.14,0,0,0,16.18-10.36c10.84-8.86,13.59-12.63,17.21-15.53a20.26,20.26,0,0,0,6-8.58c.81-2,1.08-15.16,1.08-15.16l.93-9.92,0-.21L952,522.55,907.38,533l5.7,10.73,23.6-12.86.91,1.43-23.67,12.93,8.37,13.83-5.14,3.49-1.8-1.66s-9.21,5.33-12,9.36-1.11,8.63,0,12.3c.79,2.66,5.73,6.67,8.38,8.68,0,0,3.37-3.76,5.9-6.27s7.8-5,7.8-5,1.35-.54,3.53-1.57l1.53,2.34-.93.36s-7.14,4.07-8.56,5.25-7.58,6.13-7.58,6.13l37.1,24.23s33.77-44.6,35.42-47,16.7-17.62,17.8-18.17,16.52-20.74,16.52-20.74S1024.52,522.94,1021.22,519.45Z" transform="translate(-539.5 -139.99)"/><path class="cls-1" d="M799.38,517.89s24.7.61,31.82-3c2.62-1.33,6.85-6,7.81-8.77,2.31-6.7,1.56-28.32,1.56-28.32h-39.5Z" transform="translate(-539.5 -139.99)"/><polygon class="cls-1" points="339.17 270.13 337.94 212.12 344.55 212.12 357.9 271.22 339.17 270.13"/><path class="cls-1" d="M879,423.67l35.33,14.8a5.72,5.72,0,0,0,3.59.56c1.68-.45,13-11.09,13-11.09L938,416.26a45.11,45.11,0,0,1-14.58,3.82c-8.19.67-44.41-1.24-44.41-1.24Z" transform="translate(-539.5 -139.99)"/><path class="cls-1" d="M901.66,411.89s19.74,1.12,23.11.78,10.31-2.55,10.31-2.55-15-26.83-14.57-27.22S897.4,388,897.4,388Z" transform="translate(-539.5 -139.99)"/><polygon class="cls-1" points="355.21 243.68 378.98 237.13 369 207.97 347.47 212.12 355.21 243.68"/><path class="cls-1" d="M877.44,346.73l16.37-2.24,13.24-1.57s-7.63-21-13.35-29.16-11.77-15.82-13.12-17.61-9.53,5.38-9.53,5.38,5,27,5.49,36.84S877.44,346.73,877.44,346.73Z" transform="translate(-539.5 -139.99)"/><path class="cls-1" d="M915.35,443.31c-.45.09-33.76-13.59-33.76-13.59l-2.58-.45-1.57,27.37L909,466.73Z" transform="translate(-539.5 -139.99)"/><path class="cls-1" d="M901.55,485s6.28-12.22,5.83-12.34-29.94-10.09-29.94-10.09L876.65,475,884.5,479Z" transform="translate(-539.5 -139.99)"/><path class="cls-1" d="M899.64,491.07s-1.23,7.4-2.24,10.09-3.7,8.08-4.6,8.52-14.58-27.36-14.58-27.36Z" transform="translate(-539.5 -139.99)"/><path class="cls-1" d="M940.71,406.12c-.84-1.69-8.2-11-9.77-15.2s-6.4-14.24-6.4-14.24l19.07-4.7s3.86,4.58,6.15,5.31,10,4.22,12.18,7,2.06,7.85.85,9.17-6.52,6.23-9.41,7.4S940.71,406.12,940.71,406.12Z" transform="translate(-539.5 -139.99)"/><path class="cls-1" d="M923.46,371.39l18.46-4-2.3-7.12s-2.41,1-5.55-2.17-8.2-10.49-9.53-17.61-3.25-9.29-3.25-9.29l-11.59,1.2Z" transform="translate(-539.5 -139.99)"/><path class="cls-1" d="M940.11,323.36l-33.79,2.17s-5.12-15.19-16.53-26.46L884,293.33s28-2.67,32.1-2.55,16.16,0,16.16,0Z" transform="translate(-539.5 -139.99)"/><path class="cls-1" d="M927.08,330.23c.6.12,14.47-.94,14.47-.94s2.66,9.89,4.35,11.69,2.77,2.77,2.77,2.77l-8.56,11.1s-5.79-1.69-7.12-5.31S927.08,330.23,927.08,330.23Z" transform="translate(-539.5 -139.99)"/><path class="cls-1" d="M954.22,346.16c-.58.14-6.39,9.77-6.39,10.86s-1.21,8.68.84,11.94,6.88,3.14,9.29,4.35,5.22,2.17,5.69,3.25,2.76-9.77,4.21-11.46,2.89-9.69,2.41-13-8.45-5.83-10.26-5.95S956.15,345.68,954.22,346.16Z" transform="translate(-539.5 -139.99)"/><path class="cls-1" d="M971,345.91a33.2,33.2,0,0,0-5.67-2.65c-2.17-.6-6.27.49-5.18,0s10.37-9.29,11.58-9.89S971,345.91,971,345.91Z" transform="translate(-539.5 -139.99)"/><path class="cls-1" d="M968.7,331.2l-17,10.87s-7.6-35.24-9.77-37.78-3-12.3-3-12.3l20,3.87Z" transform="translate(-539.5 -139.99)"/><polygon class="cls-1" points="457.43 166.47 434.87 180.43 426.53 157.66 457.43 166.47"/><path class="cls-1" d="M980.65,344.13s3.49-1.83,3.37-7-1.21-12.43-2.54-13-6.14,4.51-6.14,4.51.12,11.05,1.45,12S979.32,343.91,980.65,344.13Z" transform="translate(-539.5 -139.99)"/><path class="cls-1" d="M987.52,349.54h-9.17s-4.44,14-4.34,27.1h6.68l-.59,14.83,26.08,9s5.84-20.27,5.84-22.92C1012,375.2,987.52,349.54,987.52,349.54Z" transform="translate(-539.5 -139.99)"/><path class="cls-1" d="M1004.86,299.83l.95-12.43c-11.11-3.07-20.76-5.58-31.94-8.58-1.25-.33-3.2-1.22-4.49-1.42-14.66-2.33-29.29-4.71-49.11-5.16a117.85,117.85,0,0,0-12.56.79c-4.72.71-18.7,2.23-21.17,2.44s-6.88.71-6.88.71l1.45,11.46s28-3.42,37.38-3c11,.47,26.19-1.09,37.83,2.5,3.17,1,6,1.76,9.29,2.84,1.29.43,2.93,1.2,4.22,1.63,10.41,3.44,20.19,6.86,26.76,9,2.78.93,3.3,1.4,4.66,1.8Z" transform="translate(-539.5 -139.99)"/><path class="cls-1" d="M1025.26,538.59l8.59-11.61,32.89.76.57,8.29s-13.51,2.48-21.31,3C1041.6,539.3,1025.26,538.59,1025.26,538.59Z" transform="translate(-539.5 -139.99)"/><path class="cls-1" d="M1012,554.14l6.8-10.28s19.84,1,25,.84c2.56-.08,23-3.41,23-3.41s1.28,13.22,0,19.46-2.15,16.33-2.68,18.52c0,0-12.56-2.18-14.39-3.29s-16.15-9.58-20-11.12S1012,554.14,1012,554.14Z" transform="translate(-539.5 -139.99)"/><path class="cls-1" d="M1043.79,582.41c-5.18,8-5.17,14.67-5,17a.41.41,0,0,1-.63.38l-41.75-27.44,9.91-13.58Z" transform="translate(-539.5 -139.99)"/><path class="cls-1" d="M980.11,593.24l10.27-14.5,48.7,31.34s2.55,6.5,2.91,10.17.23,14-.14,15.67S980.11,593.24,980.11,593.24Z" transform="translate(-539.5 -139.99)"/><path class="cls-1" d="M961,621.14l16.52-21.85,62.13,42.4s-.46,6.79-1.38,8.26a66.07,66.07,0,0,0-2.94,7.34l-25.22-8.69-9.43-4.43Z" transform="translate(-539.5 -139.99)"/><path class="cls-1" d="M1077,670.32l-34.79-9.39s4.87-5.83,5.79-24.55-.92-15.43-2-24.42-1.84-12.67,0-17.25a66.12,66.12,0,0,0,2.93-11.2l15.42,1.83s.55,19.09,2.39,26.07,7.16,13.78,8.26,25,2.38,10.45,2,23.12S1077,670.32,1077,670.32Z" transform="translate(-539.5 -139.99)"/><path class="cls-1" d="M1071.33,590.3l22,1.84v29h-14.5s-6.79-17.26-6.79-20.19S1071.33,590.3,1071.33,590.3Z" transform="translate(-539.5 -139.99)"/><path class="cls-1" d="M1086.56,671.79s21.5-2.07,30.68-7.67A131.85,131.85,0,0,0,1139.05,647s-8.44-3.67-16.52-2.2-18.35,6.06-22.57,9.55-10.28,11.74-11,12.84S1086.56,671.79,1086.56,671.79Z" transform="translate(-539.5 -139.99)"/><path class="cls-1" d="M1106,642.24s-5.14-14-5-20.37-1.47-19.64-1.1-20.92a12.66,12.66,0,0,0,0-3.86s11.93,3.12,20.74,3.86,12.48,2.38,17.43,0,5.14-3.86,5.14-3.86a27.06,27.06,0,0,0,0,5.51c.37,1.47,5.69,9.73,5.88,10.28s4,6.42,4.22,10.09-2,9.91-3.12,11-3.52,5-7.71,6.06-14.93-.89-22.71-1.17C1115.23,638.71,1106,642.24,1106,642.24Z" transform="translate(-539.5 -139.99)"/><path class="cls-1" d="M1095,587.08c-.36,0-23.65-1.18-23.65-1.18s2.93-32.68,2.93-31.57V527s9.73-2.39,14.32-5.51,10.54-6.61,11.33-7.34,4.45,0,4.45,0l-.55,18.87s-1.83,15.45-2.93,19.49-5.14,21.84-5.33,25S1095,587.08,1095,587.08Z" transform="translate(-539.5 -139.99)"/><path class="cls-1" d="M1101.67,590.3s13.21,4.33,21.7,4.8,12.51,2,17.94-4.8,3.77-10.24,3.77-10.24-4.74-4.07-6-8.79-2.46-17.59-1.52-20.83,5-12.44,4.25-15,.47-11.09.23-12.27a16,16,0,0,1-.23-2.6s-13.76-.23-15.14,0-13.78-4.72-13.83-4.95a17.23,17.23,0,0,0-2.18-1.79s.24,14.06-.47,17.13-2.36,23.75-3.54,27.8-5.19,19.29-4.95,21.11S1101.67,590.3,1101.67,590.3Z" transform="translate(-539.5 -139.99)"/><path class="cls-1" d="M1147.44,520.31s1.65,9.09,0,12.69-4,20.44-4,21.69-.71,10.92,0,12.57,2.65,9.44,4.75,9.91,5.87,0,7.28-2.12,11.09-13.4,11.57-14.37,9-15.8,9.67-17.59,5.9-9.81,6.61-12.87,2.83-7.55,2.36-8.26-4-2.36-6.14-2.83-11.56-.42-14.16-.18S1147.44,520.31,1147.44,520.31Z" transform="translate(-539.5 -139.99)"/><path class="cls-1" d="M1156.64,485l7.78-17.08-18.16-7.27-17.46-7.43s-.24,5.58-.94,7.43-3.55,11.93-4.37,13.14-4.13,6.16-4.6,8.52-2.12,7.79-3.54,10-3.54,9.32-4.25,10.26-1.65,4.72-1.65,4.72,8.26,4,9.68,4.48,12,3.78,16.28,4,8.49,0,8.49,0-1.89-9.67-2.59-10.14-4.49-.95-4.37-1.89,2.48-5.19,2.24-6.13-1.41-6.37-.94-7.32c.27-.53,11.06.79,11.06.79a34.93,34.93,0,0,1,.79-4.15c.21-.15-8.78-1.83-6.32-2.4,3-.7,7.92-2.26,7.92-2.26Z" transform="translate(-539.5 -139.99)"/><path class="cls-1" d="M1161.83,460.66,1147,453.23l8.49-16.45s15.1,3.54,16.28,4a3.36,3.36,0,0,1,1.66,1.38s-4.72,7.35-5.67,9S1161.83,460.66,1161.83,460.66Z" transform="translate(-539.5 -139.99)"/><path class="cls-1" d="M1165.85,462.43l10.85-20.26s11.09,9.1,11.56,11.06,6.61,15.4,8.73,18.24,9.2,13.11,9.2,13.11l-5.66,10.48s-17.93-20.35-18.88-21.26S1165.85,462.43,1165.85,462.43Z" transform="translate(-539.5 -139.99)"/><path class="cls-1" d="M1251,473.8v-3.45s-4-.79-6.13-1.14-8.26-1.53-13-5.77-9.44-5.66-12.74-11.32-8-9.28-11.56-9.95-6.61-1.61-6.61-1.61L1190.15,448s8.73,11.52,9.2,12.66,7.32,13.4,8.26,14.82,4.72,6.56,7.31,9.53a26.14,26.14,0,0,0,6.85,5.1s13.92-9,16-9.91S1251,473.8,1251,473.8Z" transform="translate(-539.5 -139.99)"/><path class="cls-1" d="M1245.36,509.22a121.81,121.81,0,0,0,4.48-14.16c1.18-5.66,1.18-16.12,1.18-17.26s-14.62,11.13-14.62,11.13,0,8.37,2.12,11.79A59.52,59.52,0,0,0,1245.36,509.22Z" transform="translate(-539.5 -139.99)"/><path class="cls-1" d="M1243.71,510.52s-2.6,6.25-3.3,8.61-5.43,10.38-5.43,10.38-7.08-6.37-8-8.49-1.18-5.43-2.83-8-5.43-6.13-6.38-9,1.66-5.43,1.66-5.43l10.14-6.25,3.31-2.24s1,4,1.65,6.37C1235.69,500.61,1238.52,507.33,1243.71,510.52Z" transform="translate(-539.5 -139.99)"/><path class="cls-1" d="M1232.15,534.7s-7.32-8-8.5-9.67-7.07-12.74-7.78-13.45-4-4.25-4-4.25-4.49,4.25-5.67,4.72-5.66,2.83-8.26,3.77-3.77,4.25-2.59,5.2,13.21,8.49,13.21,8.49l1.65-2.53s6.61,8.43,9.21,9.37S1229.08,543.43,1232.15,534.7Z" transform="translate(-539.5 -139.99)"/><path class="cls-1" d="M1219.23,552.24l-6.76-6.86s-3.45-3.48-4.63-6.37,0-7.14,0-7.14l-15.1-10.15-2.59,3.54a42.93,42.93,0,0,1-2.83,7.74c-1.65,3.12-9.68,20.21-10.62,21.69s-10.16,14.7-12.28,16.35-9.35,9.44-11,11.09-9,5.69-4.81,17.16c.34.92.74,1.88,1.23,2.89,6.61,13.69,8.38,21.71,8.38,21.71Z" transform="translate(-539.5 -139.99)"/><path class="cls-1" d="M1148.57,599.29" transform="translate(-539.5 -139.99)"/><path class="cls-1" d="M1251,464.39V443.86s-1.88-3.07-4.72-3.3-11.08-4.72-12-5.67-3.74-5.19-3.64-8.49l.1-3.3-23.36.58-1.18,13.1s8.32,2.29,11.36,5.39,12.24,13.25,14.6,15.14,11.32,7.31,13.92,7.08A28.85,28.85,0,0,1,1251,464.39Z" transform="translate(-539.5 -139.99)"/><path class="cls-1" d="M1250.08,440.56l-1.42-9.21a34.86,34.86,0,0,1-8.73-1.18c-3.77-1.18-6.84-6.49-6.84-6.49a12.77,12.77,0,0,0,2.36,7.73C1238.05,434.66,1250.08,440.56,1250.08,440.56Z" transform="translate(-539.5 -139.99)"/><path class="cls-1" d="M1248.43,427.7l-1.18-19.47L1243.84,388l-5,.19s-.35,5.85-2.47,7.77-4,5.45-12.27,6.86-19.35,4.61-23.6,4.67,6.61,11.85,6.61,11.85,12.7-1.42,16.85-.94,8.63-.48,11.46,2.36,3.3,6.38,6.13,7A24.08,24.08,0,0,0,1248.43,427.7Z" transform="translate(-539.5 -139.99)"/><path class="cls-1" d="M1234.27,389.05l-32.56,3.23-6.83,11.47s28.07-3.07,31.61-4.72S1232.86,392.52,1234.27,389.05Z" transform="translate(-539.5 -139.99)"/><path class="cls-1" d="M1242.53,382.88l-41.06,4.35v-3.56l-3.54-.79v5.29l-6.37,13-22.65-12.1,19.82-24.47,25.85-6.37a36.05,36.05,0,0,0,9.41,7.61c5.56,3,8.16,5.06,12.41,5.57s3.06,0,3.06,0Z" transform="translate(-539.5 -139.99)"/><path class="cls-1" d="M1235.15,347.58l-16.69,7.27s3,6.66,5.53,8.31,9.1,3.78,11.46,3.78h3.42Z" transform="translate(-539.5 -139.99)"/><path class="cls-1" d="M1233.09,339.63s-17-44-18.51-46-7-13.32-8.86-14.5a6.38,6.38,0,0,0-6.18,0c-1.37.95-4.17,3.78-4.66,5.67a121.31,121.31,0,0,0-2.14,14.24c0,2.51,2.14,25,2.14,25s1,12.39,0,20.1a44.87,44.87,0,0,1-3.79,13.32,91.06,91.06,0,0,0,24.54-5.34C1224.5,348.85,1233.09,339.63,1233.09,339.63Z" transform="translate(-539.5 -139.99)"/><path class="cls-1" d="M1186,265l-12.62,4.48s.47,7.54,4.48,10.61,8.49,5.44,11.09,3.78,1.18-1.75,1.18-6.84C1190.15,272.56,1186,265,1186,265Z" transform="translate(-539.5 -139.99)"/><path class="cls-1" d="M1190.15,329.29l-22.81-.13-9.52-3.63s2.13-10.93,2.36-12.48,1.89-9.82,2.6-12.65,9.44-17.22,9.44-17.22a9.79,9.79,0,0,0,5.42,4.46c3.78,1.2,6.37,1.91,8.38,1.67a12.22,12.22,0,0,1,2.61-.15,157.45,157.45,0,0,0-.37,19c.5,7.24,2.36,15.61,1.89,17.38A8.89,8.89,0,0,0,1190.15,329.29Z" transform="translate(-539.5 -139.99)"/><polygon class="cls-1" points="609.7 205.02 641.87 223.35 625.75 247.18 592.18 228.78 609.7 205.02"/><polygon class="cls-1" points="620.68 252.29 589.53 233.55 569.95 257.81 592.77 281.92 601.57 274.61 620.68 252.29"/><polygon class="cls-1" points="595.32 287.71 611.48 272.75 626.34 255.47 649 267.6 624.92 290.89 619.74 289.28 617.62 292.13 595.32 287.71"/><path class="cls-1" d="M1171.51,434l22.18-23.83s8.26,7.31,7.31,14.63-.71,12-4,14.39-6.84,4.6-6.84,4.6-7.79-6-9.91-7S1171.51,434,1171.51,434Z" transform="translate(-539.5 -139.99)"/><path class="cls-1" d="M1111.81,478.73c0-.89,7.55-26.57,8-30s.48-20.93-1.65-25.87-6.13-13.17-10.85-16.73-14.16-8.27-18.41-8.39a64.56,64.56,0,0,0-6.58.08V399s2.34.71,2.81,2.12,1.42,16.91,1.42,16.91,0,2.6,1.27,2.64,8.4.4,10.05,6.23-2.12,24.95-2.12,24.95l-1.42,16.74s1,4.2,3.54,5.18S1111.81,478.73,1111.81,478.73Z" transform="translate(-539.5 -139.99)"/><path class="cls-1" d="M1049.38,493.06l.07-1.13h-3.17l2.56-8.82,0-9.31h-20.76s-9.44,13.71-10.85,26.92.7,9.91,5.28,13.92,10.76,6.14,22.56,7.08,21.11,1.68,38.93-4.72c9.91-3.55,16.75-14.39,20.39-19.38s5.06-14.16,5.06-14.16l-11.3-4.26-.7,1.94-8.82-2.51,1.5-2.44-7.76-2.52h-10.69l-19.06.15.23,18.88Z" transform="translate(-539.5 -139.99)"/><polygon class="cls-1" points="487.86 238.27 482.18 236.65 496.57 194.09 500.82 196.73 487.86 238.27"/><path class="cls-1" d="M1017.8,375.79l16-44.59s-14.06-8-18.07-10.77-12.24-12.28-12.24-12.28l-20.73,14.19L987,332.49v11.64l6,1.78Z" transform="translate(-539.5 -139.99)"/><path class="cls-1" d="M1136.8,250.79c-55.25,18.2-88.37,23.75-114.48,32.45-1.4.46-4,2.26-8.69,3.31l-1.6,12.52,127.39-36.66Z" transform="translate(-539.5 -139.99)"/><path class="cls-1" d="M1257.44,380.4c-3.36-17.91-5.83-30.1-9-40.48l-8.26,4.21,9.56,37.2Z" transform="translate(-539.5 -139.99)"/><path class="cls-1" d="M1259.07,384.65c.37,2,.74,4.14,1.12,6.32,2.47,14.2,5.67,43.58,6.4,74.36l-9.28-.35s.44-29.73-1.8-43.77-4.49-36-4.49-36Z" transform="translate(-539.5 -139.99)"/><path class="cls-1" d="M1265.8,477.72a141.28,141.28,0,0,1-12.4,47.61c-2.22,4.72-3.84,8.84-6.51,13l-6-5.13A88.36,88.36,0,0,0,1252,511.11c4.36-13,6.25-33.31,6.25-33.31Z" transform="translate(-539.5 -139.99)"/><path class="cls-1" d="M1157.29,647.65c.57-.62,1.2-1.23,1.77-1.92,15.4-18.77,21.08-25.13,43.13-51.94,7.09-8.62,13.31-16,25.33-30.84,6.91-8.51,12.84-13.86,17-19.86l-5.79-4.08-28.19,32.62-15.68,19.7-43.19,51.47Z" transform="translate(-539.5 -139.99)"/><path class="cls-1" d="M1080.56,685.26a79,79,0,0,0,15.18-.44c18.39-2.33,31.14-10.68,37.44-14.86,4.08-2.72,10.06-5.31,20.2-15.87l-5.59-5.54s-16.16,14.15-25.83,19.58-19.23,9.09-27,9.91a106.61,106.61,0,0,1-12.6.71Z" transform="translate(-539.5 -139.99)"/><path class="cls-1" d="M1036,674.7c20.14,7.35,29.08,8.88,36.47,9.76l.9.1h0l.93-6.89-35.6-9.92Z" transform="translate(-539.5 -139.99)"/><path class="cls-1" d="M949.27,635.45c14.63,7.2,45,24.9,79.4,37.84l3.27-8.16s-26.63-10.36-35.5-14.81c-3-1.49-41.3-22-41.3-22l-5.87,7.16h0" transform="translate(-539.5 -139.99)"/><path class="cls-1" d="M1208,248.94l-39.17,14.35,1.7,3.13,18.72-7.81,6.89,14.77s8.92-2.95,13.36.95S1220.94,295,1220.94,295l16.28,40.23,9.24-2.8h0c-2.4-7.1-4.82-13.87-8.11-21.63A620.62,620.62,0,0,0,1208,248.94Z" transform="translate(-539.5 -139.99)"/><path class="cls-1" d="M1192.86,514.76l9-14.74,8.14,4.6s-4.6,4.13-6.84,5.19S1192.86,514.76,1192.86,514.76Z" transform="translate(-539.5 -139.99)"/><path class="cls-1" d="M1204.66,496.12c.71.71,6.61,4.6,6.61,4.6l5-6.37-8-6.72Z" transform="translate(-539.5 -139.99)"/><polygon class="cls-1" points="240.44 385.03 248.7 385.03 249.41 363.33 241.66 362.8 240.44 385.03"/><path class="cls-1" d="M738.3,517.26V499.61l40.81,2.76v5.87l-6.45-.23,0,1.39-1.68-.18-.42,7.86-3.82.18-.53,6.51s-10.15-2.53-13.57-3A84.17,84.17,0,0,1,738.3,517.26Z" transform="translate(-539.5 -139.99)"/><path class="cls-1" d="M1102.37,397.69a51,51,0,0,0-10.53-5.41c-5-1.67-7.81-1-7.81-1l-2.18-41.7,8.72-1.07,1.44,21.46,16.21,19.72Z" transform="translate(-539.5 -139.99)"/><path class="cls-1" d="M1166.69,468.62s12.12,9.74,14.76,12.9,7.9,9.61,9.35,11.06a57.67,57.67,0,0,0,6.19,4.48l-7.9,19.83s-4-2.08-6.22-2.13-31.18-1-31.18-1l-1.86-6.47-3.56-.65-2.1-2.11-1.05-3.85,4.87-6.6,5.79.94,2.37-4.95,2.11-3.13Z" transform="translate(-539.5 -139.99)"/><path class="cls-1" d="M943.27,647.65l4-7.61,36.48,19.14s-12.27-1.12-16.52-1.89S943.27,647.65,943.27,647.65Z" transform="translate(-539.5 -139.99)"/><rect class="cls-1" x="1100.67" y="343.96" width="18.48" height="4.43" transform="matrix(0.96, -0.27, 0.27, 0.96, -591.8, 174.41)"/><path class="cls-1" d="M905.23,592.56c-5.71-6.85-8.05-10.09-11.64-18a30.16,30.16,0,0,1-2.8-14.58s11.1-5.5,13.23-7.52,2.44-2.16.9-5.27c.11-.56-12.89-24.89-12.89-24.89l-24.46-43.52H847.05s-.34,26.13-3.21,31-7,9-12.16,10.42a83.09,83.09,0,0,1-11.62,1.45l-.72.06c7.77.25,14.85,7.15,18.74,10.69a33.39,33.39,0,0,1,7.78,11.5c1.6,4.52,1.5,17.73,1.5,17.73s3.48,17.07,8.32,24.74c3.78,6,15,12.11,31,13,14.47.81,19.65-3.21,20.53-4a1.37,1.37,0,0,0,.14-.14Z" transform="translate(-539.5 -139.99)"/><path class="cls-1" d="M910.63,597.7l-.29.16a32.52,32.52,0,0,1-9.09,3.29c-1.14.18-2.7.37-4.47.54l-.39,0,.17,1.15,4.32,28.88,4,.57c12.9,1.9,15.31,5.1,24.78,5l16.75-15.61Z" transform="translate(-539.5 -139.99)"/><path class="cls-1" d="M845.58,564.08a55.27,55.27,0,0,1-1.4-9c-.16-3.84.68-5.85-1.5-11.5-3-7.9-14.78-15.81-14.78-15.81a22,22,0,0,0-7.34-3.92c-4.12-1.23-16.68.74-18.11,1.15h0a15.22,15.22,0,0,1,12.41,5c1.12,1.13,7.51,13.11,7.51,13.11s7.29,13.47,8,15.27,1.68,4.15.67,5.83a4.41,4.41,0,0,1-3,1.91l3.19,5.85,12.85-7,1.47-.8.09,0Z" transform="translate(-539.5 -139.99)"/><polygon class="cls-2" points="304.52 424.94 304.52 424.98 305.99 424.14 304.52 424.94"/><path class="cls-1" d="M878.23,269.78l.58-24.92s-10.28-13.55-12.2-13.49-8.23-2.33-12.13,0-14,12.46-17.67,19.42-5.58,8.36-5.58,8.36v12.52s17.23.92,23,.7C860.24,272.14,878.23,269.78,878.23,269.78Z" transform="translate(-539.5 -139.99)"/><path class="cls-1" d="M981.48,140s1.73,35.29,0,49.52-1.8,21.05-1.8,21.05l-18.16-1.4L960,145.21Z" transform="translate(-539.5 -139.99)"/><path class="cls-1" d="M957.71,210.56a37,37,0,0,0-8.54.55c-3.69.84-5.39,1.89-8.65,3.38s-9.34,4.09-9.34,4.09-.14-26.87-1.59-34.26-2-11.44-2-11.44,10.81-1.59,15.07-2,13.54-.36,13.54-.36Z" transform="translate(-539.5 -139.99)"/><path class="cls-1" d="M899.72,183.72s6.18-4.9,8.93-5.49S923,174.7,923,174.7s3.83,15.89,3.53,24.33a177.89,177.89,0,0,0,1.06,20.6l-9,4.32Z" transform="translate(-539.5 -139.99)"/><path class="cls-1" d="M915.25,224.64l-33.19,16.09s-7.95-10.4-10.11-11.38a13.77,13.77,0,0,1-3.82-2.75l20.11-11.41-1.37-1.44-18.74,11.18s-10.7-2-16.29.3-14.52,13.34-14.52,13.34L828,228.46s21.49-17.75,25.7-20.31,43.57-20.4,43.57-20.4Z" transform="translate(-539.5 -139.99)"/><path class="cls-1" d="M1165.11,225.81c-2.68-3.45-12.34-11.19-17.32-10.62s-12.34,13.68-12.34,13.68l.87,11.17s4.49-1.13,6.79-2,20.67-3.83,20.67-3.83l2.67-6.73Z" transform="translate(-539.5 -139.99)"/><polygon class="cls-1" points="613.02 67.22 613.02 67.22 628.77 82.65 632.49 71.06 613.02 67.22"/><path class="cls-1" d="M652.49,505s.58.54-4.5,0-12-6-17.9-6.28-13.36-1.78-21.78.92-68.81,42.77-68.81,42.77l21.78,24-9.62,7.78,36.19,71.49L612.32,636a2,2,0,0,0,.93-2.85c-1.07-1.87-27.79-49.17-27.79-49.17l59.19-36.81s1.74-1.67,3.07-10.35S652.49,505,652.49,505Z" transform="translate(-539.5 -139.99)"/><path class="cls-1" d="M1159.91,662.52l4.32,3.94L1154.49,677a19.89,19.89,0,0,0,7.77,6.67c4.93,2.21,12.57,4,18.65,2.54s7.63-1.45,8.19-6.77-1.18-16.27-2.6-20-6.29-9.82-6.29-9.82l-11.62,12.17-4.36-4.14" transform="translate(-539.5 -139.99)"/><path class="cls-1" d="M800.47,576.94c-.94-1.3-8.84-14.75-10.26-17s-7.9-18.17-7.9-18.17l2.15-.83-1.58-3-.93.38a12,12,0,0,0-1.06-3.31c-.83-1.65-4.13-4.24-5.9-5.66s-18.88-5.54-21-6.25-13.92-3.19-17-3.66-12.86-5.19-14.86-7.19-2.95-10-2.83-11.8,1.41-8.38,6.84-10.62a18.53,18.53,0,0,1,10.38-1.06s39.05,3.89,44.71,3.77,5.43-4.48,5.43-4.48l.24-11.44s-58.54-1.8-64.88-1.39-18.75.12-25,5.55a153.76,153.76,0,0,1-13,9.93L752.47,574l44.64,5.44,3.24,4.2L756,578.47,788.43,619l14-23.21,5-.49c-.87-3.74-1.57-6.45-1.78-7C805.07,587,801.42,578.23,800.47,576.94Z" transform="translate(-539.5 -139.99)"/></g><g id="Fiume"><path class="cls-2" d="M784.07,530.69c-1.41,1.65-1.41,3.18-2.12,2.59s-2.48-3.18-3.42-3.53-6.68-5-10.22-5.54-13.76-3.19-18.6-4-5.36-.78-13.17-3.6-11.1-8.08-11.57-10.68-.12-6.6.35-7.43a8.58,8.58,0,0,1,7.67-4.84c5.55-.35,24.78,1.18,24.78,1.18l17.34,1.77s8.8.59,9.94.48,4.57-.48,4.45-9.91,0-10.39,0-10.39l-2.58-.11-.24,11.44s.24,4.37-5.43,4.48-44.71-3.77-44.71-3.77a18.53,18.53,0,0,0-10.38,1.06c-5.43,2.24-6.73,8.85-6.84,10.62s.82,9.79,2.83,11.8S733.93,519,737,519.48s14.87,2.95,17,3.66,19.23,4.84,21,6.25,5.07,4,5.9,5.66a12,12,0,0,1,1.06,3.31l.93-.38,4.85-2,.5-8.14A13.58,13.58,0,0,0,784.07,530.69Z" transform="translate(-539.5 -139.99)"/><path class="cls-2" d="M991.7,668.13c-4.88-2.07-16.28,3.29-16.28,3.29s-26.5,13-35.41,14.92-8.41-2.07-11.66-5-14.07-23.1-14.07-23.1L905,667.69a39.11,39.11,0,0,0,4.88,7.25c3,3.41,8.74,17.62,8.74,17.62s3.55,8,10.06,9,10.22-1.19,10.22-1.19,55.06-24,55.95-25a2.34,2.34,0,0,0,.3-.48C995.83,673.42,996,670,991.7,668.13Z" transform="translate(-539.5 -139.99)"/><path class="cls-2" d="M1204.19,242.78c-.48.66-.44,2.23-3.21,4.4-3.67,2.88-6.09,3.95-13.5,6.59s-19.51,6.52-19.51,6.52l.89,3L1208,248.94Z" transform="translate(-539.5 -139.99)"/><path class="cls-2" d="M1148.18,207c-2.27.91-14.49,14.82-14.49,14.82l1.76,7.1s7.37-13.11,12.34-13.68,14.64,7.17,17.32,10.62l1.34,1.68,1.82-4.85-15.75-15.42A6.18,6.18,0,0,0,1148.18,207Z" transform="translate(-539.5 -139.99)"/><path class="cls-2" d="M962.79,490s-5.22-8.75-5.77-15.15c-.17-2.05,2.27-4.92,2.27-4.92l2.05-2.72,4.25-4.4L963.07,461l-4.86,5.16c-3.15,3.22-4,7.8-4.71,9.57s4.76,12.13,4.76,12.13l13,23.1,2.57-.76-6.09-11.09Z" transform="translate(-539.5 -139.99)"/><path class="cls-2" d="M997.66,426.9l-2.81-2.31c-2,2.2-4.7,5.57-5.86,6.43-1.86,1.39-23.82,27.35-23.82,27.35l-.33.41,2.56,1.91Z" transform="translate(-539.5 -139.99)"/><path class="cls-2" d="M996.82,422.35l2.79,2.29,12.44-14.44-2.57-1.8L997,422.19Z" transform="translate(-539.5 -139.99)"/><path class="cls-2" d="M1037.6,387.43s-3.39,2.35-5.41,2.73-5.79.33-9.33,2.12a29.8,29.8,0,0,0-6.61,4.88l2.83-14.26-2.14-.72s-2,8.09-2.51,9.06-.72,6-.8,7.25-1.73,3-2.22,4.09,3.59,4.12,3.59,4.12c-.83-.91,0-4.93.41-5.6,1.24-2.09,5.55-3.55,7.89-5.93,1.75-1.79,11.12-1.33,14.42-2.89s3.54-3.68,3.54-3.68Z" transform="translate(-539.5 -139.99)"/><path class="cls-2" d="M1062,353.49c6.13-2.6,14.79-2.2,14.82-2.2l-1.61-3.33a61,61,0,0,1-9.2,1.58c-4.25.29-10.15,3-14.87,5.31s-7.08,13-7.08,13l-2.47,10c-.44,2-.7,3.33-.7,3.33l3.18,1.12c.13-.9,1.75-11.91,4.25-18.16C1051,357.68,1055.89,356.09,1062,353.49Z" transform="translate(-539.5 -139.99)"/><path class="cls-2" d="M1146.87,273c-1.09,2.74-3.1,7.56-4.92,12.36l3.32.95c1.53-3.31,3.42-7.33,3.42-7.33s1.61-5.72,4.27-8.29,10.94-4.86,10.94-4.86l-1.12-3.41-10.85,3.53A18.76,18.76,0,0,0,1146.87,273Z" transform="translate(-539.5 -139.99)"/><path class="cls-2" d="M1132.37,312.1l3.86,1.11c1.49-4.71,3.19-10.4,3.19-10.4s3.15-10.87,4-12.48c.16-.3.44-.86.79-1.59l-3.22-.92c-2.35,6.22-4.35,11.8-4.35,11.8S1134.71,305.23,1132.37,312.1Z" transform="translate(-539.5 -139.99)"/><path class="cls-2" d="M1130.2,328.15s3.08-6.18,4.5-10.24c.21-.6.46-1.35.73-2.19l-3.91-1.13c-1.29,3.79-2.66,7.76-3.89,11.25-2,5.58-3.39,6.81-4.83,8.42-2,2.2-8.6,4.9-13.85,6.39-3.29.93-9.66,1.42-13.8,1.81-2.36.23-9.26-2.91-12-4.57a33,33,0,0,1-3.36-3c-2.67-1.71-5.5-4-7.55-5.35-2.38-1.58-4-2.3-9.18-5.12a24.5,24.5,0,0,0-10.74-3c-1.79-.07-5.7-.6-7.86-.3a24,24,0,0,0-5,1.35c-1.52.53-3.69,3.25-3.69,3.25l0,0v0l3.23,1.49h0l0,0a7.51,7.51,0,0,1,6.53-3.59c4.38.2,14.09,1.91,17,3.06s13.6,10,15.57,11.46a39.51,39.51,0,0,1,6.5,6,6.88,6.88,0,0,1,1.19,1.72l-3,.22-2.65.83h0l1.69,2.68s8.84-.93,12.26-1.5c4.16-.69,21.07-5.11,27.14-8.33l-.13,0,.17-.08,0,0S1128.25,332,1130.2,328.15Z" transform="translate(-539.5 -139.99)"/><path class="cls-2" d="M971.18,542.6a20.26,20.26,0,0,1-6,8.58c-3.62,2.9-6.37,6.67-17.21,15.53a93.14,93.14,0,0,1-16.18,10.36l1.81,2.5,1.56-.61S947,572.27,953.54,567s6.74-7.25,9.18-9.71,8.76-7.72,10.49-12.55c1.63-4.57,2.09-25.68,2.14-27.89l-2.14.42-1,10.13S972,540.63,971.18,542.6Z" transform="translate(-539.5 -139.99)"/><path class="cls-2" d="M929.6,581.12l.93-.36L929,578.42c-2.18,1-3.53,1.57-3.53,1.57s-5.27,2.49-7.8,5-5.9,6.27-5.9,6.27l1.69,1.23s6.17-5,7.58-6.13S929.6,581.12,929.6,581.12Z" transform="translate(-539.5 -139.99)"/><path class="cls-2" d="M820.56,523.82a22,22,0,0,1,7.34,3.92s11.73,7.91,14.78,15.81c2.18,5.65,1.34,7.66,1.5,11.5a55.27,55.27,0,0,0,1.4,9h0l-.09,0,.24-.14c.44,2,1,4.14,1.53,6.37,1.23,4.86,3.45,14.87,9.2,21,4.83,5.13,13.72,8.76,24.07,10.45,3.71.6,9.56.43,16.24-.19v.1c1.77-.17,3.33-.36,4.47-.54a32.52,32.52,0,0,0,9.09-3.29l-3.1-2.58c-.88.8-6.06,4.82-20.53,4-16-.9-27.25-7-31-13-4.84-7.67-8.32-24.74-8.32-24.74s.1-13.21-1.5-17.73a33.39,33.39,0,0,0-7.78-11.5c-3.89-3.54-11-10.44-18.74-10.69l.72-.06a20.15,20.15,0,0,0-2.06-.09c-2.66,0-16.59,1.37-16.59,1.37l.49,2.19.55-.06C803.88,524.56,816.44,522.59,820.56,523.82Z" transform="translate(-539.5 -139.99)"/><path class="cls-2" d="M736.32,305c-8.21-5.37-8.4-6-12.12-7.63a10.26,10.26,0,0,0-3.89-.69c-4.85-.13-7.92,2.46-12.36,5-3.27,1.9-7.61,4.41-12.12,5.27-6.47,1.22-8.21-1.95-18.53-3.89-7-1.33-14.78-2.79-22,.91s-10.17,10.55-11,12.35c-4.16,9.29-.23,14.4-3.2,24.94a37.2,37.2,0,0,1-8.7,15.33c-6.93,7.16-11.46,5-23.33,12.12-6.42,3.83-16.32,9.73-19.9,20.82a25.3,25.3,0,0,0-.46,14.87c1.52,5.13,4.47,8.14,10.52,13.95,16.54,15.86,17.28,15.16,21.74,20.59,4.18,5.09,9.63,11.73,12.12,21.73,1.64,6.58.42,8.31,2.74,17.16,2.14,8.13,3.65,13.55,8.47,16.93,5.31,3.72,11.72,2.91,14.87,2.51,6.49-.82,10-3.45,23.1-12.12,11.23-7.41,16.9-11.13,19.45-12.13,10.61-4.14,20.54-3.84,26.53-3.66,7.5.23,10.49,1.37,24,1.83,7.9.28,10,0,11.9-.45,4.37-1,7.16-2.7,13.72-3.66,3.23-.47,5.57-.51,7.1.91,1.37,1.28.85,2.6,2.28,3.89a6.56,6.56,0,0,0,7.78.23c2.3-1.78,2.16-5.06,2.06-7.55-.19-4.69-1.89-7.8-5.72-15.1-4-7.52-3.44-9.14-6-11.44a18.52,18.52,0,0,0-8.92-4.34c-2.22-.48-3.88-.83-4.57,0a87,87,0,0,0,5,11.66c3.9,7.62,6.06,11.84,4.58,14-1.7,2.41-6.85.36-16.25-.69-9.87-1.09-10.75.45-23.33.23-18.39-.31-17.27-3.62-28.14-2.74-5.77.46-19.53,1.57-30.42,11-5.53,4.77-7.81,9.52-16,13.27-3.48,1.59-8.52,3.89-12.35,1.83s-3.68-7.12-5.72-17.62c-2.58-13.32-4-20.45-8.69-26.54-1.94-2.5-2.09-1.79-19-12.58-14-8.95-18-12-20.36-17.61a20.24,20.24,0,0,1-1.6-12.13c1.83-8.66,10.14-13.51,19.45-18.75,14.51-8.19,18.24-5.36,24.24-11.9,3.11-3.38,5.28-9.42,9.61-21.5,4.46-12.42,4.74-16.56,9.15-19.22,6.16-3.7,14.13-.76,15.56-.23,8.29,3.07,8.51,8.73,18.53,17.39,3.32,2.87,10.1,8.62,19.9,11.66,9,2.8,17.95,2.52,24.93,2.29,10.24-.33,14.31-2,19.22,1.15,2.64,1.68,5.22,4.56,8.46,3.89a9.75,9.75,0,0,0,4.35-2.75c1.54-1.42,3.13-2.87,3-4.58-.17-2-2.52-2.53-2.28-3.88s2.73-1.13,3.89-3.21a4.09,4.09,0,0,0,0-3.89c-.46-.73-5.16-.69-6.18-.45s-13.61-.6-38.66-2.29c-24.58-1.66-28-3.27-30.43-6.41a16.36,16.36,0,0,1-2.05-15.09c2.82-7.59,11.1-10.06,14.18-11,7.66-2.3,15-.55,17.16,0,5.64,1.41,7.19,3.33,11.89,3,1.11-.09,6.09-.47,9.61-4.12,2.23-2.32,1.72-3.72,4.12-8.69,2.19-4.55,3.87-8,7.32-10.3,5.56-3.63,12.49-1.9,13.72-1.6,5.06,1.26,4.82,3.38,11.9,5.95,4,1.44,7.3,2.6,11.21,1.6a16.3,16.3,0,0,0,7.55-4.8c3.75-3.89,3.6-4.95,6.63-8.5,1.46-1.71,4.23-4,4.24-4.38s-1.07-1-1.07-1c-.34,0-2.18,1.2-5.09,5.05-4.83,6.37-5.49,7.83-8,9.61a12.8,12.8,0,0,1-5,2.46c-3.13.65-5.67-.33-11.76-3.16-10.22-4.74-10.26-5.31-12.91-5.72-1.33-.2-7-1.06-12.11,2.12-3.31,2.08-4.93,5-7.16,9.05-3.26,5.88-2.43,7.63-5.53,10.81-.81.83-4.3,4.41-8.34,3.87C741.77,308,738.29,306.24,736.32,305Z" transform="translate(-539.5 -139.99)"/><path class="cls-2" d="M884.24,650.2c-1.18-4.6-8.38-7.08-12.16-7.2s-21.23-1.41-26.89-2.59-17.23-7.67-21.83-20.29-2.83-16.16-5.43-23.84c-3.7-10.95-9.79-17.81-13.45-22.77a87,87,0,0,1-11.32-23.24c-2.83-9.08-3.66-11.26-3.66-11.26l-5,1.94-2.15.83s6.48,15.93,7.9,18.17,9.32,15.69,10.26,17,4.6,10,5.19,11.44c.21.5.91,3.21,1.78,7,1.63,6.94,3.87,17.44,4.71,24,1.3,10,5.31,22.18,11.56,26.43s19.23,10.5,27.61,10.38,16.75.71,16.87,2.24-.12,3.42-1.53,4.13-7.32,5.9-11,10.14-8.5,10.9-10.5,12.83-8,8.52-11.09,10.59-11,1.48-13.33,1.24-10.15.83-14.87,2.36-10.62-.12-17-3.6-6.6-4.42-12.39-4.07-10.14,5.87-10.85,8.24-1.3,9.93-2.95,11.35-3.18,3.54-7.79,4.13-6.37,2.36-7.43,3.65-2.12,3.19-2.48,9.68.59,9.08-1.18,11-2.59,5.66-11.67,7.55S709.28,757.79,702.55,763s-7.67,7.67-12,9.91-22.3,10.39-30.56,16.64a171.44,171.44,0,0,0-16,14.16l2.24,3.89a116.46,116.46,0,0,1,19.47-15.69c10.38-6.37,17.93-9.91,27.13-15.22s14.63-13.92,28.79-19.58,20.76-8.85,24.06-12.27,3.19-6.37,4.25-13.1.83-8.73,4-11.09,6.61-1.89,8.62-3.3,6-3.9,6.37-9.2.82-8.85,3.65-10.74,5.43-1.89,13.1,1.53,11.44,5.9,17.1,5.43,10.15-3.3,12.27-3.3,11.57,1.77,15.7.7,12.38-7.07,20.76-15.33,9.91-12.86,15.1-17.7,10.38-6.13,12.15-8.49S885.42,654.8,884.24,650.2Z" transform="translate(-539.5 -139.99)"/><polygon class="cls-2" points="494.35 191.21 496.57 194.09 482.18 236.65 478.3 235.8 494.35 191.21"/><path class="cls-2" d="M774.94,391.24c-.13-.9-.41-6-.43-7.37-.08-4.72,3.78-8.32,4.23-8.72,2.68-2.43,4.12-1.37,5.94-3.57,2.05-2.48,2.69-6.83.94-9.52s-5.35-2.61-5.49-4.63a3.08,3.08,0,0,1,1.72-2.57c1.54-.84,3.16,0,5.14.51.31.08,7.57,1.88,10.47-1.2,2-2.08,1.88-6.35,0-7.89-.69-.57-1.49-.66-4.12-.52-7.25.41-11.2.73-11.32.17a7.87,7.87,0,0,1-.34-3.08c.31-.91,4-.41,9.6-.18,6.94.3,9.21-1.15,12.7.86.81.47,2.62,1.54,3.09,3.43.31,1.27-.22,1.92-.69,4.12-.88,4.18.34,5.22-.68,6.35-1.7,1.86-5.16-.85-8.24,1.2-2,1.33-6.52.47-6.71,1.3-1,4.24.67,10.95-.67,12.26s1.25-1.25,0,0,.95,4.33-.51,6.17c-1,1.23-3.33,1.78-5.8,3-3.16,1.58-3.33,3.29-3.47,3.67s-.24,5.21-.38,6.19" transform="translate(-539.5 -139.99)"/><path class="cls-2" d="M892.88,639a175,175,0,0,0-27.19-3c-14.64-.61-18.42.84-24.75-3-5.36-3.27-8.06-8-10.42-12.2-6.07-10.73-3.57-13.84-7.88-26.44-2.66-7.78-5.36-11.44-13.82-23.28-3.54-5-6.37-12.73-7.85-17.32-4.18-12.94-7.94-18-10.24-25.55,0,0,1.3,8.58,2.75,12.63s3.24,11.48,4.28,13.45,4.42,11.75,7.44,16.1,11.11,15.71,13.41,19.94,4.53,14.25,5.41,19.08,5.35,15.52,7.24,17.61c4.38,4.83,10.36,9,13.57,9.6,5.19,1,16.06.82,19.68,1.3s27.29,1.19,28.37,1.07" transform="translate(-539.5 -139.99)"/><path class="cls-2" d="M909,263.49c-6.62.18-26.46,4.38-26.46,4.38V247.39s5.65,7.41,10.52,8.18c3.07.49,46.77,1.25,54.81,1.33l-1.4,6.68S918.41,263.23,909,263.49Z" transform="translate(-539.5 -139.99)"/><path class="cls-2" d="M896.52,631.11a127.39,127.39,0,0,0-28.06-1.59c-7.33.35-12.11.91-17.53-1.24a29.13,29.13,0,0,1-12.7-9.71c-3.23-4.43-3.57-7-10.28-28.27-1.66-5.25-2.49-7.9-2.94-9-2.69-6.63-4.92-9.07-12.66-21.48-5.61-9-6.6-11.18-7.16-12.48a58.24,58.24,0,0,1-4.22-15.6,31.46,31.46,0,0,1,3.74,6.61c1,3,4.08,11.23,6.66,14.45a178.35,178.35,0,0,1,10.53,15.54c1.45,2.74,3.5,4.89,6.1,11.06a121.55,121.55,0,0,1,6.46,21.34c1.13,5.64,4.65,17,14.46,23C855,627.51,865,627,867.08,627s16.23-.63,22.26,1.1C891.13,628.58,896.52,631.11,896.52,631.11Z" transform="translate(-539.5 -139.99)"/><path class="cls-2" d="M1020.38,274.47l-1.94-6.6s42-11.43,55.92-15.43c14.52-4.15,57.91-17.18,57.91-17.18l1.71,7.36s-68.89,18.54-91.16,26.62C1037.4,271.2,1020.38,274.47,1020.38,274.47Z" transform="translate(-539.5 -139.99)"/><path class="cls-2" d="M1214.49,214.33s-2.43,8.45-3.72,11.1-5,7.79-4,11c.47,1.42,5.28,2,6.2.08.42-.9,1.62-5.46,3.13-9.94,1.76-5.21,3.82-10.37,3.82-10.37Z" transform="translate(-539.5 -139.99)"/><path class="cls-2" d="M1193,659.07a22.09,22.09,0,0,0-2.56-6.73,45.77,45.77,0,0,0-11.29-12.58l-14.89,17.88.53.49,3.83,3.65,11.62-12.17s4.88,6.13,6.29,9.82,3.17,14.63,2.6,20-2.11,5.36-8.19,6.77-13.72-.33-18.65-2.54a19.89,19.89,0,0,1-7.77-6.67l9.74-10.49-4.32-3.94-1.79,1.77-12.5,12.37a66.28,66.28,0,0,0,12.26,11.48,21,21,0,0,0,6.88,2.81c6.4,1.55,13.81,1.39,17.14,1.29,4.66-.14,10.74-3,12.44-8.76S1195,669.74,1193,659.07Z" transform="translate(-539.5 -139.99)"/></g><g id="giardini"><polygon class="cls-3" points="265.92 242.91 276.81 253.45 276.22 268.21 265.2 268.21 265.92 242.91"/><polygon class="cls-3" points="276.81 250.16 277.62 242.43 268.96 242.43 276.81 250.16"/><polygon class="cls-3" points="293.63 268.9 278.8 255.47 278.8 268.21 278.8 268.66 293.63 268.9"/><polygon class="cls-3" points="279.26 252.27 298 269.44 305.1 269.52 306.58 242.43 283.01 242.43 279.58 244.93 279.26 252.27"/><path class="cls-3" d="M848.11,341.29,826.73,341h0l-1.23,1.73-2,2.88h0l-.94,35.67h23.57Z" transform="translate(-539.5 -139.99)"/><polygon class="cls-3" points="288.42 277.41 265.2 329.21 264.73 329.22 274.09 329 304.34 303.21 304.34 277.41 288.42 277.41"/><polygon class="cls-3" points="310.53 297.83 331.88 278.85 310.82 278.06 310.53 297.83"/><polygon class="cls-3" points="277.56 329.15 302.31 330.35 302.99 307.41 277.56 329.15"/><polygon class="cls-3" points="327.96 330.96 332.57 280.7 310.23 301.28 309.02 330.96 327.96 330.96"/><polygon class="cls-3" points="262.68 268.31 263.1 242.64 250 242.22 245.55 244.82 244.85 262.08 250.21 268.11 262.68 268.31"/><path class="cls-3" d="M784,423.37a12.73,12.73,0,0,0,3.12-3.64,6.81,6.81,0,0,1,1.88-2.44l8.53,0a.22.22,0,0,1,.14.4s-3.49,3.6-5.05,5.07l-.23.18c-1.56,1.33-8,5.41-8,5.44-.29-.05-.59-.1-.6-.27A11.37,11.37,0,0,1,784,423.37Z" transform="translate(-539.5 -139.99)"/><path class="cls-3" d="M785.05,430.55c.26-2.66,4.31-2.08,9.75-6.78,3.44-3,3.62-4.51,5.64-6.32,0,0,24.3-.16,23.92.15l-21.31,47.25a.51.51,0,0,1-1-.14,58.31,58.31,0,0,0-6.91-20.45C790.73,436.26,785,431.62,785.05,430.55Z" transform="translate(-539.5 -139.99)"/><polygon class="cls-3" points="332.57 270.13 313.29 224.21 310.83 269.48 332.57 270.13"/><path class="cls-3" d="M871.65,400.4l-18.56-44.51.31-13.57,16.37.35,2.05,57.69A.09.09,0,0,1,871.65,400.4Z" transform="translate(-539.5 -139.99)"/><polygon class="cls-3" points="315.22 180.22 329.89 198.37 314.7 198.03 315.22 180.29 315.22 180.22"/><polygon class="cls-3" points="309.6 172.03 287.9 144.71 286.63 190.68 288.58 195.6 308.37 196.73 309.6 172.03"/><polygon class="cls-3" points="293.09 146.09 310.4 168.17 310.72 148.04 293.09 146.09"/><polygon class="cls-3" points="314.98 175.62 317.59 177.87 325.07 163.62 316.26 150.09 314.98 175.62"/><polygon class="cls-3" points="329.58 194.48 326.3 166.39 319.13 179.72 329.58 194.48"/><path class="cls-3" d="M973.21,660.74c-5-1.1-9.64-2.07-14.35-3.45-7.94-2.32-15.6-6.89-26.19-9.69l-11.28,6,13.39,16.1s2.81,2.1,8.49,1.62S973.21,660.74,973.21,660.74Z" transform="translate(-539.5 -139.99)"/><path class="cls-3" d="M868.35,299.07l9.2-5.28s-7.29-5-9.2-5.38-8.63,0-8.63,0,5.27,6.27,6.06,7.45A39,39,0,0,0,868.35,299.07Z" transform="translate(-539.5 -139.99)"/><path class="cls-3" d="M1174.36,225.07l-.85,6.34s5.67-.73,8.66-.85,15,1.7,15,1.7Z" transform="translate(-539.5 -139.99)"/><polygon class="cls-3" points="680.63 109.16 685.66 106.61 675.98 101.07 680.63 109.16"/><path class="cls-3" d="M1221,250.92l4.59-2.39a9.06,9.06,0,0,1-.38,3.17,31.4,31.4,0,0,1-1.9,3.88Z" transform="translate(-539.5 -139.99)"/><path class="cls-3" d="M1226.59,248.53a9.88,9.88,0,0,1,0,4,30.93,30.93,0,0,1-2.07,3.94s10.4,20.73,13.57,27.95,3.3,8.5,4.46,9.79,2.46,1.43,6.59,1.88,8.28,3.94,8.28,3.94,2.45,2.39,4.58,2.59,4.79.38,4.79.38V292.74l-5,1.42s-2.13,1.1-4.65-3.23-9.73-18.5-11.77-23.2c-2.26-5.24-11.11-22.62-11.11-22.62Z" transform="translate(-539.5 -139.99)"/><path class="cls-3" d="M1253.6,325.38l-10.86-28.63s5.56-.07,9.31,1.8,5.3,3.88,7.3,4.46a23.27,23.27,0,0,0,6.21,1c1.94,0,1.23.06,1.23.06l.51,4.14s-5,3.49-6.2,5.11S1253.6,325.38,1253.6,325.38Z" transform="translate(-539.5 -139.99)"/><path class="cls-3" d="M1267.3,310.71l1.17,17.45-12.86,3.62-1.17-3.11s4.58-8.87,5.5-10.4A25.64,25.64,0,0,1,1267.3,310.71Z" transform="translate(-539.5 -139.99)"/><path class="cls-3" d="M1258.8,340.63l12.52-3.39,6.11,37.94s.34,2.55,0,3.14a4,4,0,0,1-3.91,2.38c-2.46-.26-4.41,0-5.85-1.87s-3.23-16.8-4.16-20.62S1258.8,340.63,1258.8,340.63Z" transform="translate(-539.5 -139.99)"/><path class="cls-3" d="M1268.19,383.07l11-.67s8.06,41.76,7.72,43.79-.51,3.65-2,4.93-4.67,2.2-6.62,1.44-3.65-8.42-3.65-8.88S1268.19,383.07,1268.19,383.07Z" transform="translate(-539.5 -139.99)"/><path class="cls-3" d="M1288.63,439s-2-2.8-3.14-3.06a25.64,25.64,0,0,1-4.33-2.37s4.08-.71,4.5-1.46a14,14,0,0,1,2.12-2.19Z" transform="translate(-539.5 -139.99)"/><path class="cls-3" d="M1289.48,442.17s-3.82-4.6-5.6-5.54-5.41-2.88-6.31-3l-.91-.08s3.31,6.92,4.84,10.16,3,6.64,3,6.64Z" transform="translate(-539.5 -139.99)"/><path class="cls-3" d="M1290.33,444.19l-5.43,10.5a81.29,81.29,0,0,1,5.43,9.7c1.38,3.45,3.77,10.18,3.77,10.18s-1.79-18.83-2.39-22.87S1290.33,444.19,1290.33,444.19Z" transform="translate(-539.5 -139.99)"/><path class="cls-3" d="M1292.46,474.57l-15.8-2.55s3.52-8.66,4.5-9.71,3.4-3.88,3.4-3.88a78.89,78.89,0,0,1,4.07,6.9C1290.25,468.55,1292.46,474.57,1292.46,474.57Z" transform="translate(-539.5 -139.99)"/><path class="cls-3" d="M1274.57,469.85V455.42a26.84,26.84,0,0,1,4.66.57,16,16,0,0,1,3.5,1.92,54.08,54.08,0,0,0-4.08,4C1277.57,463.26,1274.57,469.85,1274.57,469.85Z" transform="translate(-539.5 -139.99)"/><path class="cls-3" d="M1274.89,453.13s.9-15.62.64-16.83,4.65,8.5,5.1,9.82a87.77,87.77,0,0,1,2.44,8.73l-8.18-1.4" transform="translate(-539.5 -139.99)"/><path class="cls-3" d="M1286.94,483.5l-12.37-2.26a102.84,102.84,0,0,1-3.35,21.2c-3,10.6-6.92,23.32-9.89,28.26s-8,11.45-8,11.45l23.32,15.26s-2-20.54,0-34.08,6-29,7.28-32.06S1286.94,483.5,1286.94,483.5Z" transform="translate(-539.5 -139.99)"/><path class="cls-3" d="M1251,548.05l-18.87,21.24s7.78,7.34,8.73,8.05,7.16,1.13,8.58,1,16.78.71,20.68-1.55,7.58-9,7.58-9Z" transform="translate(-539.5 -139.99)"/><polygon class="cls-3" points="692.65 438.38 689.6 436.08 642.4 493.03 644.8 494.91 692.65 438.38"/><polygon class="cls-3" points="639.61 499.77 637.75 498.33 623.45 516.45 624.73 517.65 639.61 499.77"/><path class="cls-3" d="M1159.91,662.52l-1.42-1.32s-6.14,6.35-10.4,9.86-7.14,7.6-17.91,13a204,204,0,0,1-20.47,9.29c-3,1.12-6.84,2.48-6.84,2.48l2.5,4s12-2.71,15.45-4.05,17-9.49,18-10.34,9.48-5.69,9.48-5.69l-2.72-3.09Z" transform="translate(-539.5 -139.99)"/><path class="cls-3" d="M1098.45,697.06s-4.89.5-8.87.5-11.87-.5-11.87-.5l-6.88,28.11,2.7,2.3,26.38-9.08s.46-8.07,0-11.46S1098.45,697.06,1098.45,697.06Z" transform="translate(-539.5 -139.99)"/><path class="cls-3" d="M1070.24,695.87l-15.13-5.29a24.24,24.24,0,0,1,0,7.38c-.62,4-6.21,25.42-6.21,25.42l13,3Z" transform="translate(-539.5 -139.99)"/><path class="cls-3" d="M1050.2,697.66l1.69-7.78-19.53-6.18-2.2,4.89s12.46,4.09,14.66,5.28A47.46,47.46,0,0,1,1050.2,697.66Z" transform="translate(-539.5 -139.99)"/><path class="cls-3" d="M1026.47,687.09l1.9-5.38-13.56-4.88a21.74,21.74,0,0,0-1.29,3.69,4.22,4.22,0,0,0,2.69,3.18C1017.9,684.2,1026.47,687.09,1026.47,687.09Z" transform="translate(-539.5 -139.99)"/><path class="cls-3" d="M1009.53,682s2.42,1,2.75,0,.82-3.81,0-4.75-13.63-6.29-13.63-6.29l-.33,7.23Z" transform="translate(-539.5 -139.99)"/><path class="cls-3" d="M619,625.3l-22.3-38.68,43-27.59a.94.94,0,0,1,1.21.18l2.53,2.88a.58.58,0,0,0,.75.11l7.07-4.5a.46.46,0,0,0,.14-.64L647,550.27l-56,35.25,24.25,41.92Z" transform="translate(-539.5 -139.99)"/><rect class="cls-3" x="690.38" y="529.27" width="10.6" height="20.51" transform="translate(-719.79 311.63) rotate(-32.06)"/><rect class="cls-3" x="679.67" y="535.55" width="10.6" height="20.51" transform="translate(-724.76 306.91) rotate(-32.06)"/><polygon class="cls-3" points="127.51 405.45 133.87 401.46 144.75 418.84 135.77 424.47 126.94 410.36 127.51 405.45"/><rect class="cls-3" x="658.93" y="553.2" width="10.6" height="15.54" transform="translate(-733.82 283.93) rotate(-31.11)"/><polygon class="cls-3" points="173.23 427.25 168.88 429.97 158.3 413.08 167.28 407.45 175.16 420.03 173.23 427.25"/><rect class="cls-3" x="691.68" y="555" width="10.6" height="19.93" transform="translate(-733.11 316.2) rotate(-32.06)"/><rect class="cls-3" x="680.72" y="561.37" width="10.6" height="19.93" transform="translate(-738.16 311.36) rotate(-32.06)"/><rect class="cls-3" x="703.56" y="574.63" width="10.6" height="22.08" transform="translate(-740.17 310.54) rotate(-31.11)"/><rect class="cls-3" x="716.94" y="595.43" width="10.6" height="23.58" transform="translate(-749.38 320.56) rotate(-31.11)"/><rect class="cls-3" x="705.84" y="601.55" width="10.6" height="23.58" transform="translate(-754.13 315.7) rotate(-31.11)"/><rect class="cls-3" x="693.01" y="581" width="10.6" height="22.08" transform="translate(-744.98 306.01) rotate(-31.11)"/><rect class="cls-3" x="727.29" y="589.18" width="10.6" height="23.58" transform="translate(-744.66 325.01) rotate(-31.11)"/><rect class="cls-3" x="694.88" y="608.75" width="10.6" height="23.58" transform="translate(-759.43 311.07) rotate(-31.11)"/><path class="cls-3" d="M679.68,587.74l5.06-3-10.6-17.56-9.07,5.48,7.61,12.61a6.52,6.52,0,0,1,1.61-.21A6.7,6.7,0,0,1,679.68,587.74Z" transform="translate(-539.5 -139.99)"/><path class="cls-3" d="M679.29,596.18l9,14.85,9.07-5.47L686.73,588,681,591.47c0,.09,0,.17,0,.25A6.65,6.65,0,0,1,679.29,596.18Z" transform="translate(-539.5 -139.99)"/><path class="cls-3" d="M669.87,586.69l-17-28.09-9.07,5.48,19.74,32.71,4.45-2.68a6.55,6.55,0,0,1-.45-2.39A6.69,6.69,0,0,1,669.87,586.69Z" transform="translate(-539.5 -139.99)"/><path class="cls-3" d="M674.29,598.43a6.71,6.71,0,0,1-4.59-1.82l-4.57,2.75,21.19,35.1,9.07-5.48-18.71-31A6.55,6.55,0,0,1,674.29,598.43Z" transform="translate(-539.5 -139.99)"/><rect class="cls-3" x="631.4" y="563.95" width="14.42" height="20.51" transform="translate(-744.35 272.59) rotate(-31.11)"/><rect class="cls-3" x="643.26" y="583.15" width="14.42" height="20.51" transform="translate(-752.56 281.48) rotate(-31.11)"/><rect class="cls-3" x="655.97" y="603.13" width="14.42" height="22.67" transform="translate(-761.61 291.08) rotate(-31.11)"/><rect class="cls-3" x="668.94" y="624.4" width="14.42" height="23.1" transform="translate(-770.85 300.87) rotate(-31.11)"/><rect class="cls-3" x="616.96" y="572.67" width="14.42" height="20.51" transform="translate(-750.93 266.39) rotate(-31.11)"/><rect class="cls-3" x="628.62" y="591.98" width="14.42" height="20.51" transform="translate(-759.23 275.19) rotate(-31.11)"/><rect class="cls-3" x="641.33" y="611.96" width="14.42" height="22.67" transform="translate(-768.28 284.79) rotate(-31.11)"/><rect class="cls-3" x="654.3" y="633.45" width="14.42" height="22.67" transform="translate(-777.52 294.58) rotate(-31.11)"/><rect class="cls-3" x="639.78" y="642.59" width="14.42" height="22.67" transform="translate(-784.33 288.39) rotate(-31.11)"/><rect class="cls-3" x="602.27" y="581.53" width="14.42" height="20.51" transform="translate(-757.62 260.07) rotate(-31.11)"/><path class="cls-3" d="M624.76,620.89l7.85-4.74L622,598.6l-12.34,7.45L618.06,620a5.79,5.79,0,0,1,6.7.93Z" transform="translate(-539.5 -139.99)"/><path class="cls-3" d="M646,638.25l-11.71-19.41-7.86,4.75a5.89,5.89,0,0,1,.21,1.53,5.81,5.81,0,0,1-2.52,4.79l9.53,15.79Z" transform="translate(-539.5 -139.99)"/><path class="cls-3" d="M657.38,554.35l4.15-2.4a6.94,6.94,0,0,0,2.61-8.49l31.12-19.83,23.09,38.63,2.8-1.87-25-41.74-44.21,28.12,4.66,7.41A.6.6,0,0,0,657.38,554.35Z" transform="translate(-539.5 -139.99)"/><polygon class="cls-3" points="184.15 424.57 180.49 426.93 205.57 468.89 106 531.34 81.22 488.35 77.52 490.48 104.42 536.95 211.46 470.14 184.15 424.57"/><polygon class="cls-3" points="180.54 429.92 174.85 429.92 169.94 432.88 181.35 451.79 190.43 446.31 180.54 429.92"/><polygon class="cls-3" points="687.81 104.89 686.63 105.7 673.04 97.03 674.37 93.18 687.81 104.89"/><path class="cls-3" d="M948.67,263.94s1.52-8.13,3.28-8.49a13.5,13.5,0,0,0,3.9-1.77s21.94-26.54,25.63-30.08,8-3.54,11.47-3.54,5,3.89,8.91,8.14,15.08,46.52,15.08,46.52-11.68-.47-13.09-.7-11.73-2.46-19-4.23-20.69-3.93-27.66-4.78-8.55-1.07-8.55-1.07" transform="translate(-539.5 -139.99)"/><path class="cls-3" d="M912.42,256.38c16.11.18,35.5.52,35.5.52l1.37-5.69h4.51l27.68-31.14s-8.25-11.92-43.61,1.53-42.43,19.82-47.38,20.06-4.72,2.83-4.72,2.83,7.49,7.08,13.3,7.55a79.07,79.07,0,0,0,13.35-.47Z" transform="translate(-539.5 -139.99)"/><path class="cls-3" d="M1160.54,244.07a124.69,124.69,0,0,0-13.57,3.32c-2.22.76-4.41,1.49-6.57,2.21l2.26,10.69,16.52-5.37Z" transform="translate(-539.5 -139.99)"/><path class="cls-3" d="M834,281.4c1.18-1.65,7-3.1,16.21-2.43l.16,4.09Z" transform="translate(-539.5 -139.99)"/><path class="cls-3" d="M876.33,288.26l-.59-11.88c-3.4.14-10.26,3.87-14.54,5.85C861.2,282.23,872.08,285.09,876.33,288.26Z" transform="translate(-539.5 -139.99)"/><polygon class="cls-3" points="571.34 245.36 584.93 226.92 583.06 225.19 570.48 234.26 571.34 245.36"/><polygon class="cls-3" points="400.6 506.87 393.51 505.74 407.5 495.98 400.6 506.87"/><path class="cls-3" d="M1201,247.18c2.77-2.17,2.73-3.74,3.21-4.4-.94-3.58-6.6-2.6-14-2.67-5.56-.05-16.82,1.69-22.88,2.67,0,0-1.14,9.72-1,10.55s1.65,7,1.65,7,12.11-3.89,19.51-6.52S1197.31,250.06,1201,247.18Z" transform="translate(-539.5 -139.99)"/><path class="cls-3" d="M928.35,681.31c3.25,3,2.74,7,11.66,5s35.41-14.92,35.41-14.92,11.4-5.36,16.28-3.29c4.33,1.84,4.13,5.29,3.41,6.78.84-1.39,3.12-5.47,1.34-6.23-.82-.35-6.91-4.24-9.85-4.24s-9.89-.07-13.39,1.16S946,677.51,943.7,677.51s-8.83,2.31-15.88-7.09-10.67-14.74-10.67-14.74l-2.87,2.53S925.09,678.35,928.35,681.31Z" transform="translate(-539.5 -139.99)"/><path class="cls-3" d="M802,528.21a3.83,3.83,0,0,1,1.79.41c.6.42,10.17,7.53,13.64,12.38s1.88,7.11,1.88,7.11-3,1.3-5.17-.42-4.79-3.23-8.44-9.92S801.45,528.68,802,528.21Z" transform="translate(-539.5 -139.99)"/><path class="cls-3" d="M821.19,549.64c.67-.55,2.6,2.32,2.6,2.32s-.42,1.74.23,2.27,2.23,1,2.23,2,.15,2.37-.58,2.37-2.22.24-3.08-.87a12.52,12.52,0,0,1-2.17-4.49C820.37,552.3,820.66,550.08,821.19,549.64Z" transform="translate(-539.5 -139.99)"/><path class="cls-3" d="M896.56,602.88l-.17-1.15.39,0v-.1c-6.68.62-12.53.79-16.24.19-10.35-1.69-19.24-5.32-24.07-10.45-5.75-6.1-8-16.11-9.2-21-.57-2.23-1.09-4.37-1.53-6.37l-.24.14L844,565v0l-12.64,6.91a.18.18,0,0,1-.24-.07L828,566.1s-2-3.43-2.11-3.77-5.12-4.68-5.46-5.21a26.63,26.63,0,0,1-2.07-5.31c-.14-1.15-2.75-2.31-3.9-2.65A31.62,31.62,0,0,1,810.2,547a.18.18,0,0,0-.25.23c.59,1.27,2.17,4.57,3.28,6.38,1.4,2.27,9.16,12.68,10.56,15.38s4.55,7.93,4.66,8.11h0c1.9,4.53,5.3,13,5.65,16.85.48,5.31,6.6,20.61,10.79,25.45s16.43,5.63,18.62,6,16.62-.75,22.94.16a32.43,32.43,0,0,1,14.07,6,.18.18,0,0,0,.28-.17Z" transform="translate(-539.5 -139.99)"/></g><g id="edifici_importanti" data-name="edifici importanti"><polygon class="cls-4" points="261.95 239.78 261.95 242.07 269.23 242.28 269.23 240.25 279.07 240.25 279.07 235.06 269.23 235.06 269.23 232.46 261.95 232.46 261.95 234.47 252.63 234.47 252.63 239.66 261.95 239.78"/><rect class="cls-4" x="277.01" y="220.18" width="4.74" height="12.87"/><rect class="cls-4" x="277.49" y="174.89" width="5.79" height="14.26"/><rect class="cls-4" x="257.23" y="174.59" width="14.98" height="7.42"/><polygon class="cls-4" points="284.31 172.66 284.31 149.64 279.51 149.64 279.51 168.46 265.94 168.46 262.62 161.94 258.89 163.81 263.37 172.66 284.31 172.66"/><polygon class="cls-4" points="285.9 255.26 285.9 251.1 293.9 251.1 293.9 259.42 289.9 259.42 289.9 255.41 285.9 255.26"/><polygon class="cls-4" points="288.44 289.53 292.33 289.53 292.33 297.52 284.01 297.52 284.01 293.53 288.31 293.53 288.44 289.53"/><path class="cls-4" d="M1127.45,445.15V433.29h16.2v2.5s3.5.27,3.59,2.9-2.93,3.33-2.93,3.33v3.13Z" transform="translate(-539.5 -139.99)"/><path class="cls-4" d="M1085.26,633.67s0,1-.58,1.21-4.74-1.69-4.74-1.69l-.84-2.42,1.2-3.26s3.67-2.06,4.38-1.93.58,1.24.58,1.24,4.83-2.33,6-2.21,5.68,2.29,5.8,4.35-2.54,5.84-5.68,5.94A16.16,16.16,0,0,1,1085.26,633.67Z" transform="translate(-539.5 -139.99)"/><path id="duomo" class="cls-4" d="M1091.9,428.31l-1.68-1.21v-3l-1.51-.88-1.57.41-.54,1.09-2.89-.62v-4.43h-.79V414l-1.2-3.13h-5.79v-9.4h-7.17V404h-8.08l-5.42,2.93-.24,4,.48,11.87-6.52.52.25,5.18-2.6.15.36,6.8,2.7-.09.17,3.71,4.75-.21.41,6.38,6.93-.62-.4-7.13,11.37-.78.26,3,6.81-.43-.13-2.76,3.63-.27,1.42,1.64,1.63.19,2-2.94h1.51l1.08-1.45-.36-2.23,1.08-1.5Zm-17-7.21-4.69,0-1.06,1.2.16,2.17-8.44.46-.19-2.33-2.16.13L1058,414l16.89.29Z" transform="translate(-539.5 -139.99)"/><rect class="cls-4" x="251.76" y="219.59" width="4.74" height="12.87"/><rect class="cls-4" x="802.44" y="290.82" width="12.62" height="4.6" transform="translate(-557.18 391.9) rotate(-36.04)"/><polygon class="cls-4" points="279.79 192.99 279.79 195 275.41 195 275.41 198.28 279.57 198.28 279.57 200.4 282.81 200.4 282.81 192.99 279.79 192.99"/><polygon id="schloss" class="cls-4" points="242.49 257.73 242.49 251.16 225.69 251.16 225.69 257.75 224.38 257.75 224.38 265.69 222.38 265.69 222.38 275.81 224.38 275.81 224.38 283.99 226.17 283.99 226.17 290.33 242.49 290.33 242.49 283.73 231.87 283.73 231.87 275.81 232.82 275.81 232.82 265.69 231.87 265.69 231.87 257.73 242.49 257.73"/><polygon class="cls-4" points="646.66 199.31 643.57 198.64 644.16 195.61 642.26 195.24 642.42 194.39 638.9 193.7 638.74 194.54 635.57 193.92 635.74 193.04 632.23 192.35 632.05 193.23 628.9 192.61 629.07 191.77 625.55 191.08 625.39 191.92 623.46 191.54 622.93 194.2 621.88 193.97 621.1 197.61 622.22 197.85 621.61 200.97 623.53 201.35 623.35 202.26 626.87 202.95 627.05 202.04 630.2 202.66 630.03 203.53 633.54 204.22 633.72 203.35 636.88 203.97 636.71 204.88 640.22 205.57 640.4 204.66 642.31 205.04 642.85 202.29 645.88 202.94 646.66 199.31"/><path class="cls-4" d="M1123,355.28a1.71,1.71,0,0,0-2.33-.6l-1.76,1.05-1.62-2.81-21.07,13.57,5.3,9.18.53-.31h0l20.54-13.26-1.83-3.17,2.24-1.37A1.68,1.68,0,0,0,1123,355.28Z" transform="translate(-539.5 -139.99)"/><rect class="cls-4" x="1099.98" y="364.12" width="0.41" height="12.15" transform="translate(-566 509.55) rotate(-32.52)"/><rect class="cls-4" x="1102.44" y="362.63" width="0.41" height="12.15" transform="translate(-564.81 510.63) rotate(-32.52)"/><rect class="cls-4" x="1104.57" y="361.27" width="0.41" height="12.15" transform="translate(-563.75 511.57) rotate(-32.52)"/><rect class="cls-4" x="1107.12" y="359.61" width="0.41" height="12.15" transform="translate(-562.46 512.67) rotate(-32.52)"/><rect class="cls-4" x="1109.67" y="357.98" width="0.41" height="12.15" transform="translate(-561.18 513.79) rotate(-32.52)"/><rect class="cls-4" x="1112.01" y="356.52" width="0.41" height="12.15" transform="translate(-560.03 514.82) rotate(-32.52)"/><rect class="cls-4" x="1118.34" y="352.32" width="0.41" height="12.15" transform="translate(-556.78 517.57) rotate(-32.52)"/><rect class="cls-4" x="1116.28" y="353.73" width="0.41" height="12.15" transform="translate(-557.86 516.68) rotate(-32.52)"/><rect class="cls-4" x="1114.25" y="355.06" width="0.41" height="12.15" transform="translate(-558.89 515.8) rotate(-32.52)"/><path class="cls-4" d="M1115.2,368.59" transform="translate(-539.5 -139.99)"/><path class="cls-4" d="M1109.13,358.07" transform="translate(-539.5 -139.99)"/></g></svg>