<?xml version="1.0" encoding="UTF-8"?><svg xmlns="http://www.w3.org/2000/svg" viewBox="0 0 754.59954 667.5865"><defs><style>.g{fill:#ededed;}.h{fill:#89aecf;}.i{fill:#9ab87a;}.j{fill:#4d4d4d;}</style></defs><g id="a"><path class="g" d="M112.43944,406.77657l44.21028-28.12126,25.00242,41.73808,8.46978-5.39792-49.84009-61.34326s-12.03356,7.31452-13.68522,8.02237-7.07856,2.83143-7.78642,2.83143-9.43813,38.49533-6.37075,42.27056Z"/><polyline class="g" points="49.38726 508.0245 79.57553 495.85374 76.37357 490.24694 76.71558 490.03367 103.89221 536.30203 210.93007 469.4968 184.15398 424.56978 193.08211 418.36269 243.33992 479.9462 212.43019 502.83355 88.31937 579.9899"/><path class="g" d="M477.43566,123.37591l-6.27868-26.30842s7.80334-1.8951,11.25911-2.11805,12.48535-1.00329,12.48535-1.00329l-.55738,25.94044-16.9084,3.48932Z"/><path class="g" d="M469.99267,91.3822s.16103-4.23938-7.64231-11.31649c-7.80334-7.07711-11.14764-7.85744-13.26569-8.19187s-3.34429-.44591-3.34429-.44591v-13.82307l41.69216,.44591-1.22624,29.65271s-4.45905,0-7.58039,1.00329-8.63324,2.67543-8.63324,2.67543Z"/><path class="g" d="M489.71471,282.6761l-17.16327-12.47278-12.44373,14.44623-2.79169-2.29333c.08105-.09369,.13855-.16028,.13855-.16028l12.52478-13.78467s-13.39862-6.55505-18.65631-7.74866c-5.25775-1.19354-15.21539-4.89502-16.93591-4.4859-1.72046,.40912-28.17865,16.76929-28.17865,16.76929,0,0-.30103,5.00983-1.59222,6.19708-1.29102,1.18719-9.43195,14.07709-12.99365,16.79071s-11.26978,10.09747-11.26978,10.09747c0,0-2.29852,17.38733-2.29852,17.8916s-4.07043,10.08234-4.07043,10.08234l-4.95831,13.12164s-5.27106,10.09357-5.49536,11.888-.33649,7.85052-1.2337,9.53284c-.89716,1.68225-5.38318,8.97205-5.38318,8.97205l6.05609,10.42999,40.82288-10.42999,27.97803-6.58459-13.01117-23.10272s-5.43689-10.34747-4.75848-12.12372c.67847-1.77631,1.55573-6.34753,4.71185-9.57373l4.85754-5.15277,2.52057,1.8797-4.2478,4.39197-2.05707,2.71851s-2.43976,2.87463-2.2655,4.9231c.54413,6.39691,5.76862,15.15521,5.76862,15.15521l4.9566,9.03894,6.09497,11.08917,13.15106-2.84198s-.78894-2.55811-1.17975-7.3139c-.38153-4.64319-.21417-6.83392-.21417-6.83392l3.34052-.29755v8.1048l2.5365,6.34058c1.17975-.70728,19.69379-1.88702,19.69379-1.88702l6.96881-24.539c.48114-1.29535,1.81805-4.56427,3.28632-6.90558,1.46838-2.34137,2.56964-11.42419,4.22162-14.91992,1.65186-3.49567,3.18945-20.10773,4.08936-23.76318,.97339-3.95392-.51978-12.646-.51978-12.646Zm-64.37836,36.10699l.32886-.40942s21.95862-25.95416,23.82428-27.34613c1.15375-.86084,3.90491-4.22797,5.86249-6.43237l2.80988,2.30829-30.26129,33.79181-2.56421-1.91217Z"/><path class="g" d="M502.37573,248.73711l-.61524-.13419s-.23596,2.12811-3.53918,3.68481c-3.30347,1.5567-12.67627,1.09766-14.42792,2.88525-2.33301,2.38074-6.6496,3.84607-7.888,5.93591-.39502,.66656-1.23444,4.6908-.40295,5.60028,3.07483,3.36328,15.25159,13.08997,15.25159,13.08997h21.62427l.47192-20.29187,26.19067-.70782v-3.32428l-36.66515-6.73806Z"/><path class="g" d="M492.69079,250.16402c2.01978-.37714,5.40454-2.72321,5.40454-2.72321l-18.51434-4.53595-2.83795,14.26074s3.07391-3.08521,6.61322-4.87787c3.53925-1.79266,7.31451-1.74664,9.33453-2.12372Z"/><path class="g" d="M511.67052,214.85268c4.71899-2.29987,10.6178-5.01422,14.86499-5.30872,4.24707-.29449,9.20215-1.57336,9.20215-1.57336,0,0-7.98438-5.80377-12.13257-6.98151-4.14819-1.17767-18.77722-2.61639-18.77722-2.61639l-12.13708,41.31464,8.5979,1.57837,.8269-3.34863,2.47632-10.02734s2.35962-10.73718,7.07861-13.03705Z"/><path class="g" d="M534.55785,242.88484h4.48303l-1.6958-31.58459c-.0304-.00061-8.68872-.39917-14.8208,2.19635-6.1344,2.5965-11.0752,4.19342-13.67798,10.70898-2.49536,6.24683-4.11548,17.25916-4.245,18.15759-.00549,.03864-.0094,.06555-.0094,.06555l25.24683,6.17419,1.8877-2.77631-8.12134-23.36383,2.69446-1.33539,8.2583,21.75745Z"/><path class="g" d="M626.25951,131.40749c-.25085-.68927-1.12695-3.33527-1.86536-5.57935,0,0-8.28223,2.27734-10.93994,4.85449-2.65771,2.57721-4.26855,8.29529-4.26855,8.29529,0,0-1.89185,4.02313-3.41357,7.33258l-3.32251-.95703c1.81726-4.79498,3.82568-9.61743,4.91602-12.36066,1.74365-4.38745,5.06421-7.04529,5.06421-7.04529l-47.34839,13.65479-5.427,17.36548-2.59546,1.9397,5.89893-19.30524-60.16785,17.08795-32.79736,9.12598s6.37073,5.75159,10.61786,9.76276c3.9223,3.70435,14.13422,9.28381,15.67462,10.11633,.00891,.00482,.02576,.01404,.03406,.01849,0,0,2.16772-2.72125,3.68921-3.24493,1.52148-.52374,2.8335-1.04395,4.98926-1.34845,2.15576-.30444,6.07471,.22717,7.86255,.29547,1.09082,.04169,5.49805,.21167,10.73511,3.02509,5.2373,2.81348,6.8009,3.54022,9.18115,5.11407,2.05469,1.35858,4.88306,3.63843,7.55029,5.35571,0,0,2.40601,2.39655,3.36426,2.98645,2.7002,1.66193,9.59399,4.79956,11.95874,4.57422,4.14038-.39453,10.50879-.87988,13.79626-1.81372,5.25476-1.49261,11.87415-4.18646,13.85559-6.39459,1.43701-1.60138,2.86975-2.83936,4.8291-8.41162,1.22778-3.49182,2.59668-7.46729,3.88818-11.25165l3.91199,1.12683c-.27368,.84113-.52405,1.59161-.73328,2.18896-1.42456,4.06525-4.49487,10.24121-4.49487,10.24121-1.95105,3.8371-8.95447,11.4823-8.95447,11.4823l.03723,.02692,13.64795,9.87793s.66724-.44556,4.76465-4.99805c3.91553-4.35059,13.33667-15.25012,15.52734-31.49353,.99048-7.34448,1.88757-12.1731,2.59546-15.38885,.70776-3.21576,4.21411-10.98413,6.80322-14.48065,1.68237-2.27209,2.35205-8.43176,1.13538-11.77539Zm-22.30872,18.92615c-.88586,1.61072-4.03418,12.48315-4.03418,12.48315,0,0-1.69873,5.68896-3.18408,10.40204l-3.86401-1.11298c2.33472-6.86731,4.29529-12.48132,4.29529-12.48132,0,0,1.99976-5.58099,4.3512-11.80157l3.21826,.927c-.34399,.72498-.62109,1.29028-.78247,1.58368Z"/><path class="g" d="M545.10851,204.09963c-1.41943-1.67847-3.82056-4.04291-6.49817-5.99261-1.9729-1.43665-12.64368-10.30444-15.5741-11.45776-2.9303-1.15332-12.64246-2.85791-17.021-3.05957-4.37854-.20172-6.52563,3.58527-6.52563,3.58527,0,0,.01392,.00714,.03711,.01898,.66272,.3382,10.55444,5.36536,15.11426,6.44495,4.71899,1.11725,9.90991,1.00629,14.86499,4.28662,4.91162,3.25171,11.06934,8.83075,11.17676,8.92804,.00085,.00085,.00989,.00897,.00989,.00897l2.64417-.8277,2.9624-.21899c.09863,.1333-.27246-.63049-1.19067-1.71619Z"/><path class="g" d="M481.71728,379.46077c-3.30377-3.4873-11.56311-4.58856-18.35413-6.05688s-24.57892,2.57123-27.51562,3.48895c0,0-.00153,.07843-.00403,.20349-.0448,2.21875-.50787,23.11877-2.14032,27.69312-1.72449,4.83221-8.03723,10.09235-10.48212,12.54852s-2.6524,4.48505-9.18323,9.71399c-6.53088,5.22894-18.42291,11.91339-18.42291,11.91339l-1.55444,.61011-1.81567-2.50043c4.44-2.2627,10.57434-5.7818,16.18054-10.36255,10.83923-8.85657,13.59296-12.62103,17.2171-15.52032,3.62421-2.89935,5.23492-6.604,6.04028-8.5799s1.0769-15.16815,1.0769-15.16815l.92432-9.91937,.01923-.20654-21.22845,5.2431-44.59344,10.48151,5.69861,10.73511,23.59662-12.86267,.9071,1.43634-23.66351,12.92139,8.36859,13.83264-5.13916,3.4873-1.80554-1.65192s-9.20691,5.32269-11.96002,9.3606-1.10126,8.62646,0,12.29724c.79785,2.65967,5.72955,6.66815,8.38605,8.6748,0,0,3.37073-3.75366,5.89984-6.27094,2.52917-2.51733,7.79895-5.00769,7.79895-5.00769,0,0,1.35315-.54138,3.53333-1.57202l1.52863,2.34161-.93457,.36682s-7.13757,4.07019-8.55328,5.24994-7.58179,6.12872-7.58179,6.12872l37.0929,24.22742s33.77155-44.60046,35.4234-46.98651,16.70221-17.61993,17.80347-18.17059c1.10126-.5506,16.51868-20.74011,16.51868-20.74011,0,0,4.22144-7.89227,.91772-11.37952Z"/><path class="g" d="M259.88236,377.89868s24.69108,.60743,31.81969-3.00186c2.61775-1.32539,6.84865-5.99144,7.80483-8.76542,2.31122-6.70507,1.56097-28.32591,1.56097-28.32591h-39.50445l-1.68104,40.0932Z"/><polygon class="g" points="339.17069 270.13073 337.93703 212.12017 344.55392 212.12017 357.89986 271.22361 339.17069 270.13073"/><path class="g" d="M339.50714,283.67235l35.32749,14.8039s1.90656,1.00936,3.58882,.56075,13.00949-11.08953,13.00949-11.08953l7.0655-11.67707s-6.39259,3.14022-14.5796,3.81313-44.4117-1.23366-44.4117-1.23366v4.82248Z"/><path class="g" d="M362.16159,271.89652s19.73853,1.12151,23.10305,.78506,10.31787-2.55085,10.31787-2.55085c0,0-15.0282-26.83399-14.5796-27.22585s-23.10305,5.10353-23.10305,5.10353l4.26173,23.88811Z"/><polygon class="g" points="355.20825 243.68152 378.9842 237.12978 369.00279 207.97059 347.46984 212.12017 355.20825 243.68152"/><path class="g" d="M337.93703,206.73693l16.37401-2.24302,13.23379-1.57011s-7.62625-20.97219-13.34594-29.1592c-5.71969-8.187-11.77583-15.81326-13.12164-17.60767s-9.53281,5.38324-9.53281,5.38324c0,0,5.04678,27.01036,5.49539,36.83254s.89721,8.36422,.89721,8.36422Z"/><path class="g" d="M375.84398,303.31736c-.4486,.09352-33.75738-13.58888-33.75738-13.58888l-2.57947-.4486-1.57011,27.36478,31.6039,10.09357,6.30305-23.42087Z"/><path class="g" d="M362.04944,345.01881s6.28044-12.22443,5.83184-12.33658-29.94425-10.09357-29.94425-10.09357l-.78506,12.44873,7.85055,3.92528,17.04691,6.05614Z"/><path class="g" d="M360.14288,351.07495s-1.23366,7.40195-2.24302,10.09357-3.70097,8.07485-4.59818,8.52346-14.5796-27.36478-14.5796-27.36478l21.42079,8.74776Z"/><path class="g" d="M401.20793,266.12988c-.84457-1.68913-8.20435-10.97935-9.77283-15.20218s-6.39457-14.23696-6.39457-14.23696l19.06305-4.70544s3.86087,4.58478,6.15326,5.3087,10.01413,4.22283,12.18587,6.99783,2.05109,7.84239,.84457,9.16957-6.51522,6.22613-9.41087,7.39622-12.66848,5.27227-12.66848,5.27227Z"/><path class="g" d="M383.95466,231.39573l18.45979-3.99521-2.29239-7.11848s-2.41304,.96522-5.55-2.17174-8.20435-10.49674-9.53152-17.61522-3.25761-9.29022-3.25761-9.29022l-11.58261,1.20652,13.75435,38.98435Z"/><path class="g" d="M400.60467,183.36246l-33.78262,2.17174s-5.12535-15.18739-16.52935-26.46134c-4.87255-4.81698-5.79428-5.73745-5.79428-5.73745,0,0,27.99429-2.6697,32.09647-2.54905s16.1674-.00485,16.1674-.00485l7.84239,32.58094Z"/><path class="g" d="M387.57423,190.23963c.60326,.12065,14.47827-.94384,14.47827-.94384,0,0,2.65435,9.89501,4.34348,11.69334s2.775,2.76355,2.775,2.76355l-8.56631,11.1s-5.79131-1.68913-7.11848-5.3087c-1.32717-3.61957-5.91196-19.30435-5.91196-19.30435Z"/><path class="g" d="M414.72098,206.16573c-.58525,.14631-6.39457,9.77283-6.39457,10.8587s-1.20652,8.68696,.84457,11.94457,6.87718,3.13696,9.29022,4.34348,5.21751,2.17174,5.68539,3.25761,2.76027-9.77283,4.20809-11.46196,2.89565-9.68787,2.41304-12.98796-8.44565-5.83379-10.25544-5.95444-3.86087-.48261-5.79131,0Z"/><path class="g" d="M431.49163,205.92182s-3.49891-2.04849-5.67065-2.65175-6.27391,.48261-5.18805,0,10.37609-9.29022,11.58261-9.89348-.72391,12.54523-.72391,12.54523Z"/><path class="g" d="M429.19924,191.20485l-17.01196,10.86939s-7.60109-35.24114-9.77283-37.77483-3.01631-12.30653-3.01631-12.30653l20.01999,3.87607,9.78111,35.3359Z"/><polygon class="g" points="457.43186 166.47115 434.8699 180.43321 426.53277 157.66354 457.43186 166.47115"/><path class="g" d="M441.14381,204.1353s3.49891-1.83044,3.37826-7.01849-1.21865-12.42718-2.53976-13.03044-6.1472,4.50747-6.1472,4.50747c0,0,.12065,11.05667,1.44783,12.02188s2.5337,3.29893,3.86087,3.51957Z"/><path class="g" d="M448.02099,209.54399h-9.16957s-4.44291,13.98837-4.34348,27.10224h6.68473l-.59138,14.83507,26.07785,8.97986s5.83425-20.27155,5.83425-22.92587c0-2.32499-24.4924-27.99131-24.4924-27.99131Z"/><path class="g" d="M465.36045,159.84177l.95218-12.43856c-11.11836-3.06375-20.7646-5.57252-31.94828-8.57385-1.24888-.33516-3.19238-1.21956-4.4908-1.42558-14.65255-2.32497-29.28114-4.70633-49.1038-5.15179,0,0-7.83909,.07712-12.55817,.78496-4.71899,.70789-18.69921,2.22883-21.17672,2.44166-2.47743,.21284-6.87696,.70883-6.87696,.70883l1.4478,11.46197s28.01214-3.41913,37.37848-3.01634c10.95841,.47126,26.19246-1.09053,37.83356,2.50201,3.16658,.97723,6.00774,1.76689,9.2935,2.84527,1.28865,.42294,2.92928,1.19904,4.21933,1.62578,10.41128,3.44397,20.19218,6.86537,26.75772,9.05358,2.7835,.9277,3.30192,1.39513,4.65623,1.79892l3.61594-2.61688Z"/><path class="g" d="M485.75517,398.60109l8.59315-11.61514,32.88711,.7623,.57102,8.28687s-13.51098,2.4775-21.31115,2.98272c-4.39694,.2848-20.74013-.41674-20.74013-.41674Z"/><path class="g" d="M472.52868,414.15001l6.80255-10.2783s19.83191,.98564,24.96158,.83463c2.55532-.07522,22.94262-3.40421,22.94262-3.40421,0,0,1.28479,13.21495,0,19.45535s-2.14516,16.33329-2.67605,18.52366c0,0-12.55785-2.18851-14.39326-3.28975-1.83541-1.10125-16.15161-9.58116-20.00597-11.12275s-17.63147-10.71863-17.63147-10.71863Z"/><path class="g" d="M504.29281,442.41533c-5.18723,8.03476-5.17751,14.66905-4.9736,16.96508,.03043,.34259-.34586,.56277-.63329,.37389l-41.74669-27.43373,9.91121-13.58203,37.44236,23.67679Z"/><path class="g" d="M440.60404,453.24421l10.27834-14.49968,48.69067,31.34384s2.55084,6.49937,2.91796,10.17022c.36702,3.67085,.22641,14.02092-.14061,15.67274-.36711,1.65192-61.74635-42.68713-61.74635-42.68713Z"/><path class="g" d="M421.51582,481.14248l16.51869-21.84517,62.13306,42.40176s-.46328,6.79102-1.38099,8.25934c-.9177,1.46833-2.93666,7.34164-2.93666,7.34164l-25.22091-8.68846-9.43408-4.43866-39.67912-23.03046Z"/><path class="g" d="M537.51373,530.33146l-34.78102-9.38919s4.86384-5.83257,5.78154-24.55982c.9177-18.72725-.9177-15.42351-2.01895-24.41702-1.10125-8.99351-1.83541-12.66433,0-17.25285s2.93666-11.196,2.93666-11.196l15.41744,1.83541s.55062,19.08826,2.38603,26.06282c1.83541,6.97456,7.1581,13.77771,8.25934,24.96764,1.10125,11.18993,2.38603,10.45577,2.01895,23.1201-.36708,12.66433,0,10.82892,0,10.82892Z"/><path class="g" d="M531.82396,450.30759l22.02492,1.83541v28.99948h-14.49974s-6.79102-17.25285-6.79102-20.18951-.73416-10.64538-.73416-10.64538Z"/><path class="g" d="M547.05786,531.79979s21.50499-2.07325,30.67924-7.67217c12.13189-7.40392,21.81349-17.10587,21.81349-17.10587,0,0-8.44289-3.67082-16.51869-2.20249-8.0758,1.46833-18.3541,6.05685-22.57554,9.54413s-10.2783,11.74662-11.01246,12.84787-2.38603,4.58852-2.38603,4.58852Z"/><path class="g" d="M566.5132,502.24969s-5.13915-13.94912-4.95561-20.37305c.18354-6.42393-1.46833-19.63889-1.10125-20.92367,.36708-1.28479,0-3.85436,0-3.85436,0,0,11.93016,3.1202,20.74013,3.85436,8.80997,.73416,12.48079,2.38603,17.43639,0,4.95561-2.38603,5.13915-3.85436,5.13915-3.85436,0,0-.36708,4.0379,0,5.50623s5.68977,9.72767,5.87331,10.2783,4.0379,6.42393,4.22144,10.09475c.18354,3.67082-2.01895,9.91121-3.1202,11.01246s-3.51547,5.00838-7.70872,6.05685c-4.26284,1.06588-14.93045-.89154-22.70529-1.16645-4.60031-.16266-13.81936,3.36895-13.81936,3.36895Z"/><path class="g" d="M555.48152,447.08548c-.36708,0-23.65756-1.18288-23.65756-1.18288,0,0,2.93666-32.6703,2.93666-31.56905s0-23.67679,0-23.67679v-3.67082s9.72767-2.38603,14.3162-5.50623,10.53855-6.60748,11.32613-7.34164,4.4584,0,4.4584,0l-.55062,18.86476s-1.83541,15.45741-2.93666,19.49531c-1.10125,4.0379-5.13915,21.84138-5.32269,24.96158-.18354,3.1202-.56985,9.62576-.56985,9.62576Z"/><path class="g" d="M562.16425,450.30759s13.21332,4.33213,21.7076,4.80404,12.50546,1.95358,17.93236-4.80404,3.77523-10.23846,3.77523-10.23846c0,0-4.74321-4.06963-6.02886-8.78867-1.28565-4.71904-2.46541-17.59654-1.52161-20.83183,.94381-3.23529,4.95499-12.43742,4.24714-15.0329s.4719-11.08975,.23595-12.26951c-.23595-1.17976-.23595-2.59547-.23595-2.59547,0,0-13.75507-.23595-15.13586,0s-13.78582-4.71904-13.83604-4.95499-2.17379-1.78398-2.17379-1.78398c0,0,.23595,14.05349-.4719,17.12087-.70786,3.06738-2.35952,23.75825-3.53928,27.80589s-5.19095,19.29061-4.95499,21.10721c.23595,1.8166,0,10.46184,0,10.46184Z"/><path class="g" d="M607.93897,380.3148s1.65166,9.09536,0,12.68803c-1.65166,3.59267-4.01119,20.44774-4.01119,21.69424s-.70786,10.92054,0,12.57221c.70786,1.65166,2.64791,9.43809,4.74526,9.90999s5.87259,0,7.2883-2.12357c1.41571-2.12357,11.08975-13.40323,11.56165-14.37006s8.96618-15.80312,9.67404-17.58711c.70786-1.78399,5.8988-9.80636,6.60666-12.87374,.70786-3.06738,2.83143-7.55047,2.35952-8.25832s-4.01119-2.35952-6.13476-2.83143c-2.12357-.4719-11.56165-.41571-14.15713-.17976s-17.93236,1.35952-17.93236,1.35952Z"/><path class="g" d="M617.1411,345.01881l7.78096-17.08538-18.16286-7.26939-17.46046-7.42839s-.23595,5.5859-.94381,7.42839c-.70786,1.84249-3.54875,11.93144-4.36985,13.1397s-4.12443,6.16462-4.59633,8.52346-2.12357,7.78574-3.53928,10.02728c-1.41571,2.24155-3.53928,9.32011-4.24714,10.26392-.70786,.94381-1.65166,4.71842-1.65166,4.71842,0,0,8.25832,4.01181,9.67404,4.48372s12.03356,3.77523,16.2807,4.01119,8.49428,0,8.49428,0c0,0-1.88762-9.67404-2.59547-10.14594s-4.48855-.94381-4.36784-1.88762,2.48023-5.19095,2.24427-6.13476c-.23595-.94381-1.41571-6.37071-.94381-7.31452,.26797-.53594,11.06391,.79245,11.06391,.79245,0,0,.58645-4.01144,.79038-4.15525,.21083-.14867-8.78467-1.83351-6.32307-2.39997,3.04821-.70145,7.91804-2.25892,7.91804-2.25892l4.95499,2.69162Z"/><path class="g" d="M622.33205,320.66404l-14.86498-7.42839,8.49428-16.4479s15.10094,3.53928,16.2807,4.01119,1.65166,1.37833,1.65166,1.37833c0,0-4.71904,7.3519-5.66285,9.00356-.94381,1.65166-5.8988,9.48321-5.8988,9.48321Z"/><path class="g" d="M626.34323,322.4341l10.8538-20.25684s11.08975,9.10202,11.56165,11.05838,6.60666,15.40564,8.73023,18.23706c2.12357,2.83143,9.20213,13.1134,9.20213,13.1134l-5.66285,10.48181s-17.93236-20.34888-18.87617-21.26419-15.80879-11.36963-15.80879-11.36963Z"/><path class="g" d="M711.52195,333.80373v-3.45048s-4.01119-.78769-6.13476-1.13185-8.25832-1.53522-12.97737-5.77671c-4.71904-4.24149-9.43809-5.6572-12.74142-11.32005s-8.02237-9.27689-11.56165-9.94737-6.60666-1.61428-6.60666-1.61428l-10.8538,7.44608s8.73023,11.52034,9.20213,12.65498c.4719,1.13464,7.31452,13.40415,8.25832,14.81986,.94381,1.41571,4.71904,6.56436,7.31452,9.53491s6.84261,5.09412,6.84261,5.09412c0,0,13.92118-8.96618,16.04474-9.90999s13.21332-6.39921,13.21332-6.39921Z"/><path class="g" d="M705.8591,369.22505s3.36654-8.79769,4.48309-14.15713c1.17976-5.66285,1.17976-16.12061,1.17976-17.26244s-14.62903,11.12769-14.62903,11.12769c0,0,0,8.3763,2.12357,11.79761,2.56222,4.12802,6.84261,8.49428,6.84261,8.49428Z"/><path class="g" d="M704.20744,370.52747s-2.59547,6.24805-3.30333,8.60757-5.4269,10.38189-5.4269,10.38189c0,0-7.07856-6.37071-8.02237-8.49428-.94381-2.12357-1.17976-5.42787-2.83143-8.02286-1.65166-2.59499-5.4269-6.13427-6.37071-8.9657-.94381-2.83143,1.65166-5.4269,1.65166-5.4269l10.14594-6.25273,3.30333-2.24155s.98429,4.0349,1.65166,6.37071c1.17976,4.12916,4.01119,10.85317,9.20213,14.04383Z"/><path class="g" d="M692.64578,394.70788s-7.31452-8.02237-8.49428-9.67404-7.07856-12.74142-7.78642-13.44927-4.01119-4.24777-4.01119-4.24777c0,0-4.48309,4.24777-5.66285,4.71967s-5.66285,2.83143-8.25832,3.77523-3.77523,4.24651-2.59547,5.19063,13.21332,8.49459,13.21332,8.49459l1.65166-2.53099s6.60666,8.42979,9.20213,9.3736,9.67404,7.07856,12.74142-1.65166Z"/><path class="g" d="M679.72595,412.24255l-6.75315-6.85283s-3.45025-3.47765-4.63008-6.3719,0-7.14134,0-7.14134l-15.10095-10.14601-2.59554,3.53933s-1.17966,4.61224-2.8314,7.73305c-1.65156,3.12072-9.67402,20.21173-10.61782,21.69422s-10.15683,14.69575-12.27492,16.3474c-2.11809,1.65174-9.35305,9.43816-11.04448,11.08981-1.56644,1.52951-8.96698,5.6897-4.80572,17.16522,.33224,.91608,.73816,1.87892,1.22669,2.89067,6.60659,13.68526,8.37617,21.70763,8.37617,21.70763l61.05121-71.65526Z"/><path class="g" d="M711.52195,324.39414v-20.52784s-1.88762-3.06738-4.71904-3.30333-11.08975-4.71904-12.03356-5.66285-3.74591-5.19095-3.6426-8.49428l.10332-3.30333-23.35926,.58797-1.17976,13.09725s8.31696,2.28476,11.35502,5.38952c3.03806,3.10476,12.24019,13.2507,14.59971,15.13832s11.3257,7.31452,13.92118,7.07856,4.95499,0,4.95499,0Z"/><path class="g" d="M710.57815,300.56298l-1.41571-9.20213s-4.95499,0-8.73023-1.17976-6.84261-6.49059-6.84261-6.49059c0,0-.23595,4.48775,2.35952,7.73072,2.59547,3.24296,14.62903,9.14177,14.62903,9.14177Z"/><path class="g" d="M708.92648,287.71116l-1.17976-19.47363-3.4135-20.25343-4.9628,.1975s-.35393,5.8504-2.4775,7.76222c-2.12357,1.91182-4.01119,5.4511-12.26951,6.86681-8.25832,1.41571-19.34807,4.60864-23.59521,4.66384s6.60666,11.85281,6.60666,11.85281c0,0,12.69961-1.41571,16.84967-.94381s8.63316-.4719,11.46458,2.35952c2.83143,2.83143,3.29775,6.38586,6.13196,6.96816s6.8454,0,6.8454,0Z"/><path class="g" d="M694.76935,249.05759l-32.56139,3.23017-6.8291,11.46669s28.06479-3.06738,31.60407-4.71904,6.37071-6.50636,7.78642-9.97782Z"/><path class="g" d="M703.02768,242.88488l-41.05567,4.35292v-3.55628l-3.53928-.79664v5.29673l-6.37071,12.97737-22.6514-12.10139,19.81998-24.47119,25.84352-6.37071s3.84464,4.60289,9.41042,7.61037,8.16125,5.06449,12.40839,5.56967,3.06738,0,3.06738,0l3.06738,11.48915Z"/><path class="g" d="M695.64321,207.59017l-16.68265,7.26251s3.02557,6.66633,5.52397,8.31799,9.10506,3.77523,11.46458,3.77523h3.42131l-3.72721-19.35574Z"/><path class="g" d="M693.58401,199.63914s-16.96945-43.97445-18.5099-45.9682-6.96735-13.31945-8.85496-14.49921c-1.88762-1.17976-4.80266-.94381-6.17656,0s-4.1783,3.77523-4.66372,5.66285-2.13708,11.72398-2.13708,14.23829,2.13708,24.96402,2.13708,24.96402c0,0,.95732,12.38874,0,20.09842-.95732,7.70968-3.78875,13.32295-3.78875,13.32295,0,0,11.44479-.52266,24.53902-5.33808,8.86604-3.2605,17.45487-12.48103,17.45487-12.48103Z"/><path class="g" d="M646.51714,125.01459l-12.62344,4.48309s.4719,7.53669,4.48309,10.61096c4.01119,3.07427,8.49428,5.43379,11.08975,3.78212,2.59547-1.65166,1.17976-1.74911,1.17976-6.84261,0-4.48027-4.12916-12.03356-4.12916-12.03356Z"/><path class="g" d="M650.6463,189.2958l-22.80765-.13162-9.51779-3.62998s2.12357-10.92659,2.35952-12.48181c.23595-1.55522,1.88762-9.81355,2.59547-12.64497,.70786-2.83143,9.43809-17.22451,9.43809-17.22451,0,0,1.65166,3.27014,5.4269,4.4665s6.37071,1.90421,8.3763,1.66826,2.61481-.15183,2.61481-.15183c0,0-.91003,11.18506-.37327,18.99202,.49757,7.23694,2.35952,15.60458,1.88762,17.37634-.4719,1.77176,0,3.7616,0,3.7616Z"/><polygon class="g" points="609.70291 205.02332 641.86711 223.35085 625.74766 247.18202 592.1761 228.77775 609.70291 205.02332"/><polygon class="g" points="620.68038 252.28776 589.5347 233.55257 569.95067 257.81471 592.77168 281.92276 601.56826 274.60824 620.68038 252.28776"/><polygon class="g" points="595.31553 287.71116 611.47825 272.74454 626.34323 255.4752 648.99464 267.60388 624.92206 290.88894 619.73657 289.27988 617.61719 292.12674 595.31553 287.71116"/><path class="g" d="M632.00609,293.95632l22.1795-23.82559s8.25832,7.30894,7.31452,14.62346c-.94381,7.31452-.70786,12.04289-4.01119,14.39774-3.30333,2.35486-6.84261,4.60013-6.84261,4.60013,0,0-7.78642-6.02051-9.90999-6.96432-2.12357-.94381-8.73023-2.83143-8.73023-2.83143Z"/><path class="g" d="M572.3102,338.73836c0-.89495,7.55047-26.56861,8.02237-30.01247,.4719-3.44387,.4719-20.92429-1.65166-25.8693-2.12357-4.94501-6.13476-13.17152-10.8538-16.72671-4.71904-3.55519-14.15713-8.27423-18.40427-8.39221s-6.58642,.07704-6.58642,.07704v1.2207s2.33928,.70786,2.81119,2.12357,1.41571,16.9046,1.41571,16.9046c0,0-.03682,2.59877,1.27933,2.6391s8.39471,.40356,10.04637,6.23872-2.12357,24.94729-2.12357,24.94729l-1.41571,16.73391s.94381,4.20883,3.53928,5.18114c2.59547,.97231,13.92118,4.93463,13.92118,4.93463Z"/><path class="g" d="M509.87869,353.06668l.06599-1.12664h-3.16387l2.55585-8.81827-.02568-9.31805h-20.76379s-9.43809,13.71372-10.8538,26.92704c-1.41571,13.21332,.70786,9.90999,5.28697,13.92118s10.75777,6.13476,22.55538,7.07856,21.10719,1.6766,38.9321-4.71904c9.91472-3.55744,16.7526-14.39308,20.39349-19.38857,3.64089-4.99549,5.05662-14.15307,5.05662-14.15307l-11.3031-4.2587-.69774,1.93561-8.81521-2.50933,1.49465-2.43861-7.76013-2.51787h-10.68588l-19.06424,.14487,.2344,18.8794-3.44201,.36148Z"/><polygon class="g" points="487.85838 238.27162 482.17648 236.64623 496.56956 194.08609 500.8167 196.73253 487.85838 238.27162"/><path class="g" d="M478.29841,235.79821l16.04991-44.59336s-14.05946-7.97035-18.07064-10.77164-12.24002-12.27535-12.24002-12.27535l-20.73434,14.1931,4.1882,10.14594v11.63839l5.955,1.78653,24.85189,29.87639Z"/><path class="g" d="M597.30215,110.80205c-55.25774,18.19572-88.37438,23.74871-114.4836,32.44144-1.40338,.46724-3.99712,2.26298-8.69135,3.31662l-1.59852,12.51275,127.38792-36.65374-2.61445-11.61707Z"/><path class="g" d="M717.93398,240.41224c-3.35214-17.91712-5.82542-30.10002-9.0075-40.48285l-8.25832,4.2059,9.55606,37.2037,7.70976-.92675Z"/><path class="g" d="M719.56683,244.65959c.36776,2.03474,.74107,4.14055,1.12074,6.32248,2.47061,14.19777,5.6749,43.57477,6.39592,74.3559l-9.27406-.35394s.43714-29.72997-1.8044-43.76912c-2.24155-14.03915-4.48309-35.9827-4.48309-35.9827l8.04488-.57262Z"/><path class="g" d="M726.30011,337.7305c-.84973,9.06849-2.33916,18.03037-4.69484,26.49633-3.19761,11.4917-7.70864,21.10716-7.70864,21.10725-2.21435,4.72009-3.84365,8.84696-6.50384,12.97647l-6.01678-5.13636s6.72464-9.08416,11.08975-22.06152c4.36511-12.97737,6.25273-33.30719,6.25273-33.30719l7.58162-.07498Z"/><path class="g" d="M617.78473,507.66072c.57615-.62249,1.20361-1.23137,1.77175-1.92376,15.399-18.7666,21.08275-25.12859,43.1322-51.94208,7.08957-8.62141,13.30849-16.03098,25.3286-30.83492,6.90824-8.50822,12.84427-13.86064,17.016-19.86143l-5.78083-4.07881-28.19628,32.61467-15.6773,19.702-43.19267,51.4756,5.59854,4.84873Z"/><path class="g" d="M541.05827,545.2627c4.42417,.28566,9.42783,.29769,15.17664-.43151,18.3962-2.33348,31.14624-10.68085,37.4424-14.86679,4.08154-2.71357,10.06399-5.30285,20.20027-15.86474l-5.58468-5.54488s-16.16272,14.15713-25.83676,19.58403-19.2301,9.08416-27.01652,9.90999c-7.78642,.82583-12.6032,.70786-12.6032,.70786l-1.77815,6.50605Z"/><path class="g" d="M496.46211,534.70516c20.13335,7.3553,29.07534,8.88093,36.46314,9.75892,.29867,.0355,.60035,.07124,.90513,.10699l.00008-.00068,.93015-6.89728-35.60695-9.91121-2.69155,6.94327Z"/><path class="g" d="M409.76921,495.45872c14.6285,7.19726,44.97784,24.89367,79.39736,37.84346l3.26953-8.16159s-26.62879-10.36257-35.49687-14.81509c-2.95704-1.48468-41.29672-22.02682-41.29672-22.02682l-5.8733,7.16004c.2212,.04695-.23035-.05644,0,0"/><path class="g" d="M668.52961,108.95092l-39.16963,14.34713,1.70234,3.13226,18.71718-7.81414,6.88358,14.77475s8.92031-2.94941,13.36732,.9438c4.44701,3.89321,11.40766,20.64581,11.40766,20.64581l16.28079,40.22981,9.24289-2.8073,.00052-.00018c-2.40809-7.09368-4.82268-13.86964-8.11597-21.62819-15.10358-35.58195-30.31667-61.82374-30.31667-61.82374Z"/><path class="g" d="M653.35975,374.76992l8.96618-14.74701,8.14035,4.60107s-4.60107,4.12916-6.84261,5.19095c-2.24155,1.06178-10.26392,4.95499-10.26392,4.95499Z"/><path class="g" d="M665.15736,356.12971c.70786,.70786,6.60666,4.60107,6.60666,4.60107l4.95499-6.37071-8.02237-6.72464-3.53928,8.49428Z"/><polygon class="g" points="240.44352 385.03384 248.70185 385.03384 249.4097 363.32625 241.66084 362.80243 240.44352 385.03384"/><path class="g" d="M198.79797,377.26646v-17.65226l40.81398,2.75899v5.87275l-6.45345-.23034,.03514,1.39486-1.67425-.18362-.42282,7.85986-3.81612,.17977-.53633,6.513s-10.14143-2.53049-13.56697-2.97758c-6.79598-.88699-14.37918-3.53542-14.37918-3.53542Z"/><path class="g" d="M562.87211,257.69975s-5.49254-3.73994-10.53256-5.41199-7.81204-1.03877-7.81204-1.03877l-2.18324-41.705,8.72861-1.06293,1.43781,21.4595,16.20893,19.71488-5.84751,8.0443Z"/><path class="g" d="M627.18918,328.62259s12.11921,9.74087,14.75382,12.9024c2.63461,3.16153,7.90383,9.61633,9.35287,11.06537s6.19134,4.47884,6.19134,4.47884l-7.90383,19.82366s-3.99113-2.07411-6.21095-2.12293-31.18624-.95814-31.18624-.95814l-1.85852-6.47497-3.55673-.65127-2.10769-2.10769-1.05008-3.84707,4.87026-6.60697,5.79614,.94412,2.37115-4.95499,2.10769-3.12685,8.43076-18.36348Z"/><path class="g" d="M403.76952,507.66072l3.99379-7.61352,36.48315,19.14474s-12.26373-1.12605-16.5211-1.89188-23.95584-9.63933-23.95584-9.63933Z"/><rect class="g" x="561.17057" y="203.9715" width="18.48177" height="4.43168" transform="translate(-34.55651 162.64187) rotate(-15.75643)"/><path class="g" d="M365.73101,452.57137c-5.71106-6.85101-8.05542-10.09357-11.64429-18.05621-3.58881-7.96277-2.80377-14.57965-2.80377-14.57965,0,0,11.10297-5.49542,13.23383-7.5141,2.13086-2.01874,2.43829-2.16248,.89722-5.27106,.11212-.56079-12.88586-24.89746-12.88586-24.89746l-24.46033-43.51453h-20.52362s-.33643,26.1311-3.20789,30.95892c-2.87134,4.82788-6.99786,8.96674-12.1568,10.42468-1.91907,.54236-6.5553,1.03796-11.62006,1.44678-.24158,.01947-.48309,.039-.72638,.05811,7.77142,.2511,14.84998,7.15271,18.74316,10.69202,2.2699,2.06348,6.19373,6.99005,7.78644,11.50269,1.59265,4.51257,1.4967,17.72992,1.4967,17.72992,0,0,3.4754,17.06165,8.32043,24.73944,3.7796,5.98926,14.99445,12.10919,31.03204,13.00641,14.46399,.8092,19.64893-3.21259,20.52747-4.00983,.09558-.08673,.14203-.13666,.14203-.13666l-2.15033-2.57947Z"/><path class="g" d="M371.13152,457.70711s-.10913,.06091-.29266,.159c-1.10083,.58826-5.21875,2.68506-9.08643,3.29181-1.14069,.17889-2.70239,.36804-4.47217,.53778-.13202,.01263-.25543,.026-.38977,.03845l.17224,1.15387,4.3111,28.88367c1.42285,.19165,2.73376,.38361,3.97845,.56677,12.90045,1.89801,15.30475,5.10272,24.77802,4.95563l16.74799-15.60834-35.74677-23.97864Z"/><path class="g" d="M306.07604,424.08498c-.76416-3.4765-1.28552-6.54065-1.39453-9.02625-.16852-3.84229,.67743-5.84772-1.50421-11.50269-3.04767-7.89966-14.77649-15.8078-14.77649-15.8078-1.06342-.99872-4.21851-2.98907-7.34406-3.92365-4.11627-1.2309-16.68073,.73785-18.10718,1.15704h.00006c7.17743-.56079,11.28577,3.88812,12.40723,5.00964,1.12158,1.12146,7.5141,13.10724,7.5141,13.10724,0,0,7.28986,13.47247,7.96277,15.26691,.67285,1.79431,1.68219,4.14954,.67285,5.83173-1.00934,1.68231-3.02802,1.90668-3.02802,1.90668l3.19427,5.85608,12.84332-7.01953,1.47156-.80426,.08923-.05133-.00092,.00018Z"/><polygon class="h" points="304.51616 424.94038 304.52288 424.97872 305.98772 424.13612 304.51616 424.94038"/><path class="g" d="M338.73255,129.78755l.57701-24.91914s-10.28375-13.55124-12.20106-13.4862-8.22805-2.33142-12.13186-.00023-14.01326,12.45547-17.67357,19.42008-5.57763,8.35902-5.57763,8.35902v12.51942s17.23528,.91903,22.97822,.69769c6.03755-.2327,24.02888-2.59063,24.02888-2.59063Z"/><path class="g" d="M441.98232,0s1.72328,35.28514,0,49.51949-1.8022,21.0508-1.8022,21.0508l-18.16511-1.40339-1.56172-63.95432,21.52903-5.21258Z"/><path class="g" d="M418.20582,70.57029s-4.88127-.28446-8.54286,.54965c-3.68644,.83977-5.38127,1.88378-8.64066,3.37359s-9.34361,4.09733-9.34361,4.09733c0,0-.14486-26.87192-1.59348-34.25989s-2.02807-11.44411-2.02807-11.44411c0,0,10.80959-1.59348,15.07434-1.95564s13.53592-.36216,13.53592-.36216l1.53842,40.00121Z"/><path class="g" d="M360.21654,43.73229s6.18106-4.90561,8.9282-5.49428,14.32437-3.53204,14.32437-3.53204c0,0,3.82637,15.89417,3.53204,24.33181-.29434,8.43764,1.05599,20.60355,1.05599,20.60355l-9.00307,4.31693-18.83753-40.22598Z"/><path class="g" d="M375.74515,84.64505l-33.1888,16.09039s-7.94708-10.39989-10.10555-11.38101-3.82637-2.74714-3.82637-2.74714l20.11299-11.41062-1.37357-1.44206-18.73942,11.18478s-10.69422-1.96224-16.28661,.29434-14.5206,13.34325-14.5206,13.34325l-9.32065-10.10555s21.48656-17.7583,25.70538-20.30921,43.56179-20.40732,43.56179-20.40732l17.98142,36.89016Z"/><path class="g" d="M625.60363,85.81343c-2.67822-3.44336-12.33887-11.19098-17.31262-10.61707-4.97375,.57385-12.33875,13.67786-12.33875,13.67786l.86084,11.17303s4.49536-1.12982,6.79102-1.99066,20.67578-3.82599,20.67578-3.82599l2.67139-6.73663c-.22729-.2666-.94702-1.16534-1.34766-1.68054Z"/><polygon class="g" points="613.02123 67.22127 613.02257 67.22255 628.76696 82.65047 632.48595 71.05861 613.02123 67.22127"/><path class="g" d="M112.98603,364.9793s.57769,.53442-4.49928,0-12.02439-6.0122-17.90299-6.27941-13.36044-1.77873-21.77751,.9143S0,402.38853,0,402.38853l21.77751,24.04879-9.61951,7.77677,36.18798,71.49503,24.46841-9.75285s2.00407-.97991,.93523-2.85037-27.78971-49.16641-27.78971-49.16641l59.18674-36.81042s1.73686-1.66764,3.0729-10.35192,4.76648-31.79784,4.76648-31.79784Z"/><path class="g" d="M620.40294,522.52846l4.32007,3.93408-9.73804,10.49023s2.84436,4.46826,7.76953,6.67401c4.93701,2.21094,12.57825,3.95715,18.65527,2.54388,6.07715-1.41327,7.62341-1.45526,8.18872-6.77832,.56543-5.32312-1.18347-16.263-2.59668-19.95239-1.41333-3.68933-6.29858-9.82043-6.29858-9.82043l-11.61206,12.17236-4.36584-4.14185"/><path class="g" d="M260.97136,436.94331c-.94379-1.29773-8.84821-14.74701-10.26392-16.98859-1.41571-2.24152-7.90442-18.16827-7.90442-18.16827l2.15015-.82684-1.57971-2.9718-.92438,.37732s-.2359-1.65167-1.06177-3.30334c-.82581-1.65167-4.12915-4.24713-5.8988-5.66284s-18.87616-5.54486-20.99976-6.25275c-2.12354-.70782-13.92114-3.18536-16.98853-3.65723-3.06738-.47192-12.85938-5.19098-14.86499-7.19653-2.00562-2.00562-2.9494-10.02802-2.83142-11.79761,.11798-1.76965,1.41571-8.37634,6.84259-10.61786,5.42694-2.24158,10.3819-1.06177,10.3819-1.06177,0,0,39.05011,3.89319,44.71295,3.77521s5.42688-4.48309,5.42688-4.48309l.23596-11.44366s-58.53943-1.79999-64.87402-1.38556c-6.33459,.41443-18.75372,.11462-25.05206,5.55115-6.2984,5.43652-12.98853,9.93207-12.98853,9.93207l68.47815,83.2204,44.64209,5.43652,3.24103,4.19531-44.32849-5.13623,32.40997,40.5647,14.01727-23.20972,4.99335-.49982c-.87561-3.73938-1.5741-6.45001-1.78058-6.9455-.58984-1.41571-4.24713-10.14594-5.19092-11.44366Z"/></g><g id="b"><path class="h" d="M244.57268,390.69667c-1.41571,1.65167-1.41571,3.18536-2.1236,2.59546-.70782-.58984-2.47748-3.1853-3.42126-3.53925-.94385-.35394-6.67786-4.95068-10.21716-5.54053-3.53931-.5899-13.7619-3.1875-18.59888-4.01337-4.83704-.82581-5.3656-.78015-13.17285-3.59741-7.70837-2.78156-11.10034-8.08441-11.57227-10.67987s-.11798-6.60669,.35394-7.4325,2.12354-4.48309,7.66846-4.83704c5.54486-.35388,24.77496,1.17975,24.77496,1.17975l17.34247,1.76965s8.79663,.5899,9.94324,.47192c1.14655-.11798,4.56781-.47192,4.44983-9.90997-.11798-9.43811-.01654-10.38763-.01654-10.38763l-2.57892-.11224-.23596,11.44366s.23596,4.36511-5.42688,4.48309-44.71295-3.77521-44.71295-3.77521c0,0-4.95496-1.17981-10.3819,1.06177-5.42688,2.24152-6.72461,8.84821-6.84259,10.61786-.11798,1.76959,.82581,9.79199,2.83142,11.79761,2.00562,2.00555,11.79761,6.72461,14.86499,7.19653,3.06738,.47186,14.86499,2.9494,16.98853,3.65723,2.1236,.70789,19.2301,4.83704,20.99976,6.25275s5.073,4.01117,5.8988,5.66284c.82587,1.65167,1.06177,3.30334,1.06177,3.30334l.92438-.37732,4.85651-1.98218,.49445-8.14038s-2.73602,1.17975-4.15173,2.83142Z"/><path class="h" d="M452.20202,528.13973c-4.88507-2.07245-16.28375,3.28564-16.28375,3.28564,0,0-26.49805,12.99811-35.41528,14.92255s-8.40277-2.07245-11.65955-5.03314c-3.25671-2.96069-14.06323-23.09332-14.06323-23.09332l-9.32611,9.47418s1.92444,3.84888,4.88513,7.25366c2.96063,3.40479,8.73401,17.61609,8.73401,17.61609,0,0,3.5528,7.99384,10.06628,9.03003,6.51349,1.03625,10.21436-1.18427,10.21436-1.18427,0,0,55.06866-23.98151,55.95691-25.01776,.10162-.11853,.20227-.28204,.29523-.47424,.71967-1.48761,.92218-4.94403-3.40399-6.77942Z"/><path class="h" d="M664.68542,102.78944c-.4729,.65643-.43359,2.22449-3.20837,4.39899-3.66882,2.87506-6.08972,3.95294-13.49426,6.58569-7.40454,2.63275-19.51599,6.52142-19.51599,6.52142l.89319,3.0025,39.16968-14.34717-3.84424-6.16144Z"/><path class="h" d="M608.67431,66.95314c-2.27014,.91772-14.48987,14.82794-14.48987,14.82794l1.76782,7.09314s7.36499-13.104,12.33875-13.67786c4.97375-.57391,14.6344,7.17371,17.31262,10.61707,.40063,.5152,1.12036,1.41394,1.34766,1.68054l1.81567-4.84351-15.74438-15.42792c-1.03735-.39386-2.83716-.88031-4.34827-.26941Z"/><path class="h" d="M423.28887,350.05068s-5.22449-8.7583-5.76862-15.15521c-.17426-2.04846,2.2655-4.9231,2.2655-4.9231l2.05707-2.71851,4.2478-4.39197-2.52057-1.8797-4.85754,5.15277c-3.15613,3.2262-4.03339,7.79742-4.71185,9.57373-.67841,1.77625,4.75848,12.12372,4.75848,12.12372l13.01117,23.10272,2.57013-.75635-6.09497-11.08917-4.9566-9.03894Z"/><path class="h" d="M458.16186,286.90346l-2.80988-2.30829c-1.95758,2.20441-4.70874,5.57153-5.86249,6.43237-1.86566,1.39197-23.82428,27.34613-23.82428,27.34613l-.32886,.40942,2.56421,1.91217,30.26129-33.79181Z"/><path class="h" d="M457.31603,282.35622l2.79169,2.29333,12.44373-14.44623-2.57208-1.79205-12.52478,13.78467s-.0575,.06659-.13855,.16028Z"/><path class="h" d="M498.09533,247.44081s-3.38477,2.34607-5.40454,2.72321c-2.02002,.37708-5.79529,.33105-9.33453,2.12372-3.53931,1.79266-6.61322,4.87787-6.61322,4.87787l2.83795-14.26074-2.14532-.71912s-2.02148,8.09399-2.5047,9.06042c-.48322,.96643-.72485,6.04022-.80377,7.24829s-1.73315,3.02014-2.21637,4.09003c-.48322,1.06995,3.59161,4.12469,3.59161,4.12469-.83148-.90948,.00793-4.93372,.40295-5.60028,1.2384-2.08984,5.55499-3.55518,7.888-5.93591,1.75165-1.7876,11.12445-1.32855,14.42792-2.88525,3.30322-1.5567,3.53918-3.68481,3.53918-3.68481l-3.66516-1.16211Z"/><path class="h" d="M522.52428,213.4966c6.13208-2.59552,14.79041-2.19696,14.8208-2.19635l-1.60742-3.32965s-4.95508,1.27887-9.20215,1.57336c-4.24719,.29449-10.146,3.00885-14.86499,5.30872-4.71899,2.29987-7.07861,13.03705-7.07861,13.03705l-2.47632,10.02734c-.43481,2.01544-.69727,3.32544-.69727,3.32544l3.18298,1.12067c.12952-.89844,1.74963-11.91077,4.245-18.15759,2.60278-6.51556,7.54358-8.11249,13.67798-10.70898Z"/><path class="h" d="M607.36559,132.99281c-1.09033,2.74323-3.09875,7.56567-4.91602,12.36066l3.32251,.95703c1.52173-3.30945,3.41357-7.33258,3.41357-7.33258,0,0,1.61084-5.71808,4.26855-8.29529,2.65771-2.57715,10.93994-4.85449,10.93994-4.85449l-1.11829-3.40906-10.84607,3.52844s-3.32056,2.65784-5.06421,7.04529Z"/><path class="h" d="M592.86852,172.10585l3.86401,1.11298c1.48535-4.71307,3.18408-10.40204,3.18408-10.40204,0,0,3.14832-10.87244,4.03418-12.48315,.16138-.2934,.43848-.8587,.78247-1.58368l-3.21826-.927c-2.35144,6.22058-4.3512,11.80157-4.3512,11.80157,0,0-1.96057,5.61401-4.29529,12.48132Z"/><path class="h" d="M590.70275,188.15682s3.07031-6.17596,4.49487-10.24121c.20923-.59735,.45959-1.34784,.73328-2.18896l-3.91199-1.12683c-1.2915,3.78436-2.6604,7.75983-3.88818,11.25165-1.95935,5.57227-3.39209,6.81024-4.8291,8.41162-1.98145,2.20813-8.60083,4.90198-13.85559,6.39459-3.28748,.93384-9.65588,1.41919-13.79626,1.81372-2.36475,.22534-9.25854-2.91229-11.95874-4.57422-.95825-.5899-3.36426-2.98645-3.36426-2.98645-2.66724-1.71729-5.49561-3.99713-7.55029-5.35571-2.38025-1.57385-3.94385-2.3006-9.18115-5.11407-5.23706-2.81342-9.64429-2.9834-10.73511-3.02509-1.78784-.0683-5.70679-.59991-7.86255-.29547-2.15576,.3045-3.46777,.82471-4.98926,1.34845-1.52148,.52368-3.68921,3.24493-3.68921,3.24493-.0083-.00446-.02515-.01367-.03406-.01849-.00134,.00354-.00818,.02124-.00818,.02124l3.23218,1.49524s.01147-.0116,.01758-.01782c-.02319-.01184-.03711-.01898-.03711-.01898,0,0,2.14709-3.78699,6.52563-3.58527,4.37854,.20166,14.0907,1.90625,17.021,3.05957,2.93042,1.15332,13.6012,10.02112,15.5741,11.45776,2.67761,1.94971,5.07874,4.31415,6.49817,5.99261,.91821,1.08569,1.28931,1.84949,1.19067,1.71619l-2.9624,.21899-2.64417,.8277s-.00903-.00812-.00989-.00897c-.00269,.00195-.02039,.01422-.02039,.01422l1.68201,2.67621s8.83862-.92419,12.26685-1.49591c4.15625-.69312,21.06567-5.1156,27.13452-8.33142l-.12378,.03558c.05579-.02686,.10803-.05878,.16357-.08618l-.03723-.02692s7.00342-7.6452,8.95447-11.4823Z"/><path class="h" d="M431.68273,402.61226c-.80536,1.97589-2.41608,5.68054-6.04028,8.5799-3.62415,2.89929-6.37787,6.66376-17.2171,15.52032-5.6062,4.58075-11.74054,8.09985-16.18054,10.36255l1.81567,2.50043,1.55444-.61011s11.89203-6.68445,18.42291-11.91339c6.53082-5.22894,6.73834-7.25781,9.18323-9.71399s8.75763-7.71631,10.48212-12.54852c1.63245-4.57434,2.09955-25.67786,2.14435-27.89661l-2.14435,.42535-.94354,10.12592s-.27155,13.19226-1.0769,15.16815Z"/><path class="h" d="M390.09618,441.13142l.93457-.36682-1.52863-2.34161c-2.18018,1.03064-3.53333,1.57202-3.53333,1.57202,0,0-5.26978,2.49036-7.79895,5.00769-2.52911,2.51727-5.89984,6.27094-5.89984,6.27094l1.6911,1.23645s6.16608-4.94897,7.58179-6.12872,8.55328-5.24994,8.55328-5.24994Z"/><path class="h" d="M281.05675,383.8246c3.12555,.93457,6.28064,2.92493,7.34406,3.92365,0,0,11.72882,7.90814,14.77649,15.8078,2.18164,5.65497,1.33569,7.6604,1.50421,11.50269,.10901,2.4856,.63037,5.54974,1.39453,9.02625l.00092-.00018-.08923,.05133,.24512-.13397c.43909,1.99756,.95825,4.13129,1.52539,6.36963,1.23108,4.85883,3.45081,14.86499,9.20215,20.97028,4.82404,5.12091,13.71472,8.7597,24.06714,10.44086,3.71429,.60321,9.55664,.42981,16.23901-.18817l.01373,.10095c1.76978-.16974,3.33148-.35889,4.47217-.53778,3.86768-.60675,7.9856-2.70355,9.08643-3.29181l-3.09955-2.57861c-.87854,.79724-6.06348,4.81903-20.52747,4.00983-16.0376-.89722-27.25244-7.01715-31.03204-13.00641-4.84503-7.6778-8.32043-24.73944-8.32043-24.73944,0,0,.09595-13.21735-1.4967-17.72992-1.59271-4.51263-5.51654-9.43921-7.78644-11.50269-3.89319-3.53931-10.97174-10.44092-18.74316-10.69202,.24329-.0191,.4848-.03864,.72638-.05811-.67957-.06152-1.36792-.09796-2.05762-.09467-2.66815,.0127-16.59058,1.36914-16.59058,1.36914l.48322,2.19061,.55511-.05219c1.42645-.41919,13.99091-2.38794,18.10718-1.15704Z"/><path class="h" d="M196.81748,164.95938c-8.21282-5.3727-8.40089-6.03414-12.12327-7.63469-1.09835-.47227-2.29137-.64419-3.88892-.6863-4.84506-.12772-7.91965,2.46357-12.35307,5.03273-3.2703,1.89515-7.61136,4.4108-12.12427,5.26148-6.47149,1.21989-8.20718-1.94325-18.52951-3.88892-7.04344-1.32763-14.78266-2.78638-21.96102,.91505-7.08242,3.65199-10.17283,10.55032-10.98046,12.35302-4.15867,9.2829-.23228,14.3974-3.20262,24.93484-.67566,2.39696-2.92277,9.36346-8.69285,15.32689-6.93454,7.16696-11.46318,5.04842-23.33353,12.12431-6.41901,3.82634-16.32192,9.72946-19.90211,20.81712-.61182,1.89466-2.49379,7.99225-.4575,14.86939,1.51977,5.13255,4.46597,8.14612,10.52296,13.95438,16.53847,15.85932,17.27323,15.1597,21.73213,20.58837,4.18039,5.08955,9.63853,11.73485,12.12427,21.73222,1.63591,6.57945,.41647,8.30468,2.74521,17.15695,2.13892,8.13087,3.6443,13.54828,8.46406,16.92824,5.31544,3.72758,11.7222,2.91535,14.86939,2.51636,6.49259-.82314,9.96335-3.45824,23.10473-12.12427,11.23036-7.40581,16.89753-11.12906,19.44461-12.12427,10.61371-4.14713,20.53888-3.84359,26.53615-3.66017,7.4937,.2292,10.48809,1.36357,24.01983,1.83006,7.90033,.27234,9.9663-.00791,11.89547-.4575,4.36699-1.01774,7.1645-2.70086,13.72558-3.66017,3.22184-.47109,5.56811-.5069,7.09154,.91505,1.37037,1.27904,.85251,2.59661,2.28761,3.88892,1.89448,1.70592,5.58769,1.92314,7.77784,.22875,2.29789-1.77771,2.16208-5.05705,2.0589-7.54909-.19429-4.69297-1.89171-7.80256-5.71903-15.09814-3.94856-7.52674-3.44581-9.1449-5.94774-11.43797-3.40531-3.12108-7.26973-3.99416-8.92165-4.34647-2.2193-.47333-3.88007-.82752-4.57522,0,0,0,1.6141,4.9967,5.03273,11.66676,3.90421,7.61749,6.06343,11.83038,4.57522,13.95433-1.69045,2.41252-6.84477,.35719-16.24199-.68626-9.87564-1.09655-10.75623,.44351-23.33353,.22875-18.39343-.31405-17.27233-3.62083-28.13746-2.74512-5.77643,.46555-19.53473,1.57444-30.42507,10.98046-5.52653,4.77331-7.80833,9.51877-16.01319,13.26807-3.48622,1.59304-8.5253,3.89572-12.35298,1.83011-3.86782-2.08729-3.6806-7.11412-5.71903-17.61455-2.58659-13.32418-3.97019-20.45148-8.69285-26.53611-1.94053-2.50014-2.0902-1.79063-18.9871-12.58182-14.0226-8.95553-17.97518-12.03432-20.35962-17.6145-.7327-1.71481-2.78294-6.5128-1.60131-12.12427,1.82474-8.66536,10.14378-13.51292,19.44461-18.75831,14.51703-8.18716,18.24743-5.35446,24.24854-11.89552,3.1032-3.38247,5.27145-9.42278,9.60786-21.50342,4.45613-12.41404,4.73947-16.56064,9.15045-19.21586,6.15624-3.70581,14.12515-.75796,15.55569-.22875,8.29302,3.06779,8.50894,8.72772,18.52951,17.38575,3.32574,2.87351,10.10336,8.619,19.90211,11.66676,9.00176,2.79988,17.94648,2.5123,24.93484,2.28761,10.23989-.3292,14.30146-1.99118,19.21581,1.14376,2.64426,1.68687,5.2187,4.56047,8.46414,3.88892,1.75536-.36322,3.15416-1.6491,4.34643-2.74512,1.54087-1.4165,3.12671-2.87431,2.97391-4.57518-.17676-1.96757-2.5249-2.53277-2.28761-3.88892,.24131-1.37949,2.72804-1.12141,3.88892-3.20262,.66618-1.19437,.65584-2.85028,0-3.88892-.46089-.7299-5.15343-.69904-6.17653-.45755-1.07872,.25464-13.60595-.59278-38.66042-2.28757-24.57989-1.66269-28.03634-3.26619-30.42507-6.40529-3.20199-4.20789-3.83751-10.32371-2.05881-15.09818,2.82621-7.58606,11.10456-10.06031,14.18308-10.98046,7.66286-2.29034,14.97408-.54633,17.157,0,5.64804,1.4136,7.19535,3.33629,11.89547,2.97387,1.10867-.08547,6.09249-.46975,9.60795-4.11767,2.23343-2.31756,1.723-3.72021,4.11772-8.69285,2.19114-4.54983,3.87444-8.04526,7.32025-10.29421,5.56274-3.63058,12.49344-1.90762,13.72558-1.60131,5.05875,1.25758,4.81993,3.378,11.89556,5.94774,3.95401,1.43604,7.30094,2.6022,11.20926,1.60135,3.86469-.98962,6.40345-3.61797,7.54905-4.80398,3.75472-3.88713,3.59915-4.94439,6.63164-8.49619,1.46203-1.7124,4.23016-4.02838,4.24284-4.38082,.01117-.31045-1.07199-1.03713-1.07199-1.03713-.3423-.04141-2.17478,1.19812-5.09147,5.04757-4.82771,6.37167-5.49184,7.83028-7.9884,9.61242-1.23518,.8817-2.78642,1.98908-5.04757,2.45794-3.13226,.64951-5.66985-.33197-11.76315-3.16024-10.21396-4.7409-10.26242-5.31517-12.91259-5.71764-1.32745-.20157-7.03289-1.06799-12.10192,2.11492-3.31688,2.08273-4.93,5.0005-7.16718,9.04709-3.25144,5.88122-2.42485,7.63305-5.52224,10.80951-.80942,.83007-4.30458,4.41451-8.34219,3.8773-1.16044-.15441-4.6456-1.8742-6.61241-3.16088Z"/><path class="h" d="M344.73437,510.20644c-1.17975-4.60107-8.37628-7.07855-12.15155-7.19653-3.77521-.11798-21.23566-1.41571-26.8985-2.59546-5.6629-1.17981-17.22455-7.66846-21.82562-20.29193-4.60107-12.62341-2.83142-16.15796-5.42688-23.83112-3.70428-10.95129-9.79199-17.81439-13.44928-22.76941-3.65723-4.95502-8.49426-14.1571-11.32568-23.24127s-3.6543-11.26288-3.6543-11.26288l-5.04938,1.94177-2.15015,.82684s6.48871,15.92676,7.90442,18.16827c1.41571,2.24158,9.32013,15.69086,10.26392,16.98859s4.60107,10.02795,5.19092,11.44366c.20648,.49548,.90497,3.20612,1.78058,6.9455,1.6261,6.94434,3.86462,17.44611,4.70813,23.96423,1.29773,10.02795,5.3089,22.1795,11.56165,26.42664s19.2301,10.49988,27.60638,10.3819c8.37634-.11798,16.75262,.70782,16.87061,2.24152s-.11798,3.42133-1.53369,4.12921c-1.41571,.70782-7.31451,5.8988-10.9718,10.14594-3.65723,4.24713-8.49426,10.89783-10.49982,12.82239-2.00562,1.92462-8.0224,8.52594-11.08978,10.5932-3.06738,2.0672-10.9718,1.47736-13.3313,1.24139s-10.14594,.82581-14.86499,2.3595-10.61786-.12329-16.98853-3.60089c-6.37073-3.47766-6.60669-4.42145-12.38751-4.0675-5.78082,.35388-10.14594,5.86615-10.85376,8.242-.70789,2.37579-1.29779,9.92627-2.9494,11.34198-1.65167,1.41571-3.18536,3.53931-7.78644,4.12915-4.60107,.5899-6.37073,2.35956-7.4325,3.65729s-2.1236,3.18536-2.47748,9.67401c-.35394,6.48871,.58984,9.08417-1.17981,10.9718-1.76959,1.88763-2.59546,5.66284-11.67963,7.55048s-22.88733,10.26392-29.612,15.45483c-6.72461,5.19098-7.6684,7.66846-12.03351,9.91003-4.36511,2.24152-22.29749,10.3819-30.55585,16.63458-8.2583,6.25275-16.04474,14.15717-16.04474,14.15717l2.24158,3.89319s9.08417-9.32013,19.466-15.6908c10.3819-6.37073,17.93237-9.91003,27.13452-15.21893s14.62903-13.9212,28.78613-19.58405c14.15717-5.66284,20.76379-8.84821,24.06714-12.26947,3.30334-3.42133,3.18536-6.37073,4.24713-13.09534,1.06183-6.72467,.82587-8.73029,4.01123-11.08978,3.1853-2.3595,6.60663-1.88763,8.61224-3.30334,2.00555-1.41571,6.01678-3.89319,6.37067-9.20209,.35394-5.30896,.82587-8.84821,3.65729-10.73584s5.42688-1.88763,13.09534,1.53369,11.44366,5.8988,17.10651,5.42688c5.6629-.47192,10.14594-3.30334,12.26953-3.30334s11.56165,1.76965,15.6908,.70789c4.12921-1.06177,12.38751-7.07855,20.76379-15.33691,8.37634-8.2583,9.91003-12.85938,15.10095-17.69641,5.19092-4.83698,10.3819-6.1347,12.15155-8.49426,1.76965-2.3595,6.72461-5.42688,5.54486-10.02795Z"/><polygon class="h" points="494.34832 191.20485 496.56956 194.08609 482.17648 236.64623 478.29841 235.79821 494.34832 191.20485"/><path class="h" d="M235.43957,251.24898c-.12937-.90204-.41362-6.01913-.43589-7.37062-.07779-4.72333,3.78896-8.32413,4.22948-8.72321,2.68038-2.42821,4.12827-1.36576,5.94765-3.56861,2.04862-2.48042,2.69067-6.82761,.93924-9.51698-1.7947-2.75589-5.34798-2.61203-5.49032-4.63253-.076-1.07894,.86726-2.11224,1.71575-2.57363,1.54302-.83906,3.16122,.00206,5.14717,.51473,.30372,.07841,7.56872,1.87584,10.4661-1.20103,1.96038-2.08184,1.87588-6.34686,0-7.89242-.6872-.56618-1.48624-.66154-4.11781-.51473-7.25722,.40484-11.20361,.73101-11.32388,.17158-.15414-.71698-.59725-2.34611-.34315-3.08836,.31006-.9057,3.94963-.40989,9.60813-.17158,6.93883,.29223,9.20141-1.15132,12.69657,.85788,.80647,.46358,2.6186,1.53841,3.08836,3.43151,.31543,1.27099-.2212,1.91572-.6863,4.11776-.88255,4.17856,.33931,5.22062-.6863,6.34829-1.6959,1.86466-5.15513-.85443-8.23562,1.20103-1.99015,1.32794-6.52276,.47167-6.71212,1.30058-.96821,4.23766,.66729,10.94739-.66562,12.25383-1.19441,1.17072,1.24779-1.24108,0,0-1.36411,1.35682,.94639,4.33757-.51473,6.17671-.97599,1.22848-3.33138,1.7803-5.80308,3.01628-3.1538,1.57708-3.32814,3.29445-3.46189,3.67515-.11935,.3398-.24211,5.2018-.37949,6.18837"/><path class="h" d="M353.38064,498.99415c-6.83563-1.4281-16.24845-2.50914-27.19098-2.9666-14.6422-.61209-18.42363,.84051-24.74707-3.01533-5.36542-3.27173-8.06368-8.0365-10.42273-12.20232-6.0764-10.73021-3.56807-13.83846-7.88066-26.43834-2.66409-7.78351-5.36219-11.44793-13.81855-23.28683-3.54525-4.96335-6.37113-12.72481-7.8526-17.3154-4.17799-12.94623-7.9432-17.99027-10.24449-25.55013,0,0,1.30518,8.57337,2.75484,12.63223s3.24361,11.47446,4.27952,13.4445,4.41845,11.75526,7.43858,16.10424,11.11407,15.70467,13.40937,19.93285,4.53288,14.255,5.40737,19.08721,5.35313,15.5176,7.24696,17.60735c4.37919,4.83221,10.35995,9.00731,13.56798,9.60415,5.19462,.96644,16.05948,.81529,19.68363,1.29851s27.28159,1.18472,28.36883,1.06392"/><path class="h" d="M369.54093,123.49553c-6.62295,.18202-26.45823,4.38539-26.45823,4.38539v-20.48591s5.6461,7.40912,10.51922,8.1815c3.06861,.48636,46.7653,1.24669,54.80569,1.33436l-1.39933,6.67448s-28.10402-.34716-37.46735-.08982Z"/><path class="h" d="M357.02029,491.11324c-1.93999-.16755-11.64572-2.36919-28.06367-1.5882-7.32445,.34843-12.10831,.91268-17.52505-1.24109-6.68598-2.65848-10.73341-7.01145-12.70469-9.71106-3.23373-4.4285-3.5683-6.97889-10.27834-28.26531-1.65656-5.25509-2.49388-7.90489-2.93663-8.99353-2.69505-6.62617-4.92794-9.0706-12.6643-21.47428-5.61084-8.99595-6.60444-11.18628-7.15815-12.48074-2.64712-6.18887-3.72718-11.74536-4.22143-15.60102,0,0,2.68232,3.60559,3.73726,6.60712s4.08209,11.22905,6.65927,14.45052,9.08249,12.80575,10.53215,15.544,3.49724,4.88527,6.10138,11.06115c2.69397,6.38891,5.16838,14.85338,6.46456,21.33429,1.12751,5.63757,4.64867,16.99671,14.45447,23.02546,6.07784,3.73675,16.06492,3.19596,18.15888,3.19596s16.2313-.63203,22.26093,1.09762c1.79415,.51467,7.18336,3.03911,7.18336,3.03911Z"/><path class="h" d="M480.87718,134.47421l-1.93493-6.59328s41.97615-11.43765,55.91782-15.42942c14.5186-4.15696,57.91161-17.18623,57.91161-17.18623l1.70706,7.3573s-68.88788,18.54877-91.16053,26.62066c-5.41595,1.96281-22.44103,5.23098-22.44103,5.23098Z"/><path class="h" d="M674.99196,74.34109s-2.43027,8.45005-3.72027,11.09981c-1.26992,2.60852-5.03578,7.78887-3.99898,10.96024,.46266,1.4152,5.27973,2.03019,6.19455,.07858,.42319-.9028,1.62189-5.45996,3.13281-9.94291,1.75529-5.208,3.81981-10.36608,3.81981-10.36608l-5.42793-1.82964Z"/><path class="h" d="M653.46935,519.07814c-.44482-2.36664-1.37915-4.6347-2.56079-6.73267-4.12903-7.33167-11.29456-12.57336-11.29456-12.57336l-14.88867,17.87793,.53271,.48615,3.83313,3.6557,11.61206-12.17236s4.88525,6.1311,6.29858,9.82043c1.41321,3.68939,3.16211,14.62927,2.59668,19.95239-.56531,5.32306-2.11157,5.36505-8.18872,6.77832-6.07703,1.41327-13.71826-.33295-18.65527-2.54388-4.92517-2.20575-7.76953-6.67401-7.76953-6.67401l9.73804-10.49023-4.32007-3.93408-1.78223,1.76434-12.50562,12.37921s5.61597,6.95477,12.2583,11.47723c1.90442,1.29663,4.31421,2.18854,6.88464,2.81177,6.3949,1.55054,13.81433,1.38751,17.14099,1.28674,4.66382-.14136,10.74097-2.9679,12.43689-8.76233,1.69592-5.79443,.64001-13.73492-1.36658-24.40729Z"/></g><g id="c"><polygon class="i" points="265.91584 242.90488 276.81325 253.44806 276.21914 268.20982 265.2053 268.20982 265.91584 242.90488"/><polygon class="i" points="276.81325 250.16403 277.62414 242.42872 268.96 242.42872 276.81325 250.16403"/><polygon class="i" points="293.62549 268.89731 278.79497 255.4752 278.79497 268.20982 278.79497 268.66314 293.62549 268.89731"/><polygon class="i" points="279.2633 252.27152 297.99659 269.4437 305.09962 269.52175 306.58268 242.42872 283.00996 242.42872 279.57552 244.93432 279.2633 252.27152"/><path class="i" d="M308.61211,201.30138l-21.38717-.31222,.00004-.00002c-.0127,.01784-1.21828,1.71146-1.23098,1.7293-.03514,.04935-2.01223,2.8267-2.04737,2.87601l-.00002-.00002-.93666,35.67129h23.57271l2.02944-39.96434Z"/><polygon class="i" points="288.42121 277.41332 265.2053 329.20992 264.73076 329.2214 274.0874 328.99503 304.33632 303.21344 304.33632 277.41332 288.42121 277.41332"/><polygon class="i" points="310.53304 297.83137 331.88089 278.84986 310.82526 278.06357 310.53304 297.83137"/><polygon class="i" points="277.55842 329.14595 302.30825 330.35325 302.98736 307.41438 277.55842 329.14595"/><polygon class="i" points="327.96357 330.95691 332.56643 280.70267 310.23122 301.28344 309.02391 330.95691 327.96357 330.95691"/><polygon class="i" points="262.6822 268.31378 263.09802 242.63663 249.99956 242.22081 245.5497 244.81971 244.84599 262.07641 250.20747 268.10587 262.6822 268.31378"/><path class="i" d="M244.52652,283.37958c.90902-.73713,2.13848-1.91469,3.1251-3.64609,1.08229-1.8994,1.02498-1.58012,1.88089-2.44072l8.52771,.0308c.21521,.00076,.30998,.27144,.14234,.40632-.02199,.01764-3.4966,3.59907-5.05806,5.06343-.07579,.07108-.14516,.11835-.22433,.18564-1.5627,1.32822-7.96825,5.41188-8.00499,5.44143-.28414-.04859-.58429-.10278-.59251-.26934-.06482-1.31681-.43113-2.68074,.20385-4.77148Z"/><path class="i" d="M245.55105,290.55705c.25518-2.65736,4.30753-2.08434,9.7502-6.77942,3.43598-2.96399,3.61175-4.51223,5.63677-6.3224,0,0,24.2993-.16245,23.91844,.15235l-21.30827,47.24544c-.2097,.46496-.89972,.36833-.96413-.13765-.4482-3.52102-1.95835-11.57888-6.90194-20.44714-4.45858-7.9982-10.23368-12.64273-10.13108-13.71118Z"/><polygon class="i" points="332.56643 270.13073 313.28521 224.2056 310.83487 269.48273 332.56643 270.13073"/><path class="i" d="M332.14504,260.40639l-18.5523-44.50422,.30753-13.57189,16.36472,.34792,2.05077,57.69087c.00351,.09878-.1327,.12856-.17073,.03733Z"/><polygon class="i" points="315.21838 180.21888 329.89207 198.37271 314.70367 198.02789 315.21623 180.29341 315.21838 180.21888"/><polygon class="i" points="309.5948 172.02727 287.89939 144.71166 286.63224 190.68436 288.57995 195.6049 308.36466 196.73253 309.5948 172.02727"/><polygon class="i" points="293.09046 146.09188 310.40113 168.1744 310.72243 148.03959 293.09046 146.09188"/><polygon class="i" points="314.97665 175.61517 317.59069 177.87042 325.07403 163.62133 316.25804 150.08982 314.97665 175.61517"/><polygon class="i" points="329.58453 194.47728 326.30416 166.38914 319.12836 179.71563 329.58453 194.47728"/><path class="i" d="M433.70317,520.75064c-4.94321-1.09911-9.63701-2.07068-14.34894-3.45059-7.93253-2.32308-15.60022-6.89084-26.19069-9.68908l-11.27916,6.02393,13.39574,16.10735s2.80434,2.09396,8.4894,1.61074,29.93365-10.60234,29.93365-10.60234Z"/><path class="i" d="M328.85282,159.07286l9.19636-5.27109s-7.2898-5.04678-9.19636-5.38324-8.63561,0-8.63561,0c0,0,5.27109,6.26521,6.05614,7.45041s2.57947,3.20391,2.57947,3.20391Z"/><path class="i" d="M634.86188,85.07497l-.85383,6.34275s5.67188-.73186,8.66029-.85383,15.00304,1.70766,15.00304,1.70766l-22.8095-7.19658Z"/><polygon class="i" points="680.62468 109.16143 685.66346 106.60481 675.98304 101.0696 680.62468 109.16143"/><path class="i" d="M681.46147,110.929l4.58882-2.39136s.13117,1.68041-.38684,3.16694c-.518,1.48652-1.90016,3.87788-1.90016,3.87788l-2.30182-4.65346Z"/><path class="i" d="M687.08439,108.53764s.51705,2.58525,0,4.00714-2.0682,3.94251-2.0682,3.94251c0,0,10.40564,20.73403,13.57258,27.94674,3.16694,7.21271,3.2962,8.50533,4.45956,9.79796s2.45599,1.42189,6.5924,1.87431,8.27281,3.94251,8.27281,3.94251c0,0,2.45599,2.39136,4.58882,2.58525s4.78272,.38779,4.78272,.38779v-10.27638l-4.97661,1.42189s-2.13283,1.09873-4.65346-3.23157c-2.52062-4.3303-9.72971-18.49725-11.7629-23.20265-2.2621-5.23514-11.11659-22.61763-11.11659-22.61763l-7.69113,3.42213Z"/><path class="i" d="M714.10029,185.38429l-10.85806-28.63168s5.55829-.06463,9.30691,1.80968c3.74862,1.87431,5.29977,3.87788,7.30334,4.45956s4.26567,1.0341,6.20461,1.0341,1.228,.06463,1.228,.06463l.51705,4.1364s-4.97661,3.49009-6.20461,5.10587c-1.228,1.61578-7.49723,12.02143-7.49723,12.02143Z"/><path class="i" d="M727.80213,170.71298l1.16336,17.45046-12.86163,3.61935-1.16336-3.1023s4.57708-8.8709,5.49366-10.40564c2.77915-4.65346,7.36797-7.56187,7.36797-7.56187Z"/><path class="i" d="M719.30273,200.64165l12.51141-3.39521,6.11138,37.94149s.33952,2.54641,0,3.14057-1.44297,2.63129-3.90449,2.37665-4.41378,0-5.85674-1.86737-3.22545-16.79867-4.15913-20.6221c-.93368-3.82343-4.70242-17.57403-4.70242-17.57403Z"/><path class="i" d="M728.68957,243.0818l11.01843-.67904s8.06363,41.76111,7.72411,43.79823-.50928,3.64985-2.03713,4.92306-4.66842,2.20689-6.62066,1.44297-3.64985-8.41621-3.64985-8.87652-6.4349-40.60869-6.4349-40.60869Z"/><path class="i" d="M749.12972,299.01791s-2.03713-2.80105-3.14057-3.05569-4.3289-2.37665-4.3289-2.37665c0,0,4.07425-.71079,4.49866-1.45884s2.12201-2.19101,2.12201-2.19101l.8488,9.08219Z"/><path class="i" d="M749.97852,302.17726s-3.81961-4.60232-5.6021-5.536c-1.78249-.93368-5.4059-2.88593-6.31036-2.97081l-.90446-.08488s3.31033,6.92189,4.83818,10.16649,2.97081,6.63981,2.97081,6.63981l5.00794-8.21461Z"/><path class="i" d="M750.82732,304.19561l-5.43234,10.50123s4.05122,6.25849,5.43234,9.70476c1.38111,3.44627,3.77221,10.17123,3.77221,10.17123,0,0-1.79332-18.82989-2.3911-22.86487-.59777-4.03498-1.38111-7.51236-1.38111-7.51236Z"/><path class="i" d="M752.95566,334.57283l-15.79406-2.54054s3.51486-8.66773,4.49866-9.71383,3.39837-3.88553,3.39837-3.88553c0,0,2.44943,3.68521,4.07109,6.90502s3.82594,9.23488,3.82594,9.23488Z"/><path class="i" d="M735.07281,329.85669v-14.42813s3.1867,.12747,4.65258,.57361,3.50537,1.91202,3.50537,1.91202c0,0-2.9955,2.67683-4.07898,4.01524s-4.07898,7.92726-4.07898,7.92726Z"/><path class="i" d="M735.39148,313.13414s.89228-15.61483,.63734-16.82578c-.25494-1.21095,4.64661,8.49853,5.09872,9.81504,1.46588,4.26848,2.44252,8.73156,2.44252,8.73156l-8.17858-1.40215"/><path class="i" d="M747.44254,343.50673l-12.36973-2.26124s-.3867,10.59958-3.35458,21.19916c-2.96788,10.59958-6.92506,23.31907-9.89294,28.26554s-7.98723,11.44754-7.98723,11.44754l23.32353,15.26339s-2.047-20.54523,0-34.08633c2.047-13.54111,6.00418-28.94583,7.27613-32.05504,1.27195-3.10921,3.00482-7.77302,3.00482-7.77302Z"/><path class="i" d="M711.52195,408.06207l-18.87617,21.23058s7.78418,7.34533,8.73023,8.05383,7.16447,1.13248,8.57775,.99115,16.78206,.70664,20.68654-1.5546c3.90448-2.26124,7.579-9.04497,7.579-9.04497l-26.69735-19.67598Z"/><polygon class="i" points="692.64578 438.38063 689.60257 436.07639 642.39911 493.03146 644.80168 494.91063 692.64578 438.38063"/><polygon class="i" points="639.61402 499.77214 637.75403 498.33287 623.44547 516.45118 624.7253 517.65006 639.61402 499.77214"/><path class="i" d="M620.40299,522.52845l-1.41414-1.31915s-6.13866,6.34746-10.39815,9.85527-7.1409,7.60025-17.91488,13.029-15.96042,7.57876-20.47085,9.29131c-2.94489,1.11813-6.83994,2.4849-6.83994,2.4849l2.50558,3.96716s12.02677-2.71438,15.45106-4.05068,17.03793-9.49228,18.04016-10.34193,9.47981-5.6862,9.47981-5.6862l-2.72648-3.08608,14.28783-14.14361Z"/><path class="i" d="M558.94486,557.06895s-4.88455,.49842-8.87193,.49842-11.86247-.49842-11.86247-.49842l-6.87824,28.11107,2.69149,2.29275,26.37924-9.0713s.46123-8.07446,0-11.46374c-.46123-3.38928-1.45808-9.86878-1.45808-9.86878Z"/><path class="i" d="M530.7341,555.87274l-15.12274-5.28329s.62743,3.38928,0,7.37666-6.20977,25.41959-6.20977,25.41959l12.95901,2.99054,8.37351-30.50351Z"/><path class="i" d="M510.69749,557.66706l1.69464-7.7754-19.53819-6.18045-2.19306,4.88455s12.46058,4.08707,14.65364,5.28329,5.38297,3.78802,5.38297,3.78802Z"/><path class="i" d="M486.97254,547.10049l1.89401-5.38297-13.55711-4.88455s-1.2959,2.99419-1.2959,3.69016,.99685,2.68966,2.69149,3.18809,10.26752,3.38928,10.26752,3.38928Z"/><path class="i" d="M470.02615,541.96673s2.41758,1.05541,2.74858,0,.82749-3.81372,0-4.75154c-.82749-.93782-13.62604-6.28894-13.62604-6.28894l-.331,7.22676,11.20845,3.81372Z"/><path class="i" d="M79.46569,485.30843l-22.29828-38.6781,42.97278-27.59009c.3902-.24811,.90295-.17456,1.2077,.1731l2.52985,2.88593c.18872,.21527,.50623,.26074,.7478,.10718l7.07184-4.49628c.21655-.1377,.2785-.42584,.13776-.64038l-4.35065-6.78906-55.9704,35.24939,24.25421,41.91302,3.69739-2.1347Z"/><rect class="i" x="150.88185" y="389.27266" width="10.59811" height="20.50617" transform="translate(-188.27307 143.86042) rotate(-32.06464)"/><rect class="i" x="140.17282" y="395.55801" width="10.59811" height="20.50617" transform="translate(-193.24347 139.13409) rotate(-32.06464)"/><polygon class="i" points="127.50764 405.44804 133.86815 401.46357 144.75438 418.84151 135.77301 424.46779 126.9363 410.36153 127.50764 405.44804"/><rect class="i" x="119.42865" y="413.20773" width="10.59811" height="15.53647" transform="translate(-199.58728 125.00712) rotate(-31.1129)"/><polygon class="i" points="173.23171 427.2473 168.88381 429.971 158.30343 413.08127 167.28479 407.45499 175.16177 420.02919 173.23171 427.2473"/><rect class="i" x="152.17894" y="415.01172" width="10.59811" height="19.93006" transform="translate(-201.58652 148.43158) rotate(-32.06464)"/><rect class="i" x="141.21943" y="421.37694" width="10.59811" height="19.93006" transform="translate(-206.63754 143.58446) rotate(-32.06464)"/><rect class="i" x="164.06017" y="434.64143" width="10.59811" height="22.07756" transform="translate(-205.93238 151.62306) rotate(-31.1129)"/><rect class="i" x="177.43843" y="455.4389" width="10.59811" height="23.57853" transform="translate(-215.14231 161.6356) rotate(-31.11289)"/><rect class="i" x="166.33461" y="461.55476" width="10.59811" height="23.57853" transform="translate(-219.89981 156.77773) rotate(-31.11289)"/><rect class="i" x="153.50521" y="441.01183" width="10.59811" height="22.07756" transform="translate(-210.74246 147.08542) rotate(-31.1129)"/><rect class="i" x="187.79159" y="449.19029" width="10.59811" height="23.57853" transform="translate(-210.4242 166.08649) rotate(-31.11289)"/><rect class="i" x="155.37936" y="468.75255" width="10.59811" height="23.57853" transform="translate(-225.195 152.15226) rotate(-31.11289)"/><path class="i" d="M140.17913,447.74977l5.0556-3.05127-10.59607-17.5564-9.07361,5.47632,7.60919,12.60748c.51801-.12823,1.05676-.2038,1.61444-.2038,2.21234,0,4.16864,1.07581,5.39044,2.72766Z"/><path class="i" d="M139.79058,456.18831l8.96448,14.85303,9.07361-5.47632-10.59607-17.55634-5.74878,3.46967c.00311,.08417,.0127,.16663,.0127,.25153,0,1.71393-.64825,3.27271-1.70593,4.45844Z"/><path class="i" d="M130.36303,446.69826l-16.95306-28.08911-9.07361,5.47632,19.74329,32.7121,4.4455-2.68311c-.28265-.74182-.44427-1.54346-.44427-2.38458,0-2.00659,.88574-3.80237,2.28217-5.03162Z"/><path class="i" d="M134.78869,458.4377c-1.77771,0-3.38934-.69641-4.58966-1.82513l-4.56732,2.75659,21.18311,35.09784,9.07361-5.47632-18.70953-30.99933c-.74341,.28406-1.547,.44635-2.3902,.44635Z"/><rect class="i" x="91.8991" y="423.961" width="14.42045" height="20.50617" transform="translate(-210.11294 113.67373) rotate(-31.1129)"/><rect class="i" x="103.75384" y="443.15353" width="14.42045" height="20.50617" transform="translate(-218.32493 122.56021) rotate(-31.1129)"/><rect class="i" x="116.46626" y="463.13581" width="14.42045" height="22.66741" transform="translate(-227.38001 132.15893) rotate(-31.1129)"/><rect class="i" x="129.43449" y="484.40396" width="14.42045" height="23.10461" transform="translate(-236.6173 141.95081) rotate(-31.1129)"/><rect class="i" x="77.46196" y="432.67448" width="14.42045" height="20.50617" transform="translate(-216.69219 107.46711) rotate(-31.1129)"/><rect class="i" x="89.11793" y="451.98697" width="14.42045" height="20.50617" transform="translate(-224.99476 116.26814) rotate(-31.1129)"/><rect class="i" x="101.83035" y="471.96925" width="14.42045" height="22.66741" transform="translate(-234.04984 125.86686) rotate(-31.1129)"/><rect class="i" x="114.79859" y="493.456" width="14.42045" height="22.66741" transform="translate(-243.28713 135.65874) rotate(-31.1129)"/><rect class="i" x="100.27427" y="502.59789" width="14.42045" height="22.66741" transform="translate(-250.1003 129.4687) rotate(-31.1129)"/><rect class="i" x="62.77139" y="441.54091" width="14.42045" height="20.50617" transform="translate(-223.38694 101.15154) rotate(-31.1129)"/><path class="i" d="M85.25988,480.89607l7.84882-4.73712-10.59613-17.5564-12.34607,7.45142,8.39496,13.90942c.80713-.42279,1.72382-.6651,2.69818-.6651,1.55077,0,2.95624,.60986,4.00024,1.59778Z"/><path class="i" d="M106.44628,498.25771l-11.71283-19.40674-7.8576,4.74243c.133,.48871,.21021,1.00043,.21021,1.53125,0,1.98792-.99725,3.74115-2.51697,4.7926l9.53113,15.79187,12.34607-7.45142Z"/><path class="i" d="M117.8778,414.35744l4.15228-2.39734c2.67346-1.54358,3.89673-5.28979,2.60803-8.49542l31.1218-19.82631,23.08911,38.63324,2.80313-1.87822-25.00244-41.7381-44.21027,28.12128,4.6604,7.40723c.17487,.25122,.51288,.32666,.77795,.17365Z"/><polygon class="i" points="184.15398 424.56978 180.49291 426.92714 205.56927 468.88551 106.00432 531.34169 81.21636 488.34505 77.52392 490.47688 104.4171 536.95027 211.45501 470.14504 184.15398 424.56978"/><polygon class="i" points="180.536 429.92299 174.85125 429.92299 169.94457 432.88442 181.35259 451.78615 190.4262 446.30983 180.536 429.92299"/><polygon class="i" points="687.81412 104.88452 686.62468 105.69835 673.04263 97.02495 674.36964 93.17634 687.81412 104.88452"/><path class="i" d="M409.17098,123.94921s1.51201-8.13675,3.28165-8.49068,3.89321-1.76964,3.89321-1.76964c0,0,21.94355-26.54461,25.63648-30.0839s7.9867-3.53928,11.4642-3.53928,5.01678,3.89321,8.90999,8.14035c3.89321,4.24714,15.07916,46.51825,15.07916,46.51825,0,0-11.68022-.47016-13.09106-.69392s-11.72232-2.46184-18.97062-4.23365-20.6867-3.92674-27.65875-4.78216-8.54425-1.06538-8.54425-1.06538"/><path class="i" d="M372.91499,116.39001c16.1162,.17573,35.49802,.51731,35.49802,.51731l1.37522-5.69231,4.51047-.00361,27.68362-31.14568s-8.25776-11.91558-43.60971,1.53369-42.43051,19.81998-47.38551,20.05593-4.71904,2.83143-4.71904,2.83143c0,0,7.49389,7.07856,13.303,7.55047s13.34393-.4719,13.34393-.4719v4.82469Z"/><path class="i" d="M621.03431,104.07384c-9.01699,1.80734-13.56714,3.32114-13.56725,3.32117-2.22363,.75828-4.41334,1.49656-6.56998,2.21574l2.26385,10.6848,16.51665-5.36791,1.35672-10.8538Z"/><path class="i" d="M294.50546,141.40811c1.18477-1.65292,6.95662-3.10522,16.21697-2.43004l.15418,4.08686c-1.18113-.11798-16.37115-1.65683-16.37115-1.65683Z"/><path class="i" d="M336.82997,148.26901l-.59519-11.88103c-3.39605,.14369-10.25861,3.86479-14.53412,5.85112,0,0,10.88218,2.85768,15.12931,6.02991Z"/><polygon class="i" points="571.33543 245.36169 584.93363 226.91941 583.06161 225.19533 570.47976 234.2644 571.33543 245.36169"/><polygon class="i" points="400.59554 506.86981 393.50831 505.7423 407.49766 495.97638 400.59554 506.86981"/><path class="i" d="M661.47704,107.18843c2.77478-2.1745,2.73547-3.74255,3.20837-4.39899-.93604-3.58215-6.59814-2.59839-13.96313-2.67053-5.56445-.05444-16.823,1.69141-22.88354,2.67053,0,0-1.1416,9.71967-1.02368,10.54553,.11804,.82581,1.65173,6.96057,1.65173,6.96057,0,0,12.11145-3.88867,19.51599-6.52142,7.40454-2.63275,9.82544-3.71063,13.49426-6.58569Z"/><path class="i" d="M388.84344,541.31477c3.25677,2.96069,2.74231,6.95758,11.65955,5.03314s35.41528-14.92255,35.41528-14.92255c0,0,11.39868-5.35809,16.28375-3.28564,4.32617,1.83539,4.12366,5.29181,3.40399,6.77942,.8443-1.39404,3.12286-5.47498,1.34662-6.23334-.8205-.35028-6.91095-4.24237-9.85327-4.24237s-9.8913-.06842-13.39618,1.16327c-3.50494,1.23163-27.2486,11.90601-29.50665,11.90601s-8.82684,2.31335-15.87469-7.08856c-7.04785-9.40198-10.67438-14.73914-10.67438-14.73914l-2.86725,2.53644s10.80652,20.13263,14.06323,23.09332Z"/><path class="i" d="M262.52468,388.2192s1.19609-.01405,1.79414,.40458,10.16678,7.53538,13.63545,12.37955,1.87879,7.11675,1.87879,7.11675c0,0-2.95528,1.29798-5.16804-.42749s-4.78437-3.22059-8.43245-9.9187c-3.64808-6.69811-4.28171-9.08356-3.70788-9.55468Z"/><path class="i" d="M281.6852,409.65216c.67597-.55307,2.60415,2.3148,2.60415,2.3148,0,0-.42029,1.7361,.22388,2.26658s2.2356,1.01273,2.2356,1.97723,.14468,2.36303-.5787,2.36303-2.21835,.24113-3.08641-.86805-2.1219-3.56866-2.17013-4.48493,.24113-3.13463,.7716-3.56866Z"/><path class="i" d="M357.06273,462.88802l-.17224-1.15387c.13434-.01245,.25775-.02582,.38977-.03845l-.01373-.10095c-6.68237,.61798-12.52472,.79138-16.23901,.18817-10.35242-1.68115-19.2431-5.31995-24.06714-10.44086-5.75134-6.10529-7.97107-16.11145-9.20215-20.97028-.56714-2.23834-1.0863-4.37207-1.52539-6.36963l-.24512,.13397-1.46484,.84259-.00671-.03833-12.63545,6.90593c-.08595,.04698-.1937,.01586-.24138-.06971l-3.16077-5.67277s-2.0191-3.43091-2.11554-3.76849-5.11188-4.67786-5.45465-5.20831-1.92377-4.14734-2.06848-5.30475c-.14465-1.15741-2.74878-2.31482-3.90619-2.6524-.89246-.26031-3.21858-1.58151-4.23678-2.17275-.15108-.08773-.32356,.07148-.24955,.22973,.59409,1.27031,2.16682,4.57453,3.28071,6.37973,1.3985,2.2666,9.16272,12.68323,10.56128,15.38385,1.37478,2.6548,4.55041,7.92608,4.65768,8.10408,.00448,.00744,.00426,.00812,.00762,.01613,1.90407,4.5285,5.30435,13.03872,5.65031,16.84427,.48322,5.31537,6.604,20.61737,10.79193,25.44958,4.18787,4.83221,16.4295,5.63757,18.61713,5.95972s16.62189-.74255,22.93982,.16107c7.12463,1.01901,12.6619,4.90679,14.07098,5.97399,.12775,.09675,.30674-.01072,.28308-.16922l-4.24518-28.44204Z"/></g><g id="d"><polygon class="j" points="261.95346 239.77674 261.95346 242.07426 269.23424 242.28218 269.23424 240.24864 279.06922 240.24864 279.06922 235.0577 269.23424 235.0577 269.23424 232.46222 261.95346 232.46222 261.95346 234.46782 252.63335 234.46782 252.63335 239.65876 261.95346 239.77674"/><rect class="j" x="277.00972" y="220.17799" width="4.7413" height="12.87411"/><rect class="j" x="277.49294" y="174.8899" width="5.79126" height="14.25935"/><rect class="j" x="257.23442" y="174.59496" width="14.98296" height="7.42462"/><polygon class="j" points="284.30992 172.65913 284.30992 149.64303 279.50954 149.64303 279.50954 168.45461 265.93576 168.45461 262.62325 161.93797 258.88608 163.81219 263.37227 172.65913 284.30992 172.65913"/><polygon class="j" points="285.9026 255.2611 285.9026 251.10244 293.89973 251.10244 293.89973 259.41975 289.90117 259.41975 289.90117 255.41081 285.9026 255.2611"/><polygon class="j" points="288.43909 289.5276 292.3323 289.5276 292.3323 297.52474 284.01498 297.52474 284.01498 293.52617 288.31399 293.52617 288.43909 289.5276"/><path class="j" d="M587.94426,305.15255v-11.85575h16.20286v2.50288s3.49992,.26346,3.59419,2.89807c.09427,2.63461-2.93554,3.33297-2.93554,3.33297v3.12183h-16.86151Z"/><path class="j" d="M545.7554,493.67632s.04538,.96644-.58134,1.20805-4.73409-1.69127-4.73409-1.69127l-.84564-2.4161,1.20805-3.26174s3.66953-2.05369,4.37167-1.93288,.58206,1.24144,.58206,1.24144c0,0,4.83148-2.32869,6.03953-2.20788s5.67784,2.2953,5.79865,4.34898c.12081,2.05369-2.53691,5.84045-5.67784,5.94035-3.14093,.0999-6.16106-1.22895-6.16106-1.22895Z"/><path id="e" class="j" d="M552.40216,288.32076l-1.68005-1.20996v-3.03003l-1.51001-.88-1.56995,.41003-.53992,1.08997-2.89014-.62v-4.42999h-.78992v-5.67999l-1.20007-3.13h-5.79004v-9.40002h-7.16992v2.61005h-8.08008l-5.41992,2.92999-.23999,3.97998,.47998,11.87-6.52002,.52002,.25,5.17999-2.59998,.15002,.35999,6.79999,2.69995-.09003,.17017,3.71002,4.75-.21002,.40991,6.38,6.92993-.62-.3999-7.13,11.37-.77997,.25989,2.95996,6.81006-.42999-.12988-2.76001,3.62988-.26996,1.42004,1.63995,1.63,.19,2.05005-2.94h1.51001l1.07983-1.44995-.35986-2.23004,1.07996-1.5v-1.63Zm-17.03992-7.20996l-4.69006,.01996-1.05994,1.20001,.15991,2.17004-8.43994,.45996-.19006-2.33002-2.16003,.13-.51001-8.76996,16.89014,.28998v6.83002Z"/><rect class="j" x="251.76283" y="219.58811" width="4.7413" height="12.87411"/><rect class="j" x="262.93966" y="150.82305" width="12.62169" height="4.5988" transform="translate(-38.55833 187.70623) rotate(-36.03741)"/><polygon class="j" points="279.78846 192.99331 279.78846 194.99514 275.41236 194.99514 275.41236 198.27724 279.56733 198.27724 279.56733 200.39547 282.81452 200.39547 282.81452 192.99331 279.78846 192.99331"/><polygon id="f" class="j" points="242.48743 257.72945 242.48743 251.16372 225.68708 251.16372 225.68708 257.75387 224.37806 257.75387 224.37806 265.6877 222.38013 265.6877 222.38013 275.80776 224.37806 275.80776 224.37806 283.98861 226.16999 283.98861 226.16999 290.33175 242.48743 290.33175 242.48743 283.72512 231.86957 283.72512 231.86957 275.80776 232.82355 275.80776 232.82355 265.6877 231.86957 265.6877 231.86957 257.72945 242.48743 257.72945"/><polygon class="j" points="646.6601 199.30819 643.5683 198.64266 644.16425 195.61104 642.25592 195.23592 642.4217 194.39266 638.90375 193.70113 638.73798 194.54445 635.57026 193.92177 635.74274 193.04409 632.2248 192.35262 632.05231 193.23031 628.90375 192.61141 629.06952 191.76815 625.5517 191.07662 625.38593 191.91994 623.45832 191.54104 622.93549 194.20119 621.88422 193.97487 621.10187 197.60903 622.21845 197.84939 621.60566 200.96688 623.53315 201.34578 623.35395 202.25789 626.87177 202.94936 627.05097 202.03725 630.19965 202.65615 630.02704 203.53383 633.54486 204.2253 633.71747 203.34762 636.8852 203.9703 636.706 204.88241 640.22382 205.57387 640.40314 204.66176 642.31147 205.03689 642.85126 202.29085 645.87763 202.94234 646.6601 199.30819"/><path class="j" d="M583.51122,215.28283c-.95754-1.414-2.33318-.59834-2.33318-.59834l-1.75954,1.0523-1.61987-2.80585-21.06822,13.56779,5.29932,9.17871,.53076-.30634h0l.0011-.00073,20.53636-13.26072-1.82886-3.1676,2.24025-1.3775s.95653-.87198,.00188-2.28173Z"/><rect class="j" x="560.47893" y="224.12742" width=".41322" height="12.1488" transform="translate(-35.83808 337.53645) rotate(-32.52197)"/><rect class="j" x="562.93392" y="222.63456" width=".41322" height="12.1488" transform="translate(-34.65051 338.62221) rotate(-32.52197)"/><rect class="j" x="565.06856" y="221.2735" width=".41322" height="12.1488" transform="translate(-33.58403 339.5564) rotate(-32.52197)"/><rect class="j" x="567.61293" y="219.61602" width=".41322" height="12.1488" transform="translate(-32.29393 340.66439) rotate(-32.52197)"/><rect class="j" x="570.16766" y="217.98709" width=".41322" height="12.1488" transform="translate(-31.01757 341.78244) rotate(-32.52197)"/><rect class="j" x="572.50737" y="216.53045" width=".41322" height="12.1488" transform="translate(-29.86754 342.81189) rotate(-32.52197)"/><rect class="j" x="578.84223" y="212.33217" width=".41322" height="12.1488" transform="translate(-26.61705 345.55931) rotate(-32.52197)"/><rect class="j" x="576.77782" y="213.73643" width=".41322" height="12.1488" transform="translate(-27.69574 344.66965) rotate(-32.52197)"/><rect class="j" x="574.74692" y="215.06731" width=".41322" height="12.1488" transform="translate(-28.72973 343.78649) rotate(-32.52197)"/></g></svg>