<?xml version="1.0" encoding="UTF-8" standalone="no"?> <!-- Created with Vectornator for iOS (http://vectornator.io/) --><!DOCTYPE svg PUBLIC "-//W3C//DTD SVG 1.1//EN" "http://www.w3.org/Graphics/SVG/1.1/DTD/svg11.dtd">
<svg height="100%" style="fill-rule:nonzero;clip-rule:evenodd;stroke-linecap:round;stroke-linejoin:round;" xmlns:xlink="http://www.w3.org/1999/xlink" xmlns="http://www.w3.org/2000/svg" xml:space="preserve" width="100%" xmlns:vectornator="http://vectornator.io" version="1.1" viewBox="0 0 867.11 310.93">
<metadata>
<vectornator:setting key="IsolateActiveLayer" value="0"/>
<vectornator:setting key="DynamicGuides" value="0"/>
<vectornator:setting key="CMYKEnabledKey" value="0"/>
<vectornator:setting key="PencilOnly" value="0"/>
<vectornator:setting key="OutlineMode" value="0"/>
<vectornator:setting key="RulersVisible" value="1"/>
<vectornator:setting key="GuidesVisible" value="1"/>
<vectornator:setting key="SnapToGrid" value="0"/>
<vectornator:setting key="Units" value="Pixels"/>
<vectornator:setting key="doHistoryDisabled" value="0"/>
<vectornator:setting key="TimeLapseWatermarkDisabled" value="0"/>
<vectornator:setting key="DisplayWhiteBackground" value="0"/>
<vectornator:setting key="DimensionsVisible" value="1"/>
<vectornator:setting key="SnapToEdges" value="0"/>
<vectornator:setting key="SnapToPoints" value="0"/>
<vectornator:setting key="SnapToGuides" value="1"/>
</metadata>
<defs/>
<g id="Livello 1" vectornator:layerName="Livello 1">
<g opacity="1">
<path d="M33.4778+66.705C30.6778+66.705+28.3562+66.0983+26.5128+64.885C24.6695+63.6717+23.7478+61.8983+23.7478+59.565C23.7478+58.025+24.1795+56.7767+25.0428+55.82C25.9062+54.8633+27.0378+54.385+28.4378+54.385C29.5578+54.385+30.4445+54.6883+31.0978+55.295C31.7512+55.9017+32.2062+56.5433+32.4628+57.22C32.7195+57.8967+32.8478+58.3283+32.8478+58.515C31.4945+59.495+30.8178+60.6383+30.8178+61.945C30.8178+62.8317+31.0978+63.5783+31.6578+64.185C32.2178+64.7917+32.9878+65.095+33.9678+65.095C35.4612+65.095+36.6395+64.08+37.5028+62.05C38.3662+60.02+38.7978+56.5083+38.7978+51.515L38.7978+11.825L32.3578+10.845L32.3578+9.305L52.6578+9.305L52.6578+10.845L46.2178+11.825L46.2178+51.515C46.2178+54.7817+45.9028+57.5+45.2728+59.67C44.6428+61.84+43.3945+63.555+41.5278+64.815C39.6612+66.075+36.9778+66.705+33.4778+66.705Z" opacity="1" fill="#ffffff"/>
<path d="M71.5578+66.005C68.1978+66.005+65.5495+65.165+63.6128+63.485C61.6762+61.805+60.7078+59.3083+60.7078+55.995L60.7078+31.145L55.8078+30.445L55.8078+29.045L67.7078+29.045L67.7078+55.855C67.7078+58.235+68.1978+60.1017+69.1778+61.455C70.1578+62.8083+71.6745+63.485+73.7278+63.485C75.8745+63.485+77.9395+62.7733+79.9228+61.35C81.9062+59.9267+83.6678+58.165+85.2078+56.065L85.2078+31.145L80.3078+30.445L80.3078+29.045L92.2078+29.045L92.2078+63.205L97.1078+63.905L97.1078+65.305L85.2078+65.305L85.2078+58.585C83.5278+60.9183+81.5095+62.7383+79.1528+64.045C76.7962+65.3517+74.2645+66.005+71.5578+66.005Z" opacity="1" fill="#ffffff"/>
<path d="M100.258+65.305L100.258+63.905L105.508+63.205L105.508+11.405L100.258+10.705L100.258+9.305L112.508+9.305L112.508+63.205L117.408+63.905L117.408+65.305L100.258+65.305Z" opacity="1" fill="#ffffff"/>
<path d="M128.258+20.925C126.951+20.925+125.831+20.47+124.898+19.56C123.965+18.65+123.498+17.5417+123.498+16.235C123.498+14.9283+123.953+13.8317+124.863+12.945C125.773+12.0583+126.905+11.615+128.258+11.615C129.518+11.615+130.591+12.0583+131.478+12.945C132.365+13.8317+132.808+14.9283+132.808+16.235C132.808+17.5417+132.365+18.65+131.478+19.56C130.591+20.47+129.518+20.925+128.258+20.925ZM120.838+65.305L120.838+63.905L125.738+63.205L125.738+31.215L120.838+30.515L120.838+29.115L132.738+29.115L132.738+63.205L137.638+63.905L137.638+65.305L120.838+65.305Z" opacity="1" fill="#ffffff"/>
<path d="M156.048+66.005C152.688+66.005+150.04+65.165+148.103+63.485C146.166+61.805+145.198+59.3083+145.198+55.995L145.198+31.145L140.298+30.445L140.298+29.045L152.198+29.045L152.198+55.855C152.198+58.235+152.688+60.1017+153.668+61.455C154.648+62.8083+156.165+63.485+158.218+63.485C160.365+63.485+162.43+62.7733+164.413+61.35C166.396+59.9267+168.158+58.165+169.698+56.065L169.698+31.145L164.798+30.445L164.798+29.045L176.698+29.045L176.698+63.205L181.598+63.905L181.598+65.305L169.698+65.305L169.698+58.585C168.018+60.9183+166+62.7383+163.643+64.045C161.286+65.3517+158.755+66.005+156.048+66.005Z" opacity="1" fill="#ffffff"/>
<path d="M200.148+66.005C196.321+66.005+193.125+65.1883+190.558+63.555C187.991+61.9217+186.708+59.7983+186.708+57.185C186.708+55.8317+187.07+54.77+187.793+54C188.516+53.23+189.485+52.845+190.698+52.845C191.631+52.845+192.425+53.0783+193.078+53.545C193.731+54.0117+194.198+54.665+194.478+55.505C193.451+56.625+192.938+57.815+192.938+59.075C192.938+60.5217+193.591+61.7817+194.898+62.855C196.205+63.9283+197.955+64.465+200.148+64.465C203.088+64.465+205.491+63.8+207.358+62.47C209.225+61.14+210.158+59.355+210.158+57.115C210.158+55.8083+209.761+54.8283+208.968+54.175C208.175+53.5217+206.635+52.775+204.348+51.935L193.778+48.085C189.625+46.5917+187.548+43.815+187.548+39.755C187.548+36.4417+188.691+33.7233+190.978+31.6C193.265+29.4767+196.415+28.415+200.428+28.415C203.741+28.415+206.576+29.1733+208.933+30.69C211.29+32.2067+212.468+34.365+212.468+37.165C212.468+38.285+212.165+39.1833+211.558+39.86C210.951+40.5367+210.158+40.875+209.178+40.875C208.198+40.875+207.393+40.6067+206.763+40.07C206.133+39.5333+205.818+38.7983+205.818+37.865C206.425+37.3983+206.845+36.8967+207.078+36.36C207.311+35.8233+207.428+35.1817+207.428+34.435C207.428+33.1283+206.856+32.055+205.713+31.215C204.57+30.375+202.808+29.955+200.428+29.955C198.375+29.955+196.613+30.27+195.143+30.9C193.673+31.53+192.565+32.3583+191.818+33.385C191.071+34.4117+190.698+35.4617+190.698+36.535C190.698+37.655+191.106+38.5417+191.923+39.195C192.74+39.8483+194.245+40.5717+196.438+41.365L206.238+44.865C208.525+45.705+210.251+46.8717+211.418+48.365C212.585+49.8583+213.168+51.795+213.168+54.175C213.168+57.5817+212.095+60.405+209.948+62.645C207.801+64.885+204.535+66.005+200.148+66.005Z" opacity="1" fill="#ffffff"/>
<path d="M263.568+66.705C258.481+66.705+253.931+65.4683+249.918+62.995C245.905+60.5217+242.778+57.0567+240.538+52.6C238.298+48.1433+237.178+43.045+237.178+37.305C237.178+31.565+238.298+26.4667+240.538+22.01C242.778+17.5533+245.905+14.0883+249.918+11.615C253.931+9.14167+258.481+7.905+263.568+7.905C268.655+7.905+273.205+9.14167+277.218+11.615C281.231+14.0883+284.358+17.5533+286.598+22.01C288.838+26.4667+289.958+31.565+289.958+37.305C289.958+43.045+288.838+48.1433+286.598+52.6C284.358+57.0567+281.231+60.5217+277.218+62.995C273.205+65.4683+268.655+66.705+263.568+66.705ZM263.568+65.095C266.928+65.095+269.95+64.2083+272.633+62.435C275.316+60.6617+277.428+58.0833+278.968+54.7C280.508+51.3167+281.278+47.315+281.278+42.695L281.278+31.915C281.278+27.295+280.508+23.2933+278.968+19.91C277.428+16.5267+275.316+13.9483+272.633+12.175C269.95+10.4017+266.928+9.515+263.568+9.515C260.161+9.515+257.128+10.4017+254.468+12.175C251.808+13.9483+249.708+16.5267+248.168+19.91C246.628+23.2933+245.858+27.295+245.858+31.915L245.858+42.695C245.858+47.315+246.628+51.3167+248.168+54.7C249.708+58.0833+251.808+60.6617+254.468+62.435C257.128+64.2083+260.161+65.095+263.568+65.095Z" opacity="1" fill="#ffffff"/>
<path d="M310.118+66.005C307.038+66.005+304.576+65.235+302.733+63.695C300.89+62.155+299.968+59.705+299.968+56.345L299.968+31.145L294.998+30.445L294.998+29.045L299.968+29.045L299.968+23.235L306.968+21.485L306.968+29.045L316.068+29.045L316.068+30.445L306.968+31.145L306.968+56.205C306.968+61.1517+308.741+63.625+312.288+63.625C313.035+63.625+313.746+63.5083+314.423+63.275C315.1+63.0417+315.636+62.8083+316.033+62.575C316.43+62.3417+316.675+62.1783+316.768+62.085L317.678+63.205C315.578+65.0717+313.058+66.005+310.118+66.005Z" opacity="1" fill="#ffffff"/>
<path d="M334.408+66.005C331.328+66.005+328.866+65.235+327.023+63.695C325.18+62.155+324.258+59.705+324.258+56.345L324.258+31.145L319.288+30.445L319.288+29.045L324.258+29.045L324.258+23.235L331.258+21.485L331.258+29.045L340.358+29.045L340.358+30.445L331.258+31.145L331.258+56.205C331.258+61.1517+333.031+63.625+336.578+63.625C337.325+63.625+338.036+63.5083+338.713+63.275C339.39+63.0417+339.926+62.8083+340.323+62.575C340.72+62.3417+340.965+62.1783+341.058+62.085L341.968+63.205C339.868+65.0717+337.348+66.005+334.408+66.005Z" opacity="1" fill="#ffffff"/>
<path d="M363.458+66.005C360.098+66.005+357.041+65.2233+354.288+63.66C351.535+62.0967+349.353+59.88+347.743+57.01C346.133+54.14+345.328+50.8617+345.328+47.175C345.328+43.4883+346.133+40.2217+347.743+37.375C349.353+34.5283+351.535+32.3233+354.288+30.76C357.041+29.1967+360.098+28.415+363.458+28.415C366.818+28.415+369.875+29.1967+372.628+30.76C375.381+32.3233+377.563+34.5283+379.173+37.375C380.783+40.2217+381.588+43.4883+381.588+47.175C381.588+50.8617+380.783+54.14+379.173+57.01C377.563+59.88+375.381+62.0967+372.628+63.66C369.875+65.2233+366.818+66.005+363.458+66.005ZM363.458+64.465C366.911+64.465+369.513+63.205+371.263+60.685C373.013+58.165+373.888+54.8283+373.888+50.675L373.888+43.675C373.888+39.5217+373.013+36.1967+371.263+33.7C369.513+31.2033+366.911+29.955+363.458+29.955C360.005+29.955+357.403+31.2033+355.653+33.7C353.903+36.1967+353.028+39.5217+353.028+43.675L353.028+50.675C353.028+54.8283+353.903+58.165+355.653+60.685C357.403+63.205+360.005+64.465+363.458+64.465Z" opacity="1" fill="#ffffff"/>
</g>
<g opacity="1">
<path d="M105.5+292.688C87.3333+292.688+71.4167+288.271+57.75+279.438C44.0833+270.604+33.5417+258.271+26.125+242.438C18.7083+226.604+15+208.354+15+187.688C15+167.021+18.9167+148.771+26.75+132.938C34.5833+117.104+45.5417+104.771+59.625+95.9378C73.7083+87.1045+89.8333+82.6878+108+82.6878C125.167+82.6878+139.667+87.0211+151.5+95.6878L166.75+82.6878L172+82.6878L172+144.688L166.75+144.688L150.25+103.438C138.25+93.4378+124.167+88.4378+108+88.4378C96.3333+88.4378+85.875+91.4378+76.625+97.4378C67.375+103.438+60.125+112.188+54.875+123.688C49.625+135.188+47+148.854+47+164.688L47+210.438C47+226.271+49.4583+239.938+54.375+251.438C59.2917+262.938+66.125+271.729+74.875+277.813C83.625+283.896+93.8333+286.938+105.5+286.938C119.833+286.938+130.958+282.521+138.875+273.688C146.792+264.854+150.75+253.021+150.75+238.188L150.75+214.938L127.5+211.438L127.5+205.938L202.25+205.938L202.25+211.438L179+214.938L179+238.188C179+247.688+176.417+256.563+171.25+264.813C166.083+273.063+158+279.771+147+284.938C136+290.104+122.167+292.688+105.5+292.688Z" opacity="1" fill="#ffffff"/>
<path d="M211.5+282.688L229+280.188L229+165.688L211.5+163.188L211.5+158.188L254+158.188L254+177.438C264.5+163.104+276.333+155.938+289.5+155.938C295.833+155.938+301.417+157.563+306.25+160.813C311.083+164.063+313.5+168.688+313.5+174.688C313.5+179.021+312.083+182.646+309.25+185.563C306.417+188.479+302.667+189.938+298+189.938C292.667+189.938+288.333+187.854+285+183.688C286.833+181.354+287.75+178.854+287.75+176.188C287.75+173.354+286.792+171.063+284.875+169.313C282.958+167.563+280.417+166.688+277.25+166.688C273.75+166.688+270.167+168.313+266.5+171.563C262.833+174.813+258.667+179.854+254+186.688L254+280.188L274+282.688L274+287.688L211.5+287.688L211.5+282.688Z" opacity="1" fill="#ffffff"/>
<path d="M348.75+129.188C344.083+129.188+340.083+127.563+336.75+124.313C333.417+121.063+331.75+117.104+331.75+112.438C331.75+107.771+333.375+103.854+336.625+100.688C339.875+97.5211+343.917+95.9378+348.75+95.9378C353.25+95.9378+357.083+97.5211+360.25+100.688C363.417+103.854+365+107.771+365+112.438C365+117.104+363.417+121.063+360.25+124.313C357.083+127.563+353.25+129.188+348.75+129.188ZM322.25+287.688L322.25+282.688L339.75+280.188L339.75+165.938L322.25+163.438L322.25+158.438L364.75+158.438L364.75+280.188L382.25+282.688L382.25+287.688L322.25+287.688Z" opacity="1" fill="#ffffff"/>
<path d="M394.25+282.688L411.75+280.188L411.75+165.688L394.25+163.188L394.25+158.188L436.75+158.188L436.75+181.188C442.75+173.354+449.542+167.188+457.125+162.688C464.708+158.188+472.917+155.938+481.75+155.938C491.917+155.938+500.208+158.146+506.625+162.563C513.042+166.979+517.083+173.604+518.75+182.438C524.75+174.271+531.583+167.813+539.25+163.063C546.917+158.313+555.333+155.938+564.5+155.938C576.333+155.938+585.542+158.896+592.125+164.813C598.708+170.729+602+179.688+602+191.688L602+280.188L619.5+282.688L619.5+287.688L562+287.688L562+282.688L577+280.188L577+192.188C577+183.354+575.417+176.604+572.25+171.938C569.083+167.271+563.917+164.938+556.75+164.938C549.917+164.938+543.292+167.271+536.875+171.938C530.458+176.604+524.667+182.604+519.5+189.938L519.5+280.188L534.5+282.688L534.5+287.688L479.25+287.688L479.25+282.688L494.25+280.188L494.25+192.188C494.25+183.354+492.667+176.604+489.5+171.938C486.333+167.271+481.167+164.938+474+164.938C467.167+164.938+460.542+167.271+454.125+171.938C447.708+176.604+441.917+182.604+436.75+189.938L436.75+280.188L451.75+282.688L451.75+287.688L394.25+287.688L394.25+282.688Z" opacity="1" fill="#ffffff"/>
<path d="M630.75+282.688L648.25+280.188L648.25+165.688L630.75+163.188L630.75+158.188L673.25+158.188L673.25+181.188C679.25+173.354+686.042+167.188+693.625+162.688C701.208+158.188+709.417+155.938+718.25+155.938C728.417+155.938+736.708+158.146+743.125+162.563C749.542+166.979+753.583+173.604+755.25+182.438C761.25+174.271+768.083+167.813+775.75+163.063C783.417+158.313+791.833+155.938+801+155.938C812.833+155.938+822.042+158.896+828.625+164.813C835.208+170.729+838.5+179.688+838.5+191.688L838.5+280.188L856+282.688L856+287.688L798.5+287.688L798.5+282.688L813.5+280.188L813.5+192.188C813.5+183.354+811.917+176.604+808.75+171.938C805.583+167.271+800.417+164.938+793.25+164.938C786.417+164.938+779.792+167.271+773.375+171.938C766.958+176.604+761.167+182.604+756+189.938L756+280.188L771+282.688L771+287.688L715.75+287.688L715.75+282.688L730.75+280.188L730.75+192.188C730.75+183.354+729.167+176.604+726+171.938C722.833+167.271+717.667+164.938+710.5+164.938C703.667+164.938+697.042+167.271+690.625+171.938C684.208+176.604+678.417+182.604+673.25+189.938L673.25+280.188L688.25+282.688L688.25+287.688L630.75+287.688L630.75+282.688Z" opacity="1" fill="#ffffff"/>
</g>
</g>
</svg>
